<svg xmlns="http://www.w3.org/2000/svg" width="7.962" height="7.962" viewBox="0 0 7.962 7.962">
  <path id="link" d="M5.078,2.882a2.362,2.362,0,0,1,.006,3.337l-.006.006L4.033,7.27A2.364,2.364,0,0,1,.691,3.927l.577-.577a.249.249,0,0,1,.424.165,2.865,2.865,0,0,0,.151.82.25.25,0,0,1-.059.258l-.2.2A1.12,1.12,0,1,0,3.154,6.39L4.2,5.346a1.119,1.119,0,0,0,0-1.583,1.165,1.165,0,0,0-.161-.133.249.249,0,0,1-.108-.2.619.619,0,0,1,.182-.463l.327-.327a.25.25,0,0,1,.32-.027,2.371,2.371,0,0,1,.319.267ZM7.27.691a2.366,2.366,0,0,0-3.343,0L2.882,1.736l-.006.006a2.364,2.364,0,0,0,.325,3.6.25.25,0,0,0,.32-.027l.327-.327a.619.619,0,0,0,.182-.463.249.249,0,0,0-.108-.2A1.165,1.165,0,0,1,3.762,4.2a1.119,1.119,0,0,1,0-1.583L4.807,1.57A1.12,1.12,0,1,1,6.38,3.164l-.2.2a.25.25,0,0,0-.059.258,2.865,2.865,0,0,1,.151.82.249.249,0,0,0,.424.165l.577-.577a2.366,2.366,0,0,0,0-3.343Z" transform="translate(0.001 0)" fill="#8c99ad"/>
</svg>
