<svg xmlns="http://www.w3.org/2000/svg" width="13.188" height="13.187" viewBox="0 0 13.188 13.187"><path d="M12.245,32H.939A.946.946,0,0,0,0,32.951V44.236a.946.946,0,0,0,.939.951H12.245a.948.948,0,0,0,.942-.951V32.951A.948.948,0,0,0,12.245,32ZM3.986,43.3H2.031V37.01H3.988V43.3ZM3.008,36.15a1.133,1.133,0,1,1,1.133-1.133A1.134,1.134,0,0,1,3.008,36.15Zm8.3,7.153H9.358V40.242c0-.73-.015-1.669-1.016-1.669-1.018,0-1.174.795-1.174,1.616V43.3H5.213V37.01H7.088v.86h.026a2.059,2.059,0,0,1,1.851-1.016c1.978,0,2.346,1.3,2.346,3Z" transform="translate(0 -32)" fill="#8c99ad"/></svg>