<svg xmlns="http://www.w3.org/2000/svg" xmlns:xlink="http://www.w3.org/1999/xlink" width="658.012" height="655.301" viewBox="0 0 658.012 655.301"><defs><linearGradient id="a" x1="0.041" y1="0.361" x2="1.169" y2="0.631" gradientUnits="objectBoundingBox"><stop offset="0" stop-color="#0058a1"/><stop offset="0.42" stop-color="#0063ad"/><stop offset="1" stop-color="#3ad6ff"/></linearGradient><linearGradient id="c" x1="0.258" y1="0.964" x2="0.603" y2="-0.277" gradientUnits="objectBoundingBox"><stop offset="0" stop-color="#48bcff"/><stop offset="0.714" stop-color="#0059a3"/><stop offset="1" stop-color="#0059a3"/></linearGradient></defs><g transform="translate(58.336 -783.116)"><g transform="translate(-42.56 804.636)"><circle cx="289.91" cy="289.91" r="289.91" transform="translate(606.81 19.265) rotate(90)" opacity="0.05" fill="url(#a)"/><circle cx="199.131" cy="199.131" r="199.131" transform="translate(117.77 110.044)" opacity="0.2" fill="url(#a)"/><g transform="matrix(0.875, -0.485, 0.485, 0.875, 0, 220.52)" fill="none" stroke="#1fa9f9" stroke-linecap="round" stroke-width="2" stroke-dasharray="0 130"><circle cx="227.43" cy="227.43" r="227.43" stroke="none"/><circle cx="227.43" cy="227.43" r="226.43" fill="none"/></g></g><path d="M3388.923,249.287l75.529,43.818,75.011-43.818-75.011-42.9Z" transform="translate(-3192.438 934.536)" fill="#05335a" opacity="0.2"/><g transform="translate(109.347 1143.157)" opacity="0.1"><path d="M304.909,113.36,223.47,160.372V254.4l81.436-47.01,0-94.032L223.47,66.349,142.044,113.36l-.011,94.036L223.47,254.4" transform="translate(-142.033 -66.349)" fill="none" stroke="#00e5ff" stroke-linecap="round" stroke-linejoin="round" stroke-width="2"/><line x2="81.426" y2="47.012" transform="translate(0.011 47.012)" stroke-width="2" stroke="#00e5ff" stroke-linecap="round" stroke-linejoin="round" fill="none"/></g><g transform="translate(28.017 1002.272)" opacity="0.1"><path d="M304.909,113.36,223.47,160.372V254.4l81.436-47.01,0-94.032L223.47,66.349,142.044,113.36l-.011,94.036L223.47,254.4" transform="translate(-142.033 -66.349)" fill="none" stroke="#00e5ff" stroke-linecap="round" stroke-linejoin="round" stroke-width="2"/><line x2="81.426" y2="47.012" transform="translate(0.011 47.012)" stroke-width="2" stroke="#00e5ff" stroke-linecap="round" stroke-linejoin="round" fill="none"/></g><g transform="translate(354.112 1002.272)" opacity="0.1"><path d="M304.909,113.36,223.47,160.372V254.4l81.436-47.01,0-94.032L223.47,66.349,142.044,113.36l-.011,94.036L223.47,254.4" transform="translate(-142.033 -66.349)" fill="none" stroke="#00e5ff" stroke-linecap="round" stroke-linejoin="round" stroke-width="2"/><line x2="81.426" y2="47.012" transform="translate(0.011 47.012)" stroke-width="2" stroke="#00e5ff" stroke-linecap="round" stroke-linejoin="round" fill="none"/></g><g transform="translate(109.347 861.987)" opacity="0.1"><path d="M304.909,113.36,223.47,160.372V254.4l81.436-47.01,0-94.032L223.47,66.349,142.044,113.36l-.011,94.036L223.47,254.4" transform="translate(-142.033 -66.349)" fill="none" stroke="#00e5ff" stroke-linecap="round" stroke-linejoin="round" stroke-width="2"/><line x2="81.426" y2="47.012" transform="translate(0.011 47.012)" stroke-width="2" stroke="#00e5ff" stroke-linecap="round" stroke-linejoin="round" fill="none"/></g><g transform="translate(272.008 861.987)" opacity="0.1"><path d="M304.909,113.36,223.47,160.372V254.4l81.436-47.01,0-94.032L223.47,66.349,142.044,113.36l-.011,94.036L223.47,254.4" transform="translate(-142.033 -66.349)" fill="none" stroke="#00e5ff" stroke-linecap="round" stroke-linejoin="round" stroke-width="2"/><line x2="81.426" y2="47.012" transform="translate(0.011 47.012)" stroke-width="2" stroke="#00e5ff" stroke-linecap="round" stroke-linejoin="round" fill="none"/></g><g transform="translate(272.008 1143.157)" opacity="0.1"><path d="M304.909,113.36,223.47,160.372V254.4l81.436-47.01,0-94.032L223.47,66.349,142.044,113.36l-.011,94.036L223.47,254.4" transform="translate(-142.033 -66.349)" fill="none" stroke="#00e5ff" stroke-linecap="round" stroke-linejoin="round" stroke-width="2"/><line x2="81.426" y2="47.012" transform="translate(0.011 47.012)" stroke-width="2" stroke="#00e5ff" stroke-linecap="round" stroke-linejoin="round" fill="none"/></g><g transform="translate(72.836 899.174)"><g transform="translate(-56 -49.74)" fill="none" stroke="#00e5ff" stroke-linecap="round" stroke-width="3" stroke-dasharray="270 270" opacity="0.8"><circle cx="255.065" cy="255.065" r="255.065" stroke="none"/><circle cx="255.065" cy="255.065" r="253.565" fill="none"/></g><circle cx="7.204" cy="7.204" r="7.204" transform="translate(15.353 110.468)" fill="#00e5ff"/><circle cx="7.204" cy="7.204" r="7.204" transform="translate(191.861)" fill="#00e5ff"/><circle cx="7.204" cy="7.204" r="7.204" transform="translate(308.332 357.819)" fill="#00e5ff"/></g><path d="M3388.923,245.153l68.25,39.6,67.783-39.6-67.783-38.768Z" transform="translate(-3185.184 886.512)" fill="#00e5ff" opacity="0.3"/><path d="M3388.923,245.153l68.25,39.6,67.783-39.6-67.783-38.768Z" transform="translate(-3185.184 863.275)" fill="#00e5ff" opacity="0.3"/><path d="M3388.923,245.153l68.25,39.6,67.783-39.6-67.783-38.768Z" transform="translate(-3185.184 840.813)" fill="#00e5ff" opacity="0.3"/><path d="M3388.923,245.153l68.25,39.6,67.783-39.6-67.783-38.768Z" transform="translate(-3185.184 817.575)" fill="#00e5ff" opacity="0.3"/><path d="M3293.624,1321.26l82.749-47.552,81.306,47.552" transform="translate(-3103.763 -177.409)" fill="none" stroke="#00e5ff" stroke-width="1" stroke-dasharray="2"/><g transform="translate(190.677 1002.272)"><path d="M304.909,113.36,223.47,160.372V254.4l81.436-47.01,0-94.032L223.47,66.349,142.044,113.36l-.011,94.036L223.47,254.4" transform="translate(-142.033 -66.349)" fill="none" stroke="#00e5ff" stroke-linecap="round" stroke-linejoin="round" stroke-width="2"/><line x2="81.426" y2="47.012" transform="translate(0.011 47.012)" stroke-width="2" stroke="#00e5ff" stroke-linecap="round" stroke-linejoin="round" fill="none"/></g><g transform="translate(408.71 1033.865)"><path d="M3293.624,1289.257l27.059-15.55,26.587,15.55" transform="translate(-3293.624 -1242.786)" fill="none" stroke="#00e5ff" stroke-width="1"/><g transform="translate(0 0)"><path d="M202.225,230.781l-13.134-7.618a6.672,6.672,0,0,0-6.533,0l-15.179,8.827c-2.05,1.18-2.056,1.184-.006,2.367l18.452,10.653s17.531-10.091,18.451-10.633c2.049-1.2,2.051-1.206.013-2.411C203.293,231.377,202.28,230.813,202.225,230.781Zm4.949,6.637-19.337,11.1v21.119a1.611,1.611,0,0,0,2.421,1.37l14.92-8.648a6.322,6.322,0,0,0,3.2-5.479V238.106a.78.78,0,0,0-.776-.788A.844.844,0,0,0,207.174,237.418Zm-43.9.688v18.772a6.321,6.321,0,0,0,3.2,5.479l14.92,8.514a1.61,1.61,0,0,0,2.421-1.37V248.516l-19.337-11.1a.833.833,0,0,0-1.1.284A.727.727,0,0,0,163.277,238.106Z" transform="translate(-158.836 -216.304)" fill="url(#c)"/><path d="M195.77,81.859,168.9,97.369v31.023l26.868-15.51V81.859L168.9,66.349l-26.865,15.51,0,31.025L168.9,128.392" transform="translate(-142.033 -66.349)" fill="none" stroke="#00e5ff" stroke-linecap="round" stroke-linejoin="round" stroke-width="2"/><line x2="26.865" y2="15.51" transform="translate(0.003 15.51)" stroke-width="2" stroke="#00e5ff" stroke-linecap="round" stroke-linejoin="round" fill="none"/></g></g><g transform="translate(109.724 1143.854)"><path d="M3293.624,1289.257l27.059-15.55,26.587,15.55" transform="translate(-3293.624 -1242.786)" fill="none" stroke="#00e5ff" stroke-width="1"/><g transform="translate(0 0)"><path d="M202.225,230.781l-13.134-7.618a6.672,6.672,0,0,0-6.533,0l-15.179,8.827c-2.05,1.18-2.056,1.184-.006,2.367l18.452,10.653s17.531-10.091,18.451-10.633c2.049-1.2,2.051-1.206.013-2.411C203.293,231.377,202.28,230.813,202.225,230.781Zm4.949,6.637-19.337,11.1v21.119a1.611,1.611,0,0,0,2.421,1.37l14.92-8.648a6.322,6.322,0,0,0,3.2-5.479V238.106a.78.78,0,0,0-.776-.788A.844.844,0,0,0,207.174,237.418Zm-43.9.688v18.772a6.321,6.321,0,0,0,3.2,5.479l14.92,8.514a1.61,1.61,0,0,0,2.421-1.37V248.516l-19.337-11.1a.833.833,0,0,0-1.1.284A.727.727,0,0,0,163.277,238.106Z" transform="translate(-158.836 -216.304)" fill="url(#c)"/><path d="M195.77,81.859,168.9,97.369v31.023l26.868-15.51V81.859L168.9,66.349l-26.865,15.51,0,31.025L168.9,128.392" transform="translate(-142.033 -66.349)" fill="none" stroke="#00e5ff" stroke-linecap="round" stroke-linejoin="round" stroke-width="2"/><line x2="26.865" y2="15.51" transform="translate(0.003 15.51)" stroke-width="2" stroke="#00e5ff" stroke-linecap="round" stroke-linejoin="round" fill="none"/></g></g><g transform="translate(-58.336 783.116)"><g transform="translate(2.711 0)" fill="none" stroke="#00e5ff" stroke-linecap="round" stroke-linejoin="round" stroke-width="2" stroke-dasharray="0 144" opacity="0.4"><circle cx="327.651" cy="327.651" r="327.651" stroke="none"/><circle cx="327.651" cy="327.651" r="326.651" fill="none"/></g><circle cx="4.312" cy="4.312" r="4.312" transform="translate(232.844 616.057)" fill="#00e5ff"/><circle cx="4.312" cy="4.312" r="4.312" transform="translate(0 285.763)" fill="#00e5ff"/><circle cx="4.312" cy="4.312" r="4.312" transform="translate(607.982 198.662)" fill="#00e5ff"/></g></g></svg>