<svg xmlns="http://www.w3.org/2000/svg" xmlns:xlink="http://www.w3.org/1999/xlink" width="766.706" height="766.706" viewBox="0 0 766.706 766.706"><defs><linearGradient id="a" x1="0.561" y1="-0.046" x2="0.566" y2="1.066" gradientUnits="objectBoundingBox"><stop offset="0" stop-color="#0058a1"/><stop offset="0.42" stop-color="#0063ad"/><stop offset="1" stop-color="#3ad6ff"/></linearGradient><linearGradient id="b" x1="0.041" y1="0.361" x2="1.169" y2="0.631" xlink:href="#a"/><linearGradient id="c" x1="0.747" y1="0.045" x2="-0.509" y2="1.079" xlink:href="#a"/><linearGradient id="d" x1="0.258" y1="0.964" x2="0.603" y2="-0.277" gradientUnits="objectBoundingBox"><stop offset="0" stop-color="#48bcff"/><stop offset="0.714" stop-color="#0059a3"/><stop offset="1" stop-color="#0059a3"/></linearGradient></defs><g transform="translate(-230.727 -11.727)"><circle cx="366.079" cy="366.079" r="366.079" transform="translate(987.766 27.939) rotate(90)" opacity="0.05" fill="url(#a)"/><g transform="matrix(0.966, -0.259, 0.259, 0.966, 230.727, 173.751)" fill="none" stroke="#f3f5f7" stroke-linecap="round" stroke-width="2" stroke-dasharray="0 224" opacity="0.8"><circle cx="313.006" cy="313.006" r="313.006" stroke="none"/><circle cx="313.006" cy="313.006" r="312.006" fill="none"/></g><circle cx="196.053" cy="196.053" r="196.053" transform="translate(425.634 199.027)" opacity="0.2" fill="url(#b)"/><g transform="translate(456.722 237.722)" fill="none" stroke="#1fa9f9" stroke-linecap="round" stroke-width="2" stroke-dasharray="1 15"><circle cx="157.358" cy="157.358" r="157.358" stroke="none"/><circle cx="157.358" cy="157.358" r="156.358" fill="none"/></g><circle cx="142.808" cy="142.808" r="142.808" transform="translate(471.272 252.272)" opacity="0.5" fill="url(#c)"/><g transform="translate(376.877 157.877)" fill="none" stroke="#1fa9f9" stroke-linecap="round" stroke-linejoin="round" stroke-width="3" stroke-dasharray="0 71"><circle cx="237.203" cy="237.203" r="237.203" stroke="none"/><circle cx="237.203" cy="237.203" r="235.703" fill="none"/></g><g transform="translate(456.45 237.45)" fill="none" stroke="#00e5ff" stroke-linecap="round" stroke-width="3" stroke-dasharray="150 110" opacity="0.8"><circle cx="157.63" cy="157.63" r="157.63" stroke="none"/><circle cx="157.63" cy="157.63" r="156.13" fill="none"/></g><circle cx="5.705" cy="5.705" r="5.705" transform="translate(468.607 319.966)" fill="#00e5ff"/><circle cx="5.705" cy="5.705" r="5.705" transform="translate(608.375 232.493)" fill="#00e5ff"/><circle cx="5.705" cy="5.705" r="5.705" transform="translate(700.603 515.832)" fill="#00e5ff"/><g transform="translate(614.08 217.341) rotate(45)" fill="none" stroke="#0073b5" stroke-linecap="round" stroke-width="3" stroke-dasharray="150 110"><circle cx="125.681" cy="125.681" r="125.681" stroke="none"/><circle cx="125.681" cy="125.681" r="124.181" fill="none"/></g><ellipse cx="5.137" cy="5.137" rx="5.137" ry="5.137" transform="translate(665.098 273.763) rotate(70)" fill="#0073b5"/><g transform="translate(480.22 261.22)" fill="none" stroke="#f3f5f7" stroke-linecap="round" stroke-width="2" stroke-dasharray="0 149" opacity="0.8"><circle cx="133.86" cy="133.86" r="133.86" stroke="none"/><circle cx="133.86" cy="133.86" r="132.86" fill="none"/></g><g transform="translate(414.614 188.008)" fill="none" stroke="rgba(0,229,255,0.5)" stroke-linecap="round" stroke-linejoin="round" stroke-width="2" stroke-dasharray="150 190" opacity="0.3"><circle cx="207.072" cy="207.072" r="207.072" stroke="none"/><circle cx="207.072" cy="207.072" r="208.072" fill="none"/></g><g transform="translate(614.08 21.08) rotate(45)" fill="none" stroke="#00e5ff" stroke-linecap="round" stroke-width="3" stroke-dasharray="140 350" opacity="0.1"><circle cx="264.458" cy="264.458" r="264.458" stroke="none"/><circle cx="264.458" cy="264.458" r="262.958" fill="none"/></g><path d="M3467.345,206.384Z" transform="translate(-2853.013 215.279)" fill="#05335a" stroke="#05335a" stroke-linecap="round" stroke-linejoin="round" stroke-width="11" opacity="0.3"/><path d="M3388.923,255.436l86.354,50.1,85.762-50.1-85.762-49.052Z" transform="translate(-2860.797 210.48)" fill="#05335a" opacity="0.2"/><path d="M297.352,251.474l-45.211-26.225a22.967,22.967,0,0,0-22.489,0L177.4,255.634c-7.057,4.063-7.077,4.075-.02,8.149l63.518,36.67s60.346-34.738,63.514-36.6c7.053-4.147,7.061-4.151.044-8.3C301.028,253.526,297.541,251.584,297.352,251.474Zm17.034,22.848-66.563,38.2v72.7a5.546,5.546,0,0,0,8.335,4.717l51.36-29.77a21.762,21.762,0,0,0,11.017-18.86v-64.62a2.686,2.686,0,0,0-2.673-2.712A2.907,2.907,0,0,0,314.386,274.321Zm-151.108,2.37v64.62a21.76,21.76,0,0,0,11.017,18.86l51.359,29.31a5.544,5.544,0,0,0,8.335-4.717V312.525l-66.563-38.2a2.867,2.867,0,0,0-3.786.978A2.5,2.5,0,0,0,163.278,276.691Z" transform="translate(373.337 85.017)" fill="url(#d)"/><g transform="translate(521.327 286.657)"><path d="M327.014,119.74l-92.491,53.392V279.923l92.488-53.39,0-106.793L234.522,66.349,142.046,119.74l-.012,106.8,92.489,53.385" transform="translate(-142.033 -66.349)" fill="none" stroke="#00e5ff" stroke-linecap="round" stroke-linejoin="round" stroke-width="2"/><line x2="92.477" y2="53.392" transform="translate(0.012 53.392)" stroke-width="2" stroke="#00e5ff" stroke-linecap="round" stroke-linejoin="round" fill="none"/></g></g></svg>