<svg xmlns="http://www.w3.org/2000/svg" width="106.975" height="96.525" viewBox="0 0 106.975 96.525"><g transform="translate(-71.048 -335.919)"><path d="M150.368,393.795a22.472,22.472,0,0,0,11.921-19.917,22.916,22.916,0,0,0-.448-4.44H171a1.853,1.853,0,0,0,0-3.707H166.59a26.324,26.324,0,0,0-16.035-22.391l1.429-2.952c.02-.043.031-.089.049-.133,0-.005.007-.009.009-.015s0-.021.009-.032a1.9,1.9,0,0,0,.083-.309c0-.017.005-.034.007-.052a1.715,1.715,0,0,0,.019-.309l0-.058a1.885,1.885,0,0,0-.04-.295c0-.02-.01-.04-.014-.061a1.935,1.935,0,0,0-.093-.271c-.01-.022-.019-.045-.031-.067a1.783,1.783,0,0,0-.135-.238c-.018-.025-.035-.049-.054-.073a1.714,1.714,0,0,0-.167-.194c-.027-.028-.057-.055-.086-.081a2.269,2.269,0,0,0-.182-.144c-.041-.028-.085-.054-.128-.079s-.068-.046-.106-.065-.058-.019-.087-.031-.042-.024-.065-.034a30.159,30.159,0,0,0-21.228,0c-.022.008-.041.022-.063.031s-.061.019-.09.034-.071.046-.108.067-.083.049-.123.076a1.684,1.684,0,0,0-.19.149c-.027.024-.054.049-.079.074a1.872,1.872,0,0,0-.174.2c-.016.02-.03.04-.045.062a1.941,1.941,0,0,0-.143.251l-.024.052a1.8,1.8,0,0,0-.1.287l-.011.046a1.959,1.959,0,0,0-.042.31c0,.014,0,.028,0,.042a1.868,1.868,0,0,0,.02.322c0,.013,0,.026.005.039a1.882,1.882,0,0,0,.087.319.141.141,0,0,0,.007.027l.009.019c.016.043.027.087.047.129l1.428,2.953a26.324,26.324,0,0,0-16.036,22.391h-4.412a1.853,1.853,0,1,0,0,3.707h9.161a22.927,22.927,0,0,0-.447,4.44A22.471,22.471,0,0,0,130.341,393.8a39.445,39.445,0,0,0-12.312,5.4c-.883-1.473-1.838-2.915-2.811-4.382l-.458-.684a59.837,59.837,0,0,1-3.248-5.188l-.007-.014a45.3,45.3,0,0,1-5.948-17.763,2.245,2.245,0,0,0-4.435,0c-1.387,11.165-5.785,17.8-9.678,23.666-.56.846-1.115,1.684-1.654,2.526a27.7,27.7,0,0,1-4.96-12.659,1.975,1.975,0,0,0-3.908.007c-.791,6.375-3.317,10.182-5.545,13.543s-4.327,6.525-4.327,11.343a11.787,11.787,0,0,0,14.706,11.324,19.189,19.189,0,0,0,29.442,7.429h60.973a1.854,1.854,0,0,0,1.853-1.853C178.022,410.911,166.291,397.757,150.368,393.795Zm-32.537-28.062a22.616,22.616,0,0,1,13.941-19.048l.7,1.439a1.854,1.854,0,1,0,3.337-1.614l-2.819-5.826a27.021,27.021,0,0,1,14.737,0L144.9,346.51a1.854,1.854,0,0,0,3.338,1.614l.7-1.439a22.62,22.62,0,0,1,13.942,19.048Zm4.3,8.146a19.134,19.134,0,0,1,.522-4.44h35.412a19.2,19.2,0,0,1,.521,4.44,18.234,18.234,0,1,1-36.456,0Zm-37.379,44a8.643,8.643,0,0,1-10.51-8.284c0-3.856,1.675-6.382,3.8-9.579a36.291,36.291,0,0,0,4.841-9.332,36.28,36.28,0,0,0,4.838,9.329l.245.372a26.092,26.092,0,0,0-3.713,13.2A18.6,18.6,0,0,0,84.748,417.877Zm18.589,11.376a15.805,15.805,0,0,1-15.9-15.671c0-6.933,3.094-11.6,6.679-17.006,3.388-5.108,7.209-10.867,9.223-19.609,2.013,8.737,5.832,14.5,9.222,19.609,1.021,1.54,2,3.02,2.88,4.509a35.085,35.085,0,0,1,1.761,3.33,21.491,21.491,0,0,1,2.037,9.167,15.451,15.451,0,0,1-4.647,11.059l-.014.015a15.876,15.876,0,0,1-5.955,3.692A16.058,16.058,0,0,1,103.337,429.253Zm15.452-4.612a18.606,18.606,0,0,0,3.639-11.057l-.175-2.962a25.325,25.325,0,0,0-2.45-8.161,36.554,36.554,0,0,1,20.549-6.185c18.025,0,32.81,12.564,33.892,28.365Z" transform="translate(0 0)" fill="#0059a3"/><path d="M126.717,439.928a1.6,1.6,0,0,0-2.945.116,15.9,15.9,0,0,1-6.194,7.74,16.2,16.2,0,0,1-2.816,1.487,1.595,1.595,0,1,0,1.2,2.957,19.368,19.368,0,0,0,3.1-1.6,19.1,19.1,0,0,0,7.7-9.475A1.584,1.584,0,0,0,126.717,439.928Z" transform="translate(-10.767 -25.983)" fill="#0059a3"/></g></svg>