<svg xmlns="http://www.w3.org/2000/svg" width="111.534" height="90.265" viewBox="0 0 111.534 90.265"><g transform="translate(-242.756 -170.212)"><path d="M376.516,234.655q-3.15,0-6.3,0c-.03,0-.06,0-.088,0a4.7,4.7,0,0,0,.1,9.4q3.143,0,6.284,0h.093a4.7,4.7,0,0,0-.091-9.4Zm-4.717,6.271-1.572,0a1.567,1.567,0,0,1,.007-3.134q.783,0,1.565,0Zm5.818-.471a1.583,1.583,0,0,1-1.106.468c-.527,0-1.051,0-1.578,0v-3.143c.527,0,1.051,0,1.578.005a1.566,1.566,0,0,1,1.106,2.665Z" transform="translate(-33.19 -17.421)" fill="#0059a3"/><path d="M345.492,270.425a4.762,4.762,0,0,0-3.34-1.408q-3.147,0-6.3,0H335.8a4.7,4.7,0,0,0,.071,9.4q3.142,0,6.283,0h.093a4.7,4.7,0,0,0,3.247-7.994Zm-8.055,4.864c-.523,0-1.048,0-1.572,0a1.567,1.567,0,0,1,.007-3.134h1.565Zm4.712,0c-.526,0-1.052,0-1.578.005v-3.14h1.572a1.567,1.567,0,0,1,.943.32,1.566,1.566,0,0,1-.937,2.814Z" transform="translate(-23.901 -26.71)" fill="#0059a3"/><path d="M359.809,226.762a1.583,1.583,0,0,0-1-.665c-.05-.009-.1-.015-.152-.022a1.963,1.963,0,0,0-.307,0,1.578,1.578,0,0,0-.447.111,1.6,1.6,0,0,0-.959,1.294c-.005.052-.005.1-.008.154V233.9a1.541,1.541,0,0,0,.03.306,1.567,1.567,0,0,0,3.1-.153c0-.051,0-.1.007-.153v-6.268c0-.052,0-.1-.007-.154A1.586,1.586,0,0,0,359.809,226.762Z" transform="translate(-30.868 -15.1)" fill="#0059a3"/><path d="M354.279,203.118v-.061a4.7,4.7,0,0,0-4.685-4.626q-7.062-.012-14.119-.014v-25.06a3.132,3.132,0,0,0-3.125-3.132q-25.86-.039-51.721,0c-.052,0-.1,0-.154.008a1.326,1.326,0,0,0-.152.022,1.576,1.576,0,0,0-.566.235,1.607,1.607,0,0,0-.131.1c-.036.03-.071.063-.107.1l-12.536,12.536c-.034.038-.07.074-.1.115a1.549,1.549,0,0,0-.26.463,1.47,1.47,0,0,0-.088.377c0,.052,0,.1-.008.154v34.286c-.119.034-.236.063-.356.1l-2.862,1.093a37.836,37.836,0,0,0-10.919,7.786,36.053,36.053,0,0,0-8.637,12.988c-1.624,4.655-1.25,8.486,1.05,10.787l7.082,7.078a7.555,7.555,0,0,0,5.526,2.024,21.027,21.027,0,0,0,10.166-3.29,3.187,3.187,0,0,0,2.076.8q24.556.037,49.112.005,15.415.007,30.83-.005a4.7,4.7,0,0,0,4.687-4.7Q354.279,228.2,354.279,203.118Zm-75.218-27.544v7.185h-7.186Zm-24.65,54.037a32.519,32.519,0,0,1,12.114-8.048,14.461,14.461,0,0,1,3.092-.693c.331-.033.654-.055.962-.055a4.9,4.9,0,0,1,3.561,1.209,3.825,3.825,0,0,1,.884,1.48,7.286,7.286,0,0,1,.249,3.134,14.6,14.6,0,0,1-.726,3.167l-4.931,1.19-3.089.746L249.286,235.9A39.066,39.066,0,0,1,254.411,229.61Zm-7.587,19.722c-1.461-1.461-1.6-4.305-.371-7.821a22.842,22.842,0,0,1,.926-2.213l19.146-4.621,3.089-.746,3.481-.84a37.269,37.269,0,0,1-6.543,8.654l-.027.027a33.167,33.167,0,0,1-11.879,7.932C251.136,250.928,248.285,250.793,246.824,249.333Zm19.7,5.172c-5.608,3.413-10.545,3.987-12.619,1.916l-3.046-3.035a16.641,16.641,0,0,0,4.722-.968,36.027,36.027,0,0,0,10.944-6.69c.7-.625,1.391-1.267,2.044-1.947q.543-.543,1.057-1.094a39.863,39.863,0,0,0,5.062-6.647,30.259,30.259,0,0,0,1.649-3.135,19.654,19.654,0,0,0,1.77-6.268h.631l2.474,2.474A5.016,5.016,0,0,1,282.4,232.9a12.64,12.64,0,0,1-.537,3.135c-.086.295-.169.588-.276.893a33.781,33.781,0,0,1-7.958,11.907c-.928.929-3.166,2.868-3.166,2.868-.27.22-.539.422-.808.63A34.558,34.558,0,0,1,266.525,254.5Zm16.812-14.326a19.04,19.04,0,0,0,1.471-4.139h16.18q0,3.132,0,6.268H282.159C282.6,241.553,283.009,240.828,283.337,240.179Zm17.651-7.274H285.306a8.084,8.084,0,0,0-2.063-5.823l-.445-.445h18.192Q300.991,229.771,300.988,232.9Zm-29.92,21.939c.261-.2.522-.394.781-.6l3.26-2.862c.183-.176.366-.346.547-.526a39,39,0,0,0,4.487-5.416h20.848q0,3.926.007,7.851c0,.025,0,.05,0,.075a4.666,4.666,0,0,0,.269,1.476ZM301,203.13V204.7H274.36a1.539,1.539,0,0,0-.306.029,1.561,1.561,0,0,0-.432.155,1.565,1.565,0,0,0-.474,2.376,1.577,1.577,0,0,0,1.058.565c.052,0,.1,0,.153.008H301q0,3.134,0,6.268H274.36c-.052,0-.1,0-.153.008a1.567,1.567,0,0,0-.153,3.1,1.54,1.54,0,0,0,.306.029h26.635q0,3.134,0,6.269H279.665l-2.165-2.165L276.162,220a7.987,7.987,0,0,0-6.542-1.969q.021-16.069.039-32.138h9.4a3.146,3.146,0,0,0,1.805-.574,3.18,3.18,0,0,0,1.327-2.551q.008-4.705,0-9.411h50.146q.019,12.528,0,25.057-13.328-.005-26.655.015c-.06,0-.119,0-.18.005A4.7,4.7,0,0,0,301,203.13Zm50.146,50.156a1.569,1.569,0,0,1-1.558,1.558q-7.672.035-15.346.036h0l-.028-.006a1.488,1.488,0,0,0-.306-.03h-4.7v-4.7c0-.052,0-.1-.007-.153a1.57,1.57,0,0,0-1.254-1.384c-.05-.009-.1-.014-.152-.022a2.056,2.056,0,0,0-.307,0,1.567,1.567,0,0,0-1.405,1.406c-.005.051-.005.1-.008.153v4.7H305.7a1.57,1.57,0,0,1-.928-.307,1.594,1.594,0,0,1-.634-1.249q-.022-4.553-.031-9.1a1.6,1.6,0,0,0,0-.628q-.01-4.368-.009-8.735a1.592,1.592,0,0,0,.012-.654c-.005-.019-.008-.039-.012-.058q0-4.358,0-8.714a1.551,1.551,0,0,0,.008-.63.239.239,0,0,1-.007-.031q.005-4.405.015-8.811a1.637,1.637,0,0,0,0-.506q.009-4.527.017-9.053a1.466,1.466,0,0,0,0-.212q0-1.511.005-3.024a1.582,1.582,0,0,1,.324-.951,1.6,1.6,0,0,1,1.244-.611q10.185,0,20.37-.025v4.726a1.541,1.541,0,0,0,.03.306,1.567,1.567,0,0,0,3.1-.152c0-.052,0-.1.007-.154v-4.729q2.205,0,4.41,0a1.583,1.583,0,0,0,.6,0q7.683,0,15.369.031a1.626,1.626,0,0,1,.524.093,1.6,1.6,0,0,1,1.033,1.464Q351.258,228.2,351.145,253.286Z" transform="translate(0)" fill="#0059a3"/><path d="M379.047,252.586a4.747,4.747,0,0,0-2.533-.749q-3.148,0-6.3,0c-.074,0-.146,0-.22.007a4.7,4.7,0,0,0,.232,9.4q3.143,0,6.284,0a4.7,4.7,0,0,0,2.533-8.653Zm-7.248,5.522-1.572,0a1.567,1.567,0,0,1,.007-3.135H371.8Zm4.712,0c-.527,0-1.051,0-1.578,0v-3.14H376.5a1.567,1.567,0,0,1,.007,3.135Z" transform="translate(-33.19 -22.065)" fill="#0059a3"/><path d="M345.279,253.038a4.765,4.765,0,0,0-3.127-1.2q-3.147,0-6.3,0H335.8a4.7,4.7,0,0,0,.071,9.4q3.142,0,6.283,0h.093a4.7,4.7,0,0,0,3.034-8.2Zm-7.842,5.07-1.572,0a1.567,1.567,0,0,1,.007-3.135h1.565Zm4.712,0c-.526,0-1.052,0-1.578,0v-3.14h1.572a1.567,1.567,0,0,1,.943.32,1.566,1.566,0,0,1-.937,2.814Z" transform="translate(-23.901 -22.065)" fill="#0059a3"/><path d="M360.007,244.36a1.594,1.594,0,0,0-1.194-1.083c-.05-.009-.1-.015-.152-.022a1.963,1.963,0,0,0-.307,0,1.453,1.453,0,0,0-.3.059,1.6,1.6,0,0,0-1.1,1.346c-.005.052-.005.1-.008.153v6.269c0,.052,0,.1.008.153a1.571,1.571,0,0,0,.451.954,1.567,1.567,0,0,0,2.646-.8,1.543,1.543,0,0,0,.029-.306v-6.269c0-.051,0-.1-.007-.153A1.5,1.5,0,0,0,360.007,244.36Z" transform="translate(-30.868 -19.745)" fill="#0059a3"/><path d="M379.047,269.767a4.741,4.741,0,0,0-2.533-.749q-3.148,0-6.3,0c-.074,0-.146,0-.22.007a4.7,4.7,0,0,0,.232,9.4q3.143,0,6.284,0a4.7,4.7,0,0,0,2.533-8.653Zm-7.248,5.522c-.523,0-1.049,0-1.572,0a1.567,1.567,0,0,1,.007-3.134H371.8Zm4.712,0c-.527,0-1.051,0-1.578.005v-3.14H376.5a1.567,1.567,0,0,1,.007,3.134Z" transform="translate(-33.19 -26.71)" fill="#0059a3"/><path d="M360.007,261.54a1.6,1.6,0,0,0-1.194-1.083c-.05-.009-.1-.014-.152-.022a2.061,2.061,0,0,0-.307,0,1.5,1.5,0,0,0-.3.06,1.6,1.6,0,0,0-1.1,1.346c-.005.052-.005.1-.008.153v6.268c0,.052,0,.1.008.153a1.577,1.577,0,0,0,.566,1.058,1.568,1.568,0,0,0,2.531-.906,1.531,1.531,0,0,0,.029-.305V262c0-.052,0-.1-.007-.153A1.513,1.513,0,0,0,360.007,261.54Z" transform="translate(-30.868 -24.389)" fill="#0059a3"/><path d="M367.35,225.891a4.748,4.748,0,0,0,2.88.986c2.1,0,4.19,0,6.285,0h.075a4.7,4.7,0,0,0-.075-9.4q-3.15-.005-6.3,0c-.083,0-.166,0-.247.007a4.7,4.7,0,0,0-2.62,8.409Zm7.583-5.283H376.5a1.567,1.567,0,0,1,.007,3.134c-.527,0-1.051,0-1.578,0Zm-6.152.978a1.6,1.6,0,0,1,1.453-.976H371.8v3.137l-1.572,0a1.594,1.594,0,0,1-1.29-.685A1.577,1.577,0,0,1,368.781,221.585Z" transform="translate(-33.19 -12.776)" fill="#0059a3"/><path d="M332.945,225.857a4.763,4.763,0,0,0,2.924,1.02c2.095,0,4.19,0,6.285,0a4.7,4.7,0,0,0,0-9.4q-3.15-.005-6.3,0c-.082,0-.166,0-.247.007a4.7,4.7,0,0,0-2.664,8.374Zm7.626-5.253c.527,0,1.052,0,1.578.005a1.567,1.567,0,0,1,0,3.134q-.789,0-1.578,0Zm-6.152.981a1.6,1.6,0,0,1,1.453-.976h1.565v3.138l-1.572,0a1.566,1.566,0,0,1-1.446-2.158Z" transform="translate(-23.902 -12.776)" fill="#0059a3"/><path d="M323.789,196.21l.007-.154v-3.134h3.135c.051,0,.1,0,.153-.008a1.493,1.493,0,0,0,.3-.059,1.6,1.6,0,0,0,1.1-1.346c.005-.052.005-.1.008-.153v-6.269c0-.052,0-.1-.008-.153a1.568,1.568,0,0,0-1.254-1.384c-.05-.009-.1-.014-.152-.022l-.153-.008H323.8v-3.134c0-.052,0-.1-.007-.153a1.49,1.49,0,0,0-.06-.3,1.6,1.6,0,0,0-1.194-1.083c-.05-.009-.1-.015-.152-.023l-.153-.007h-6.269c-.052,0-.1,0-.153.007a1.568,1.568,0,0,0-1.383,1.254c-.009.05-.015.1-.023.152l-.007.153v3.134H311.26c-.051,0-.1,0-.153.008a1.565,1.565,0,0,0-1.405,1.406c-.005.052-.005.1-.008.153v6.269c0,.051,0,.1.008.153a1.566,1.566,0,0,0,1.254,1.383c.05.009.1.015.152.022l.153.008h3.135v3.134c0,.052,0,.1.007.154a1.5,1.5,0,0,0,.06.3,1.6,1.6,0,0,0,1.346,1.1c.052.005.1.005.153.008h6.269c.052,0,.1,0,.153-.008a1.566,1.566,0,0,0,1.383-1.254C323.776,196.311,323.781,196.26,323.789,196.21Zm-1.559-6.422c-.052,0-.1,0-.154.008a1.566,1.566,0,0,0-1.405,1.405c-.005.052-.005.1-.008.154v3.134h-3.134v-3.134c0-.052,0-.1-.008-.154a1.573,1.573,0,0,0-.111-.447,1.592,1.592,0,0,0-1.294-.959c-.052-.005-.1-.005-.154-.008h-3.134v-3.134h3.134c.052,0,.1,0,.154-.008a1.5,1.5,0,0,0,.3-.06,1.593,1.593,0,0,0,1.083-1.194c.009-.05.014-.1.022-.152l.008-.154v-3.134h3.134v3.134c0,.052,0,.1.008.154a1.562,1.562,0,0,0,1.405,1.405c.052,0,.1,0,.154.008h3.134v3.134Z" transform="translate(-18.095 -2.327)" fill="#0059a3"/><path d="M332.979,243.062a4.734,4.734,0,0,0,2.89,1q3.142,0,6.283,0h.093a4.7,4.7,0,0,0-.09-9.4q-3.15,0-6.3,0c-.082,0-.166,0-.247.008a4.7,4.7,0,0,0-2.63,8.4Zm7.592-5.275,1.572,0a1.566,1.566,0,0,1,1.136,2.64,1.578,1.578,0,0,1-1.13.494c-.526,0-1.051,0-1.578,0Zm-6.152.978a1.6,1.6,0,0,1,1.453-.976h1.565v3.137l-1.572,0a1.566,1.566,0,0,1-1.446-2.158Z" transform="translate(-23.902 -17.421)" fill="#0059a3"/></g></svg>