<svg xmlns="http://www.w3.org/2000/svg" width="80.474" height="96.525" viewBox="0 0 80.474 96.525"><g transform="translate(-269.002 -344.407)"><path d="M329.37,392.523v-7.175a12.37,12.37,0,0,0-24.74,0v7.184a7.3,7.3,0,0,0-3.959,6.5v11.3a7.313,7.313,0,0,0,7.224,7.3h18.09a7.312,7.312,0,0,0,7.342-7.283V399.024A7.3,7.3,0,0,0,329.37,392.523Zm-20.782-7.175a8.377,8.377,0,1,1,16.753,0v6.382H308.588Zm20.782,24.987a3.345,3.345,0,0,1-3.345,3.345H307.9a3.345,3.345,0,0,1-3.345-3.345h0V399.024a3.345,3.345,0,0,1,3.345-3.344h18.09a3.345,3.345,0,0,1,3.384,3.305v11.351Z" transform="translate(-6.276 -5.662)" fill="#0059a3"/><ellipse cx="3.958" cy="3.958" rx="3.958" ry="3.958" transform="translate(306.706 395.213)" fill="#0059a3"/><path d="M309.239,344.407A153.857,153.857,0,0,1,269,366.218c.109,22.879,4.413,39.92,13.151,52.121,7.1,9.955,16.2,15.705,25.047,21.3l2.038,1.3,2.038-1.3c8.847-5.591,17.952-11.341,25.057-21.3,8.738-12.212,13.043-29.262,13.142-52.121A153.942,153.942,0,0,1,309.239,344.407Zm23.869,71.607c-6.631,9.312-15.389,14.854-23.869,20.2-8.481-5.344-17.239-10.886-23.869-20.178-7.9-11.035-11.954-26.452-12.379-47.115a157.14,157.14,0,0,0,36.249-19.574,157.358,157.358,0,0,0,36.249,19.574C345.072,389.553,341.015,404.97,333.108,416.014Z" transform="translate(0)" fill="#0059a3"/></g></svg>