<svg xmlns="http://www.w3.org/2000/svg" width="16.418" height="16.021" viewBox="0 0 16.418 16.021">
  <path id="align-justify" d="M.586,39.8H15.832c.324,0,.586-.35.586-.781V37.061c0-.432-.263-.781-.586-.781H.586c-.324,0-.586.35-.586.781v1.954C0,39.446.263,39.8.586,39.8Zm0,12.5H15.832c.324,0,.586-.35.586-.782V49.565c0-.432-.263-.781-.586-.781H.586c-.324,0-.586.35-.586.781v1.954C0,51.95.263,52.3.586,52.3Zm0-6.252H15.832c.324,0,.586-.35.586-.782V43.313c0-.432-.263-.782-.586-.782H.586c-.324,0-.586.35-.586.782v1.954C0,45.7.263,46.048.586,46.048Z" transform="translate(0 -36.279)" fill="#fff"/>
</svg>
