<svg xmlns="http://www.w3.org/2000/svg" width="13.188" height="13.187" viewBox="0 0 13.188 13.187"><path d="M0,32V45.187H13.187V32Zm10.956,3.123-.706.677a.207.207,0,0,0-.079.2v4.983a.2.2,0,0,0,.079.2l.692.677v.15H7.468v-.144l.715-.695c.071-.071.071-.091.071-.2v-4.03L6.264,41.99H6L3.679,36.939v3.385a.465.465,0,0,0,.13.389l.93,1.127v.15H2.1v-.15l.93-1.127a.451.451,0,0,0,.121-.389V36.409a.336.336,0,0,0-.112-.288l-.827-1v-.15h2.57l1.984,4.356,1.746-4.353h2.449Z" transform="translate(0 -32)" fill="#8c99ad"/></svg>