<svg xmlns="http://www.w3.org/2000/svg" xmlns:xlink="http://www.w3.org/1999/xlink" width="1280" height="471" viewBox="0 0 1280 471"><defs><clipPath id="a"><rect width="1280" height="471" transform="translate(0 6995)" fill="#0059a3"/></clipPath><linearGradient id="b" x1="0.041" y1="0.361" x2="1.169" y2="0.631" gradientUnits="objectBoundingBox"><stop offset="0" stop-color="#0058a1"/><stop offset="0.42" stop-color="#0063ad"/><stop offset="1" stop-color="#3ad6ff"/></linearGradient></defs><g transform="translate(0 -6995)" opacity="0.8" clip-path="url(#a)"><g transform="translate(-1491.922 5924.894)" opacity="0.5"><circle cx="715.014" cy="715.014" r="715.014" transform="translate(2812.885 281.802) rotate(90)" opacity="0.05" fill="url(#b)"/><g transform="matrix(0.966, -0.259, 0.259, 0.966, 1000.106, 374.023)" fill="none" stroke="#f3f5f7" stroke-linecap="round" stroke-width="2" stroke-dasharray="0 153" opacity="0.5"><circle cx="880.763" cy="880.763" r="880.763" stroke="none"/><circle cx="880.763" cy="880.763" r="879.763" fill="none"/></g><g transform="matrix(0.966, -0.259, 0.259, 0.966, 1285.984, 539.074)" fill="none" stroke="#f3f5f7" stroke-linecap="round" stroke-width="2" stroke-dasharray="0 153" opacity="0.8"><circle cx="647.345" cy="647.345" r="647.345" stroke="none"/><circle cx="647.345" cy="647.345" r="646.345" fill="none"/></g><circle cx="491.124" cy="491.124" r="491.124" transform="translate(1754.747 505.692)" opacity="0.2" fill="url(#b)"/><g transform="translate(1669.026 1188.026)" fill="none" stroke="#1fa9f9" stroke-linecap="round" stroke-width="3" stroke-dasharray="0 66"><circle cx="472.79" cy="472.79" r="472.79" stroke="none"/><circle cx="472.79" cy="472.79" r="471.29" fill="none"/></g><g transform="translate(2357.816 996.52) rotate(45)" fill="none" stroke="#0073b5" stroke-linecap="round" stroke-width="3" stroke-dasharray="150 110"><circle cx="430.837" cy="430.837" r="430.837" stroke="none"/><circle cx="430.837" cy="430.837" r="429.337" fill="none"/></g><ellipse cx="12.869" cy="12.869" rx="12.869" ry="12.869" transform="translate(2206.62 692.909) rotate(70)" fill="#0073b5"/><g transform="translate(1698.489 734.489)" fill="none" stroke="#f3f5f7" stroke-linecap="round" stroke-width="2" stroke-dasharray="0 149" opacity="0.8"><circle cx="335.327" cy="335.327" r="335.327" stroke="none"/><circle cx="335.327" cy="335.327" r="334.327" fill="none"/></g><g transform="matrix(0.875, -0.485, 0.485, 0.875, 1316.288, 778.165)" fill="none" stroke="#1fa9f9" stroke-linecap="round" stroke-width="2" stroke-dasharray="0 130"><circle cx="560.918" cy="560.918" r="560.918" stroke="none"/><circle cx="560.918" cy="560.918" r="559.918" fill="none"/></g><g transform="translate(1476.144 478.089)" fill="none" stroke="rgba(0,229,255,0.5)" stroke-linecap="round" stroke-linejoin="round" stroke-width="2" stroke-dasharray="150 190" opacity="0.3"><circle cx="518.727" cy="518.727" r="518.727" stroke="none"/><circle cx="518.727" cy="518.727" r="519.727" fill="none"/></g></g></g></svg>