<svg xmlns="http://www.w3.org/2000/svg" width="16.236" height="13.187" viewBox="0 0 16.236 13.187"><path d="M14.568,3.286c.01.144.01.288.01.433A9.4,9.4,0,0,1,5.11,13.187,9.4,9.4,0,0,1,0,11.693a6.884,6.884,0,0,0,.8.041,6.664,6.664,0,0,0,4.131-1.422A3.334,3.334,0,0,1,1.824,8a4.2,4.2,0,0,0,.628.052,3.52,3.52,0,0,0,.876-.113A3.328,3.328,0,0,1,.659,4.677V4.636a3.351,3.351,0,0,0,1.5.422A3.333,3.333,0,0,1,1.133.608,9.459,9.459,0,0,0,7.995,4.09a3.757,3.757,0,0,1-.082-.762,3.331,3.331,0,0,1,5.759-2.277,6.552,6.552,0,0,0,2.112-.8A3.319,3.319,0,0,1,14.32,2.081a6.671,6.671,0,0,0,1.916-.515A7.153,7.153,0,0,1,14.568,3.286Z" transform="translate(0)" fill="#8c99ad"/></svg>