<svg xmlns="http://www.w3.org/2000/svg" width="29.93" height="24.308" viewBox="0 0 29.93 24.308">
  <path id="twitter" d="M26.853,6.058c.019.266.019.532.019.8,0,8.109-6.172,17.453-17.453,17.453A17.334,17.334,0,0,1,0,21.555a12.689,12.689,0,0,0,1.481.076A12.285,12.285,0,0,0,9.1,19.01a6.145,6.145,0,0,1-5.735-4.254,7.736,7.736,0,0,0,1.158.095,6.488,6.488,0,0,0,1.614-.209,6.135,6.135,0,0,1-4.919-6.02V8.546a6.178,6.178,0,0,0,2.773.779,6.143,6.143,0,0,1-1.9-8.2A17.436,17.436,0,0,0,14.737,7.539a6.925,6.925,0,0,1-.152-1.405A6.14,6.14,0,0,1,25.2,1.937,12.077,12.077,0,0,0,29.094.456a6.117,6.117,0,0,1-2.7,3.38,12.3,12.3,0,0,0,3.532-.949A13.186,13.186,0,0,1,26.853,6.058Z" transform="translate(0)" fill="#fff"/>
</svg>
