<?xml version="1.0" encoding="utf-8"?>
<!-- Generator: Adobe Illustrator 22.0.1, SVG Export Plug-In . SVG Version: 6.00 Build 0)  -->
<svg version="1.1" id="Capa_1" xmlns="http://www.w3.org/2000/svg" xmlns:xlink="http://www.w3.org/1999/xlink" x="0px" y="0px"
	 viewBox="0 0 129 129" style="enable-background:new 0 0 129 129;" xml:space="preserve">
<style type="text/css">
	.st0{fill:url(#SVGID_1_);}
	.st1{opacity:0.2;fill:url(#SVGID_2_);}
	.st2{opacity:0.2;fill:url(#SVGID_3_);}
	.st3{opacity:0.2;fill:url(#SVGID_4_);}
	.st4{opacity:0.2;fill:url(#SVGID_5_);}
	.st5{opacity:0.2;fill:url(#SVGID_6_);}
	.st6{opacity:0.2;fill:url(#SVGID_7_);}
	.st7{opacity:0.2;fill:url(#SVGID_8_);}
	.st8{opacity:0.2;fill:url(#SVGID_9_);}
	.st9{opacity:0.2;fill:url(#SVGID_10_);}
	.st10{opacity:0.2;fill:url(#SVGID_11_);}
	.st11{opacity:0.2;fill:url(#SVGID_12_);}
	.st12{opacity:0.2;fill:url(#SVGID_13_);}
	.st13{opacity:0.2;fill:url(#SVGID_14_);}
	.st14{opacity:0.2;fill:url(#SVGID_15_);}
	.st15{opacity:0.2;fill:url(#SVGID_16_);}
	.st16{opacity:0.2;fill:url(#SVGID_17_);}
	.st17{opacity:0.2;fill:url(#SVGID_18_);}
	.st18{opacity:0.2;fill:url(#SVGID_19_);}
	.st19{opacity:0.2;fill:url(#SVGID_20_);}
	.st20{opacity:0.2;fill:url(#SVGID_21_);}
	.st21{opacity:0.2;fill:url(#SVGID_22_);}
	.st22{opacity:0.2;fill:url(#SVGID_23_);}
	.st23{opacity:0.2;fill:url(#SVGID_24_);}
	.st24{opacity:0.2;fill:url(#SVGID_25_);}
	.st25{opacity:0.2;fill:url(#SVGID_26_);}
	.st26{opacity:0.2;fill:url(#SVGID_27_);}
	.st27{opacity:0.2;fill:url(#SVGID_28_);}
	.st28{opacity:0.2;fill:url(#SVGID_29_);}
	.st29{opacity:0.2;fill:url(#SVGID_30_);}
	.st30{opacity:0.2;fill:url(#SVGID_31_);}
	.st31{opacity:0.2;fill:url(#SVGID_32_);}
	.st32{opacity:0.2;fill:url(#SVGID_33_);}
	.st33{opacity:0.2;fill:url(#SVGID_34_);}
	.st34{opacity:0.2;fill:url(#SVGID_35_);}
	.st35{opacity:0.2;fill:url(#SVGID_36_);}
	.st36{opacity:0.2;fill:url(#SVGID_37_);}
	.st37{opacity:0.2;fill:url(#SVGID_38_);}
	.st38{opacity:0.2;fill:url(#SVGID_39_);}
	.st39{opacity:0.2;fill:url(#SVGID_40_);}
	.st40{opacity:0.2;fill:url(#SVGID_41_);}
	.st41{opacity:0.2;fill:url(#SVGID_42_);}
	.st42{opacity:0.2;fill:url(#SVGID_43_);}
	.st43{opacity:0.2;fill:url(#SVGID_44_);}
	.st44{opacity:0.2;fill:url(#SVGID_45_);}
	.st45{opacity:0.2;fill:url(#SVGID_46_);}
	.st46{opacity:0.2;fill:url(#SVGID_47_);}
	.st47{opacity:0.2;fill:url(#SVGID_48_);}
	.st48{opacity:0.2;fill:url(#SVGID_49_);}
	.st49{opacity:0.2;fill:url(#SVGID_50_);}
	.st50{opacity:0.2;fill:url(#SVGID_51_);}
	.st51{fill:url(#SVGID_52_);}
	.st52{fill:#FFFFFF;}
	.st53{fill:url(#SVGID_53_);}
	.st54{fill:url(#SVGID_54_);}
	.st55{fill:url(#SVGID_55_);}
	.st56{fill:url(#SVGID_56_);}
	.st57{fill:url(#SVGID_57_);}
	.st58{fill:url(#SVGID_58_);}
	.st59{fill:url(#SVGID_59_);}
	.st60{fill:url(#SVGID_60_);}
	.st61{fill:url(#SVGID_61_);}
	.st62{fill:url(#SVGID_62_);}
	.st63{fill:url(#SVGID_63_);}
	.st64{fill:url(#SVGID_64_);}
	.st65{fill:url(#SVGID_65_);}
	.st66{fill:url(#SVGID_66_);}
	.st67{fill:url(#SVGID_67_);}
	.st68{fill:url(#SVGID_68_);}
	.st69{fill:url(#SVGID_69_);}
	.st70{fill:url(#SVGID_70_);}
</style>
<g>
	<linearGradient id="SVGID_1_" gradientUnits="userSpaceOnUse" x1="0" y1="64.5" x2="129" y2="64.5">
		<stop  offset="0" style="stop-color:#FFFFFF;stop-opacity:0.1"/>
		<stop  offset="1" style="stop-color:#0080C8;stop-opacity:0.1"/>
	</linearGradient>
	<circle class="st0" cx="64.5" cy="64.5" r="64.5"/>
	<linearGradient id="SVGID_2_" gradientUnits="userSpaceOnUse" x1="45.9999" y1="60.7007" x2="52.261" y2="60.7007">
		<stop  offset="0" style="stop-color:#0080C8"/>
		<stop  offset="1" style="stop-color:#0E5AA1"/>
	</linearGradient>
	<path class="st1" d="M49.1,55.1c-1.7,0-3.1,1.4-3.1,3.1v4.9c0,1.7,1.4,3.1,3.1,3.1c1.7,0,3.1-1.4,3.1-3.1v-4.9
		C52.3,56.5,50.9,55.1,49.1,55.1z M50.7,63.1c0,0.8-0.7,1.5-1.5,1.5s-1.5-0.7-1.5-1.5v-4.9c0-0.8,0.7-1.5,1.5-1.5s1.5,0.7,1.5,1.5
		V63.1z"/>
	<linearGradient id="SVGID_3_" gradientUnits="userSpaceOnUse" x1="10.8536" y1="32.0787" x2="114.5272" y2="32.0787">
		<stop  offset="0" style="stop-color:#0080C8"/>
		<stop  offset="1" style="stop-color:#0E5AA1"/>
	</linearGradient>
	<path class="st2" d="M22.3,37.6c0.4,0,0.8-0.4,0.8-0.8v-9.5c0-0.4-0.4-0.8-0.8-0.8c-0.4,0-0.8,0.4-0.8,0.8v9.5
		C21.5,37.3,21.8,37.6,22.3,37.6z"/>
	<linearGradient id="SVGID_4_" gradientUnits="userSpaceOnUse" x1="10.8536" y1="32.0787" x2="114.5272" y2="32.0787">
		<stop  offset="0" style="stop-color:#0080C8"/>
		<stop  offset="1" style="stop-color:#0E5AA1"/>
	</linearGradient>
	<path class="st3" d="M40.2,26.5c-0.4,0-0.8,0.4-0.8,0.8v9.5c0,0.4,0.4,0.8,0.8,0.8c0.4,0,0.8-0.4,0.8-0.8v-9.5
		C41,26.9,40.6,26.5,40.2,26.5z"/>
	<linearGradient id="SVGID_5_" gradientUnits="userSpaceOnUse" x1="10.8536" y1="32.0787" x2="114.5272" y2="32.0787">
		<stop  offset="0" style="stop-color:#0080C8"/>
		<stop  offset="1" style="stop-color:#0E5AA1"/>
	</linearGradient>
	<path class="st4" d="M31.2,37.6c1.7,0,3.1-1.4,3.1-3.1v-4.9c0-1.7-1.4-3.1-3.1-3.1c-1.7,0-3.1,1.4-3.1,3.1v4.9
		C28.1,36.2,29.5,37.6,31.2,37.6z M29.7,29.6c0-0.8,0.7-1.5,1.5-1.5s1.5,0.7,1.5,1.5v4.9c0,0.8-0.7,1.5-1.5,1.5s-1.5-0.7-1.5-1.5
		V29.6z"/>
	<linearGradient id="SVGID_6_" gradientUnits="userSpaceOnUse" x1="10.8536" y1="32.0787" x2="114.5272" y2="32.0787">
		<stop  offset="0" style="stop-color:#0080C8"/>
		<stop  offset="1" style="stop-color:#0E5AA1"/>
	</linearGradient>
	<path class="st5" d="M58.1,26.5c-1.7,0-3.1,1.4-3.1,3.1v4.9c0,1.7,1.4,3.1,3.1,3.1c1.7,0,3.1-1.4,3.1-3.1v-4.9
		C61.2,27.9,59.8,26.5,58.1,26.5z M59.6,34.5c0,0.8-0.7,1.5-1.5,1.5c-0.8,0-1.5-0.7-1.5-1.5v-4.9c0-0.8,0.7-1.5,1.5-1.5
		c0.8,0,1.5,0.7,1.5,1.5V34.5z"/>
	<linearGradient id="SVGID_7_" gradientUnits="userSpaceOnUse" x1="10.8536" y1="32.0787" x2="114.5272" y2="32.0787">
		<stop  offset="0" style="stop-color:#0080C8"/>
		<stop  offset="1" style="stop-color:#0E5AA1"/>
	</linearGradient>
	<path class="st6" d="M49.1,37.6c1.7,0,3.1-1.4,3.1-3.1v-4.9c0-1.7-1.4-3.1-3.1-3.1c-1.7,0-3.1,1.4-3.1,3.1v4.9
		C46,36.2,47.4,37.6,49.1,37.6z M47.6,29.6c0-0.8,0.7-1.5,1.5-1.5s1.5,0.7,1.5,1.5v4.9c0,0.8-0.7,1.5-1.5,1.5s-1.5-0.7-1.5-1.5V29.6
		z"/>
	<linearGradient id="SVGID_8_" gradientUnits="userSpaceOnUse" x1="10.8536" y1="46.3897" x2="114.5272" y2="46.3897">
		<stop  offset="0" style="stop-color:#0080C8"/>
		<stop  offset="1" style="stop-color:#0E5AA1"/>
	</linearGradient>
	<path class="st7" d="M60.4,40.8c-0.4,0-0.8,0.4-0.8,0.8v9.5c0,0.4,0.4,0.8,0.8,0.8c0.4,0,0.8-0.4,0.8-0.8v-9.5
		C61.2,41.2,60.9,40.8,60.4,40.8z"/>
	<linearGradient id="SVGID_9_" gradientUnits="userSpaceOnUse" x1="10.8536" y1="46.3897" x2="114.5272" y2="46.3897">
		<stop  offset="0" style="stop-color:#0080C8"/>
		<stop  offset="1" style="stop-color:#0E5AA1"/>
	</linearGradient>
	<path class="st8" d="M42.5,40.8c-0.4,0-0.8,0.4-0.8,0.8v9.5c0,0.4,0.4,0.8,0.8,0.8c0.4,0,0.8-0.4,0.8-0.8v-9.5
		C43.3,41.2,42.9,40.8,42.5,40.8z"/>
	<linearGradient id="SVGID_10_" gradientUnits="userSpaceOnUse" x1="10.8536" y1="46.3897" x2="114.5272" y2="46.3897">
		<stop  offset="0" style="stop-color:#0080C8"/>
		<stop  offset="1" style="stop-color:#0E5AA1"/>
	</linearGradient>
	<path class="st9" d="M51.5,40.8c-1.7,0-3.1,1.4-3.1,3.1v4.9c0,1.7,1.4,3.1,3.1,3.1s3.1-1.4,3.1-3.1V44
		C54.6,42.2,53.2,40.8,51.5,40.8z M53,48.8c0,0.8-0.7,1.5-1.5,1.5s-1.5-0.7-1.5-1.5V44c0-0.8,0.7-1.5,1.5-1.5S53,43.1,53,44V48.8z"
		/>
	<linearGradient id="SVGID_11_" gradientUnits="userSpaceOnUse" x1="10.8536" y1="46.3897" x2="114.5272" y2="46.3897">
		<stop  offset="0" style="stop-color:#0080C8"/>
		<stop  offset="1" style="stop-color:#0E5AA1"/>
	</linearGradient>
	<path class="st10" d="M24.6,40.8c-1.7,0-3.1,1.4-3.1,3.1v4.9c0,1.7,1.4,3.1,3.1,3.1c1.7,0,3.1-1.4,3.1-3.1V44
		C27.7,42.2,26.3,40.8,24.6,40.8z M26.1,48.8c0,0.8-0.7,1.5-1.5,1.5c-0.8,0-1.5-0.7-1.5-1.5V44c0-0.8,0.7-1.5,1.5-1.5
		c0.8,0,1.5,0.7,1.5,1.5V48.8z"/>
	<linearGradient id="SVGID_12_" gradientUnits="userSpaceOnUse" x1="10.8536" y1="46.3897" x2="114.5272" y2="46.3897">
		<stop  offset="0" style="stop-color:#0080C8"/>
		<stop  offset="1" style="stop-color:#0E5AA1"/>
	</linearGradient>
	<path class="st11" d="M33.6,40.8c-1.7,0-3.1,1.4-3.1,3.1v4.9c0,1.7,1.4,3.1,3.1,3.1c1.7,0,3.1-1.4,3.1-3.1V44
		C36.7,42.2,35.3,40.8,33.6,40.8z M35.1,48.8c0,0.8-0.7,1.5-1.5,1.5S32,49.7,32,48.8V44c0-0.8,0.7-1.5,1.5-1.5s1.5,0.7,1.5,1.5V48.8
		z"/>
	<linearGradient id="SVGID_13_" gradientUnits="userSpaceOnUse" x1="10.8536" y1="60.7007" x2="114.5272" y2="60.7007">
		<stop  offset="0" style="stop-color:#0080C8"/>
		<stop  offset="1" style="stop-color:#0E5AA1"/>
	</linearGradient>
	<path class="st12" d="M22.3,55.1c-0.4,0-0.8,0.4-0.8,0.8v9.5c0,0.4,0.4,0.8,0.8,0.8c0.4,0,0.8-0.4,0.8-0.8v-9.5
		C23.1,55.5,22.7,55.1,22.3,55.1z"/>
	<linearGradient id="SVGID_14_" gradientUnits="userSpaceOnUse" x1="10.8536" y1="60.7007" x2="114.5272" y2="60.7007">
		<stop  offset="0" style="stop-color:#0080C8"/>
		<stop  offset="1" style="stop-color:#0E5AA1"/>
	</linearGradient>
	<path class="st13" d="M40.2,55.1c-0.4,0-0.8,0.4-0.8,0.8v9.5c0,0.4,0.4,0.8,0.8,0.8c0.4,0,0.8-0.4,0.8-0.8v-9.5
		C41,55.5,40.6,55.1,40.2,55.1z"/>
	<linearGradient id="SVGID_15_" gradientUnits="userSpaceOnUse" x1="10.8536" y1="60.7007" x2="114.5272" y2="60.7007">
		<stop  offset="0" style="stop-color:#0080C8"/>
		<stop  offset="1" style="stop-color:#0E5AA1"/>
	</linearGradient>
	<path class="st14" d="M31.2,55.1c-1.7,0-3.1,1.4-3.1,3.1v4.9c0,1.7,1.4,3.1,3.1,3.1c1.7,0,3.1-1.4,3.1-3.1v-4.9
		C34.3,56.5,32.9,55.1,31.2,55.1z M32.8,63.1c0,0.8-0.7,1.5-1.5,1.5s-1.5-0.7-1.5-1.5v-4.9c0-0.8,0.7-1.5,1.5-1.5s1.5,0.7,1.5,1.5
		V63.1z"/>
	<linearGradient id="SVGID_16_" gradientUnits="userSpaceOnUse" x1="10.8536" y1="60.7007" x2="114.5272" y2="60.7007">
		<stop  offset="0" style="stop-color:#0080C8"/>
		<stop  offset="1" style="stop-color:#0E5AA1"/>
	</linearGradient>
	<path class="st15" d="M58.1,55.1c-1.7,0-3.1,1.4-3.1,3.1v4.9c0,1.7,1.4,3.1,3.1,3.1c1.7,0,3.1-1.4,3.1-3.1v-4.9
		C61.2,56.5,59.8,55.1,58.1,55.1z M59.6,63.1c0,0.8-0.7,1.5-1.5,1.5c-0.8,0-1.5-0.7-1.5-1.5v-4.9c0-0.8,0.7-1.5,1.5-1.5
		c0.8,0,1.5,0.7,1.5,1.5V63.1z"/>
	<linearGradient id="SVGID_17_" gradientUnits="userSpaceOnUse" x1="10.8536" y1="74.8499" x2="114.5272" y2="74.8499">
		<stop  offset="0" style="stop-color:#0080C8"/>
		<stop  offset="1" style="stop-color:#0E5AA1"/>
	</linearGradient>
	<path class="st16" d="M60.4,69.3c-0.4,0-0.8,0.4-0.8,0.8v9.5c0,0.4,0.4,0.8,0.8,0.8c0.4,0,0.8-0.4,0.8-0.8v-9.5
		C61.2,69.6,60.9,69.3,60.4,69.3z"/>
	<linearGradient id="SVGID_18_" gradientUnits="userSpaceOnUse" x1="10.8536" y1="74.8499" x2="114.5272" y2="74.8499">
		<stop  offset="0" style="stop-color:#0080C8"/>
		<stop  offset="1" style="stop-color:#0E5AA1"/>
	</linearGradient>
	<path class="st17" d="M42.5,69.3c-0.4,0-0.8,0.4-0.8,0.8v9.5c0,0.4,0.4,0.8,0.8,0.8c0.4,0,0.8-0.4,0.8-0.8v-9.5
		C43.3,69.6,42.9,69.3,42.5,69.3z"/>
	<linearGradient id="SVGID_19_" gradientUnits="userSpaceOnUse" x1="10.8536" y1="74.8499" x2="114.5272" y2="74.8499">
		<stop  offset="0" style="stop-color:#0080C8"/>
		<stop  offset="1" style="stop-color:#0E5AA1"/>
	</linearGradient>
	<path class="st18" d="M51.5,69.3c-1.7,0-3.1,1.4-3.1,3.1v4.9c0,1.7,1.4,3.1,3.1,3.1s3.1-1.4,3.1-3.1v-4.9
		C54.6,70.7,53.2,69.3,51.5,69.3z M53,77.3c0,0.8-0.7,1.5-1.5,1.5s-1.5-0.7-1.5-1.5v-4.9c0-0.8,0.7-1.5,1.5-1.5s1.5,0.7,1.5,1.5
		V77.3z"/>
	<linearGradient id="SVGID_20_" gradientUnits="userSpaceOnUse" x1="10.8536" y1="74.8499" x2="114.5272" y2="74.8499">
		<stop  offset="0" style="stop-color:#0080C8"/>
		<stop  offset="1" style="stop-color:#0E5AA1"/>
	</linearGradient>
	<path class="st19" d="M24.6,69.3c-1.7,0-3.1,1.4-3.1,3.1v4.9c0,1.7,1.4,3.1,3.1,3.1c1.7,0,3.1-1.4,3.1-3.1v-4.9
		C27.7,70.7,26.3,69.3,24.6,69.3z M26.1,77.3c0,0.8-0.7,1.5-1.5,1.5c-0.8,0-1.5-0.7-1.5-1.5v-4.9c0-0.8,0.7-1.5,1.5-1.5
		c0.8,0,1.5,0.7,1.5,1.5V77.3z"/>
	<linearGradient id="SVGID_21_" gradientUnits="userSpaceOnUse" x1="10.8536" y1="74.8499" x2="114.5272" y2="74.8499">
		<stop  offset="0" style="stop-color:#0080C8"/>
		<stop  offset="1" style="stop-color:#0E5AA1"/>
	</linearGradient>
	<path class="st20" d="M33.6,69.3c-1.7,0-3.1,1.4-3.1,3.1v4.9c0,1.7,1.4,3.1,3.1,3.1c1.7,0,3.1-1.4,3.1-3.1v-4.9
		C36.7,70.7,35.3,69.3,33.6,69.3z M35.1,77.3c0,0.8-0.7,1.5-1.5,1.5S32,78.1,32,77.3v-4.9c0-0.8,0.7-1.5,1.5-1.5s1.5,0.7,1.5,1.5
		V77.3z"/>
	<linearGradient id="SVGID_22_" gradientUnits="userSpaceOnUse" x1="10.8536" y1="89.1609" x2="114.5272" y2="89.1609">
		<stop  offset="0" style="stop-color:#0080C8"/>
		<stop  offset="1" style="stop-color:#0E5AA1"/>
	</linearGradient>
	<path class="st21" d="M22.3,83.6c-0.4,0-0.8,0.4-0.8,0.8v9.5c0,0.4,0.4,0.8,0.8,0.8c0.4,0,0.8-0.4,0.8-0.8v-9.5
		C23.1,84,22.7,83.6,22.3,83.6z"/>
	<linearGradient id="SVGID_23_" gradientUnits="userSpaceOnUse" x1="10.8536" y1="89.1609" x2="114.5272" y2="89.1609">
		<stop  offset="0" style="stop-color:#0080C8"/>
		<stop  offset="1" style="stop-color:#0E5AA1"/>
	</linearGradient>
	<path class="st22" d="M40.2,83.6c-0.4,0-0.8,0.4-0.8,0.8v9.5c0,0.4,0.4,0.8,0.8,0.8c0.4,0,0.8-0.4,0.8-0.8v-9.5
		C41,84,40.6,83.6,40.2,83.6z"/>
	<linearGradient id="SVGID_24_" gradientUnits="userSpaceOnUse" x1="10.8536" y1="89.1609" x2="114.5272" y2="89.1609">
		<stop  offset="0" style="stop-color:#0080C8"/>
		<stop  offset="1" style="stop-color:#0E5AA1"/>
	</linearGradient>
	<path class="st23" d="M31.2,83.6c-1.7,0-3.1,1.4-3.1,3.1v4.9c0,1.7,1.4,3.1,3.1,3.1c1.7,0,3.1-1.4,3.1-3.1v-4.9
		C34.3,85,32.9,83.6,31.2,83.6z M32.8,91.6c0,0.8-0.7,1.5-1.5,1.5s-1.5-0.7-1.5-1.5v-4.9c0-0.8,0.7-1.5,1.5-1.5s1.5,0.7,1.5,1.5
		V91.6z"/>
	<linearGradient id="SVGID_25_" gradientUnits="userSpaceOnUse" x1="10.8536" y1="89.1609" x2="114.5272" y2="89.1609">
		<stop  offset="0" style="stop-color:#0080C8"/>
		<stop  offset="1" style="stop-color:#0E5AA1"/>
	</linearGradient>
	<path class="st24" d="M58.1,83.6c-1.7,0-3.1,1.4-3.1,3.1v4.9c0,1.7,1.4,3.1,3.1,3.1c1.7,0,3.1-1.4,3.1-3.1v-4.9
		C61.2,85,59.8,83.6,58.1,83.6z M59.6,91.6c0,0.8-0.7,1.5-1.5,1.5c-0.8,0-1.5-0.7-1.5-1.5v-4.9c0-0.8,0.7-1.5,1.5-1.5
		c0.8,0,1.5,0.7,1.5,1.5V91.6z"/>
	<linearGradient id="SVGID_26_" gradientUnits="userSpaceOnUse" x1="10.8536" y1="89.1609" x2="114.5272" y2="89.1609">
		<stop  offset="0" style="stop-color:#0080C8"/>
		<stop  offset="1" style="stop-color:#0E5AA1"/>
	</linearGradient>
	<path class="st25" d="M49.1,83.6c-1.7,0-3.1,1.4-3.1,3.1v4.9c0,1.7,1.4,3.1,3.1,3.1c1.7,0,3.1-1.4,3.1-3.1v-4.9
		C52.3,85,50.9,83.6,49.1,83.6z M50.7,91.6c0,0.8-0.7,1.5-1.5,1.5s-1.5-0.7-1.5-1.5v-4.9c0-0.8,0.7-1.5,1.5-1.5s1.5,0.7,1.5,1.5
		V91.6z"/>
	<linearGradient id="SVGID_27_" gradientUnits="userSpaceOnUse" x1="10.8536" y1="32.0787" x2="114.5272" y2="32.0787">
		<stop  offset="0" style="stop-color:#0080C8"/>
		<stop  offset="1" style="stop-color:#0E5AA1"/>
	</linearGradient>
	<path class="st26" d="M66.5,37.6c0.4,0,0.8-0.4,0.8-0.8v-9.5c0-0.4-0.4-0.8-0.8-0.8c-0.4,0-0.8,0.4-0.8,0.8v9.5
		C65.7,37.3,66.1,37.6,66.5,37.6z"/>
	<linearGradient id="SVGID_28_" gradientUnits="userSpaceOnUse" x1="10.8536" y1="32.0787" x2="114.5272" y2="32.0787">
		<stop  offset="0" style="stop-color:#0080C8"/>
		<stop  offset="1" style="stop-color:#0E5AA1"/>
	</linearGradient>
	<path class="st27" d="M84.4,26.5c-0.4,0-0.8,0.4-0.8,0.8v9.5c0,0.4,0.4,0.8,0.8,0.8s0.8-0.4,0.8-0.8v-9.5
		C85.2,26.9,84.9,26.5,84.4,26.5z"/>
	<linearGradient id="SVGID_29_" gradientUnits="userSpaceOnUse" x1="10.8536" y1="32.0787" x2="114.5272" y2="32.0787">
		<stop  offset="0" style="stop-color:#0080C8"/>
		<stop  offset="1" style="stop-color:#0E5AA1"/>
	</linearGradient>
	<path class="st28" d="M75.5,37.6c1.7,0,3.1-1.4,3.1-3.1v-4.9c0-1.7-1.4-3.1-3.1-3.1c-1.7,0-3.1,1.4-3.1,3.1v4.9
		C72.4,36.2,73.8,37.6,75.5,37.6z M73.9,29.6c0-0.8,0.7-1.5,1.5-1.5s1.5,0.7,1.5,1.5v4.9c0,0.8-0.7,1.5-1.5,1.5s-1.5-0.7-1.5-1.5
		V29.6z"/>
	<linearGradient id="SVGID_30_" gradientUnits="userSpaceOnUse" x1="10.8536" y1="32.0787" x2="114.5272" y2="32.0787">
		<stop  offset="0" style="stop-color:#0080C8"/>
		<stop  offset="1" style="stop-color:#0E5AA1"/>
	</linearGradient>
	<path class="st29" d="M102.4,26.5c-1.7,0-3.1,1.4-3.1,3.1v4.9c0,1.7,1.4,3.1,3.1,3.1c1.7,0,3.1-1.4,3.1-3.1v-4.9
		C105.5,27.9,104.1,26.5,102.4,26.5z M103.9,34.5c0,0.8-0.7,1.5-1.5,1.5c-0.8,0-1.5-0.7-1.5-1.5v-4.9c0-0.8,0.7-1.5,1.5-1.5
		c0.8,0,1.5,0.7,1.5,1.5V34.5z"/>
	<linearGradient id="SVGID_31_" gradientUnits="userSpaceOnUse" x1="10.8536" y1="32.0787" x2="114.5272" y2="32.0787">
		<stop  offset="0" style="stop-color:#0080C8"/>
		<stop  offset="1" style="stop-color:#0E5AA1"/>
	</linearGradient>
	<path class="st30" d="M93.4,37.6c1.7,0,3.1-1.4,3.1-3.1v-4.9c0-1.7-1.4-3.1-3.1-3.1c-1.7,0-3.1,1.4-3.1,3.1v4.9
		C90.3,36.2,91.7,37.6,93.4,37.6z M91.9,29.6c0-0.8,0.7-1.5,1.5-1.5s1.5,0.7,1.5,1.5v4.9c0,0.8-0.7,1.5-1.5,1.5s-1.5-0.7-1.5-1.5
		V29.6z"/>
	<linearGradient id="SVGID_32_" gradientUnits="userSpaceOnUse" x1="10.8536" y1="46.3897" x2="114.5272" y2="46.3897">
		<stop  offset="0" style="stop-color:#0080C8"/>
		<stop  offset="1" style="stop-color:#0E5AA1"/>
	</linearGradient>
	<path class="st31" d="M104.7,40.8c-0.4,0-0.8,0.4-0.8,0.8v9.5c0,0.4,0.4,0.8,0.8,0.8s0.8-0.4,0.8-0.8v-9.5
		C105.5,41.2,105.1,40.8,104.7,40.8z"/>
	<linearGradient id="SVGID_33_" gradientUnits="userSpaceOnUse" x1="10.8536" y1="46.3897" x2="114.5272" y2="46.3897">
		<stop  offset="0" style="stop-color:#0080C8"/>
		<stop  offset="1" style="stop-color:#0E5AA1"/>
	</linearGradient>
	<path class="st32" d="M86.8,40.8c-0.4,0-0.8,0.4-0.8,0.8v9.5c0,0.4,0.4,0.8,0.8,0.8c0.4,0,0.8-0.4,0.8-0.8v-9.5
		C87.6,41.2,87.2,40.8,86.8,40.8z"/>
	<linearGradient id="SVGID_34_" gradientUnits="userSpaceOnUse" x1="10.8536" y1="46.3897" x2="114.5272" y2="46.3897">
		<stop  offset="0" style="stop-color:#0080C8"/>
		<stop  offset="1" style="stop-color:#0E5AA1"/>
	</linearGradient>
	<path class="st33" d="M95.7,40.8c-1.7,0-3.1,1.4-3.1,3.1v4.9c0,1.7,1.4,3.1,3.1,3.1s3.1-1.4,3.1-3.1V44
		C98.9,42.2,97.5,40.8,95.7,40.8z M97.3,48.8c0,0.8-0.7,1.5-1.5,1.5s-1.5-0.7-1.5-1.5V44c0-0.8,0.7-1.5,1.5-1.5s1.5,0.7,1.5,1.5
		V48.8z"/>
	<linearGradient id="SVGID_35_" gradientUnits="userSpaceOnUse" x1="10.8536" y1="46.3897" x2="114.5272" y2="46.3897">
		<stop  offset="0" style="stop-color:#0080C8"/>
		<stop  offset="1" style="stop-color:#0E5AA1"/>
	</linearGradient>
	<path class="st34" d="M68.9,40.8c-1.7,0-3.1,1.4-3.1,3.1v4.9c0,1.7,1.4,3.1,3.1,3.1s3.1-1.4,3.1-3.1V44
		C72,42.2,70.6,40.8,68.9,40.8z M70.4,48.8c0,0.8-0.7,1.5-1.5,1.5s-1.5-0.7-1.5-1.5V44c0-0.8,0.7-1.5,1.5-1.5s1.5,0.7,1.5,1.5V48.8z
		"/>
	<linearGradient id="SVGID_36_" gradientUnits="userSpaceOnUse" x1="10.8536" y1="46.3897" x2="114.5272" y2="46.3897">
		<stop  offset="0" style="stop-color:#0080C8"/>
		<stop  offset="1" style="stop-color:#0E5AA1"/>
	</linearGradient>
	<path class="st35" d="M77.8,40.8c-1.7,0-3.1,1.4-3.1,3.1v4.9c0,1.7,1.4,3.1,3.1,3.1c1.7,0,3.1-1.4,3.1-3.1V44
		C80.9,42.2,79.5,40.8,77.8,40.8z M79.4,48.8c0,0.8-0.7,1.5-1.5,1.5s-1.5-0.7-1.5-1.5V44c0-0.8,0.7-1.5,1.5-1.5s1.5,0.7,1.5,1.5
		V48.8z"/>
	<linearGradient id="SVGID_37_" gradientUnits="userSpaceOnUse" x1="10.8536" y1="60.7007" x2="114.5272" y2="60.7007">
		<stop  offset="0" style="stop-color:#0080C8"/>
		<stop  offset="1" style="stop-color:#0E5AA1"/>
	</linearGradient>
	<path class="st36" d="M66.5,55.1c-0.4,0-0.8,0.4-0.8,0.8v9.5c0,0.4,0.4,0.8,0.8,0.8c0.4,0,0.8-0.4,0.8-0.8v-9.5
		C67.3,55.5,67,55.1,66.5,55.1z"/>
	<linearGradient id="SVGID_38_" gradientUnits="userSpaceOnUse" x1="10.8536" y1="60.7007" x2="114.5272" y2="60.7007">
		<stop  offset="0" style="stop-color:#0080C8"/>
		<stop  offset="1" style="stop-color:#0E5AA1"/>
	</linearGradient>
	<path class="st37" d="M84.4,55.1c-0.4,0-0.8,0.4-0.8,0.8v9.5c0,0.4,0.4,0.8,0.8,0.8s0.8-0.4,0.8-0.8v-9.5
		C85.2,55.5,84.9,55.1,84.4,55.1z"/>
	<linearGradient id="SVGID_39_" gradientUnits="userSpaceOnUse" x1="10.8536" y1="60.7007" x2="114.5272" y2="60.7007">
		<stop  offset="0" style="stop-color:#0080C8"/>
		<stop  offset="1" style="stop-color:#0E5AA1"/>
	</linearGradient>
	<path class="st38" d="M75.5,55.1c-1.7,0-3.1,1.4-3.1,3.1v4.9c0,1.7,1.4,3.1,3.1,3.1c1.7,0,3.1-1.4,3.1-3.1v-4.9
		C78.6,56.5,77.2,55.1,75.5,55.1z M77,63.1c0,0.8-0.7,1.5-1.5,1.5s-1.5-0.7-1.5-1.5v-4.9c0-0.8,0.7-1.5,1.5-1.5s1.5,0.7,1.5,1.5
		V63.1z"/>
	<linearGradient id="SVGID_40_" gradientUnits="userSpaceOnUse" x1="10.8536" y1="60.7007" x2="114.5272" y2="60.7007">
		<stop  offset="0" style="stop-color:#0080C8"/>
		<stop  offset="1" style="stop-color:#0E5AA1"/>
	</linearGradient>
	<path class="st39" d="M102.4,55.1c-1.7,0-3.1,1.4-3.1,3.1v4.9c0,1.7,1.4,3.1,3.1,3.1c1.7,0,3.1-1.4,3.1-3.1v-4.9
		C105.5,56.5,104.1,55.1,102.4,55.1z M103.9,63.1c0,0.8-0.7,1.5-1.5,1.5c-0.8,0-1.5-0.7-1.5-1.5v-4.9c0-0.8,0.7-1.5,1.5-1.5
		c0.8,0,1.5,0.7,1.5,1.5V63.1z"/>
	<linearGradient id="SVGID_41_" gradientUnits="userSpaceOnUse" x1="10.8536" y1="60.7007" x2="114.5272" y2="60.7007">
		<stop  offset="0" style="stop-color:#0080C8"/>
		<stop  offset="1" style="stop-color:#0E5AA1"/>
	</linearGradient>
	<path class="st40" d="M93.4,55.1c-1.7,0-3.1,1.4-3.1,3.1v4.9c0,1.7,1.4,3.1,3.1,3.1c1.7,0,3.1-1.4,3.1-3.1v-4.9
		C96.5,56.5,95.1,55.1,93.4,55.1z M94.9,63.1c0,0.8-0.7,1.5-1.5,1.5s-1.5-0.7-1.5-1.5v-4.9c0-0.8,0.7-1.5,1.5-1.5s1.5,0.7,1.5,1.5
		V63.1z"/>
	<linearGradient id="SVGID_42_" gradientUnits="userSpaceOnUse" x1="10.8536" y1="74.8499" x2="114.5272" y2="74.8499">
		<stop  offset="0" style="stop-color:#0080C8"/>
		<stop  offset="1" style="stop-color:#0E5AA1"/>
	</linearGradient>
	<path class="st41" d="M104.7,69.3c-0.4,0-0.8,0.4-0.8,0.8v9.5c0,0.4,0.4,0.8,0.8,0.8s0.8-0.4,0.8-0.8v-9.5
		C105.5,69.6,105.1,69.3,104.7,69.3z"/>
	<linearGradient id="SVGID_43_" gradientUnits="userSpaceOnUse" x1="10.8536" y1="74.8499" x2="114.5272" y2="74.8499">
		<stop  offset="0" style="stop-color:#0080C8"/>
		<stop  offset="1" style="stop-color:#0E5AA1"/>
	</linearGradient>
	<path class="st42" d="M86.8,69.3c-0.4,0-0.8,0.4-0.8,0.8v9.5c0,0.4,0.4,0.8,0.8,0.8c0.4,0,0.8-0.4,0.8-0.8v-9.5
		C87.6,69.6,87.2,69.3,86.8,69.3z"/>
	<linearGradient id="SVGID_44_" gradientUnits="userSpaceOnUse" x1="10.8536" y1="74.8499" x2="114.5272" y2="74.8499">
		<stop  offset="0" style="stop-color:#0080C8"/>
		<stop  offset="1" style="stop-color:#0E5AA1"/>
	</linearGradient>
	<path class="st43" d="M95.7,69.3c-1.7,0-3.1,1.4-3.1,3.1v4.9c0,1.7,1.4,3.1,3.1,3.1s3.1-1.4,3.1-3.1v-4.9
		C98.9,70.7,97.5,69.3,95.7,69.3z M97.3,77.3c0,0.8-0.7,1.5-1.5,1.5s-1.5-0.7-1.5-1.5v-4.9c0-0.8,0.7-1.5,1.5-1.5s1.5,0.7,1.5,1.5
		V77.3z"/>
	<linearGradient id="SVGID_45_" gradientUnits="userSpaceOnUse" x1="10.8536" y1="74.8499" x2="114.5272" y2="74.8499">
		<stop  offset="0" style="stop-color:#0080C8"/>
		<stop  offset="1" style="stop-color:#0E5AA1"/>
	</linearGradient>
	<path class="st44" d="M68.9,69.3c-1.7,0-3.1,1.4-3.1,3.1v4.9c0,1.7,1.4,3.1,3.1,3.1S72,79,72,77.3v-4.9
		C72,70.7,70.6,69.3,68.9,69.3z M70.4,77.3c0,0.8-0.7,1.5-1.5,1.5s-1.5-0.7-1.5-1.5v-4.9c0-0.8,0.7-1.5,1.5-1.5s1.5,0.7,1.5,1.5
		V77.3z"/>
	<linearGradient id="SVGID_46_" gradientUnits="userSpaceOnUse" x1="10.8536" y1="74.8499" x2="114.5272" y2="74.8499">
		<stop  offset="0" style="stop-color:#0080C8"/>
		<stop  offset="1" style="stop-color:#0E5AA1"/>
	</linearGradient>
	<path class="st45" d="M77.8,69.3c-1.7,0-3.1,1.4-3.1,3.1v4.9c0,1.7,1.4,3.1,3.1,3.1c1.7,0,3.1-1.4,3.1-3.1v-4.9
		C80.9,70.7,79.5,69.3,77.8,69.3z M79.4,77.3c0,0.8-0.7,1.5-1.5,1.5s-1.5-0.7-1.5-1.5v-4.9c0-0.8,0.7-1.5,1.5-1.5s1.5,0.7,1.5,1.5
		V77.3z"/>
	<linearGradient id="SVGID_47_" gradientUnits="userSpaceOnUse" x1="10.8536" y1="89.1609" x2="114.5272" y2="89.1609">
		<stop  offset="0" style="stop-color:#0080C8"/>
		<stop  offset="1" style="stop-color:#0E5AA1"/>
	</linearGradient>
	<path class="st46" d="M66.5,83.6c-0.4,0-0.8,0.4-0.8,0.8v9.5c0,0.4,0.4,0.8,0.8,0.8c0.4,0,0.8-0.4,0.8-0.8v-9.5
		C67.3,84,67,83.6,66.5,83.6z"/>
	<linearGradient id="SVGID_48_" gradientUnits="userSpaceOnUse" x1="10.8536" y1="89.1609" x2="114.5272" y2="89.1609">
		<stop  offset="0" style="stop-color:#0080C8"/>
		<stop  offset="1" style="stop-color:#0E5AA1"/>
	</linearGradient>
	<path class="st47" d="M84.4,83.6c-0.4,0-0.8,0.4-0.8,0.8v9.5c0,0.4,0.4,0.8,0.8,0.8s0.8-0.4,0.8-0.8v-9.5
		C85.2,84,84.9,83.6,84.4,83.6z"/>
	<linearGradient id="SVGID_49_" gradientUnits="userSpaceOnUse" x1="10.8536" y1="89.1609" x2="114.5272" y2="89.1609">
		<stop  offset="0" style="stop-color:#0080C8"/>
		<stop  offset="1" style="stop-color:#0E5AA1"/>
	</linearGradient>
	<path class="st48" d="M75.5,83.6c-1.7,0-3.1,1.4-3.1,3.1v4.9c0,1.7,1.4,3.1,3.1,3.1c1.7,0,3.1-1.4,3.1-3.1v-4.9
		C78.6,85,77.2,83.6,75.5,83.6z M77,91.6c0,0.8-0.7,1.5-1.5,1.5s-1.5-0.7-1.5-1.5v-4.9c0-0.8,0.7-1.5,1.5-1.5s1.5,0.7,1.5,1.5V91.6z
		"/>
	<linearGradient id="SVGID_50_" gradientUnits="userSpaceOnUse" x1="10.8536" y1="89.1609" x2="114.5272" y2="89.1609">
		<stop  offset="0" style="stop-color:#0080C8"/>
		<stop  offset="1" style="stop-color:#0E5AA1"/>
	</linearGradient>
	<path class="st49" d="M102.4,83.6c-1.7,0-3.1,1.4-3.1,3.1v4.9c0,1.7,1.4,3.1,3.1,3.1c1.7,0,3.1-1.4,3.1-3.1v-4.9
		C105.5,85,104.1,83.6,102.4,83.6z M103.9,91.6c0,0.8-0.7,1.5-1.5,1.5c-0.8,0-1.5-0.7-1.5-1.5v-4.9c0-0.8,0.7-1.5,1.5-1.5
		c0.8,0,1.5,0.7,1.5,1.5V91.6z"/>
	<linearGradient id="SVGID_51_" gradientUnits="userSpaceOnUse" x1="10.8536" y1="89.1609" x2="114.5272" y2="89.1609">
		<stop  offset="0" style="stop-color:#0080C8"/>
		<stop  offset="1" style="stop-color:#0E5AA1"/>
	</linearGradient>
	<path class="st50" d="M93.4,83.6c-1.7,0-3.1,1.4-3.1,3.1v4.9c0,1.7,1.4,3.1,3.1,3.1c1.7,0,3.1-1.4,3.1-3.1v-4.9
		C96.5,85,95.1,83.6,93.4,83.6z M94.9,91.6c0,0.8-0.7,1.5-1.5,1.5s-1.5-0.7-1.5-1.5v-4.9c0-0.8,0.7-1.5,1.5-1.5s1.5,0.7,1.5,1.5
		V91.6z"/>
	<g>
		<linearGradient id="SVGID_52_" gradientUnits="userSpaceOnUse" x1="78.9131" y1="48.3555" x2="112.4932" y2="48.3555">
			<stop  offset="0" style="stop-color:#FFFFFF"/>
			<stop  offset="1" style="stop-color:#0080C8"/>
		</linearGradient>
		<path class="st51" d="M98.5,53.8H79.7c-0.4,0-0.8-0.3-0.8-0.8s0.3-0.8,0.8-0.8h18.8c1.8,0,2.7-0.6,2.7-4c0-4.5,2.4-5.4,4.4-5.4
			h6.1c0.4,0,0.8,0.3,0.8,0.8s-0.3,0.8-0.8,0.8h-6.1c-1.4,0-2.9,0.4-2.9,3.9C102.7,51,102.2,53.8,98.5,53.8z"/>
	</g>
	<circle class="st52" cx="112.6" cy="43.7" r="3.9"/>
	<linearGradient id="SVGID_53_" gradientUnits="userSpaceOnUse" x1="110.5061" y1="43.656" x2="114.7147" y2="43.656">
		<stop  offset="0" style="stop-color:#0080C8"/>
		<stop  offset="1" style="stop-color:#0E5AA1"/>
	</linearGradient>
	<circle class="st53" cx="112.6" cy="43.7" r="2.1"/>
	<g>
		
			<linearGradient id="SVGID_54_" gradientUnits="userSpaceOnUse" x1="1336.6903" y1="-27.637" x2="1361.2675" y2="-27.637" gradientTransform="matrix(-1 0 0 1 1368.6547 62.009)">
			<stop  offset="0" style="stop-color:#FFFFFF"/>
			<stop  offset="1" style="stop-color:#0080C8"/>
		</linearGradient>
		<path class="st54" d="M31.5,39.6H21.1c-2.8,0-3.9-1.5-3.9-5.2c0-3.8-1.8-4.2-3.2-4.2H7.9c-0.3,0-0.5-0.2-0.5-0.5s0.2-0.5,0.5-0.5
			H14c1.9,0,4.2,0.9,4.2,5.2c0,3.5,1,4.2,2.9,4.2h10.3c0.3,0,0.5,0.2,0.5,0.5S31.7,39.6,31.5,39.6z"/>
	</g>
	<circle class="st52" cx="7" cy="29.7" r="3.9"/>
	
		<linearGradient id="SVGID_55_" gradientUnits="userSpaceOnUse" x1="1359.5304" y1="-32.3364" x2="1363.739" y2="-32.3364" gradientTransform="matrix(-1 0 0 1 1368.6547 62.009)">
		<stop  offset="0" style="stop-color:#0080C8"/>
		<stop  offset="1" style="stop-color:#0E5AA1"/>
	</linearGradient>
	<circle class="st55" cx="7" cy="29.7" r="2.1"/>
	<g>
		
			<linearGradient id="SVGID_56_" gradientUnits="userSpaceOnUse" x1="-92.3537" y1="77.8785" x2="-65.2248" y2="77.8785" gradientTransform="matrix(1 0 0 -1 184.5607 164.4532)">
			<stop  offset="0" style="stop-color:#FFFFFF"/>
			<stop  offset="1" style="stop-color:#0080C8"/>
		</linearGradient>
		<path class="st56" d="M118.8,91.8h-6.1c-1.9,0-4.2-0.9-4.2-5.2c0-3.5-1-4.2-2.9-4.2H92.7c-0.3,0-0.5-0.2-0.5-0.5s0.2-0.5,0.5-0.5
			h12.9c2.8,0,3.9,1.5,3.9,5.2c0,3.8,1.8,4.2,3.2,4.2h6.1c0.3,0,0.5,0.2,0.5,0.5S119.1,91.8,118.8,91.8z"/>
	</g>
	<circle class="st52" cx="119.7" cy="91.3" r="3.9"/>
	
		<linearGradient id="SVGID_57_" gradientUnits="userSpaceOnUse" x1="-66.9625" y1="73.1792" x2="-62.7539" y2="73.1792" gradientTransform="matrix(1 0 0 -1 184.5607 164.4532)">
		<stop  offset="0" style="stop-color:#0080C8"/>
		<stop  offset="1" style="stop-color:#0E5AA1"/>
	</linearGradient>
	<circle class="st57" cx="119.7" cy="91.3" r="2.1"/>
	<g>
		
			<linearGradient id="SVGID_58_" gradientUnits="userSpaceOnUse" x1="1461.3218" y1="202.6801" x2="1486.3984" y2="202.6801" gradientTransform="matrix(-1 0 0 -1 1529.2134 304.285)">
			<stop  offset="0" style="stop-color:#FFFFFF"/>
			<stop  offset="1" style="stop-color:#0080C8"/>
		</linearGradient>
		<path class="st58" d="M49.7,107.1h-6.1c-0.4,0-0.8-0.3-0.8-0.8s0.3-0.8,0.8-0.8h6.1c1.3,0,2.9-0.4,2.9-3.9c0-3.5,1.8-5.5,5-5.5
			h9.5c0.4,0,0.8,0.3,0.8,0.8s-0.3,0.8-0.8,0.8h-9.5c-2.4,0-3.5,1.3-3.5,4C54.2,106.1,51.7,107.1,49.7,107.1z"/>
	</g>
	<circle class="st52" cx="42.6" cy="106.1" r="3.9"/>
	<linearGradient id="SVGID_59_" gradientUnits="userSpaceOnUse" x1="40.5444" y1="106.1305" x2="44.753" y2="106.1305">
		<stop  offset="0" style="stop-color:#0080C8"/>
		<stop  offset="1" style="stop-color:#0E5AA1"/>
	</linearGradient>
	<circle class="st59" cx="42.6" cy="106.1" r="2.1"/>
	<g>
		<g>
			<linearGradient id="SVGID_60_" gradientUnits="userSpaceOnUse" x1="14.2892" y1="75.5221" x2="29.21" y2="75.5221">
				<stop  offset="0" style="stop-color:#0080C8"/>
				<stop  offset="1" style="stop-color:#FFFFFF"/>
			</linearGradient>
			<path class="st60" d="M28.7,76c-0.1,0-0.1,0-0.2,0c-0.1,0-0.1-0.1-0.2-0.1c-0.1-0.1-0.1-0.2-0.1-0.4c0-0.1,0-0.3,0.1-0.4
				c0.2-0.2,0.5-0.2,0.7,0c0.1,0.1,0.1,0.2,0.1,0.4s-0.1,0.3-0.1,0.4C29,76,28.8,76,28.7,76z"/>
		</g>
		<g>
			<linearGradient id="SVGID_61_" gradientUnits="userSpaceOnUse" x1="15.8584" y1="75.5195" x2="28.8427" y2="75.5195">
				<stop  offset="0" style="stop-color:#0080C8"/>
				<stop  offset="1" style="stop-color:#FFFFFF"/>
			</linearGradient>
			<path class="st61" d="M25.4,75.5c0-0.3,0.2-0.5,0.5-0.5l0,0c0.3,0,0.5,0.2,0.5,0.5l0,0c0,0.3-0.2,0.5-0.5,0.5l0,0
				C25.6,76,25.4,75.8,25.4,75.5z M22.6,75.5c0-0.3,0.2-0.5,0.5-0.5l0,0c0.3,0,0.5,0.2,0.5,0.5l0,0c0,0.3-0.2,0.5-0.5,0.5l0,0
				C22.9,76,22.6,75.8,22.6,75.5z M19.9,75.5c0-0.3,0.2-0.5,0.5-0.5l0,0c0.3,0,0.5,0.2,0.5,0.5l0,0c0,0.3-0.2,0.5-0.5,0.5l0,0
				C20.1,76,19.9,75.8,19.9,75.5z M17.1,75.5c0-0.3,0.2-0.5,0.5-0.5l0,0c0.3,0,0.5,0.2,0.5,0.5l0,0c0,0.3-0.2,0.5-0.5,0.5l0,0
				C17.3,76,17.1,75.8,17.1,75.5z"/>
		</g>
		<g>
			<linearGradient id="SVGID_62_" gradientUnits="userSpaceOnUse" x1="14.29" y1="75.5192" x2="29.2108" y2="75.5192">
				<stop  offset="0" style="stop-color:#0080C8"/>
				<stop  offset="1" style="stop-color:#FFFFFF"/>
			</linearGradient>
			<path class="st62" d="M14.8,76c-0.1,0-0.1,0-0.2,0c-0.1,0-0.1-0.1-0.2-0.1c-0.1-0.1-0.1-0.2-0.1-0.4c0-0.1,0-0.3,0.1-0.4
				c0.1-0.1,0.4-0.2,0.5-0.1c0.1,0,0.1,0.1,0.2,0.1c0.1,0.1,0.2,0.2,0.2,0.4c0,0.1,0,0.1,0,0.2c0,0.1-0.1,0.1-0.1,0.2
				C15,76,14.9,76,14.8,76z"/>
		</g>
	</g>
	<linearGradient id="SVGID_63_" gradientUnits="userSpaceOnUse" x1="10.4983" y1="75.5176" x2="16.3389" y2="75.5176">
		<stop  offset="0" style="stop-color:#0080C8"/>
		<stop  offset="1" style="stop-color:#0E5AA1"/>
	</linearGradient>
	<circle class="st63" cx="13.4" cy="75.5" r="2.9"/>
	<circle class="st52" cx="13.4" cy="75.5" r="1.6"/>
	<g>
		<g>
			<linearGradient id="SVGID_64_" gradientUnits="userSpaceOnUse" x1="122.1234" y1="59.9809" x2="105.6602" y2="59.9809">
				<stop  offset="0" style="stop-color:#0080C8"/>
				<stop  offset="1" style="stop-color:#FFFFFF"/>
			</linearGradient>
			<path class="st64" d="M106.2,60.5c-0.1,0-0.3-0.1-0.4-0.2c0,0-0.1-0.1-0.1-0.2c0-0.1,0-0.1,0-0.2c0-0.1,0-0.1,0-0.2
				c0-0.1,0.1-0.1,0.1-0.2c0.1-0.1,0.4-0.2,0.5-0.1c0.1,0,0.1,0.1,0.2,0.1c0.1,0.1,0.2,0.2,0.2,0.4c0,0.1-0.1,0.3-0.2,0.3
				c0,0.1-0.1,0.1-0.2,0.1C106.3,60.5,106.2,60.5,106.2,60.5z"/>
		</g>
		<g>
			<linearGradient id="SVGID_65_" gradientUnits="userSpaceOnUse" x1="120.3747" y1="59.98" x2="106.0612" y2="59.98">
				<stop  offset="0" style="stop-color:#0080C8"/>
				<stop  offset="1" style="stop-color:#FFFFFF"/>
			</linearGradient>
			<path class="st65" d="M118,60c0-0.3,0.2-0.5,0.5-0.5l0,0c0.3,0,0.5,0.2,0.5,0.5l0,0c0,0.3-0.2,0.5-0.5,0.5l0,0
				C118.3,60.5,118,60.3,118,60z M114.9,60c0-0.3,0.2-0.5,0.5-0.5l0,0c0.3,0,0.5,0.2,0.5,0.5l0,0c0,0.3-0.2,0.5-0.5,0.5l0,0
				C115.2,60.5,114.9,60.3,114.9,60z M111.8,60c0-0.3,0.2-0.5,0.5-0.5l0,0c0.3,0,0.5,0.2,0.5,0.5l0,0c0,0.3-0.2,0.5-0.5,0.5l0,0
				C112.1,60.5,111.8,60.3,111.8,60z M108.8,60c0-0.3,0.2-0.5,0.5-0.5l0,0c0.3,0,0.5,0.2,0.5,0.5l0,0c0,0.3-0.2,0.5-0.5,0.5l0,0
				C109,60.5,108.8,60.3,108.8,60z"/>
		</g>
		<g>
			<linearGradient id="SVGID_66_" gradientUnits="userSpaceOnUse" x1="122.1201" y1="59.9837" x2="105.6568" y2="59.9837">
				<stop  offset="0" style="stop-color:#0080C8"/>
				<stop  offset="1" style="stop-color:#FFFFFF"/>
			</linearGradient>
			<path class="st66" d="M121.6,60.5c-0.1,0-0.3-0.1-0.4-0.2c-0.1-0.1-0.1-0.2-0.1-0.3c0-0.1,0-0.3,0.1-0.4c0.2-0.2,0.5-0.2,0.7,0
				c0.1,0.1,0.2,0.2,0.2,0.4c0,0.1-0.1,0.3-0.2,0.3C121.9,60.4,121.8,60.5,121.6,60.5z"/>
		</g>
	</g>
	
		<linearGradient id="SVGID_67_" gradientUnits="userSpaceOnUse" x1="1462.6031" y1="198.1619" x2="1468.4437" y2="198.1619" gradientTransform="matrix(-1 0 0 -1 1588.5144 258.1429)">
		<stop  offset="0" style="stop-color:#0080C8"/>
		<stop  offset="1" style="stop-color:#0E5AA1"/>
	</linearGradient>
	<circle class="st67" cx="123" cy="60" r="2.9"/>
	<circle class="st52" cx="123" cy="60" r="1.6"/>
	<linearGradient id="SVGID_68_" gradientUnits="userSpaceOnUse" x1="30.7882" y1="72.3502" x2="99.6555" y2="72.3502">
		<stop  offset="0" style="stop-color:#0080C8"/>
		<stop  offset="1" style="stop-color:#0E5AA1"/>
	</linearGradient>
	<path class="st68" d="M99.2,98.7L78.5,78c-0.6-0.6-1.6-0.6-2.2,0l-0.6,0.6l-3.4-3.4c6.9-9.1,6.3-22.1-2-30.4
		c-4.5-4.5-10.4-6.8-16.4-6.8v0c-5.9,0-11.9,2.2-16.4,6.8c-9,9-9,23.7,0,32.8c8.3,8.3,21.3,9,30.4,2l3.4,3.4l-0.6,0.6
		c-0.7,0.6-0.5,1.7,0,2.2l20.7,20.7c0.6,0.6,1.6,0.6,2.2,0l5.5-5.5C99.8,100.3,99.8,99.3,99.2,98.7z M68.1,75.2
		c-7.8,7.8-20.5,7.8-28.4,0c-7.8-7.8-7.8-20.5,0-28.4c3.9-3.9,9.1-5.9,14.2-5.9c5.1,0,10.3,2,14.2,5.9C76,54.7,76,67.4,68.1,75.2z
		 M92.7,103.1L74.1,84.5l3.3-3.3l18.5,18.5L92.7,103.1z"/>
	<linearGradient id="SVGID_69_" gradientUnits="userSpaceOnUse" x1="42.1832" y1="60.7007" x2="66.2173" y2="60.7007">
		<stop  offset="0" style="stop-color:#0080C8"/>
		<stop  offset="1" style="stop-color:#0E5AA1"/>
	</linearGradient>
	<path class="st69" d="M58.1,55.1c-1.7,0-3.1,1.4-3.1,3.1v4.9c0,1.7,1.4,3.1,3.1,3.1c1.7,0,3.1-1.4,3.1-3.1v-4.9
		C61.2,56.5,59.8,55.1,58.1,55.1z M59.6,63.1c0,0.8-0.7,1.5-1.5,1.5c-0.8,0-1.5-0.7-1.5-1.5v-4.9c0-0.8,0.7-1.5,1.5-1.5
		c0.8,0,1.5,0.7,1.5,1.5V63.1z"/>
	<linearGradient id="SVGID_70_" gradientUnits="userSpaceOnUse" x1="42.1832" y1="60.7007" x2="66.2173" y2="60.7007">
		<stop  offset="0" style="stop-color:#0080C8"/>
		<stop  offset="1" style="stop-color:#0E5AA1"/>
	</linearGradient>
	<path class="st70" d="M49.1,55.1c-1.7,0-3.1,1.4-3.1,3.1v4.9c0,1.7,1.4,3.1,3.1,3.1c1.7,0,3.1-1.4,3.1-3.1v-4.9
		C52.3,56.5,50.9,55.1,49.1,55.1z M50.7,63.1c0,0.8-0.7,1.5-1.5,1.5s-1.5-0.7-1.5-1.5v-4.9c0-0.8,0.7-1.5,1.5-1.5s1.5,0.7,1.5,1.5
		V63.1z"/>
</g>
</svg>
