<?xml version="1.0" encoding="utf-8"?>
<!-- Generator: Adobe Illustrator 22.0.1, SVG Export Plug-In . SVG Version: 6.00 Build 0)  -->
<svg version="1.1" id="Capa_1" xmlns="http://www.w3.org/2000/svg" xmlns:xlink="http://www.w3.org/1999/xlink" x="0px" y="0px"
	 viewBox="0 0 129 129" style="enable-background:new 0 0 129 129;" xml:space="preserve">
<style type="text/css">
	.st0{fill:url(#SVGID_1_);}
	.st1{fill:url(#SVGID_2_);}
	.st2{fill:#FFFFFF;}
	.st3{fill:url(#SVGID_3_);}
	.st4{fill:url(#SVGID_4_);}
	.st5{fill:url(#SVGID_5_);}
	.st6{fill:url(#SVGID_6_);}
	.st7{fill:url(#SVGID_7_);}
	.st8{fill:url(#SVGID_8_);}
	.st9{fill:url(#SVGID_9_);}
	.st10{fill:url(#SVGID_10_);}
	.st11{fill:none;stroke:url(#SVGID_11_);stroke-linecap:round;stroke-linejoin:round;}
	.st12{fill:url(#SVGID_12_);}
	.st13{fill:url(#SVGID_13_);}
	.st14{fill:none;stroke:url(#SVGID_14_);stroke-linecap:round;stroke-linejoin:round;}
	.st15{fill:url(#SVGID_15_);}
	.st16{fill:none;stroke:url(#SVGID_16_);stroke-linecap:round;stroke-linejoin:round;}
	.st17{fill:none;stroke:url(#SVGID_17_);stroke-linecap:round;stroke-linejoin:round;}
	.st18{opacity:0.1;fill:url(#SVGID_18_);enable-background:new    ;}
	.st19{fill:url(#SVGID_19_);}
	.st20{opacity:0.7;fill:url(#SVGID_20_);enable-background:new    ;}
	.st21{opacity:0.7;fill:url(#SVGID_21_);enable-background:new    ;}
	.st22{opacity:0.7;fill:url(#SVGID_22_);enable-background:new    ;}
</style>
<g>
	
		<linearGradient id="SVGID_1_" gradientUnits="userSpaceOnUse" x1="0" y1="64.5" x2="129" y2="64.5" gradientTransform="matrix(1 0 0 -1 0 129)">
		<stop  offset="0" style="stop-color:#FFFFFF;stop-opacity:0.1"/>
		<stop  offset="1" style="stop-color:#0080C9;stop-opacity:0.1"/>
	</linearGradient>
	<circle class="st0" cx="64.5" cy="64.5" r="64.5"/>
	<g>
		
			<linearGradient id="SVGID_2_" gradientUnits="userSpaceOnUse" x1="-87.8607" y1="23.9468" x2="-63.2835" y2="23.9468" gradientTransform="matrix(1 0 0 1 184.5607 35.4532)">
			<stop  offset="0" style="stop-color:#FFFFFF"/>
			<stop  offset="1" style="stop-color:#0080C9"/>
		</linearGradient>
		<path class="st1" d="M120.8,64.6h-6.1c-1.9,0-4.2-0.9-4.2-5.2c0-3.5-1-4.2-2.9-4.2H97.2c-0.3,0-0.5-0.2-0.5-0.5s0.2-0.5,0.5-0.5
			h10.3c2.8,0,3.9,1.5,3.9,5.2c0,3.8,1.8,4.2,3.2,4.2h6.1c0.3,0,0.5,0.2,0.5,0.5C121.3,64.4,121.1,64.6,120.8,64.6z"/>
	</g>
	<circle class="st2" cx="121.7" cy="64.1" r="3.9"/>
	
		<linearGradient id="SVGID_3_" gradientUnits="userSpaceOnUse" x1="-65.0094" y1="28.6468" x2="-60.8008" y2="28.6468" gradientTransform="matrix(1 0 0 1 184.5607 35.4532)">
		<stop  offset="0" style="stop-color:#0080C9"/>
		<stop  offset="1" style="stop-color:#115BA3"/>
	</linearGradient>
	<circle class="st3" cx="121.7" cy="64.1" r="2.1"/>
	<g>
		
			<linearGradient id="SVGID_4_" gradientUnits="userSpaceOnUse" x1="86.8" y1="103.8" x2="112.377" y2="103.8" gradientTransform="matrix(1 0 0 -1 0 129)">
			<stop  offset="0" style="stop-color:#FFFFFF"/>
			<stop  offset="1" style="stop-color:#0080C9"/>
		</linearGradient>
		<path class="st4" d="M98.1,30.9H87.8c-0.6,0-1-0.4-1-1s0.4-1,1-1h10.3c1.4,0,2.4-0.3,2.4-3.7c0-4.9,2.9-5.7,4.7-5.7h6.1
			c0.6,0,1,0.4,1,1s-0.4,1-1,1h-6.1c-1.3,0-2.7,0.4-2.7,3.7C102.6,27.8,102.1,30.9,98.1,30.9z"/>
	</g>
	<circle class="st2" cx="112.3" cy="20.5" r="3.9"/>
	
		<linearGradient id="SVGID_5_" gradientUnits="userSpaceOnUse" x1="110.1618" y1="108.5" x2="114.3704" y2="108.5" gradientTransform="matrix(1 0 0 -1 0 129)">
		<stop  offset="0" style="stop-color:#0080C9"/>
		<stop  offset="1" style="stop-color:#115BA3"/>
	</linearGradient>
	<circle class="st5" cx="112.3" cy="20.5" r="2.1"/>
	<g>
		
			<linearGradient id="SVGID_6_" gradientUnits="userSpaceOnUse" x1="1335.0842" y1="147.609" x2="1359.6614" y2="147.609" gradientTransform="matrix(-1 0 0 -1 1368.6547 191.009)">
			<stop  offset="0" style="stop-color:#FFFFFF"/>
			<stop  offset="1" style="stop-color:#0080C9"/>
		</linearGradient>
		<path class="st6" d="M33.1,48.6H22.7c-2.8,0-3.9-1.5-3.9-5.2c0-3.8-1.8-4.2-3.2-4.2H9.5C9.2,39.2,9,39,9,38.7s0.2-0.5,0.5-0.5h6.1
			c1.9,0,4.2,0.9,4.2,5.2c0,3.5,1,4.2,2.9,4.2H33c0.3,0,0.5,0.2,0.5,0.5C33.6,48.3,33.3,48.6,33.1,48.6z"/>
	</g>
	<circle class="st2" cx="8.6" cy="38.7" r="3.9"/>
	
		<linearGradient id="SVGID_7_" gradientUnits="userSpaceOnUse" x1="1357.9241" y1="152.309" x2="1362.1327" y2="152.309" gradientTransform="matrix(-1 0 0 -1 1368.6547 191.009)">
		<stop  offset="0" style="stop-color:#0080C9"/>
		<stop  offset="1" style="stop-color:#115BA3"/>
	</linearGradient>
	<circle class="st7" cx="8.6" cy="38.7" r="2.1"/>
	<g>
		
			<linearGradient id="SVGID_8_" gradientUnits="userSpaceOnUse" x1="1495.0941" y1="-79.385" x2="1520.6707" y2="-79.385" gradientTransform="matrix(-1 0 0 1 1529.2134 175.285)">
			<stop  offset="0" style="stop-color:#FFFFFF"/>
			<stop  offset="1" style="stop-color:#0080C9"/>
		</linearGradient>
		<path class="st8" d="M15.7,101.6H9.5c-0.6,0-1-0.4-1-1s0.4-1,1-1h6.1c1.3,0,2.7-0.4,2.7-3.7c0-2.7,0.5-5.7,4.4-5.7H33
			c0.6,0,1,0.4,1,1s-0.4,1-1,1H22.8c-1.4,0-2.4,0.3-2.4,3.7C20.4,100.9,17.4,101.6,15.7,101.6z"/>
	</g>
	<circle class="st2" cx="8.6" cy="100.5" r="3.9"/>
	
		<linearGradient id="SVGID_9_" gradientUnits="userSpaceOnUse" x1="6.522" y1="28.5" x2="10.7306" y2="28.5" gradientTransform="matrix(1 0 0 -1 0 129)">
		<stop  offset="0" style="stop-color:#0080C9"/>
		<stop  offset="1" style="stop-color:#115BA3"/>
	</linearGradient>
	<circle class="st9" cx="8.6" cy="100.5" r="2.1"/>
	<g>
		
			<linearGradient id="SVGID_10_" gradientUnits="userSpaceOnUse" x1="16.7559" y1="55.8" x2="46.8799" y2="55.8" gradientTransform="matrix(1 0 0 -1 0 129)">
			<stop  offset="0" style="stop-color:#0080C9"/>
			<stop  offset="1" style="stop-color:#FFFFFF"/>
		</linearGradient>
		<path class="st10" d="M43,73.2c0-0.3,0.2-0.5,0.5-0.5l0,0c0.3,0,0.5,0.2,0.5,0.5l0,0c0,0.3-0.2,0.5-0.5,0.5l0,0
			C43.2,73.7,43,73.5,43,73.2z M39.9,73.2c0-0.3,0.2-0.5,0.5-0.5l0,0c0.3,0,0.5,0.2,0.5,0.5l0,0c0,0.3-0.2,0.5-0.5,0.5l0,0
			C40.1,73.7,39.9,73.5,39.9,73.2z M36.8,73.2c0-0.3,0.2-0.5,0.5-0.5l0,0c0.3,0,0.5,0.2,0.5,0.5l0,0c0,0.3-0.2,0.5-0.5,0.5l0,0
			C37,73.7,36.8,73.5,36.8,73.2z M33.7,73.2c0-0.3,0.2-0.5,0.5-0.5l0,0c0.3,0,0.5,0.2,0.5,0.5l0,0c0,0.3-0.2,0.5-0.5,0.5l0,0
			C33.9,73.7,33.7,73.5,33.7,73.2z M30.6,73.2c0-0.3,0.2-0.5,0.5-0.5l0,0c0.3,0,0.5,0.2,0.5,0.5l0,0c0,0.3-0.2,0.5-0.5,0.5l0,0
			C30.8,73.7,30.6,73.5,30.6,73.2z M27.5,73.2c0-0.3,0.2-0.5,0.5-0.5l0,0c0.3,0,0.5,0.2,0.5,0.5l0,0c0,0.3-0.2,0.5-0.5,0.5l0,0
			C27.7,73.7,27.5,73.5,27.5,73.2z M24.4,73.2c0-0.3,0.2-0.5,0.5-0.5l0,0c0.3,0,0.5,0.2,0.5,0.5l0,0c0,0.3-0.2,0.5-0.5,0.5l0,0
			C24.6,73.7,24.4,73.5,24.4,73.2z M21.3,73.2c0-0.3,0.2-0.5,0.5-0.5l0,0c0.3,0,0.5,0.2,0.5,0.5l0,0c0,0.3-0.2,0.5-0.5,0.5l0,0
			C21.5,73.7,21.3,73.5,21.3,73.2z M18.2,73.2c0-0.3,0.2-0.5,0.5-0.5l0,0c0.3,0,0.5,0.2,0.5,0.5l0,0c0,0.3-0.2,0.5-0.5,0.5l0,0
			C18.4,73.7,18.2,73.5,18.2,73.2z"/>
	</g>
	
		<linearGradient id="SVGID_11_" gradientUnits="userSpaceOnUse" x1="15.128" y1="55.8" x2="47.0583" y2="55.8" gradientTransform="matrix(1 0 0 -1 0 129)">
		<stop  offset="0" style="stop-color:#0080C9"/>
		<stop  offset="1" style="stop-color:#FFFFFF"/>
	</linearGradient>
	<line class="st11" x1="15.6" y1="73.2" x2="15.6" y2="73.2"/>
	
		<linearGradient id="SVGID_12_" gradientUnits="userSpaceOnUse" x1="11.3378" y1="55.8" x2="17.1784" y2="55.8" gradientTransform="matrix(1 0 0 -1 0 129)">
		<stop  offset="0" style="stop-color:#0080C9"/>
		<stop  offset="1" style="stop-color:#115BA3"/>
	</linearGradient>
	<circle class="st12" cx="14.3" cy="73.2" r="2.9"/>
	<circle class="st2" cx="14.3" cy="73.2" r="1.6"/>
	<g>
		
			<linearGradient id="SVGID_13_" gradientUnits="userSpaceOnUse" x1="112.9831" y1="47.4" x2="82.859" y2="47.4" gradientTransform="matrix(1 0 0 -1 0 129)">
			<stop  offset="0" style="stop-color:#0080C9"/>
			<stop  offset="1" style="stop-color:#FFFFFF"/>
		</linearGradient>
		<path class="st13" d="M110.5,81.6c0-0.3,0.2-0.5,0.5-0.5l0,0c0.3,0,0.5,0.2,0.5,0.5l0,0c0,0.3-0.2,0.5-0.5,0.5l0,0
			C110.7,82.1,110.5,81.8,110.5,81.6z M107.4,81.6c0-0.3,0.2-0.5,0.5-0.5l0,0c0.3,0,0.5,0.2,0.5,0.5l0,0c0,0.3-0.2,0.5-0.5,0.5l0,0
			C107.6,82.1,107.4,81.8,107.4,81.6z M104.3,81.6c0-0.3,0.2-0.5,0.5-0.5l0,0c0.3,0,0.5,0.2,0.5,0.5l0,0c0,0.3-0.2,0.5-0.5,0.5l0,0
			C104.6,82.1,104.3,81.8,104.3,81.6z M101.2,81.6c0-0.3,0.2-0.5,0.5-0.5l0,0c0.3,0,0.5,0.2,0.5,0.5l0,0c0,0.3-0.2,0.5-0.5,0.5l0,0
			C101.5,82.1,101.2,81.8,101.2,81.6z M98.1,81.6c0-0.3,0.2-0.5,0.5-0.5l0,0c0.3,0,0.5,0.2,0.5,0.5l0,0c0,0.3-0.2,0.5-0.5,0.5l0,0
			C98.4,82.1,98.1,81.8,98.1,81.6z M95.1,81.6c0-0.3,0.2-0.5,0.5-0.5l0,0c0.3,0,0.5,0.2,0.5,0.5l0,0c0,0.3-0.2,0.5-0.5,0.5l0,0
			C95.3,82.1,95.1,81.8,95.1,81.6z M92,81.6c0-0.3,0.2-0.5,0.5-0.5l0,0c0.3,0,0.5,0.2,0.5,0.5l0,0c0,0.3-0.2,0.5-0.5,0.5l0,0
			C92.2,82.1,92,81.8,92,81.6z M88.9,81.6c0-0.3,0.2-0.5,0.5-0.5l0,0c0.3,0,0.5,0.2,0.5,0.5l0,0c0,0.3-0.2,0.5-0.5,0.5l0,0
			C89.1,82.1,88.9,81.8,88.9,81.6z M85.8,81.6c0-0.3,0.2-0.5,0.5-0.5l0,0c0.3,0,0.5,0.2,0.5,0.5l0,0c0,0.3-0.2,0.5-0.5,0.5l0,0
			C86,82.1,85.8,81.8,85.8,81.6z"/>
	</g>
	
		<linearGradient id="SVGID_14_" gradientUnits="userSpaceOnUse" x1="114.6118" y1="47.4" x2="82.6815" y2="47.4" gradientTransform="matrix(1 0 0 -1 0 129)">
		<stop  offset="0" style="stop-color:#0080C9"/>
		<stop  offset="1" style="stop-color:#FFFFFF"/>
	</linearGradient>
	<line class="st14" x1="114.1" y1="81.6" x2="114.1" y2="81.6"/>
	
		<linearGradient id="SVGID_15_" gradientUnits="userSpaceOnUse" x1="1470.1144" y1="-47.5429" x2="1475.9551" y2="-47.5429" gradientTransform="matrix(-1 0 0 1 1588.5144 129.1429)">
		<stop  offset="0" style="stop-color:#0080C9"/>
		<stop  offset="1" style="stop-color:#115BA3"/>
	</linearGradient>
	<circle class="st15" cx="115.5" cy="81.6" r="2.9"/>
	<circle class="st2" cx="115.5" cy="81.6" r="1.6"/>
	<g>
		
			<linearGradient id="SVGID_16_" gradientUnits="userSpaceOnUse" x1="18.5675" y1="57.1935" x2="50.4978" y2="57.1935" gradientTransform="matrix(1 0 0 -1 0 129)">
			<stop  offset="0" style="stop-color:#0080C9"/>
			<stop  offset="1" style="stop-color:#FFFFFF"/>
		</linearGradient>
		<line class="st16" x1="50" y1="71.8" x2="50" y2="71.8"/>
		
			<linearGradient id="SVGID_17_" gradientUnits="userSpaceOnUse" x1="112.1283" y1="50.1545" x2="80.1981" y2="50.1545" gradientTransform="matrix(1 0 0 -1 0 129)">
			<stop  offset="0" style="stop-color:#0080C9"/>
			<stop  offset="1" style="stop-color:#FFFFFF"/>
		</linearGradient>
		<line class="st17" x1="80.7" y1="78.8" x2="80.7" y2="78.8"/>
		
			<linearGradient id="SVGID_18_" gradientUnits="userSpaceOnUse" x1="50.2089" y1="67.2072" x2="102.4595" y2="67.2072" gradientTransform="matrix(1 0 0 -1 0 129)">
			<stop  offset="0" style="stop-color:#0080C9"/>
			<stop  offset="1" style="stop-color:#115BA3"/>
		</linearGradient>
		<path class="st18" d="M96,47.3c-0.9-0.6-1.8-1-2.9-1.5v-0.3c0-3.8-2.3-7.3-6.5-9.8c-4-2.4-9.3-3.8-14.9-3.8s-10.9,1.3-14.9,3.8
			c-4.2,2.6-6.5,6-6.5,9.8v7c0,3.8,2.3,7.3,6.5,9.8c0.2,0.1,0.3,0.2,0.5,0.3c-3,2.3-4.6,5.3-4.7,8.4v7.3c0,3.8,2.3,7.3,6.5,9.8
			c4,2.4,9.3,3.8,14.9,3.8c5.6,0,10.9-1.3,14.9-3.8c4.2-2.6,6.5-6,6.5-9.8v-3.9c0.2-0.1,0.4-0.3,0.6-0.3c4.2-2.6,6.5-6,6.5-9.8v-7
			C102.5,53.4,100.2,49.9,96,47.3z"/>
		
			<linearGradient id="SVGID_19_" gradientUnits="userSpaceOnUse" x1="33.1048" y1="64.4" x2="95.5335" y2="64.4" gradientTransform="matrix(1 0 0 -1 0 129)">
			<stop  offset="0" style="stop-color:#0080C9"/>
			<stop  offset="1" style="stop-color:#115BA3"/>
		</linearGradient>
		<path class="st19" d="M86.1,67.9c-4.3,2.6-10,4-16.1,4c-4.6,0-8.9-0.8-12.7-2.3c0.4,0,0.9,0,1.3,0c6.7,0,13-1.6,17.8-4.5
			c5-3.1,7.8-7.2,7.8-11.7v-4.4c0.6,0.3,1.3,0.7,1.8,1c4,2.4,6.3,5.7,6.3,9S90.1,65.4,86.1,67.9L86.1,67.9L86.1,67.9L86.1,67.9z
			 M88.3,75.3c0,0.3-0.3,0.5-0.5,0.5c-0.3,0-0.5-0.3-0.5-0.5V70c0-0.3,0.3-0.5,0.5-0.5c0.3,0,0.5,0.3,0.5,0.5V75.3L88.3,75.3
			L88.3,75.3z M82.3,78.3c0,0.3-0.3,0.5-0.5,0.5c-0.3,0-0.5-0.3-0.5-0.5v-5.1c0-0.3,0.3-0.5,0.5-0.5c0.3,0,0.5,0.3,0.5,0.5V78.3
			L82.3,78.3L82.3,78.3z M75.2,80.2v-5.7c0-0.3,0.3-0.5,0.5-0.5c0.3,0,0.5,0.3,0.5,0.5v5.7c0,0.3-0.3,0.5-0.5,0.5
			S75.2,80.4,75.2,80.2L75.2,80.2L75.2,80.2L75.2,80.2z M69.1,80.4v-5.4c0-0.3,0.3-0.5,0.5-0.5c0.3,0,0.5,0.3,0.5,0.5v5.4
			c0,0.3-0.3,0.5-0.5,0.5C69.4,80.9,69.1,80.7,69.1,80.4L69.1,80.4L69.1,80.4L69.1,80.4z M63.1,79.9v-5.1c0-0.3,0.3-0.5,0.5-0.5
			c0.3,0,0.5,0.3,0.5,0.5v5.1c0,0.3-0.3,0.5-0.5,0.5C63.4,80.4,63.1,80.2,63.1,79.9L63.1,79.9L63.1,79.9L63.1,79.9z M77.5,84.6
			c-4.3,2.6-10,4-16.1,4s-11.8-1.3-16.1-4c-4-2.4-6.3-5.7-6.3-9c0-3.1,1.8-6,5.3-8.4l0,0c0,4.5,2.8,8.6,7.8,11.7
			c4.8,2.9,11.1,4.5,17.8,4.5c3.9,0,7.5-0.5,10.9-1.5C80,83,78.9,83.9,77.5,84.6L77.5,84.6L77.5,84.6L77.5,84.6z M79.8,92.1
			c0,0.3-0.3,0.5-0.5,0.5c-0.3,0-0.5-0.3-0.5-0.5v-4.5c0-0.3,0.3-0.5,0.5-0.5c0.3,0,0.5,0.3,0.5,0.5V92.1L79.8,92.1L79.8,92.1z
			 M73.8,95.1c0,0.3-0.3,0.5-0.5,0.5c-0.3,0-0.5-0.3-0.5-0.5V90c0-0.3,0.3-0.5,0.5-0.5c0.3,0,0.5,0.3,0.5,0.5V95.1L73.8,95.1
			L73.8,95.1z M67.7,96.9c0,0.3-0.3,0.5-0.5,0.5c-0.3,0-0.5-0.3-0.5-0.5v-5.7c0-0.3,0.3-0.5,0.5-0.5c0.3,0,0.5,0.3,0.5,0.5V96.9
			L67.7,96.9L67.7,96.9z M61.7,97.2c0,0.3-0.3,0.5-0.5,0.5c-0.3,0-0.5-0.3-0.5-0.5v-5.4c0-0.3,0.3-0.5,0.5-0.5
			c0.3,0,0.5,0.3,0.5,0.5V97.2L61.7,97.2L61.7,97.2z M55.7,96.7c0,0.3-0.3,0.5-0.5,0.5c-0.3,0-0.5-0.3-0.5-0.5v-5.1
			c0-0.3,0.3-0.5,0.5-0.5c0.3,0,0.5,0.3,0.5,0.5V96.7L55.7,96.7L55.7,96.7z M49.6,94.9c0,0.3-0.3,0.5-0.5,0.5
			c-0.3,0-0.5-0.3-0.5-0.5v-4.9c0-0.3,0.3-0.5,0.5-0.5c0.3,0,0.5,0.3,0.5,0.5V94.9L49.6,94.9L49.6,94.9z M43.6,91.6
			c0,0.3-0.3,0.5-0.5,0.5c-0.3,0-0.5-0.3-0.5-0.5v-5.1c0-0.3,0.3-0.5,0.5-0.5c0.3,0,0.5,0.3,0.5,0.5V91.6L43.6,91.6L43.6,91.6z
			 M46.9,59.3v4.9c0,0.3-0.3,0.5-0.5,0.5c-0.3,0-0.5-0.3-0.5-0.5v-4.9c0-0.3,0.3-0.5,0.5-0.5C46.7,58.7,46.9,59,46.9,59.3L46.9,59.3
			L46.9,59.3L46.9,59.3z M52.1,72.1v2.7c0,0.3-0.3,0.5-0.5,0.5c-0.3,0-0.5-0.3-0.5-0.5v-2.7c0-0.3,0.3-0.5,0.5-0.5
			C51.9,71.6,52.1,71.8,52.1,72.1L52.1,72.1L52.1,72.1L52.1,72.1z M51.9,65.9v-5.1c0-0.3,0.3-0.5,0.5-0.5c0.3,0,0.5,0.3,0.5,0.5v5.1
			c0,0.3-0.3,0.5-0.5,0.5C52.1,66.4,51.9,66.3,51.9,65.9L51.9,65.9L51.9,65.9L51.9,65.9z M57.7,72.7c0.3,0,0.5,0.3,0.5,0.5v4.9
			c0,0.3-0.3,0.5-0.5,0.5c-0.3,0-0.5-0.3-0.5-0.5v-4.9C57.1,73,57.3,72.7,57.7,72.7L57.7,72.7L57.7,72.7L57.7,72.7z M59,61.1v5.4
			c0,0.3-0.3,0.5-0.5,0.5c-0.3,0-0.5-0.3-0.5-0.5v-5.4c0-0.3,0.3-0.5,0.5-0.5C58.8,60.6,59,60.7,59,61.1L59,61.1L59,61.1L59,61.1z
			 M65,60.6v5.7c0,0.3-0.3,0.5-0.5,0.5c-0.3,0-0.5-0.3-0.5-0.5v-5.7c0-0.3,0.3-0.5,0.5-0.5C64.8,60,65,60.2,65,60.6L65,60.6L65,60.6
			L65,60.6z M71.1,59.2v5.1c0,0.3-0.3,0.5-0.5,0.5c-0.3,0-0.5-0.3-0.5-0.5v-5.1c0-0.3,0.3-0.5,0.5-0.5
			C70.8,58.7,71.1,58.9,71.1,59.2L71.1,59.2L71.1,59.2L71.1,59.2z M77,56v4.9c0,0.3-0.3,0.5-0.5,0.5c-0.3,0-0.5-0.3-0.5-0.5V56
			c0-0.3,0.3-0.5,0.5-0.5C76.9,55.5,77,55.6,77,56L77,56L77,56L77,56z M36.3,44.9c0-3.4,2.2-6.5,6.3-9c4.3-2.6,10-4,16.1-4
			s11.8,1.4,16.1,4c4,2.4,6.3,5.7,6.3,9s-2.2,6.5-6.3,9c-4.3,2.7-10,4.1-16.1,4.1s-11.8-1.4-16.1-4C38.6,51.4,36.3,48.3,36.3,44.9
			L36.3,44.9L36.3,44.9L36.3,44.9z M40.9,60.8c0,0.3-0.3,0.5-0.5,0.5c-0.3,0-0.5-0.3-0.5-0.5v-5.1c0-0.3,0.3-0.5,0.5-0.5
			c0.3,0,0.5,0.3,0.5,0.5V60.8L40.9,60.8L40.9,60.8z M87.8,47.2c-1.1-0.7-2.3-1.3-3.4-1.8V45c0-4.5-2.8-8.6-7.8-11.7
			c-4.8-2.9-11.1-4.5-17.8-4.5c-6.7,0-13,1.6-17.8,4.5c-5,3.1-7.8,7.2-7.8,11.7v8.5c0,4.5,2.8,8.6,7.8,11.7c0.2,0.1,0.3,0.3,0.6,0.3
			c-3.5,2.8-5.5,6.3-5.6,10v8.7c0,4.5,2.8,8.6,7.8,11.7c4.8,2.9,11.1,4.5,17.8,4.5s13-1.6,17.8-4.5c5-3.1,7.8-7.2,7.8-11.7v-4.6
			c0.3-0.2,0.5-0.3,0.8-0.4c5-3.1,7.8-7.2,7.8-11.7v-8.5C95.5,54.4,92.8,50.2,87.8,47.2L87.8,47.2L87.8,47.2z"/>
		
			<linearGradient id="SVGID_20_" gradientUnits="userSpaceOnUse" x1="57.3335" y1="68.6317" x2="92.3157" y2="68.6317" gradientTransform="matrix(1 0 0 -1 0 129)">
			<stop  offset="0" style="stop-color:#0080C9"/>
			<stop  offset="1" style="stop-color:#115BA3"/>
		</linearGradient>
		<path class="st20" d="M86.1,67.9c-4.3,2.6-10,4-16.1,4c-4.6,0-8.9-0.8-12.7-2.3c0.4,0,0.9,0,1.3,0c6.7,0,13-1.6,17.8-4.5
			c5-3.1,7.8-7.2,7.8-11.7v-4.4c0.6,0.3,1.3,0.7,1.8,1c4,2.4,6.3,5.7,6.3,9S90.1,65.4,86.1,67.9L86.1,67.9L86.1,67.9L86.1,67.9z"/>
		<path class="st2" d="M88.3,75.3c0,0.3-0.3,0.5-0.5,0.5c-0.3,0-0.5-0.3-0.5-0.5V70c0-0.3,0.3-0.5,0.5-0.5c0.3,0,0.5,0.3,0.5,0.5
			V75.3L88.3,75.3L88.3,75.3z"/>
		<path class="st2" d="M82.3,78.3c0,0.3-0.3,0.5-0.5,0.5c-0.3,0-0.5-0.3-0.5-0.5v-5.1c0-0.3,0.3-0.5,0.5-0.5c0.3,0,0.5,0.3,0.5,0.5
			V78.3L82.3,78.3L82.3,78.3z"/>
		<path class="st2" d="M75.2,80.2v-5.7c0-0.3,0.3-0.5,0.5-0.5c0.3,0,0.5,0.3,0.5,0.5v5.7c0,0.3-0.3,0.5-0.5,0.5S75.2,80.4,75.2,80.2
			L75.2,80.2L75.2,80.2L75.2,80.2z"/>
		<path class="st2" d="M69.1,80.4v-5.4c0-0.3,0.3-0.5,0.5-0.5c0.3,0,0.5,0.3,0.5,0.5v5.4c0,0.3-0.3,0.5-0.5,0.5
			C69.4,80.9,69.1,80.7,69.1,80.4L69.1,80.4L69.1,80.4L69.1,80.4z"/>
		<path class="st2" d="M63.1,79.9v-5.1c0-0.3,0.3-0.5,0.5-0.5c0.3,0,0.5,0.3,0.5,0.5v5.1c0,0.3-0.3,0.5-0.5,0.5
			C63.4,80.4,63.1,80.2,63.1,79.9L63.1,79.9L63.1,79.9L63.1,79.9z"/>
		
			<linearGradient id="SVGID_21_" gradientUnits="userSpaceOnUse" x1="39.0658" y1="51.0344" x2="80.8663" y2="51.0344" gradientTransform="matrix(1 0 0 -1 0 129)">
			<stop  offset="0" style="stop-color:#0080C9"/>
			<stop  offset="1" style="stop-color:#115BA3"/>
		</linearGradient>
		<path class="st21" d="M77.5,84.6c-4.3,2.6-10,4-16.1,4s-11.8-1.3-16.1-4c-4-2.4-6.3-5.7-6.3-9c0-3.1,1.8-6,5.3-8.4l0,0
			c0,4.5,2.8,8.6,7.8,11.7c4.8,2.9,11.1,4.5,17.8,4.5c3.9,0,7.5-0.5,10.9-1.5C80,83,78.9,83.9,77.5,84.6L77.5,84.6L77.5,84.6
			L77.5,84.6z"/>
		<path class="st2" d="M79.8,92.1c0,0.3-0.3,0.5-0.5,0.5c-0.3,0-0.5-0.3-0.5-0.5v-4.5c0-0.3,0.3-0.5,0.5-0.5c0.3,0,0.5,0.3,0.5,0.5
			V92.1L79.8,92.1L79.8,92.1z"/>
		<path class="st2" d="M73.8,95.1c0,0.3-0.3,0.5-0.5,0.5c-0.3,0-0.5-0.3-0.5-0.5V90c0-0.3,0.3-0.5,0.5-0.5c0.3,0,0.5,0.3,0.5,0.5
			V95.1L73.8,95.1L73.8,95.1z"/>
		<path class="st2" d="M67.7,96.9c0,0.3-0.3,0.5-0.5,0.5c-0.3,0-0.5-0.3-0.5-0.5v-5.7c0-0.3,0.3-0.5,0.5-0.5c0.3,0,0.5,0.3,0.5,0.5
			V96.9L67.7,96.9L67.7,96.9z"/>
		<path class="st2" d="M61.7,97.2c0,0.3-0.3,0.5-0.5,0.5c-0.3,0-0.5-0.3-0.5-0.5v-5.4c0-0.3,0.3-0.5,0.5-0.5c0.3,0,0.5,0.3,0.5,0.5
			V97.2L61.7,97.2L61.7,97.2z"/>
		<path class="st2" d="M55.7,96.7c0,0.3-0.3,0.5-0.5,0.5c-0.3,0-0.5-0.3-0.5-0.5v-5.1c0-0.3,0.3-0.5,0.5-0.5c0.3,0,0.5,0.3,0.5,0.5
			V96.7L55.7,96.7L55.7,96.7z"/>
		<path class="st2" d="M49.6,94.9c0,0.3-0.3,0.5-0.5,0.5c-0.3,0-0.5-0.3-0.5-0.5v-4.9c0-0.3,0.3-0.5,0.5-0.5c0.3,0,0.5,0.3,0.5,0.5
			V94.9L49.6,94.9L49.6,94.9z"/>
		<path class="st2" d="M43.6,91.6c0,0.3-0.3,0.5-0.5,0.5c-0.3,0-0.5-0.3-0.5-0.5v-5.1c0-0.3,0.3-0.5,0.5-0.5c0.3,0,0.5,0.3,0.5,0.5
			V91.6L43.6,91.6L43.6,91.6z"/>
		<path class="st2" d="M46.9,59.3v4.9c0,0.3-0.3,0.5-0.5,0.5c-0.3,0-0.5-0.3-0.5-0.5v-4.9c0-0.3,0.3-0.5,0.5-0.5
			C46.7,58.7,46.9,59,46.9,59.3L46.9,59.3L46.9,59.3L46.9,59.3z"/>
		<path class="st2" d="M52.1,72.1v2.7c0,0.3-0.3,0.5-0.5,0.5c-0.3,0-0.5-0.3-0.5-0.5v-2.7c0-0.3,0.3-0.5,0.5-0.5
			C51.9,71.6,52.1,71.8,52.1,72.1L52.1,72.1L52.1,72.1L52.1,72.1z"/>
		<path class="st2" d="M51.9,65.9v-5.1c0-0.3,0.3-0.5,0.5-0.5c0.3,0,0.5,0.3,0.5,0.5v5.1c0,0.3-0.3,0.5-0.5,0.5
			C52.1,66.4,51.9,66.3,51.9,65.9L51.9,65.9L51.9,65.9L51.9,65.9z"/>
		<path class="st2" d="M57.7,72.7c0.3,0,0.5,0.3,0.5,0.5v4.9c0,0.3-0.3,0.5-0.5,0.5c-0.3,0-0.5-0.3-0.5-0.5v-4.9
			C57.1,73,57.3,72.7,57.7,72.7L57.7,72.7L57.7,72.7L57.7,72.7z"/>
		<path class="st2" d="M59,61.1v5.4c0,0.3-0.3,0.5-0.5,0.5c-0.3,0-0.5-0.3-0.5-0.5v-5.4c0-0.3,0.3-0.5,0.5-0.5
			C58.8,60.6,59,60.7,59,61.1L59,61.1L59,61.1L59,61.1z"/>
		<path class="st2" d="M65,60.6v5.7c0,0.3-0.3,0.5-0.5,0.5c-0.3,0-0.5-0.3-0.5-0.5v-5.7c0-0.3,0.3-0.5,0.5-0.5
			C64.8,60,65,60.2,65,60.6L65,60.6L65,60.6L65,60.6z"/>
		<path class="st2" d="M71.1,59.2v5.1c0,0.3-0.3,0.5-0.5,0.5c-0.3,0-0.5-0.3-0.5-0.5v-5.1c0-0.3,0.3-0.5,0.5-0.5
			C70.8,58.7,71.1,58.9,71.1,59.2L71.1,59.2L71.1,59.2L71.1,59.2z"/>
		<path class="st2" d="M77,56v4.9c0,0.3-0.3,0.5-0.5,0.5c-0.3,0-0.5-0.3-0.5-0.5V56c0-0.3,0.3-0.5,0.5-0.5C76.9,55.5,77,55.6,77,56
			L77,56L77,56L77,56z"/>
		
			<linearGradient id="SVGID_22_" gradientUnits="userSpaceOnUse" x1="36.3005" y1="84.0504" x2="81.048" y2="84.0504" gradientTransform="matrix(1 0 0 -1 0 129)">
			<stop  offset="0" style="stop-color:#0080C9"/>
			<stop  offset="1" style="stop-color:#115BA3"/>
		</linearGradient>
		<path class="st22" d="M36.3,44.9c0-3.4,2.2-6.5,6.3-9c4.3-2.6,10-4,16.1-4s11.8,1.4,16.1,4c4,2.4,6.3,5.7,6.3,9s-2.2,6.5-6.3,9
			c-4.3,2.7-10,4.1-16.1,4.1s-11.8-1.4-16.1-4C38.6,51.4,36.3,48.3,36.3,44.9L36.3,44.9L36.3,44.9L36.3,44.9z"/>
	</g>
</g>
</svg>
