<?xml version="1.0" encoding="utf-8"?>
<!-- Generator: Adobe Illustrator 22.0.1, SVG Export Plug-In . SVG Version: 6.00 Build 0)  -->
<svg version="1.1" id="Capa_1" xmlns="http://www.w3.org/2000/svg" xmlns:xlink="http://www.w3.org/1999/xlink" x="0px" y="0px"
	 viewBox="0 0 129 129" style="enable-background:new 0 0 129 129;" xml:space="preserve">
<style type="text/css">
	.st0{fill:url(#SVGID_1_);}
	.st1{opacity:0.1;}
	.st2{fill:url(#SVGID_2_);}
	.st3{fill:url(#SVGID_3_);}
	.st4{fill:url(#SVGID_4_);}
	.st5{fill:url(#SVGID_5_);}
	.st6{fill:url(#SVGID_6_);}
	.st7{fill:url(#SVGID_7_);}
	.st8{fill:url(#SVGID_8_);}
	.st9{fill:url(#SVGID_9_);}
	.st10{fill:url(#SVGID_10_);}
	.st11{fill:url(#SVGID_11_);}
	.st12{fill:url(#SVGID_12_);}
	.st13{fill:url(#SVGID_13_);}
	.st14{fill:url(#SVGID_14_);}
	.st15{fill:url(#SVGID_15_);}
	.st16{fill:url(#SVGID_16_);}
	.st17{fill:url(#SVGID_17_);}
	.st18{fill:url(#SVGID_18_);}
	.st19{fill:url(#SVGID_19_);}
	.st20{fill:#FFFFFF;}
	.st21{fill:url(#SVGID_20_);}
	.st22{fill:url(#SVGID_21_);}
	.st23{fill:url(#SVGID_22_);}
	.st24{fill:url(#SVGID_23_);}
	.st25{fill:url(#SVGID_24_);}
	.st26{fill:url(#SVGID_25_);}
	.st27{fill:url(#SVGID_26_);}
	.st28{fill:url(#SVGID_27_);}
	.st29{fill:url(#SVGID_28_);}
	.st30{fill:url(#SVGID_29_);}
	.st31{fill:url(#SVGID_30_);}
	.st32{fill:url(#SVGID_31_);}
	.st33{fill:url(#SVGID_32_);}
	.st34{fill:url(#SVGID_33_);}
	.st35{fill:url(#SVGID_34_);}
</style>
<g>
	
		<linearGradient id="SVGID_1_" gradientUnits="userSpaceOnUse" x1="0" y1="64.5" x2="129" y2="64.5" gradientTransform="matrix(1 0 0 -1 0 129)">
		<stop  offset="0" style="stop-color:#FFFFFF;stop-opacity:0.1"/>
		<stop  offset="1" style="stop-color:#0080C8;stop-opacity:0.1"/>
	</linearGradient>
	<circle class="st0" cx="64.5" cy="64.5" r="64.5"/>
	<g>
		<g class="st1">
			
				<linearGradient id="SVGID_2_" gradientUnits="userSpaceOnUse" x1="82.8824" y1="13.4" x2="84.7781" y2="13.4" gradientTransform="matrix(1 0 0 -1 0 129)">
				<stop  offset="0" style="stop-color:#0080C8"/>
				<stop  offset="1" style="stop-color:#0E5AA1"/>
			</linearGradient>
			<circle class="st2" cx="83.8" cy="115.6" r="0.9"/>
			
				<linearGradient id="SVGID_3_" gradientUnits="userSpaceOnUse" x1="67.3" y1="37.7" x2="100.3" y2="37.7" gradientTransform="matrix(1 0 0 -1 0 129)">
				<stop  offset="0" style="stop-color:#0080C8"/>
				<stop  offset="1" style="stop-color:#0E5AA1"/>
			</linearGradient>
			<path class="st3" d="M97.8,62.9h-28c-1.4,0-2.5,1.1-2.5,2.5v51.8c0,1.4,1.1,2.5,2.5,2.5h28c1.4,0,2.5-1.1,2.5-2.5V65.4
				C100.3,64,99.2,62.9,97.8,62.9z M69.8,64.1h28c0.7,0,1.3,0.6,1.3,1.3v3.4H68.6v-3.4C68.6,64.7,69.1,64.1,69.8,64.1z M68.6,70
				h30.5v41.4H68.6V70z M97.8,118.5h-28c-0.7,0-1.3-0.6-1.3-1.3v-4.5H99v4.5C99.1,117.9,98.5,118.5,97.8,118.5z"/>
			<g>
				
					<linearGradient id="SVGID_4_" gradientUnits="userSpaceOnUse" x1="78.6553" y1="62.6" x2="85.3903" y2="62.6" gradientTransform="matrix(1 0 0 -1 0 129)">
					<stop  offset="0" style="stop-color:#0080C8"/>
					<stop  offset="1" style="stop-color:#0E5AA1"/>
				</linearGradient>
				<path class="st4" d="M84.8,67h-5.5c-0.3,0-0.6-0.3-0.6-0.6c0-0.3,0.3-0.6,0.6-0.6h5.5c0.3,0,0.6,0.3,0.6,0.6S85.1,67,84.8,67z"
					/>
				
					<linearGradient id="SVGID_5_" gradientUnits="userSpaceOnUse" x1="86.5336" y1="62.6" x2="89.0059" y2="62.6" gradientTransform="matrix(1 0 0 -1 0 129)">
					<stop  offset="0" style="stop-color:#0080C8"/>
					<stop  offset="1" style="stop-color:#0E5AA1"/>
				</linearGradient>
				<path class="st5" d="M88.4,67h-1.2c-0.3,0-0.6-0.3-0.6-0.6c0-0.3,0.3-0.6,0.6-0.6h1.2c0.3,0,0.6,0.3,0.6,0.6S88.7,67,88.4,67z"
					/>
			</g>
		</g>
		<g class="st1">
			
				<linearGradient id="SVGID_6_" gradientUnits="userSpaceOnUse" x1="44.2212" y1="67" x2="46.1169" y2="67" gradientTransform="matrix(1 0 0 -1 0 129)">
				<stop  offset="0" style="stop-color:#0080C8"/>
				<stop  offset="1" style="stop-color:#0E5AA1"/>
			</linearGradient>
			<circle class="st6" cx="45.2" cy="62" r="0.9"/>
			
				<linearGradient id="SVGID_7_" gradientUnits="userSpaceOnUse" x1="28.656" y1="91.4" x2="61.656" y2="91.4" gradientTransform="matrix(1 0 0 -1 0 129)">
				<stop  offset="0" style="stop-color:#0080C8"/>
				<stop  offset="1" style="stop-color:#0E5AA1"/>
			</linearGradient>
			<path class="st7" d="M59.2,9.2h-28c-1.4,0-2.5,1.1-2.5,2.5v51.8c0,1.4,1.1,2.5,2.5,2.5h28c1.4,0,2.5-1.1,2.5-2.5V11.8
				C61.7,10.4,60.6,9.2,59.2,9.2z M31.2,10.5h28c0.7,0,1.3,0.6,1.3,1.3v3.4H29.9v-3.4C29.9,11.1,30.5,10.5,31.2,10.5z M29.9,16.4
				h30.5v41.4H29.9V16.4z M59.2,64.9h-28c-0.7,0-1.3-0.6-1.3-1.3v-4.5h30.5v4.5C60.4,64.3,59.9,64.9,59.2,64.9z"/>
			<g>
				
					<linearGradient id="SVGID_8_" gradientUnits="userSpaceOnUse" x1="40" y1="116.2" x2="46.735" y2="116.2" gradientTransform="matrix(1 0 0 -1 0 129)">
					<stop  offset="0" style="stop-color:#0080C8"/>
					<stop  offset="1" style="stop-color:#0E5AA1"/>
				</linearGradient>
				<path class="st8" d="M46.1,13.4h-5.5c-0.3,0-0.6-0.3-0.6-0.6s0.3-0.6,0.6-0.6h5.5c0.3,0,0.6,0.3,0.6,0.6S46.4,13.4,46.1,13.4z"
					/>
				
					<linearGradient id="SVGID_9_" gradientUnits="userSpaceOnUse" x1="47.8724" y1="116.2" x2="50.3447" y2="116.2" gradientTransform="matrix(1 0 0 -1 0 129)">
					<stop  offset="0" style="stop-color:#0080C8"/>
					<stop  offset="1" style="stop-color:#0E5AA1"/>
				</linearGradient>
				<path class="st9" d="M49.7,13.4h-1.2c-0.3,0-0.6-0.3-0.6-0.6s0.3-0.6,0.6-0.6h1.2c0.3,0,0.6,0.3,0.6,0.6S50.1,13.4,49.7,13.4z"
					/>
			</g>
		</g>
	</g>
	<g>
		
			<linearGradient id="SVGID_10_" gradientUnits="userSpaceOnUse" x1="42.9" y1="69.95" x2="89.2" y2="69.95" gradientTransform="matrix(1 0 0 -1 0 129)">
			<stop  offset="0" style="stop-color:#0080C8"/>
			<stop  offset="1" style="stop-color:#0E5AA1"/>
		</linearGradient>
		<path class="st10" d="M42.9,91.7h41.7V71.3l4.6-5.1l-3.7-3.7l-0.9,0.9v-37H42.9V91.7z M42.9,62.1v14.8 M42.9,44v16.2 M85.5,65.1
			l1.3,1.3L86,67.2l-1.4,1.5L84.2,69l-1.5,1.5l-10,10l-1.3-1.3l11.3-11.3l0.5-0.5l0.2-0.2l1.2-1.2L85.5,65.1z M44.7,28.3h38v8.8h-38
			C44.7,37.1,44.7,28.3,44.7,28.3z M82.7,89.9h-38v-51h38v26.3L68.8,79.1l3.9,3.9l10-10C82.7,73,82.7,89.9,82.7,89.9z"/>
		
			<linearGradient id="SVGID_11_" gradientUnits="userSpaceOnUse" x1="51.2" y1="77.55" x2="76.2" y2="77.55" gradientTransform="matrix(1 0 0 -1 0 129)">
			<stop  offset="0" style="stop-color:#0080C8"/>
			<stop  offset="1" style="stop-color:#0E5AA1"/>
		</linearGradient>
		<rect x="51.2" y="50.5" class="st11" width="25" height="1.9"/>
		
			<linearGradient id="SVGID_12_" gradientUnits="userSpaceOnUse" x1="51.2" y1="70.65" x2="76.2" y2="70.65" gradientTransform="matrix(1 0 0 -1 0 129)">
			<stop  offset="0" style="stop-color:#0080C8"/>
			<stop  offset="1" style="stop-color:#0E5AA1"/>
		</linearGradient>
		<rect x="51.2" y="57.4" class="st12" width="25" height="1.9"/>
		
			<linearGradient id="SVGID_13_" gradientUnits="userSpaceOnUse" x1="51.2" y1="63.65" x2="76.2" y2="63.65" gradientTransform="matrix(1 0 0 -1 0 129)">
			<stop  offset="0" style="stop-color:#0080C8"/>
			<stop  offset="1" style="stop-color:#0E5AA1"/>
		</linearGradient>
		<rect x="51.2" y="64.4" class="st13" width="25" height="1.9"/>
		
			<linearGradient id="SVGID_14_" gradientUnits="userSpaceOnUse" x1="51.2" y1="48.35" x2="63.7" y2="48.35" gradientTransform="matrix(1 0 0 -1 0 129)">
			<stop  offset="0" style="stop-color:#0080C8"/>
			<stop  offset="1" style="stop-color:#0E5AA1"/>
		</linearGradient>
		<rect x="51.2" y="79.7" class="st14" width="12.5" height="1.9"/>
		
			<linearGradient id="SVGID_15_" gradientUnits="userSpaceOnUse" x1="74.8209" y1="97" x2="80.3764" y2="97" gradientTransform="matrix(1 0 0 -1 0 129)">
			<stop  offset="0" style="stop-color:#0080C8"/>
			<stop  offset="1" style="stop-color:#0E5AA1"/>
		</linearGradient>
		<rect x="74.8" y="30.6" class="st15" width="5.6" height="2.8"/>
		
			<linearGradient id="SVGID_16_" gradientUnits="userSpaceOnUse" x1="66.932" y1="46.75" x2="72.3024" y2="46.75" gradientTransform="matrix(1 0 0 -1 0 129)">
			<stop  offset="0" style="stop-color:#0080C8"/>
			<stop  offset="1" style="stop-color:#0E5AA1"/>
		</linearGradient>
		<polygon class="st16" points="66.9,84.9 72.3,83.5 68.4,79.6 		"/>
		
			<linearGradient id="SVGID_17_" gradientUnits="userSpaceOnUse" x1="73.432" y1="34.45" x2="81.7653" y2="34.45" gradientTransform="matrix(1 0 0 -1 0 129)">
			<stop  offset="0" style="stop-color:#0080C8"/>
			<stop  offset="1" style="stop-color:#0E5AA1"/>
		</linearGradient>
		<rect x="73.4" y="93.6" class="st17" width="8.3" height="1.9"/>
		
			<linearGradient id="SVGID_18_" gradientUnits="userSpaceOnUse" x1="73.432" y1="30.35" x2="81.7653" y2="30.35" gradientTransform="matrix(1 0 0 -1 0 129)">
			<stop  offset="0" style="stop-color:#0080C8"/>
			<stop  offset="1" style="stop-color:#0E5AA1"/>
		</linearGradient>
		<rect x="73.4" y="97.7" class="st18" width="8.3" height="1.9"/>
	</g>
	<g>
		
			<linearGradient id="SVGID_19_" gradientUnits="userSpaceOnUse" x1="1465.6917" y1="-27.0778" x2="1502.5347" y2="-27.0778" gradientTransform="matrix(-1 0 0 1 1523.8413 129.0778)">
			<stop  offset="0" style="stop-color:#FFFFFF"/>
			<stop  offset="1" style="stop-color:#0080C8"/>
		</linearGradient>
		<path class="st19" d="M36.8,107.6H22.3c-0.6,0-1-0.4-1-1s0.4-1,1-1h14.5c1.3,0,2.6-0.4,2.6-3.6c0-2.6,0.5-5.6,4.3-5.6h13.4
			c0.6,0,1,0.4,1,1s-0.4,1-1,1H43.7c-1.4,0-2.3,0.2-2.3,3.6C41.4,106.8,38.5,107.6,36.8,107.6z"/>
	</g>
	<circle class="st20" cx="21.5" cy="106.6" r="3.8"/>
	
		<linearGradient id="SVGID_20_" gradientUnits="userSpaceOnUse" x1="1500.3309" y1="-22.4778" x2="1504.4253" y2="-22.4778" gradientTransform="matrix(-1 0 0 1 1523.8413 129.0778)">
		<stop  offset="0" style="stop-color:#0080C8"/>
		<stop  offset="1" style="stop-color:#0E5AA1"/>
	</linearGradient>
	<circle class="st21" cx="21.5" cy="106.6" r="2"/>
	<g>
		
			<linearGradient id="SVGID_21_" gradientUnits="userSpaceOnUse" x1="-68.2319" y1="15.7312" x2="-44.2944" y2="15.7312" gradientTransform="matrix(1 0 0 1 155.1866 67.0688)">
			<stop  offset="0" style="stop-color:#FFFFFF"/>
			<stop  offset="1" style="stop-color:#0080C8"/>
		</linearGradient>
		<path class="st22" d="M110.4,87.9h-6c-1.9,0-4.1-0.9-4.1-5.1c0-3.4-1-4.1-2.8-4.1h-10c-0.3,0-0.5-0.2-0.5-0.5s0.2-0.5,0.5-0.5h10
			c2.7,0,3.8,1.5,3.8,5.1s1.8,4.1,3.1,4.1h6c0.3,0,0.5,0.2,0.5,0.5S110.7,87.9,110.4,87.9z"/>
	</g>
	<circle class="st20" cx="111.2" cy="87.4" r="3.8"/>
	
		<linearGradient id="SVGID_22_" gradientUnits="userSpaceOnUse" x1="-45.9986" y1="20.3312" x2="-41.9042" y2="20.3312" gradientTransform="matrix(1 0 0 1 155.1866 67.0688)">
		<stop  offset="0" style="stop-color:#0080C8"/>
		<stop  offset="1" style="stop-color:#0E5AA1"/>
	</linearGradient>
	<circle class="st23" cx="111.2" cy="87.4" r="2"/>
	<g>
		
			<linearGradient id="SVGID_23_" gradientUnits="userSpaceOnUse" x1="1297.5806" y1="153.7246" x2="1321.5181" y2="153.7246" gradientTransform="matrix(-1 0 0 -1 1339.2805 222.6246)">
			<stop  offset="0" style="stop-color:#FFFFFF"/>
			<stop  offset="1" style="stop-color:#0080C8"/>
		</linearGradient>
		<path class="st24" d="M41.2,74h-10c-2.7,0-3.8-1.5-3.8-5.1s-1.8-4.1-3.1-4.1h-6c-0.3,0-0.5-0.2-0.5-0.5s0.2-0.5,0.5-0.5h6
			c1.9,0,4.1,0.9,4.1,5.1c0,3.4,1,4.1,2.8,4.1h10c0.3,0,0.5,0.2,0.5,0.5S41.5,74,41.2,74z"/>
	</g>
	<circle class="st20" cx="17.4" cy="64.4" r="3.8"/>
	
		<linearGradient id="SVGID_24_" gradientUnits="userSpaceOnUse" x1="1319.8025" y1="158.2246" x2="1323.8969" y2="158.2246" gradientTransform="matrix(-1 0 0 -1 1339.2805 222.6246)">
		<stop  offset="0" style="stop-color:#0080C8"/>
		<stop  offset="1" style="stop-color:#0E5AA1"/>
	</linearGradient>
	<circle class="st25" cx="17.4" cy="64.4" r="2"/>
	<g>
		
			<linearGradient id="SVGID_25_" gradientUnits="userSpaceOnUse" x1="94.3301" y1="52.7928" x2="119.2676" y2="52.7928" gradientTransform="matrix(1 0 0 -1 -5.3721 82.7928)">
			<stop  offset="0" style="stop-color:#FFFFFF"/>
			<stop  offset="1" style="stop-color:#0080C8"/>
		</linearGradient>
		<path class="st26" d="M100,35.6H90c-0.6,0-1-0.4-1-1s0.4-1,1-1h10c1.4,0,2.3-0.2,2.3-3.6c0-4.8,2.9-5.6,4.6-5.6h6c0.6,0,1,0.4,1,1
			s-0.4,1-1,1h-6c-1.3,0-2.6,0.4-2.6,3.6C104.3,32.6,103.8,35.6,100,35.6z"/>
	</g>
	<circle class="st20" cx="113.8" cy="25.6" r="3.8"/>
	
		<linearGradient id="SVGID_26_" gradientUnits="userSpaceOnUse" x1="1408.0077" y1="-103.4778" x2="1412.1021" y2="-103.4778" gradientTransform="matrix(-1 0 0 1 1523.8413 129.0778)">
		<stop  offset="0" style="stop-color:#0080C8"/>
		<stop  offset="1" style="stop-color:#0E5AA1"/>
	</linearGradient>
	<circle class="st27" cx="113.8" cy="25.6" r="2"/>
	<g>
		<g>
			
				<linearGradient id="SVGID_27_" gradientUnits="userSpaceOnUse" x1="123.6344" y1="76.925" x2="92.5471" y2="76.925" gradientTransform="matrix(1 0 0 -1 0 129)">
				<stop  offset="0" style="stop-color:#0080C8"/>
				<stop  offset="1" style="stop-color:#FFFFFF"/>
			</linearGradient>
			<path class="st28" d="M93,52.6c-0.1,0-0.3-0.1-0.3-0.1c-0.1-0.1-0.2-0.2-0.2-0.4c0-0.1,0-0.1,0-0.2c0-0.1,0.1-0.1,0.1-0.2
				c0.2-0.2,0.5-0.2,0.7,0c0.1,0.1,0.1,0.2,0.1,0.4c0,0.1-0.1,0.3-0.1,0.4C93.3,52.5,93.2,52.6,93,52.6z"/>
		</g>
		<g>
			
				<linearGradient id="SVGID_28_" gradientUnits="userSpaceOnUse" x1="122.0464" y1="76.9" x2="92.7184" y2="76.9" gradientTransform="matrix(1 0 0 -1 0 129)">
				<stop  offset="0" style="stop-color:#0080C8"/>
				<stop  offset="1" style="stop-color:#FFFFFF"/>
			</linearGradient>
			<path class="st29" d="M119.6,52.1c0-0.3,0.2-0.5,0.5-0.5l0,0c0.3,0,0.5,0.2,0.5,0.5l0,0c0,0.3-0.2,0.5-0.5,0.5l0,0
				C119.8,52.6,119.6,52.3,119.6,52.1z M116.6,52.1c0-0.3,0.2-0.5,0.5-0.5l0,0c0.3,0,0.5,0.2,0.5,0.5l0,0c0,0.3-0.2,0.5-0.5,0.5l0,0
				C116.8,52.6,116.6,52.3,116.6,52.1z M113.6,52.1c0-0.3,0.2-0.5,0.5-0.5l0,0c0.3,0,0.5,0.2,0.5,0.5l0,0c0,0.3-0.2,0.5-0.5,0.5l0,0
				C113.8,52.6,113.6,52.3,113.6,52.1z M110.6,52.1c0-0.3,0.2-0.5,0.5-0.5l0,0c0.3,0,0.5,0.2,0.5,0.5l0,0c0,0.3-0.2,0.5-0.5,0.5l0,0
				C110.8,52.6,110.6,52.3,110.6,52.1z M107.6,52.1c0-0.3,0.2-0.5,0.5-0.5l0,0c0.3,0,0.5,0.2,0.5,0.5l0,0c0,0.3-0.2,0.5-0.5,0.5l0,0
				C107.8,52.6,107.6,52.3,107.6,52.1z M104.6,52.1c0-0.3,0.2-0.5,0.5-0.5l0,0c0.3,0,0.5,0.2,0.5,0.5l0,0c0,0.3-0.2,0.5-0.5,0.5l0,0
				C104.8,52.6,104.6,52.3,104.6,52.1z M101.6,52.1c0-0.3,0.2-0.5,0.5-0.5l0,0c0.3,0,0.5,0.2,0.5,0.5l0,0c0,0.3-0.2,0.5-0.5,0.5l0,0
				C101.8,52.6,101.6,52.3,101.6,52.1z M98.6,52.1c0-0.3,0.2-0.5,0.5-0.5l0,0c0.3,0,0.5,0.2,0.5,0.5l0,0c0,0.3-0.2,0.5-0.5,0.5l0,0
				C98.8,52.6,98.6,52.3,98.6,52.1z M95.6,52.1c0-0.3,0.2-0.5,0.5-0.5l0,0c0.3,0,0.5,0.2,0.5,0.5l0,0c0,0.3-0.2,0.5-0.5,0.5l0,0
				C95.8,52.6,95.6,52.3,95.6,52.1z"/>
		</g>
		<g>
			
				<linearGradient id="SVGID_29_" gradientUnits="userSpaceOnUse" x1="123.637" y1="76.9" x2="92.2461" y2="76.9" gradientTransform="matrix(1 0 0 -1 0 129)">
				<stop  offset="0" style="stop-color:#0080C8"/>
				<stop  offset="1" style="stop-color:#FFFFFF"/>
			</linearGradient>
			<path class="st30" d="M123.1,52.6c-0.1,0-0.3,0-0.3-0.1c-0.1-0.1-0.2-0.2-0.2-0.4c0-0.1,0.1-0.3,0.2-0.4c0,0,0.1-0.1,0.2-0.1
				s0.3,0,0.4,0s0.1,0.1,0.2,0.1c0.1,0.1,0.1,0.2,0.1,0.4c0,0.1-0.1,0.3-0.1,0.4c0,0-0.1,0.1-0.2,0.1
				C123.3,52.6,123.2,52.6,123.1,52.6z"/>
		</g>
	</g>
	
		<linearGradient id="SVGID_30_" gradientUnits="userSpaceOnUse" x1="1396.5353" y1="-76.9778" x2="1402.2174" y2="-76.9778" gradientTransform="matrix(-1 0 0 1 1523.8413 129.0778)">
		<stop  offset="0" style="stop-color:#0080C8"/>
		<stop  offset="1" style="stop-color:#0E5AA1"/>
	</linearGradient>
	<circle class="st31" cx="124.5" cy="52.1" r="2.8"/>
	<circle class="st20" cx="124.5" cy="52.1" r="1.5"/>
	<g>
		<g>
			
				<linearGradient id="SVGID_31_" gradientUnits="userSpaceOnUse" x1="10.6627" y1="85.0375" x2="41.75" y2="85.0375" gradientTransform="matrix(1 0 0 -1 0 129)">
				<stop  offset="0" style="stop-color:#0080C8"/>
				<stop  offset="1" style="stop-color:#FFFFFF"/>
			</linearGradient>
			<path class="st32" d="M41.3,44.5c-0.1,0-0.1,0-0.2,0c-0.1,0-0.1-0.1-0.2-0.1c-0.1-0.1-0.1-0.2-0.1-0.4c0-0.1,0-0.3,0.1-0.4
				c0-0.1,0.1-0.1,0.2-0.1c0.1-0.1,0.3-0.1,0.4,0c0.1,0,0.1,0.1,0.2,0.1c0.1,0.1,0.2,0.2,0.2,0.4c0,0.1-0.1,0.3-0.2,0.4
				c0,0-0.1,0.1-0.2,0.1C41.4,44.5,41.3,44.5,41.3,44.5z"/>
		</g>
		<g>
			
				<linearGradient id="SVGID_32_" gradientUnits="userSpaceOnUse" x1="12.2507" y1="85" x2="41.5781" y2="85" gradientTransform="matrix(1 0 0 -1 0 129)">
				<stop  offset="0" style="stop-color:#0080C8"/>
				<stop  offset="1" style="stop-color:#FFFFFF"/>
			</linearGradient>
			<path class="st33" d="M37.7,44c0-0.3,0.2-0.5,0.5-0.5l0,0c0.3,0,0.5,0.2,0.5,0.5l0,0c0,0.3-0.2,0.5-0.5,0.5l0,0
				C38,44.5,37.7,44.3,37.7,44z M34.7,44c0-0.3,0.2-0.5,0.5-0.5l0,0c0.3,0,0.5,0.2,0.5,0.5l0,0c0,0.3-0.2,0.5-0.5,0.5l0,0
				C35,44.5,34.7,44.3,34.7,44z M31.7,44c0-0.3,0.2-0.5,0.5-0.5l0,0c0.3,0,0.5,0.2,0.5,0.5l0,0c0,0.3-0.2,0.5-0.5,0.5l0,0
				C31.9,44.5,31.7,44.3,31.7,44z M28.7,44c0-0.3,0.2-0.5,0.5-0.5l0,0c0.3,0,0.5,0.2,0.5,0.5l0,0c0,0.3-0.2,0.5-0.5,0.5l0,0
				C28.9,44.5,28.7,44.3,28.7,44z M25.7,44c0-0.3,0.2-0.5,0.5-0.5l0,0c0.3,0,0.5,0.2,0.5,0.5l0,0c0,0.3-0.2,0.5-0.5,0.5l0,0
				C25.9,44.5,25.7,44.3,25.7,44z M22.7,44c0-0.3,0.2-0.5,0.5-0.5l0,0c0.3,0,0.5,0.2,0.5,0.5l0,0c0,0.3-0.2,0.5-0.5,0.5l0,0
				C22.9,44.5,22.7,44.3,22.7,44z M19.7,44c0-0.3,0.2-0.5,0.5-0.5l0,0c0.3,0,0.5,0.2,0.5,0.5l0,0c0,0.3-0.2,0.5-0.5,0.5l0,0
				C19.9,44.5,19.7,44.3,19.7,44z M16.7,44c0-0.3,0.2-0.5,0.5-0.5l0,0c0.3,0,0.5,0.2,0.5,0.5l0,0c0,0.3-0.2,0.5-0.5,0.5l0,0
				C16.9,44.5,16.7,44.3,16.7,44z M13.7,44c0-0.3,0.2-0.5,0.5-0.5l0,0c0.3,0,0.5,0.2,0.5,0.5l0,0c0,0.3-0.2,0.5-0.5,0.5l0,0
				C13.9,44.5,13.7,44.3,13.7,44z"/>
		</g>
		<g>
			
				<linearGradient id="SVGID_33_" gradientUnits="userSpaceOnUse" x1="10.6597" y1="85.0375" x2="41.7469" y2="85.0375" gradientTransform="matrix(1 0 0 -1 0 129)">
				<stop  offset="0" style="stop-color:#0080C8"/>
				<stop  offset="1" style="stop-color:#FFFFFF"/>
			</linearGradient>
			<path class="st34" d="M11.2,44.5c-0.1,0-0.1,0-0.2,0c-0.1,0-0.1-0.1-0.2-0.1c-0.1-0.1-0.2-0.2-0.2-0.4c0-0.1,0.1-0.3,0.2-0.4
				c0-0.1,0.1-0.1,0.2-0.1c0.1-0.1,0.3-0.1,0.4,0c0.1,0,0.1,0.1,0.2,0.1c0.1,0.1,0.1,0.2,0.1,0.4c0,0.1,0,0.3-0.1,0.4
				c-0.1,0-0.1,0.1-0.2,0.1S11.2,44.5,11.2,44.5z"/>
		</g>
	</g>
	
		<linearGradient id="SVGID_34_" gradientUnits="userSpaceOnUse" x1="71.6629" y1="84.9349" x2="77.345" y2="84.9349" gradientTransform="matrix(1 0 0 -1 -64.6731 128.9349)">
		<stop  offset="0" style="stop-color:#0080C8"/>
		<stop  offset="1" style="stop-color:#0E5AA1"/>
	</linearGradient>
	<circle class="st35" cx="9.8" cy="44" r="2.8"/>
	<circle class="st20" cx="9.8" cy="44" r="1.5"/>
</g>
</svg>
