<svg xmlns="http://www.w3.org/2000/svg" width="24.309" height="24.308" viewBox="0 0 24.309 24.308">
  <path id="linkedin" d="M22.572,32H1.731A1.744,1.744,0,0,0,0,33.753v20.8a1.744,1.744,0,0,0,1.731,1.753H22.572a1.748,1.748,0,0,0,1.736-1.753v-20.8A1.748,1.748,0,0,0,22.572,32ZM7.347,52.836h-3.6v-11.6H7.352v11.6Zm-1.8-13.185a2.089,2.089,0,1,1,2.089-2.089A2.09,2.09,0,0,1,5.545,39.651ZM20.852,52.836h-3.6V47.193c0-1.346-.027-3.077-1.872-3.077-1.877,0-2.165,1.465-2.165,2.979v5.741h-3.6v-11.6h3.456v1.584h.049a3.8,3.8,0,0,1,3.413-1.872c3.646,0,4.324,2.4,4.324,5.529Z" transform="translate(0 -32)" fill="#fff"/>
</svg>
