<svg xmlns="http://www.w3.org/2000/svg" width="24.309" height="24.308" viewBox="0 0 24.309 24.308">
  <path id="medium" d="M0,32V56.308H24.308V32Zm20.2,5.757L18.893,39a.382.382,0,0,0-.147.364v9.186a.373.373,0,0,0,.147.364l1.275,1.248v.277h-6.4v-.266L15.084,48.9c.13-.13.13-.168.13-.364V41.1l-3.668,9.311h-.494L6.782,41.1v6.24a.858.858,0,0,0,.239.716l1.715,2.078v.277H3.863v-.277l1.715-2.078a.831.831,0,0,0,.222-.716V40.128a.619.619,0,0,0-.206-.532L4.069,37.757V37.48H8.806l3.657,8.03,3.218-8.025H20.2Z" transform="translate(0 -32)" fill="#fff"/>
</svg>
