<svg xmlns="http://www.w3.org/2000/svg" width="103.261" height="103.261" viewBox="0 0 103.261 103.261">
  <g id="Grupo_517" data-name="Grupo 517" transform="translate(-514 -3869)">
    <g id="Elipse_100" data-name="Elipse 100" transform="translate(516 3871)" fill="#fff" stroke="#0059a3" stroke-linecap="round" stroke-width="2">
      <circle cx="49.63" cy="49.63" r="49.63" stroke="none"/>
      <circle cx="49.63" cy="49.63" r="50.63" fill="none"/>
    </g>
    <g id="Grupo_505" data-name="Grupo 505" transform="translate(-216.95 -5.898)">
      <g id="Grupo_504" data-name="Grupo 504" transform="translate(757 3905.965)">
        <path id="Trazado_433" data-name="Trazado 433" d="M244.48,215.745a4.865,4.865,0,1,0-5.887,4.768h-.6v5.368l-.1-.114-2.481,2.076,6.227,7.476,2.433-2.076-2.9-3.47v-9.26h-.6A4.865,4.865,0,0,0,244.48,215.745Zm-4.865,1.622a1.622,1.622,0,1,1,1.622-1.622A1.622,1.622,0,0,1,239.615,217.367Z" transform="translate(-195.926 -205.286)" fill="#8c99ad"/>
        <rect id="Rectángulo_336" data-name="Rectángulo 336" width="9.73" height="3.243" transform="translate(0 37.558)" fill="#8c99ad"/>
        <rect id="Rectángulo_337" data-name="Rectángulo 337" width="3.243" height="9.73" transform="translate(0.602 1.356) rotate(-15.18)" fill="#8c99ad"/>
        <path id="Trazado_434" data-name="Trazado 434" d="M223.051,225.449l-2.319-2.789-7.882,2.9,1.119,3.033,5.741-2.092.859,1.022Z" transform="translate(-185.864 -210.693)" fill="#8c99ad"/>
        <rect id="Rectángulo_338" data-name="Rectángulo 338" width="9.73" height="3.243" transform="translate(34.381 37.558)" fill="#8c99ad"/>
        <rect id="Rectángulo_339" data-name="Rectángulo 339" width="9.73" height="3.243" transform="translate(17.19 37.558)" fill="#8c99ad"/>
        <path id="Trazado_435" data-name="Trazado 435" d="M256.35,264.892l1.508,1.8h-.438v3.243H264.8l-5.952-7.136Z" transform="translate(-205.849 -229.134)" fill="#8c99ad"/>
        <path id="Trazado_436" data-name="Trazado 436" d="M184.249,212.133,183,215.2l9.065,3.535,1.184-3.033-3.243-1.233v-4.492a4.865,4.865,0,1,0-3.243,0v3.243Zm4.233-8.4a1.6,1.6,0,1,0,0,.049Z" transform="translate(-172.151 -200.522)" fill="#8c99ad"/>
      </g>
    </g>
  </g>
</svg>
