<svg xmlns="http://www.w3.org/2000/svg" width="103.261" height="103.261" viewBox="0 0 103.261 103.261">
  <g id="Grupo_518" data-name="Grupo 518" transform="translate(-663 -3869)">
    <g id="Elipse_103" data-name="Elipse 103" transform="translate(665 3871)" fill="#fff" stroke="#0059a3" stroke-linecap="round" stroke-width="2">
      <circle cx="49.63" cy="49.63" r="49.63" stroke="none"/>
      <circle cx="49.63" cy="49.63" r="50.63" fill="none"/>
    </g>
    <g id="Grupo_506" data-name="Grupo 506" transform="translate(12.696 9.7)">
      <path id="Trazado_437" data-name="Trazado 437" d="M166.721,132.818l.486,4.423,2.241-3.744a176.876,176.876,0,0,1,13.15-18.958l15.022,15.007,5.543-5.572L188.141,108.98a175.682,175.682,0,0,1,18.884-13.135l3.744-2.255-4.334-.486a37.841,37.841,0,0,0-25.975,8.2L177.7,98.543l-5.543,5.558,2.742,2.742A37.8,37.8,0,0,0,166.721,132.818Zm30.958-7.371-12.354-12.339,1.386-1.371,12.28,12.236ZM177.7,102.715l.516.516-1.386,1.371-.5-.5ZM179.62,106a34.834,34.834,0,0,1,21.361-9.862c-5.071,3.258-13.179,8.757-17.823,13.4S173,122.322,169.743,127.393A34.775,34.775,0,0,1,179.62,106Z" transform="translate(510.754 3794.612)" fill="#8c99ad"/>
      <rect id="Rectángulo_340" data-name="Rectángulo 340" width="7.341" height="2.948" transform="translate(709.046 3924.483) rotate(-45)" fill="#8c99ad"/>
      <rect id="Rectángulo_341" data-name="Rectángulo 341" width="7.341" height="2.948" transform="translate(711.649 3927.103) rotate(-45)" fill="#8c99ad"/>
      <rect id="Rectángulo_342" data-name="Rectángulo 342" width="7.341" height="2.948" transform="translate(714.242 3929.697) rotate(-45)" fill="#8c99ad"/>
      <rect id="Rectángulo_343" data-name="Rectángulo 343" width="7.341" height="2.948" transform="translate(716.835 3932.292) rotate(-45)" fill="#8c99ad"/>
    </g>
  </g>
</svg>
