<svg xmlns="http://www.w3.org/2000/svg" width="107.279" height="107.173" viewBox="0 0 107.279 107.173"><path d="M134.266,241.836a1.473,1.473,0,0,0,.487,1.136,1.606,1.606,0,0,0,2.27-2.271A1.622,1.622,0,0,0,134.266,241.836Z" transform="translate(-87.037 -174.193)" fill="#0059a3"/><path d="M91.892,231a1.606,1.606,0,1,0-2.27,0A1.568,1.568,0,0,0,91.892,231Z" transform="translate(-76.782 -171.467)" fill="#0059a3"/><path d="M191.323,255.523c-18.816-.325-45.744,2.109-61.966,26.765a1.642,1.642,0,0,0,2.758,1.784c15.41-23.359,41.2-25.63,59.208-25.305a1.622,1.622,0,1,0,0-3.244Z" transform="translate(-85.859 -177.66)" fill="#0059a3"/><path d="M154.21,286.1c12.167-14.112,27.576-17.194,42.338-19.141a1.631,1.631,0,0,0-.325-3.245c-15.41,2.109-31.47,5.192-44.446,20.115a1.668,1.668,0,0,0,2.433,2.27Z" transform="translate(-90.922 -179.528)" fill="#0059a3"/><path d="M73.337,235.833a1.609,1.609,0,0,0,2.108.811c11.355-4.866,30.821-4.866,49.152,5.515a66.82,66.82,0,0,0-7.624,6.164c-11.842-8.759-26.766-8.6-40.067-8.273l-2.109.162a1.622,1.622,0,0,0,0,3.244c13.95-.162,28.387-.811,39.742,7.3q-2.676,2.677-5.353,5.84c-10.706-8.759-22.71-8.435-34.227-9.9a1.631,1.631,0,0,0-.325,3.245c11.841,1.622,22.71,1.135,32.6,9.246a66.009,66.009,0,0,0-5.353,7.786,1.642,1.642,0,1,0,2.758,1.784c26.116-41.527,61.966-34.227,73.807-31.794a1.655,1.655,0,0,0,.649-3.245c-19.952-4.055-36.985-1.946-51.26,6.651h0c-.974-.487-1.784-.974-2.758-1.46a9.227,9.227,0,0,0,4.7-14.113l1.135-9.409a1.5,1.5,0,0,0-1.135-1.784l-13.139-3.731.325-5.353,2.433-.973a1.6,1.6,0,0,0-1.3-2.92l-3.244,1.461a1.412,1.412,0,0,0-.973,1.3l-.649,5.84-1.947-.487,1.784-14.112,12.815,1.622h.162a1.726,1.726,0,0,0,1.622-1.46,1.611,1.611,0,0,0-1.46-1.784l-39.581-4.867a1.533,1.533,0,0,0-1.784,1.46,1.612,1.612,0,0,0,1.461,1.785l3.244.324L88.1,203.065l-1.623-.162a1.63,1.63,0,1,0-.324,3.244l1.622.162-.325,2.6a12.324,12.324,0,0,0-12.328,11.031A12.621,12.621,0,0,0,80.8,232.1a39.953,39.953,0,0,0-6.651,2.109C73.337,234.048,73.012,235.022,73.337,235.833Zm22.71-5.353a12.952,12.952,0,0,0,3.244-4.542c.325,0,13.951,1.784,13.789,1.622a2.758,2.758,0,0,0-.162,1.135,10.613,10.613,0,0,0,.811,5.028A81.826,81.826,0,0,0,96.047,230.48Zm6.489-7.462h0l-2.433-.162a12.692,12.692,0,0,0-9.409-13.95l.325-2.433A15.173,15.173,0,0,1,102.536,223.018ZM128,230.8a6,6,0,0,1-10.706,2.92,6.108,6.108,0,0,1-1.3-4.379,5.812,5.812,0,0,1,6.651-5.191A5.928,5.928,0,0,1,128,230.8Zm-.811-14.6-.648,5.678a8.461,8.461,0,0,0-3.407-1.135,9.078,9.078,0,0,0-8.6,3.73l-8.759-1.135a19.7,19.7,0,0,0-.811-8.435l3.893.486a1.532,1.532,0,0,0,1.784-1.46l.325-2.6Zm-17.357-22.223-2.271,18.33-4.38-.487A18.369,18.369,0,0,0,91.5,203.39l1.46-11.517Zm-31.47,25.954a9.427,9.427,0,0,1,9.246-8.273h1.135a9.316,9.316,0,1,1-2.271,18.492A8.89,8.89,0,0,1,78.365,219.936Z" transform="translate(-73.15 -162.35)" fill="#0059a3"/><path d="M171.21,180.812a9.246,9.246,0,1,0,9.246-9.246A9.141,9.141,0,0,0,171.21,180.812Zm9.084-6a5.988,5.988,0,0,1,6,6,6,6,0,1,1-12,0A5.988,5.988,0,0,1,180.294,174.81Z" transform="translate(-95.432 -158.589)" fill="#0059a3"/><path d="M184.111,161.91V156.4a1.622,1.622,0,0,0-3.245,0v5.515a1.622,1.622,0,1,0,3.245,0Z" transform="translate(-97.626 -154.773)" fill="#0059a3"/><path d="M170.725,159.154a1.67,1.67,0,0,0-2.92,1.622l2.757,4.867a1.67,1.67,0,0,0,2.92-1.622Z" transform="translate(-94.622 -155.586)" fill="#0059a3"/><path d="M160.4,168.351a1.67,1.67,0,1,0-1.622,2.919l4.866,2.757a1.67,1.67,0,1,0,1.622-2.92Z" transform="translate(-92.407 -157.806)" fill="#0059a3"/><path d="M154.418,183.054a1.532,1.532,0,0,0,1.622,1.622h5.515a1.622,1.622,0,1,0,0-3.244H156.04A1.532,1.532,0,0,0,154.418,183.054Z" transform="translate(-91.616 -160.831)" fill="#0059a3"/><path d="M165.726,191.9a1.8,1.8,0,0,0-2.271-.649l-4.866,2.757a1.67,1.67,0,1,0,1.622,2.92l4.866-2.758A1.573,1.573,0,0,0,165.726,191.9Z" transform="translate(-92.381 -163.026)" fill="#0059a3"/><path d="M168.454,205.944a1.641,1.641,0,0,0,2.271-.649l2.758-4.866a1.67,1.67,0,0,0-2.92-1.622l-2.757,4.866A1.8,1.8,0,0,0,168.454,205.944Z" transform="translate(-94.622 -164.579)" fill="#0059a3"/><path d="M180.866,202.366v5.515a1.622,1.622,0,0,0,3.245,0v-5.515a1.622,1.622,0,0,0-3.245,0Z" transform="translate(-97.626 -165.219)" fill="#0059a3"/><path d="M191.335,198.357a1.8,1.8,0,0,0-.649,2.271l2.758,4.866a1.67,1.67,0,1,0,2.92-1.622l-2.757-4.866A1.525,1.525,0,0,0,191.335,198.357Z" transform="translate(-99.821 -164.616)" fill="#0059a3"/><path d="M203.317,196.7a1.67,1.67,0,1,0,1.622-2.92l-4.866-2.758a1.67,1.67,0,1,0-1.622,2.92Z" transform="translate(-101.422 -162.957)" fill="#0059a3"/><path d="M207.525,181.432H202.01a1.622,1.622,0,1,0,0,3.244h5.515a1.622,1.622,0,1,0,0-3.244Z" transform="translate(-102.061 -160.831)" fill="#0059a3"/><path d="M204.96,171.081a1.67,1.67,0,1,0-1.622-2.92l-4.866,2.757a1.67,1.67,0,0,0,1.622,2.92Z" transform="translate(-101.443 -157.78)" fill="#0059a3"/><path d="M195.9,158.485a1.641,1.641,0,0,0-2.27.648L190.875,164a1.67,1.67,0,0,0,2.92,1.622l2.757-4.867A1.8,1.8,0,0,0,195.9,158.485Z" transform="translate(-99.848 -155.564)" fill="#0059a3"/></svg>