<svg xmlns="http://www.w3.org/2000/svg" width="113.158" height="86.525" viewBox="0 0 113.158 86.525"><g transform="translate(-415.816 -353.253)"><path d="M442.31,386.767a8.835,8.835,0,1,1-8.835,8.836A8.876,8.876,0,0,1,442.31,386.767Zm65.961-9.445a7.546,7.546,0,0,1,3.961-1.218h3.656c6.4,0,7.16,9.6-.457,9.6a17.1,17.1,0,0,1,5.026,10.815c6.246,3.5,10.055,10.359,7.921,17.366H526.7v19.5a6.47,6.47,0,0,1-6.551,6.4H508.88a6.436,6.436,0,0,1-6.4-6.4V420.737H442.31v12.644a6.436,6.436,0,0,1-6.4,6.4H424.64a6.47,6.47,0,0,1-6.55-6.4v-19.5h-1.676c-2.132-7.16,1.676-13.863,7.769-17.366a18.1,18.1,0,0,1,5.18-10.815c-7.617,0-7.007-9.6-.457-9.6h3.656a7.548,7.548,0,0,1,3.961,1.218l3.351-16.147c.762-3.351,2.285-7.921,6.4-7.921h52.251c3.961,0,5.637,4.57,6.4,7.921ZM523.5,418.757a8.9,8.9,0,0,1-6.094,1.98h-11.73v12.644a3.124,3.124,0,0,0,3.2,3.2h11.273a3.253,3.253,0,0,0,3.352-3.2Zm-102.216,0v14.624a3.253,3.253,0,0,0,3.351,3.2h11.273a3.124,3.124,0,0,0,3.2-3.2V420.737h-11.73A8.9,8.9,0,0,1,421.288,418.757Zm102.52-8.074h1.98c.457-3.808-2.285-7.921-5.332-10.359a15.031,15.031,0,0,1-2.742,7.921C519.7,408.245,522.59,409.007,523.809,410.683Zm-102.825,0a8.476,8.476,0,0,1,6.4-2.438,16.9,16.9,0,0,1-3.047-7.921c-3.046,2.438-5.788,6.551-5.484,10.359Zm64.436.761a2.406,2.406,0,0,1-2.437,2.438H461.809a2.318,2.318,0,0,1-2.437-2.438h-31.99c-6.093,0-6.245,6.094,0,6.094H517.41c6.094,0,6.246-6.094,0-6.094Zm-22.85-.761h19.651v-2.743H462.57Zm-30.924-2.438h27.725c0-1.675.3-3.5,2.437-3.5h21.175c2.132,0,2.437,1.828,2.437,3.5H513.6c8.378-8.987,2.133-24.373-10.358-24.373H441.549C428.753,383.873,422.811,399.563,431.647,408.245ZM511.013,382.5h4.875a1.614,1.614,0,1,0,0-3.2h-3.656a5.453,5.453,0,0,0-3.2,1.37l.3,1.219C509.794,382.044,510.4,382.349,511.013,382.5Zm-75.558-.609.3-1.219a5.451,5.451,0,0,0-3.2-1.37h-3.656a1.614,1.614,0,1,0,0,3.2h4.875C434.389,382.349,434.846,382.044,435.455,381.892Zm3.5-1.067a15.01,15.01,0,0,1,2.59-.3h61.695a15.182,15.182,0,0,1,2.437.3c-1.523-6.245-2.589-12.643-3.961-18.889-.3-1.523-1.218-5.484-3.2-5.484H446.271c-1.98,0-2.894,3.961-3.2,5.484ZM481,401.7V391.032a2.052,2.052,0,0,1,2.132-1.981h2.437a2.053,2.053,0,0,1,2.133,1.981V401.7a2.082,2.082,0,0,1-2.133,2.132h-2.437A2.082,2.082,0,0,1,481,401.7Zm2.285-10.511v10.358h2.132V391.184ZM472.93,401.7V391.032a2.016,2.016,0,0,1,1.98-1.981H477.5a2.017,2.017,0,0,1,1.981,1.981V401.7a2.052,2.052,0,0,1-1.981,2.132H474.91A2.052,2.052,0,0,1,472.93,401.7Zm2.132-10.511v10.358h2.285V391.184ZM457.087,401.7V391.032a2.016,2.016,0,0,1,1.98-1.981h2.59a2.017,2.017,0,0,1,1.98,1.981V401.7a2.052,2.052,0,0,1-1.98,2.132h-2.59A2.052,2.052,0,0,1,457.087,401.7Zm2.132-10.511v10.358H461.5V391.184Zm5.789,10.511V391.032a2.016,2.016,0,0,1,1.98-1.981h2.589a2.017,2.017,0,0,1,1.981,1.981V401.7a2.052,2.052,0,0,1-1.981,2.132h-2.589A2.052,2.052,0,0,1,465.008,401.7Zm2.132-10.511v10.358h2.285V391.184Zm35.189-4.418a8.973,8.973,0,0,1,8.988,8.836,8.912,8.912,0,1,1-8.988-8.836Zm0,3.2a5.723,5.723,0,0,0-5.636,5.637,5.623,5.623,0,0,0,5.636,5.636,5.53,5.53,0,0,0,5.637-5.636A5.624,5.624,0,0,0,502.33,389.966Zm-60.02,0a5.723,5.723,0,0,0-5.636,5.637,5.713,5.713,0,0,0,11.425,0A5.756,5.756,0,0,0,442.31,389.966Z" transform="translate(0)" fill="#0059a3"/><path d="M468.4,377.527l15.386-12.948.609.914L469.16,378.441Z" transform="translate(-10.855 -2.338)" fill="#0059a3"/><path d="M485.483,377.527l15.386-12.948.762.914-15.386,12.948Z" transform="translate(-14.382 -2.338)" fill="#0059a3"/></g></svg>