<svg xmlns="http://www.w3.org/2000/svg" width="93.025" height="107.374" viewBox="0 0 93.025 107.374"><g transform="translate(-260.542 -489.279)"><path d="M301.232,593.184h1.5a9.328,9.328,0,0,0,18.291,0h1.5a4.612,4.612,0,0,0,4.607-4.607v-5.443H328a1.837,1.837,0,0,0,1.836-1.836v-.628a42.345,42.345,0,0,1,.539-6.7,1.751,1.751,0,0,0,.05-.267,36.792,36.792,0,0,1,6.485-15.733,30.986,30.986,0,0,0-23.077-49.184,30.738,30.738,0,0,0-23.173,8.348,30.99,30.99,0,0,0-4.247,40.219,40.869,40.869,0,0,1,7.511,23.314v.631a1.836,1.836,0,0,0,1.836,1.836h.869v5.443A4.612,4.612,0,0,0,301.232,593.184Zm24.944-13.721h-28.6c-.04-1.386-.172-2.763-.347-4.136h29.259C326.33,576.689,326.212,578.064,326.176,579.464ZM311.877,597a5.644,5.644,0,0,1-5.323-3.819H317.2A5.645,5.645,0,0,1,311.877,597Zm11.579-8.426a.936.936,0,0,1-.934.934H301.232a.936.936,0,0,1-.934-.934v-5.443h23.158Zm-38.887-48.871a27.31,27.31,0,0,1,29.037-27.255A27.312,27.312,0,0,1,333.94,555.8a40.236,40.236,0,0,0-6.866,15.851H296.6a45.7,45.7,0,0,0-7.169-16.393A27.168,27.168,0,0,1,284.569,539.707Z" transform="translate(-4.21 -4.022)" fill="#0059a3"/><path d="M320.155,495.094v-3.978a1.836,1.836,0,1,0-3.672,0v3.978a1.836,1.836,0,0,0,3.672,0Z" transform="translate(-11.571 0)" fill="#0059a3"/><path d="M280.532,510.306l-2.813-2.814a1.836,1.836,0,1,0-2.6,2.6l2.813,2.814a1.836,1.836,0,1,0,2.6-2.6Z" transform="translate(-2.905 -3.656)" fill="#0059a3"/><path d="M262.378,549.079a1.836,1.836,0,1,0,0,3.672h3.978a1.836,1.836,0,1,0,0-3.672Z" transform="translate(0 -12.369)" fill="#0059a3"/><path d="M370.017,551.979h3.978a1.836,1.836,0,0,0,0-3.672h-3.978a1.836,1.836,0,0,0,0,3.672Z" transform="translate(-22.264 -12.209)" fill="#0059a3"/><path d="M361.008,509.543a1.836,1.836,0,0,0-2.6-2.6l-2.813,2.813a1.836,1.836,0,1,0,2.6,2.6Z" transform="translate(-19.55 -3.543)" fill="#0059a3"/><path d="M302.97,555.486h7.368l-2.828,13.635a1.835,1.835,0,0,0,3.165,1.6l19.848-22.182a1.836,1.836,0,0,0-1.369-3.06H318.737l4.044-10.514a1.836,1.836,0,0,0-1.714-2.494H310.976a1.837,1.837,0,0,0-1.7,1.134l-8.005,19.347a1.835,1.835,0,0,0,1.7,2.537ZM312.2,536.14h6.19l-4.044,10.514a1.836,1.836,0,0,0,1.714,2.494h8.986l-12.557,14.034,1.9-9.16a1.835,1.835,0,0,0-1.8-2.209h-6.876Z" transform="translate(-8.396 -8.933)" fill="#0059a3"/></g></svg>