<svg xmlns="http://www.w3.org/2000/svg" width="95" height="67.4" viewBox="0 0 95 67.4"><g transform="translate(-423.515 -193.824)"><g transform="translate(423.515 193.824)"><path d="M499.215,193.824c-9.6,0-19.4,2.7-19.4,7.9v20.7c-1.1-.1-2.3-.1-3.5-.1a44.255,44.255,0,0,0-11.3,1.4,23.187,23.187,0,1,0-5.6,33.6c3.5,2.5,10.2,3.9,16.9,3.9,8.2,0,16.4-2,18.7-5.7,1.4.1,2.7.2,4.1.2,9.6,0,19.4-2.7,19.4-8v-45.9C518.614,196.624,508.914,193.824,499.215,193.824Zm-71.9,44a19.5,19.5,0,1,1,19.5,19.5A19.461,19.461,0,0,1,427.315,237.824Zm64.8,15.2c0,1.3-5.3,4.3-15.7,4.3-6.9,0-11.5-1.3-13.9-2.6a21.651,21.651,0,0,0,4.7-6.1,44.829,44.829,0,0,0,9.2.9c6,0,12-1.1,15.7-3.1Zm0-11.4c0,1.3-5.3,4.3-15.7,4.3a42.256,42.256,0,0,1-7.7-.6,23.164,23.164,0,0,0,1.3-7.5v-.1a46.184,46.184,0,0,0,6.5.5c6,0,12-1.1,15.7-3.1v6.5Zm-15.7-7.1a44,44,0,0,1-6.8-.5,22.082,22.082,0,0,0-2.4-7.1,38.465,38.465,0,0,1,9.2-1c10.4,0,15.7,3,15.7,4.3S486.814,234.524,476.415,234.524Zm38.5,13c0,1.3-5.3,4.3-15.7,4.3-1.2,0-2.4-.1-3.5-.1v-7.8c1.1.1,2.3.1,3.5.1,6,0,12-1.1,15.7-3.1Zm0-11.5c0,1.3-5.3,4.3-15.7,4.3-1.2,0-2.4-.1-3.5-.1v-7.8c1.1.1,2.3.1,3.5.1,6,0,12-1.1,15.7-3.1Zm0-11.4c0,1.3-5.3,4.3-15.7,4.3-1.3,0-2.6-.1-3.8-.2-1.1-3.1-6-5.1-12-6v-4.7c3.7,2.1,9.7,3.1,15.7,3.1s12-1.1,15.7-3.1v6.6Zm0-11.4c0,1.3-5.3,4.3-15.7,4.3s-15.7-3-15.7-4.3v-6.6c3.7,2.1,9.7,3.1,15.7,3.1s12-1.1,15.7-3.1Zm-15.7-7.1c-10.4,0-15.7-3-15.7-4.3s5.3-4.3,15.7-4.3,15.7,3,15.7,4.3S509.615,206.123,499.215,206.123Z" transform="translate(-423.515 -193.824)" fill="#0059a3"/><path d="M453.127,246.289h-2a2.66,2.66,0,0,1-2.6-2.9,2.619,2.619,0,0,1,2.7-2.3h2.3a1.832,1.832,0,0,1,1.8,1.4c0,.2.3.4.5.4h2.7a.535.535,0,0,0,.5-.5,5.548,5.548,0,0,0-5.1-4.9v-2.6a.472.472,0,0,0-.5-.5h-2.6a.472.472,0,0,0-.5.5v2.6a6.317,6.317,0,0,0-5.4,6.8,6.417,6.417,0,0,0,6.5,5.6h1.7a2.66,2.66,0,0,1,2.6,2.9,2.7,2.7,0,0,1-2.7,2.3h-2.3a1.832,1.832,0,0,1-1.8-1.4c0-.2-.3-.4-.5-.4h-2.6a.536.536,0,0,0-.5.5,5.548,5.548,0,0,0,5.1,4.9v2.6a.472.472,0,0,0,.5.5h2.6a.472.472,0,0,0,.5-.5v-2.7a6.364,6.364,0,0,0,5.4-5.5A6.276,6.276,0,0,0,453.127,246.289Z" transform="translate(-428.929 -204.082)" fill="#0059a3"/></g></g></svg>