<svg xmlns="http://www.w3.org/2000/svg" width="96.903" height="106.928" viewBox="0 0 96.903 106.928"><g transform="translate(-422.382 -500.417)"><g transform="translate(422.382 500.417)"><path d="M424.294,598.32l23.627,8.84a4.9,4.9,0,0,0,1.024.184,1.758,1.758,0,0,0,.372-.04l35.579-7.589a18.905,18.905,0,0,0,15.581,7.629c10.725,0,18.808-7.642,18.808-17.775,0-.588-.122-1.14-.175-1.715a1.8,1.8,0,0,0,.053-.274v-15.07c0-11.367-1.83-20.078-3.774-29.3-1.966-9.347-3.994-19.005-4.4-32.54H513.3a1.794,1.794,0,0,0,1.795-1.795v-1.93a6.545,6.545,0,0,0-6.539-6.534H490.443a6.541,6.541,0,0,0-6.534,6.534v1.93a1.8,1.8,0,0,0,1.795,1.795h2.684a153.549,153.549,0,0,1-3.473,27.7L478.7,530.92V520.593a2.95,2.95,0,0,0-3.312-2.921l-31.732,3.859a2.958,2.958,0,0,0-2.58,2.926v11.107l-17.39,11.35c-.009,0-.022,0-.031.013s-.009.014-.018.022l-.027.018a1.726,1.726,0,0,0-.574.664,2.876,2.876,0,0,0-.651,1.723v46.214A2.957,2.957,0,0,0,424.294,598.32Zm58.748-1.88-32.7,6.974.152-44.9,39.1-8.365V574.23a18.759,18.759,0,0,0-7.929,15.339A17.72,17.72,0,0,0,483.042,596.44Zm17.426,7.315a15.229,15.229,0,0,1-13.14-6.776,13.659,13.659,0,0,1-2.078-7.409,15.216,15.216,0,1,1,30.432,0C515.686,597.656,509.147,603.755,500.468,603.755ZM502.1,564.64a7.824,7.824,0,0,0-1.158,2.342,3.788,3.788,0,0,0-1.674-1.032,1.8,1.8,0,0,0-1.023,3.442c.247.072.417.709.476,1.473a18.788,18.788,0,0,0-5.538,1.391v-22.9c0-.072-.041-.135-.045-.206a36.535,36.535,0,0,1,1.557-3.469h9.734a49.428,49.428,0,0,1,4.529,15.554C505.822,561.576,503.56,562.688,502.1,564.64Zm8.961.018q.371,0,.768.014c-.238,2.611-2.837,4.514-7.759,5.672a5.51,5.51,0,0,1,.92-3.573C506.051,565.372,508.093,564.658,511.063,564.658Zm4.506,7.853v5.946a18.825,18.825,0,0,0-7.059-5.824c4.712-1.935,6.4-4.668,6.786-7.086C515.453,567.782,515.569,570.07,515.569,572.511ZM487.5,507.086v-.135a2.944,2.944,0,0,1,2.939-2.944H508.55a2.945,2.945,0,0,1,2.944,2.944Zm4.479,3.59h15.41c.413,13.907,2.487,23.749,4.488,33.281a180.005,180.005,0,0,1,3.056,17.9,1.808,1.808,0,0,0-1.189-.637c-.44-.045-.781-.009-1.2-.036a50.813,50.813,0,0,0-5.488-18.2,1.794,1.794,0,0,0-1.553-.889h-11.87a1.8,1.8,0,0,0-1.553.893c-.448.772-.875,1.6-1.283,2.455l-2.957-3.545A163.21,163.21,0,0,0,491.982,510.676Zm-15.82,22.816,11.223,13.458-37.423,8.006-4.806-16.936Zm-31.494-8.464,30.435-3.707v8.7l-30.435,4.443Zm-2.859,14.347,4.182,14.729-16.865-6.453Zm-15.833,10.914,20.922,8-.041,12.642-20.881-6.956Zm0,17.47,20.867,6.951-.04,12.323-20.828-7.274Zm0,15.8,20.814,7.27-.041,12.058-20.773-7.773Z" transform="translate(-422.382 -500.417)" fill="#0059a3"/><path d="M484.148,572.388l-17.969,3.845c-.059.014-.1.049-.157.067a1.683,1.683,0,0,0-.327.143,1.441,1.441,0,0,0-.278.189,1.781,1.781,0,0,0-.238.246,1.664,1.664,0,0,0-.188.279,1.475,1.475,0,0,0-.125.314,1.864,1.864,0,0,0-.072.35c0,.059-.031.108-.035.167l-.072,21.069c0,.022.013.045.013.067a2.015,2.015,0,0,0,.073.364,2.25,2.25,0,0,0,.08.313,1.617,1.617,0,0,0,.188.283,1.822,1.822,0,0,0,.206.274,1.611,1.611,0,0,0,.251.17,2.024,2.024,0,0,0,.341.2.6.6,0,0,0,.054.031,2.933,2.933,0,0,0,.764.13,1.761,1.761,0,0,0,.372-.041L485.108,597a2.283,2.283,0,0,0,1.809-2.244V574.645a2.279,2.279,0,0,0-.862-1.795A2.852,2.852,0,0,0,484.148,572.388Zm-.817,21.311-15.042,3.209.058-17.466,14.984-3.209V593.7Z" transform="translate(-428.146 -510.22)" fill="#0059a3"/></g></g></svg>