<svg xmlns="http://www.w3.org/2000/svg" width="77.74" height="93.544" viewBox="0 0 77.74 93.544"><g transform="translate(-99.303 -499.6)"><path d="M164.114,526.629a5.219,5.219,0,0,1-5.388-1.286l-.175-.217-2.46,1.98.175.218a7.711,7.711,0,0,0,4.561,2.538v2.644h3.158v-2.588a6.94,6.94,0,0,0,1.234-.327,5.456,5.456,0,0,0,3.675-5.621c-.129-3.449-3-4.834-5.314-5.947-3.011-1.459-3.7-2.08-3.159-3.981a1.739,1.739,0,0,1,.889-1.16c1.313-.712,3.689-.2,4.416.031l.267.086.975-3-.266-.087a12.742,12.742,0,0,0-2.715-.508v-2.383H160.83v2.668a5.644,5.644,0,0,0-1.009.411,4.938,4.938,0,0,0-2.442,3.084c-1.327,4.712,2.38,6.5,4.832,7.687,2.217,1.071,3.473,1.748,3.526,3.222A2.341,2.341,0,0,1,164.114,526.629Z" transform="translate(-14.388 -1.88)" fill="#0059a3"/><rect width="27.22" height="3.158" transform="translate(108.548 524.417)" fill="#0059a3"/><rect width="49.371" height="3.159" transform="translate(108.548 533.842)" fill="#0059a3"/><rect width="49.371" height="3.159" transform="translate(108.548 543.266)" fill="#0059a3"/><rect width="49.371" height="3.159" transform="translate(108.548 552.685)" fill="#0059a3"/><rect width="49.371" height="3.159" transform="translate(108.548 562.105)" fill="#0059a3"/><rect width="49.371" height="3.159" transform="translate(108.548 571.524)" fill="#0059a3"/><path d="M171.2,507.481h-4.027v-2.035a5.851,5.851,0,0,0-5.844-5.846H119.375a1.583,1.583,0,0,0-1.14.48l-18.486,19.2a1.576,1.576,0,0,0-.446,1.095v58.114a6.783,6.783,0,0,0,6.776,6.776h3.1v1.1a6.784,6.784,0,0,0,6.776,6.776h54.312a6.784,6.784,0,0,0,6.776-6.776V513.324A5.853,5.853,0,0,0,171.2,507.481Zm-10.8,74.624H106.076a3.621,3.621,0,0,1-3.617-3.617V521.953h12.647a5.852,5.852,0,0,0,5.848-5.843V502.758h40.369a2.689,2.689,0,0,1,2.685,2.688v73.041A3.622,3.622,0,0,1,160.391,582.1Zm-48.055,3.161h48.055a6.785,6.785,0,0,0,6.777-6.776V510.64H171.2a2.692,2.692,0,0,1,2.691,2.687v73.044a3.622,3.622,0,0,1-3.618,3.617H115.953a3.621,3.621,0,0,1-3.617-3.617Zm5.461-69.154a2.69,2.69,0,0,1-2.69,2.684H104.594l13.2-13.7Z" transform="translate(0 0)" fill="#0059a3"/></g></svg>