<?xml version="1.0" encoding="utf-8"?>
<!-- Generator: Adobe Illustrator 22.0.1, SVG Export Plug-In . SVG Version: 6.00 Build 0)  -->
<svg version="1.1" id="Capa_1" xmlns="http://www.w3.org/2000/svg" xmlns:xlink="http://www.w3.org/1999/xlink" x="0px" y="0px"
	 viewBox="0 0 250 250" style="enable-background:new 0 0 250 250;" xml:space="preserve">
<style type="text/css">
	
		.st0{opacity:0.1;fill:none;stroke:url(#SVGID_1_);stroke-width:2;stroke-linecap:round;stroke-linejoin:round;stroke-miterlimit:10;}
	.st1{opacity:0.1;fill:none;stroke:url(#SVGID_2_);stroke-linecap:round;stroke-linejoin:round;stroke-miterlimit:10;}
	
		.st2{opacity:0.5;fill:none;stroke:url(#SVGID_3_);stroke-linecap:round;stroke-linejoin:round;stroke-miterlimit:10;stroke-dasharray:0,12;}
	.st3{fill:url(#SVGID_4_);}
	.st4{fill:none;stroke:url(#SVGID_5_);stroke-width:3;stroke-linecap:round;stroke-linejoin:round;stroke-miterlimit:10;}
	.st5{fill:#FFFFFF;}
	.st6{fill:url(#SVGID_6_);}
	.st7{fill:none;stroke:url(#SVGID_7_);stroke-width:2;stroke-linecap:round;stroke-linejoin:round;}
	.st8{fill:none;stroke:url(#SVGID_8_);stroke-width:2;stroke-linecap:round;stroke-linejoin:round;stroke-dasharray:0,5.8514;}
	.st9{fill:none;stroke:url(#SVGID_9_);stroke-width:2;stroke-linecap:round;stroke-linejoin:round;}
	.st10{fill:url(#SVGID_10_);}
	.st11{fill:none;stroke:url(#SVGID_11_);stroke-width:3;stroke-linecap:round;stroke-linejoin:round;stroke-miterlimit:10;}
	.st12{fill:url(#SVGID_12_);}
	.st13{fill:url(#SVGID_13_);}
	.st14{fill:url(#SVGID_14_);}
	.st15{fill:url(#SVGID_15_);}
	.st16{fill:url(#SVGID_16_);}
</style>
<g>
	
		<linearGradient id="SVGID_1_" gradientUnits="userSpaceOnUse" x1="4215.8013" y1="-324.1024" x2="4325.1934" y2="-324.1024" gradientTransform="matrix(-1 0 0 -1 4397.2549 -199.1023)">
		<stop  offset="0" style="stop-color:#FFFFFF"/>
		<stop  offset="1" style="stop-color:#0080C8"/>
	</linearGradient>
	<circle class="st0" cx="126.8" cy="125" r="53.7"/>
	
		<linearGradient id="SVGID_2_" gradientUnits="userSpaceOnUse" x1="37.8844" y1="123.2992" x2="219.0326" y2="123.2992" gradientTransform="matrix(1 0 0 1 -1.7008 1.7008)">
		<stop  offset="0" style="stop-color:#FFFFFF"/>
		<stop  offset="1" style="stop-color:#0080C8"/>
	</linearGradient>
	<circle class="st1" cx="126.8" cy="125" r="90.1"/>
	
		<linearGradient id="SVGID_3_" gradientUnits="userSpaceOnUse" x1="53.956" y1="123.2992" x2="202.961" y2="123.2992" gradientTransform="matrix(1 0 0 1 -1.7008 1.7008)">
		<stop  offset="0" style="stop-color:#FFFFFF"/>
		<stop  offset="1" style="stop-color:#0080C8"/>
	</linearGradient>
	<circle class="st2" cx="126.8" cy="125" r="74"/>
	<linearGradient id="SVGID_4_" gradientUnits="userSpaceOnUse" x1="105.4698" y1="125" x2="239.7478" y2="125">
		<stop  offset="0" style="stop-color:#FFFFFF;stop-opacity:0.1"/>
		<stop  offset="1" style="stop-color:#0080C8;stop-opacity:0.1"/>
	</linearGradient>
	<path class="st3" d="M239.7,125c0,62.4-50.6,113-113,113S159,187.4,159,125S64.4,12,126.8,12S239.7,62.6,239.7,125z"/>
	<g>
		
			<linearGradient id="SVGID_5_" gradientUnits="userSpaceOnUse" x1="1029.3529" y1="2409.3723" x2="1096.8936" y2="2409.3723" gradientTransform="matrix(6.123234e-17 -1 -1 -6.123234e-17 2598.7749 1139.8627)">
			<stop  offset="0" style="stop-color:#FFFFFF"/>
			<stop  offset="1" style="stop-color:#0080C8"/>
		</linearGradient>
		<path class="st4" d="M179.5,109c0,0,0-31.5,0-36.7c0-5.1,2.7-7.2,9.9-7.2c7.3,0,9.9-3.2,9.9-7.8c0-7.5,0-12.9,0-12.9"/>
		<g>
			<circle class="st5" cx="199.3" cy="42.6" r="8.3"/>
			
				<linearGradient id="SVGID_6_" gradientUnits="userSpaceOnUse" x1="1092.791" y1="2399.4875" x2="1101.6434" y2="2399.4875" gradientTransform="matrix(6.123234e-17 -1 -1 -6.123234e-17 2598.7749 1139.8627)">
				<stop  offset="0" style="stop-color:#0080C8"/>
				<stop  offset="1" style="stop-color:#0E5AA1"/>
			</linearGradient>
			<circle class="st6" cx="199.3" cy="42.6" r="4.4"/>
		</g>
	</g>
	<g>
		<g>
			<linearGradient id="SVGID_7_" gradientUnits="userSpaceOnUse" x1="142.4583" y1="33.2705" x2="142.4583" y2="93.7841">
				<stop  offset="0" style="stop-color:#0080C8"/>
				<stop  offset="1" style="stop-color:#FFFFFF"/>
			</linearGradient>
			<line class="st7" x1="142.5" y1="92.8" x2="142.5" y2="92.8"/>
			<linearGradient id="SVGID_8_" gradientUnits="userSpaceOnUse" x1="142.4583" y1="33.2705" x2="142.4583" y2="93.7841">
				<stop  offset="0" style="stop-color:#0080C8"/>
				<stop  offset="1" style="stop-color:#FFFFFF"/>
			</linearGradient>
			<line class="st8" x1="142.5" y1="86.9" x2="142.5" y2="37.2"/>
			<linearGradient id="SVGID_9_" gradientUnits="userSpaceOnUse" x1="142.4583" y1="33.2705" x2="142.4583" y2="93.7841">
				<stop  offset="0" style="stop-color:#0080C8"/>
				<stop  offset="1" style="stop-color:#FFFFFF"/>
			</linearGradient>
			<line class="st9" x1="142.5" y1="34.3" x2="142.5" y2="34.3"/>
		</g>
		<g>
			
				<linearGradient id="SVGID_10_" gradientUnits="userSpaceOnUse" x1="2661.0696" y1="-2290.574" x2="2672.1201" y2="-2290.574" gradientTransform="matrix(-6.123234e-17 1 1 6.123234e-17 2433.0322 -2634.9163)">
				<stop  offset="0" style="stop-color:#0080C8"/>
				<stop  offset="1" style="stop-color:#0E5AA1"/>
			</linearGradient>
			<circle class="st10" cx="142.5" cy="31.7" r="5.5"/>
			<circle class="st5" cx="142.5" cy="31.7" r="3"/>
		</g>
	</g>
	<g>
		
			<linearGradient id="SVGID_11_" gradientUnits="userSpaceOnUse" x1="1069.5714" y1="2272.7195" x2="1137.1121" y2="2272.7195" gradientTransform="matrix(6.123234e-17 -1 -1 -6.123234e-17 2423.667 1216.4915)">
			<stop  offset="0" style="stop-color:#FFFFFF"/>
			<stop  offset="1" style="stop-color:#0080C8"/>
		</linearGradient>
		<path class="st11" d="M141.1,145.4c0,0,0-31.5,0-36.7s2.7-7.2,9.9-7.2c7.3,0,9.9-3.2,9.9-7.8c0-7.5,0-12.9,0-12.9"/>
		<g>
			<circle class="st5" cx="160.8" cy="79.1" r="8.3"/>
			
				<linearGradient id="SVGID_12_" gradientUnits="userSpaceOnUse" x1="1133.0095" y1="2262.835" x2="1141.8619" y2="2262.835" gradientTransform="matrix(6.123234e-17 -1 -1 -6.123234e-17 2423.667 1216.4915)">
				<stop  offset="0" style="stop-color:#0080C8"/>
				<stop  offset="1" style="stop-color:#0E5AA1"/>
			</linearGradient>
			<circle class="st12" cx="160.8" cy="79.1" r="4.4"/>
		</g>
	</g>
	<g>
		<path class="st5" d="M190.6,122.8h-61.2V61.7c0-1.2-1-2.2-2.2-2.2c-36.1,0-65.5,29.4-65.5,65.5s29.4,65.5,65.5,65.5
			s65.5-29.4,65.5-65.5C192.8,123.8,191.8,122.8,190.6,122.8z"/>
		<g>
			<linearGradient id="SVGID_13_" gradientUnits="userSpaceOnUse" x1="107.5615" y1="131.8668" x2="122.3518" y2="131.8668">
				<stop  offset="0" style="stop-color:#0080C8"/>
				<stop  offset="1" style="stop-color:#0E5AA1"/>
			</linearGradient>
			<path class="st13" d="M121.2,131.8l-4-3c-0.8-0.6-1.2-1.5-1.2-2.4v0c0-2.7-3.2-4-5.1-2.1l-0.9,0.9c-0.4,0.4-0.7,0.9-0.8,1.4
				l-1.6,6.3c-0.3,1,0,2.1,0.8,2.8l3.7,3.7c1,1,2.5,1.2,3.7,0.4l5.1-3.1C122.7,135.7,122.9,133.1,121.2,131.8z"/>
			<linearGradient id="SVGID_14_" gradientUnits="userSpaceOnUse" x1="61.6898" y1="125" x2="192.7524" y2="125">
				<stop  offset="0" style="stop-color:#0080C8"/>
				<stop  offset="1" style="stop-color:#0E5AA1"/>
			</linearGradient>
			<path class="st14" d="M190.6,122.8h-61.2V61.7c0-1.2-1-2.2-2.2-2.2c-36.1,0-65.5,29.4-65.5,65.5c0,36.1,29.4,65.5,65.5,65.5
				s65.5-29.4,65.5-65.5C192.8,123.8,191.8,122.8,190.6,122.8z M180.3,155.4l-0.4-3c-0.2-0.8-0.5-1.4-1.1-2l-3.7-3.7
				c-1.2-1.2-3.1-1.5-4.6-0.8l-5.3,2.7c-0.6,0.3-1.2,0.4-1.8,0.4h-2.7c-1.7,0-3.3-1.1-3.8-2.8l-0.6-1.7c-0.4-1.3-1.5-2.3-2.8-2.6
				l-6.1-1.6c-0.3-0.1-0.7-0.1-1-0.1h-10.9c-1.1,0-2.1,0.4-2.8,1.2l-2.5,2.5c-1.6,1.6-1.6,4.1,0,5.7l2,2c1.1,1.1,1.4,2.7,1,4.1
				l-3.3,9.9c-0.2,0.6-0.5,1.1-1,1.6l-4.7,4.7c-0.8,0.8-1.8,1.2-2.8,1.2h-10.7c-1.7,0-3.3-1.1-3.8-2.8c-0.7-2.1,0.4-4.4,2.5-5.1
				l0.7-0.2c1.3-0.4,2.3-1.5,2.6-2.8l1-3.8c0.4-1.7-0.3-3.4-1.7-4.3l-2.7-1.8c-0.9-0.6-2.1-0.8-3.2-0.5l-5.9,1.5
				c-0.7,0.2-1.3,0.5-1.9,1l-4.6,4.6c-0.8,0.8-1.2,1.8-1.2,2.8v7.6c0,1.1-0.4,2.1-1.2,2.8l-1.3,1.3c-12.5-9.7-21.2-24.2-23.3-40.7
				l5.8-2.3c1.5-0.6,3.2-0.3,4.4,0.7l5.2,4.4c2.6,2.2,6.6,0.7,7.1-2.6l0.5-2.8c0.3-1.7,1.6-3.1,3.3-3.5l0.7-0.2
				c2.7-0.7,4.1-3.7,2.8-6.2l-0.2-0.5c-1-1.9-3.2-2.9-5.3-2.2l-1.9,0.6c-0.7,0.2-1.5,0.3-2.2,0.2l-5.3-1.1c-2.4-0.5-4-2.9-3.4-5.3
				l1-4.2c0-0.1,0.1-0.2,0.1-0.3l1.4-4.1c0.5-1.4,1.6-2.5,3.1-2.9l5.9-1.5c0.3-0.1,0.7-0.1,1.1-0.1H97c1.2,0,2.3,0.5,3.1,1.3
				l1.8,1.8c0.8,0.8,1.9,1.3,3.1,1.3h0.4c2.4,0,4.4-2,4.4-4.4v-1.2c0-1.9,1.2-3.5,3-4.2l0.6-0.2c1.8-0.6,3-2.3,3-4.2v-2.9
				c0-3.3-3.4-5.4-6.3-3.9l-0.5,0.2c-0.6,0.3-1.3,0.5-1.9,0.5s-1.3-0.2-1.9-0.5c-1.5-0.7-2.4-2.2-2.4-3.9v-0.7c0-1.9-1.2-3.5-3-4.2
				l-4.1-1.4c8.5-5.1,18.4-8.1,28.9-8.5V125c0,1.2,1,2.2,2.2,2.2h61.1C188,137.4,185.1,147,180.3,155.4z"/>
		</g>
	</g>
	<g>
		<linearGradient id="SVGID_15_" gradientUnits="userSpaceOnUse" x1="10.4803" y1="144.453" x2="57.613" y2="144.453">
			<stop  offset="0" style="stop-color:#FFFFFF;stop-opacity:0.1"/>
			<stop  offset="1" style="stop-color:#0080C8;stop-opacity:0.1"/>
		</linearGradient>
		<path class="st15" d="M13.5,163.1c0.7-5.2,1.7-10.4,3.3-15.5c1.2-3.9,6.2-16.6,10.7-7.6c1.6,3.2,1.7,7.1,3.2,10.4
			c1.4,3,3.4,6.5,6,8.6c5,4.1,10,0.3,11.8-4.9c1.5-4.2,2.4-8.6,3.1-13c0.8-4.7,1.1-11,6.5-12.7c3-1,1.7-5.8-1.3-4.8
			c-8.8,2.9-9,11.8-10.5,19.5c-0.5,2.5-1.2,4.9-1.9,7.3c-0.2,0.8-0.5,1.6-0.7,2.4c-1.6,0.5-3.1,1-4.7,1.5c-0.8-0.2-2.1-2.7-2.5-3.5
			c-2.6-4.3-2.7-9.2-4.9-13.6c-3-6.2-10.3-6.8-14.9-1.7c-6,6.8-7.2,19-8.3,27.6C8.1,166.3,13.1,166.2,13.5,163.1L13.5,163.1z"/>
	</g>
	<g>
		<linearGradient id="SVGID_16_" gradientUnits="userSpaceOnUse" x1="151.71" y1="119.151" x2="239.5783" y2="119.151">
			<stop  offset="0" style="stop-color:#008BCF;stop-opacity:0.1"/>
			<stop  offset="1" style="stop-color:#FFFFFF;stop-opacity:0.1"/>
		</linearGradient>
		<path class="st16" d="M154.3,120.4c3.5-6.6,10.3-10.9,17.9-10.4c3.9,0.3,7.7,1.8,10.7,4.3c2,1.7,3.4,3.9,6,4.6
			c4.8,1.4,9.1-2.5,11.4-6.4c1.5-2.5,2.4-6.5,5.1-8.2c6.1-4,7.9,4.8,8.5,8.8c1,6.5,1.1,31.5,14.2,26.1c4.8-2,6-8.7,6.8-13.2
			c1.3-6.9,1.5-14.4,6-20.1c2-2.5-1.5-6.1-3.5-3.5c-3.8,4.8-5.4,10.2-6.3,16.3c-0.6,3.5-1,7.1-2,10.5c-0.6,2.1-1.5,6.5-5.2,5.1
			c-1.9-0.7-2.4-3.9-2.7-5.7c-1.6-8.3-0.4-32.3-14.6-30.2c-5.5,0.8-7.5,6-9.9,10.3c-0.9,1.6-2.1,4-3.9,4.8c-3.3,1.5-4.6-1.2-6.4-2.8
			c-2.2-2-4.8-3.5-7.6-4.4c-11.1-3.9-23.4,1.2-28.9,11.6C148.5,120.8,152.8,123.3,154.3,120.4L154.3,120.4z"/>
	</g>
</g>
</svg>
