<?xml version="1.0" encoding="utf-8"?>
<!-- Generator: Adobe Illustrator 22.0.1, SVG Export Plug-In . SVG Version: 6.00 Build 0)  -->
<svg version="1.1" id="Capa_1" xmlns="http://www.w3.org/2000/svg" xmlns:xlink="http://www.w3.org/1999/xlink" x="0px" y="0px"
	 viewBox="0 0 250 250" style="enable-background:new 0 0 250 250;" xml:space="preserve">
<style type="text/css">
	
		.st0{opacity:0.1;fill:none;stroke:url(#SVGID_1_);stroke-width:2;stroke-linecap:round;stroke-linejoin:round;stroke-miterlimit:10;}
	.st1{opacity:0.1;fill:none;stroke:url(#SVGID_2_);stroke-linecap:round;stroke-linejoin:round;stroke-miterlimit:10;}
	
		.st2{opacity:0.5;fill:none;stroke:url(#SVGID_3_);stroke-linecap:round;stroke-linejoin:round;stroke-miterlimit:10;stroke-dasharray:0,12;}
	
		.st3{opacity:0.5;fill:none;stroke:url(#SVGID_4_);stroke-linecap:round;stroke-linejoin:round;stroke-miterlimit:10;stroke-dasharray:0,12;}
	.st4{fill:url(#SVGID_5_);}
	.st5{fill:url(#SVGID_6_);}
	.st6{fill:url(#SVGID_7_);}
	.st7{fill:url(#SVGID_8_);}
	.st8{clip-path:url(#SVGID_10_);fill:#0080C9;}
	.st9{clip-path:url(#SVGID_10_);fill:#0080C8;}
	.st10{clip-path:url(#SVGID_10_);fill:#007FC7;}
	.st11{clip-path:url(#SVGID_10_);fill:#007EC6;}
	.st12{clip-path:url(#SVGID_10_);fill:#007DC5;}
	.st13{clip-path:url(#SVGID_10_);fill:#007DC4;}
	.st14{clip-path:url(#SVGID_10_);fill:#007CC4;}
	.st15{clip-path:url(#SVGID_10_);fill:#007BC3;}
	.st16{clip-path:url(#SVGID_10_);fill:#007BC2;}
	.st17{clip-path:url(#SVGID_10_);fill:#007AC2;}
	.st18{clip-path:url(#SVGID_10_);fill:#007AC1;}
	.st19{clip-path:url(#SVGID_10_);fill:#0079C1;}
	.st20{clip-path:url(#SVGID_10_);fill:#0079C0;}
	.st21{clip-path:url(#SVGID_10_);fill:#0078C0;}
	.st22{clip-path:url(#SVGID_10_);fill:#0078BF;}
	.st23{clip-path:url(#SVGID_10_);fill:#0077BF;}
	.st24{clip-path:url(#SVGID_10_);fill:#0077BE;}
	.st25{clip-path:url(#SVGID_10_);fill:#0076BD;}
	.st26{clip-path:url(#SVGID_10_);fill:#0075BD;}
	.st27{clip-path:url(#SVGID_10_);fill:#0075BC;}
	.st28{clip-path:url(#SVGID_10_);fill:#0074BC;}
	.st29{clip-path:url(#SVGID_10_);fill:#0074BB;}
	.st30{clip-path:url(#SVGID_10_);fill:#0073BA;}
	.st31{clip-path:url(#SVGID_10_);fill:#0072B9;}
	.st32{clip-path:url(#SVGID_10_);fill:#0071B8;}
	.st33{clip-path:url(#SVGID_10_);fill:#0070B7;}
	.st34{clip-path:url(#SVGID_10_);fill:#006FB6;}
	.st35{clip-path:url(#SVGID_10_);fill:#006EB5;}
	.st36{clip-path:url(#SVGID_10_);fill:#006DB4;}
	.st37{clip-path:url(#SVGID_10_);fill:#006CB3;}
	.st38{clip-path:url(#SVGID_10_);fill:#006CB2;}
	.st39{clip-path:url(#SVGID_10_);fill:#006BB2;}
	.st40{clip-path:url(#SVGID_10_);fill:#006AB1;}
	.st41{clip-path:url(#SVGID_10_);fill:#0069B0;}
	.st42{clip-path:url(#SVGID_10_);fill:#0068AF;}
	.st43{clip-path:url(#SVGID_10_);fill:#0067AE;}
	.st44{clip-path:url(#SVGID_10_);fill:#0066AD;}
	.st45{clip-path:url(#SVGID_10_);fill:#0065AC;}
	.st46{clip-path:url(#SVGID_10_);fill:#0064AB;}
	.st47{clip-path:url(#SVGID_10_);fill:#0063AB;}
	.st48{clip-path:url(#SVGID_10_);fill:#0063AA;}
	.st49{clip-path:url(#SVGID_10_);fill:#0062AA;}
	.st50{clip-path:url(#SVGID_10_);fill:#0062A9;}
	.st51{clip-path:url(#SVGID_10_);fill:#0061A9;}
	.st52{clip-path:url(#SVGID_10_);fill:#0061A8;}
	.st53{clip-path:url(#SVGID_10_);fill:#0060A8;}
	.st54{clip-path:url(#SVGID_10_);fill:#0060A7;}
	.st55{clip-path:url(#SVGID_10_);fill:#005FA7;}
	.st56{clip-path:url(#SVGID_10_);fill:#005FA6;}
	.st57{clip-path:url(#SVGID_10_);fill:#005EA6;}
	.st58{clip-path:url(#SVGID_10_);fill:#005EA5;}
	.st59{clip-path:url(#SVGID_10_);fill:#005DA5;}
	.st60{clip-path:url(#SVGID_10_);fill:#035DA5;}
	.st61{clip-path:url(#SVGID_10_);fill:#075CA4;}
	.st62{clip-path:url(#SVGID_10_);fill:#0B5CA4;}
	.st63{clip-path:url(#SVGID_10_);fill:#0E5BA3;}
	.st64{clip-path:url(#SVGID_10_);fill:#115BA3;}
	.st65{fill:#FFFFFF;}
	.st66{opacity:0.3;fill:url(#SVGID_11_);}
	.st67{opacity:0.2;fill:url(#SVGID_12_);}
	.st68{opacity:0.1;fill:url(#SVGID_13_);}
	.st69{opacity:0.3;fill:url(#SVGID_14_);}
	.st70{opacity:0.2;fill:url(#SVGID_15_);}
	.st71{opacity:0.1;fill:url(#SVGID_16_);}
	.st72{fill:none;stroke:url(#SVGID_17_);stroke-width:3;stroke-linecap:round;stroke-linejoin:round;stroke-miterlimit:10;}
	.st73{fill:url(#SVGID_18_);}
	.st74{fill:none;stroke:url(#SVGID_19_);stroke-width:3;stroke-linecap:round;stroke-linejoin:round;stroke-miterlimit:10;}
	.st75{fill:url(#SVGID_20_);}
	.st76{fill:none;stroke:url(#SVGID_21_);stroke-width:3;stroke-linecap:round;stroke-linejoin:round;stroke-miterlimit:10;}
	.st77{fill:url(#SVGID_22_);}
</style>
<g>
	
		<linearGradient id="SVGID_1_" gradientUnits="userSpaceOnUse" x1="4199.6621" y1="-322.1024" x2="4348.8477" y2="-322.1024" gradientTransform="matrix(-1 0 0 -1 4399.2549 -197.1023)">
		<stop  offset="0" style="stop-color:#FFFFFF"/>
		<stop  offset="1" style="stop-color:#0080C9"/>
	</linearGradient>
	<circle class="st0" cx="125" cy="125" r="73.6"/>
	
		<linearGradient id="SVGID_2_" gradientUnits="userSpaceOnUse" x1="30.0525" y1="123.2992" x2="223.3491" y2="123.2992" gradientTransform="matrix(1 0 0 1 -1.7008 1.7008)">
		<stop  offset="0" style="stop-color:#FFFFFF"/>
		<stop  offset="1" style="stop-color:#0080C9"/>
	</linearGradient>
	<circle class="st1" cx="125" cy="125" r="96.1"/>
	
		<linearGradient id="SVGID_3_" gradientUnits="userSpaceOnUse" x1="68.8836" y1="123.2992" x2="184.518" y2="123.2992" gradientTransform="matrix(1 0 0 1 -1.7008 1.7008)">
		<stop  offset="0" style="stop-color:#FFFFFF"/>
		<stop  offset="1" style="stop-color:#0080C9"/>
	</linearGradient>
	<circle class="st2" cx="125" cy="125" r="57.3"/>
	
		<linearGradient id="SVGID_4_" gradientUnits="userSpaceOnUse" x1="41.2861" y1="123.2992" x2="212.1154" y2="123.2992" gradientTransform="matrix(1 0 0 1 -1.7008 1.7008)">
		<stop  offset="0" style="stop-color:#FFFFFF"/>
		<stop  offset="1" style="stop-color:#0080C9"/>
	</linearGradient>
	<circle class="st3" cx="125" cy="125" r="84.9"/>
	<linearGradient id="SVGID_5_" gradientUnits="userSpaceOnUse" x1="12.0099" y1="125" x2="237.9901" y2="125">
		<stop  offset="0" style="stop-color:#FFFFFF;stop-opacity:0.1"/>
		<stop  offset="1" style="stop-color:#0080C9;stop-opacity:0.1"/>
	</linearGradient>
	<circle class="st4" cx="125" cy="125" r="113"/>
	<g>
		<g>
			<g>
				<linearGradient id="SVGID_6_" gradientUnits="userSpaceOnUse" x1="33.166" y1="117.2874" x2="74.9399" y2="117.2874">
					<stop  offset="0" style="stop-color:#0080C9"/>
					<stop  offset="1" style="stop-color:#FFFFFF"/>
				</linearGradient>
				<path class="st5" d="M73.9,118.3c-0.3,0-0.5-0.1-0.7-0.3c-0.1-0.1-0.2-0.2-0.2-0.3c-0.1-0.1-0.1-0.3-0.1-0.4c0-0.1,0-0.1,0-0.2
					c0-0.1,0-0.1,0.1-0.2c0-0.1,0-0.1,0.1-0.2c0-0.1,0.1-0.1,0.1-0.2c0.1-0.1,0.2-0.2,0.3-0.2c0.2-0.1,0.5-0.1,0.8,0
					c0.1,0,0.2,0.1,0.3,0.2c0,0,0.1,0.1,0.1,0.2c0,0,0.1,0.1,0.1,0.2c0,0.1,0,0.1,0.1,0.2c0,0.1,0,0.1,0,0.2c0,0.3-0.1,0.5-0.3,0.7
					C74.5,118.2,74.2,118.3,73.9,118.3z"/>
			</g>
			<g>
				<linearGradient id="SVGID_7_" gradientUnits="userSpaceOnUse" x1="36.2513" y1="117.2798" x2="74.4563" y2="117.2798">
					<stop  offset="0" style="stop-color:#0080C9"/>
					<stop  offset="1" style="stop-color:#FFFFFF"/>
				</linearGradient>
				<path class="st6" d="M67.3,117.3c0-0.5,0.5-1,1-1l0,0c0.6,0,1,0.5,1,1l0,0c0,0.6-0.4,1-1,1l0,0
					C67.7,118.3,67.3,117.8,67.3,117.3z M61.6,117.3c0-0.5,0.4-1,1-1l0,0c0.6,0,1,0.5,1,1l0,0c0,0.6-0.4,1-1,1l0,0
					C62,118.3,61.6,117.8,61.6,117.3z M55.9,117.3c0-0.5,0.5-1,1-1l0,0c0.6,0,1,0.5,1,1l0,0c0,0.6-0.4,1-1,1l0,0
					C56.3,118.3,55.9,117.8,55.9,117.3z M50.2,117.3c0-0.5,0.4-1,1-1l0,0c0.6,0,1,0.5,1,1l0,0c0,0.6-0.4,1-1,1l0,0
					C50.7,118.3,50.2,117.8,50.2,117.3z M44.5,117.3c0-0.5,0.5-1,1-1l0,0c0.5,0,1,0.5,1,1l0,0c0,0.6-0.5,1-1,1l0,0
					C45,118.3,44.5,117.8,44.5,117.3z M38.8,117.3c0-0.5,0.5-1,1-1l0,0c0.6,0,1,0.5,1,1l0,0c0,0.6-0.4,1-1,1l0,0
					C39.3,118.3,38.8,117.8,38.8,117.3z"/>
			</g>
			<g>
				<linearGradient id="SVGID_8_" gradientUnits="userSpaceOnUse" x1="33.1699" y1="117.289" x2="74.9438" y2="117.289">
					<stop  offset="0" style="stop-color:#0080C9"/>
					<stop  offset="1" style="stop-color:#FFFFFF"/>
				</linearGradient>
				<path class="st7" d="M34.2,118.3c-0.3,0-0.5-0.1-0.7-0.3s-0.3-0.4-0.3-0.7c0-0.1,0-0.1,0-0.2c0-0.1,0-0.1,0-0.2
					c0-0.1,0.1-0.1,0.1-0.2c0-0.1,0.1-0.1,0.1-0.2c0.1-0.1,0.2-0.2,0.3-0.2c0.4-0.1,0.8-0.1,1.1,0.2c0.1,0,0.1,0.1,0.1,0.2
					c0,0,0.1,0.1,0.1,0.2c0,0.1,0,0.1,0.1,0.2c0,0.1,0,0.1,0,0.2c0,0.3-0.1,0.5-0.3,0.7C34.7,118.2,34.4,118.3,34.2,118.3z"/>
			</g>
		</g>
		<g>
			<g>
				<g>
					<defs>
						<circle id="SVGID_9_" cx="32.4" cy="117.3" r="3.8"/>
					</defs>
					<clipPath id="SVGID_10_">
						<use xlink:href="#SVGID_9_"  style="overflow:visible;"/>
					</clipPath>
					<path class="st8" d="M28.6,113.5v7.5V113.5z"/>
					<rect x="28.6" y="113.5" class="st8" width="0.1" height="7.5"/>
					<rect x="28.7" y="113.5" class="st9" width="0.1" height="7.5"/>
					<rect x="28.8" y="113.5" class="st9" width="0.1" height="7.5"/>
					<rect x="28.9" y="113.5" class="st10" width="0.1" height="7.5"/>
					<rect x="29" y="113.5" class="st10" width="0.1" height="7.5"/>
					<rect x="29.1" y="113.5" class="st10" width="0.1" height="7.5"/>
					<rect x="29.2" y="113.5" class="st11" width="0.1" height="7.5"/>
					<rect x="29.3" y="113.5" class="st11" width="0.1" height="7.5"/>
					<rect x="29.4" y="113.5" class="st12" width="0.1" height="7.5"/>
					<rect x="29.4" y="113.5" class="st12" width="0.1" height="7.5"/>
					<rect x="29.5" y="113.5" class="st13" width="0.1" height="7.5"/>
					<rect x="29.6" y="113.5" class="st14" width="0.1" height="7.5"/>
					<rect x="29.7" y="113.5" class="st14" width="0.1" height="7.5"/>
					<rect x="29.8" y="113.5" class="st15" width="0.1" height="7.5"/>
					<rect x="29.9" y="113.5" class="st15" width="0.1" height="7.5"/>
					<rect x="30" y="113.5" class="st16" width="0.1" height="7.5"/>
					<rect x="30.1" y="113.5" class="st17" width="0.1" height="7.5"/>
					<rect x="30.2" y="113.5" class="st18" width="0.1" height="7.5"/>
					<rect x="30.2" y="113.5" class="st19" width="0.1" height="7.5"/>
					<rect x="30.3" y="113.5" class="st19" width="0.1" height="7.5"/>
					<rect x="30.4" y="113.5" class="st20" width="0.1" height="7.5"/>
					<rect x="30.5" y="113.5" class="st21" width="0.1" height="7.5"/>
					<rect x="30.6" y="113.5" class="st22" width="0.1" height="7.5"/>
					<rect x="30.7" y="113.5" class="st23" width="0.1" height="7.5"/>
					<rect x="30.8" y="113.5" class="st24" width="0.1" height="7.5"/>
					<rect x="30.9" y="113.5" class="st24" width="0.1" height="7.5"/>
					<rect x="30.9" y="113.5" class="st25" width="0.1" height="7.5"/>
					<rect x="31" y="113.5" class="st25" width="0.1" height="7.5"/>
					<rect x="31.1" y="113.5" class="st26" width="0.1" height="7.5"/>
					<rect x="31.2" y="113.5" class="st27" width="0.1" height="7.5"/>
					<rect x="31.3" y="113.5" class="st28" width="0.1" height="7.5"/>
					<rect x="31.4" y="113.5" class="st29" width="0.1" height="7.5"/>
					<rect x="31.5" y="113.5" class="st29" width="0.1" height="7.5"/>
					<rect x="31.6" y="113.5" class="st30" width="0.1" height="7.5"/>
					<rect x="31.7" y="113.5" class="st30" width="0.1" height="7.5"/>
					<rect x="31.7" y="113.5" class="st31" width="0.1" height="7.5"/>
					<rect x="31.8" y="113.5" class="st31" width="0.1" height="7.5"/>
					<rect x="31.9" y="113.5" class="st32" width="0.1" height="7.5"/>
					<rect x="32" y="113.5" class="st32" width="0.1" height="7.5"/>
					<rect x="32.1" y="113.5" class="st32" width="0.1" height="7.5"/>
					<rect x="32.2" y="113.5" class="st33" width="0.1" height="7.5"/>
					<rect x="32.3" y="113.5" class="st33" width="0.1" height="7.5"/>
					<rect x="32.4" y="113.5" class="st34" width="0.1" height="7.5"/>
					<rect x="32.4" y="113.5" class="st34" width="0.1" height="7.5"/>
					<rect x="32.5" y="113.5" class="st35" width="0.1" height="7.5"/>
					<rect x="32.6" y="113.5" class="st35" width="0.1" height="7.5"/>
					<rect x="32.7" y="113.5" class="st36" width="0.1" height="7.5"/>
					<rect x="32.8" y="113.5" class="st36" width="0.1" height="7.5"/>
					<rect x="32.9" y="113.5" class="st37" width="0.1" height="7.5"/>
					<rect x="33" y="113.5" class="st37" width="0.1" height="7.5"/>
					<rect x="33.1" y="113.5" class="st38" width="0.1" height="7.5"/>
					<rect x="33.2" y="113.5" class="st39" width="0.1" height="7.5"/>
					<rect x="33.2" y="113.5" class="st39" width="0.1" height="7.5"/>
					<rect x="33.3" y="113.5" class="st40" width="0.1" height="7.5"/>
					<rect x="33.4" y="113.5" class="st40" width="0.1" height="7.5"/>
					<rect x="33.5" y="113.5" class="st41" width="0.1" height="7.5"/>
					<rect x="33.6" y="113.5" class="st41" width="0.1" height="7.5"/>
					<rect x="33.7" y="113.5" class="st42" width="0.1" height="7.5"/>
					<rect x="33.8" y="113.5" class="st42" width="0.1" height="7.5"/>
					<rect x="33.9" y="113.5" class="st43" width="0.1" height="7.5"/>
					<rect x="34" y="113.5" class="st43" width="0.1" height="7.5"/>
					<rect x="34" y="113.5" class="st44" width="0.1" height="7.5"/>
					<rect x="34.1" y="113.5" class="st44" width="0.1" height="7.5"/>
					<rect x="34.2" y="113.5" class="st45" width="0.1" height="7.5"/>
					<rect x="34.3" y="113.5" class="st45" width="0.1" height="7.5"/>
					<rect x="34.4" y="113.5" class="st46" width="0.1" height="7.5"/>
					<rect x="34.5" y="113.5" class="st46" width="0.1" height="7.5"/>
					<rect x="34.6" y="113.5" class="st47" width="0.1" height="7.5"/>
					<rect x="34.7" y="113.5" class="st48" width="0.1" height="7.5"/>
					<rect x="34.7" y="113.5" class="st49" width="0.1" height="7.5"/>
					<rect x="34.8" y="113.5" class="st50" width="0.1" height="7.5"/>
					<rect x="34.9" y="113.5" class="st51" width="0.1" height="7.5"/>
					<rect x="35" y="113.5" class="st52" width="0.1" height="7.5"/>
					<rect x="35.1" y="113.5" class="st53" width="0.1" height="7.5"/>
					<rect x="35.2" y="113.5" class="st54" width="0.1" height="7.5"/>
					<rect x="35.3" y="113.5" class="st55" width="0.1" height="7.5"/>
					<rect x="35.4" y="113.5" class="st56" width="0.1" height="7.5"/>
					<rect x="35.5" y="113.5" class="st57" width="0.1" height="7.5"/>
					<rect x="35.5" y="113.5" class="st58" width="0.1" height="7.5"/>
					<rect x="35.6" y="113.5" class="st59" width="0.1" height="7.5"/>
					<rect x="35.7" y="113.5" class="st60" width="0.1" height="7.5"/>
					<rect x="35.8" y="113.5" class="st61" width="0.1" height="7.5"/>
					<rect x="35.9" y="113.5" class="st62" width="0.1" height="7.5"/>
					<rect x="36" y="113.5" class="st63" width="0.1" height="7.5"/>
					<rect x="36.1" y="113.5" class="st64" width="0.1" height="7.5"/>
					<path class="st64" d="M36.2,121v-7.5V121z"/>
				</g>
			</g>
			<g>
				<circle class="st65" cx="32.4" cy="117.3" r="2"/>
			</g>
		</g>
	</g>
	<g>
		<linearGradient id="SVGID_11_" gradientUnits="userSpaceOnUse" x1="63.8133" y1="137.7643" x2="185.274" y2="137.7643">
			<stop  offset="0" style="stop-color:#0080C9"/>
			<stop  offset="1" style="stop-color:#115BA3"/>
		</linearGradient>
		<polygon class="st66" points="183.8,137.3 182.4,136.9 181,136.5 179.6,136 178.1,135.6 176.7,135.2 175.3,134.8 173.8,134.3 
			172.4,133.9 171,133.5 169.6,133 168.1,132.6 166.7,132.2 165.3,131.8 163.8,131.3 162.4,130.9 161,130.5 159.6,130 158.1,129.6 
			156.7,129.2 155.3,128.8 153.8,128.3 152.4,127.9 151,127.5 149.6,127 148.1,126.6 146.7,126.2 145.3,125.8 143.8,125.3 
			142.4,124.9 141,124.5 139.5,124 138.1,123.6 136.7,123.2 135.3,122.8 133.8,122.3 132.4,121.9 131,121.5 129.5,121 128.1,120.6 
			126.7,120.2 125.3,119.8 124.5,119.5 123.8,119.8 122.4,120.2 121,120.6 119.5,121 118.1,121.5 116.7,121.9 115.3,122.3 
			113.8,122.8 112.4,123.2 111,123.6 109.5,124 108.1,124.5 106.7,124.9 105.3,125.3 103.8,125.8 102.4,126.2 101,126.6 99.5,127 
			98.1,127.5 96.7,127.9 95.3,128.3 93.8,128.8 92.4,129.2 91,129.6 89.5,130 88.1,130.5 86.7,130.9 85.2,131.3 83.8,131.8 
			82.4,132.2 81,132.6 79.5,133 78.1,133.5 76.7,133.9 75.2,134.3 73.8,134.8 72.4,135.2 71,135.6 69.5,136 68.1,136.5 66.7,136.9 
			65.2,137.3 63.8,137.8 65.2,138.2 66.7,138.6 68.1,139.1 69.5,139.5 71,139.9 72.4,140.3 73.8,140.8 75.2,141.2 76.7,141.6 
			78.1,142.1 79.5,142.5 81,142.9 82.4,143.3 83.8,143.8 85.2,144.2 86.7,144.6 88.1,145.1 89.5,145.5 91,145.9 92.4,146.3 
			93.8,146.8 95.3,147.2 96.7,147.6 98.1,148.1 99.5,148.5 101,148.9 102.4,149.3 103.8,149.8 105.3,150.2 106.7,150.6 108.1,151.1 
			109.5,151.5 111,151.9 112.4,152.3 113.8,152.8 115.3,153.2 116.7,153.6 118.1,154.1 119.5,154.5 121,154.9 122.4,155.3 
			123.8,155.8 124.5,156 125.3,155.8 126.7,155.3 128.1,154.9 129.5,154.5 131,154.1 132.4,153.6 133.8,153.2 135.3,152.8 
			136.7,152.3 138.1,151.9 139.5,151.5 141,151.1 142.4,150.6 143.8,150.2 145.3,149.8 146.7,149.3 148.1,148.9 149.6,148.5 
			151,148.1 152.4,147.6 153.8,147.2 155.3,146.8 156.7,146.3 158.1,145.9 159.6,145.5 161,145.1 162.4,144.6 163.8,144.2 
			165.3,143.8 166.7,143.3 168.1,142.9 169.6,142.5 171,142.1 172.4,141.6 173.8,141.2 175.3,140.8 176.7,140.3 178.1,139.9 
			179.6,139.5 181,139.1 182.4,138.6 183.8,138.2 185.3,137.8 		"/>
		<linearGradient id="SVGID_12_" gradientUnits="userSpaceOnUse" x1="125.4564" y1="163.293" x2="246.9171" y2="163.293">
			<stop  offset="0" style="stop-color:#0080C9"/>
			<stop  offset="1" style="stop-color:#115BA3"/>
		</linearGradient>
		<polygon class="st67" points="245.5,162.9 244.1,162.4 242.6,162 241.2,161.6 239.8,161.1 238.3,160.7 236.9,160.3 235.5,159.9 
			234.1,159.4 232.6,159 231.2,158.6 229.8,158.1 228.3,157.7 226.9,157.3 225.5,156.9 224.1,156.4 222.6,156 221.2,155.6 
			219.8,155.1 218.3,154.7 216.9,154.3 215.5,153.9 214.1,153.4 212.6,153 211.2,152.6 209.8,152.1 208.3,151.7 206.9,151.3 
			205.5,150.9 204,150.4 202.6,150 201.2,149.6 199.8,149.1 198.3,148.7 196.9,148.3 195.5,147.9 194,147.4 192.6,147 191.2,146.6 
			189.8,146.1 188.3,145.7 186.9,145.3 186.2,145.1 185.5,145.3 184,145.7 182.6,146.1 181.2,146.6 179.8,147 178.3,147.4 
			176.9,147.9 175.5,148.3 174,148.7 172.6,149.1 171.2,149.6 169.8,150 168.3,150.4 166.9,150.9 165.5,151.3 164,151.7 
			162.6,152.1 161.2,152.6 159.8,153 158.3,153.4 156.9,153.9 155.5,154.3 154,154.7 152.6,155.1 151.2,155.6 149.7,156 
			148.3,156.4 146.9,156.9 145.5,157.3 144,157.7 142.6,158.1 141.2,158.6 139.7,159 138.3,159.4 136.9,159.9 135.5,160.3 
			134,160.7 132.6,161.1 131.2,161.6 129.7,162 128.3,162.4 126.9,162.9 125.5,163.3 126.9,163.7 128.3,164.2 129.7,164.6 
			131.2,165 132.6,165.4 134,165.9 135.5,166.3 136.9,166.7 138.3,167.2 139.7,167.6 141.2,168 142.6,168.4 144,168.9 145.5,169.3 
			146.9,169.7 148.3,170.2 149.7,170.6 151.2,171 152.6,171.4 154,171.9 155.5,172.3 156.9,172.7 158.3,173.2 159.8,173.6 
			161.2,174 162.6,174.4 164,174.9 165.5,175.3 166.9,175.7 168.3,176.2 169.8,176.6 171.2,177 172.6,177.4 174,177.9 175.5,178.3 
			176.9,178.7 178.3,179.2 179.8,179.6 181.2,180 182.6,180.4 184,180.9 185.5,181.3 186.2,181.5 186.9,181.3 188.3,180.9 
			189.8,180.4 191.2,180 192.6,179.6 194,179.2 195.5,178.7 196.9,178.3 198.3,177.9 199.8,177.4 201.2,177 202.6,176.6 204,176.2 
			205.5,175.7 206.9,175.3 208.3,174.9 209.8,174.4 211.2,174 212.6,173.6 214.1,173.2 215.5,172.7 216.9,172.3 218.3,171.9 
			219.8,171.4 221.2,171 222.6,170.6 224.1,170.2 225.5,169.7 226.9,169.3 228.3,168.9 229.8,168.4 231.2,168 232.6,167.6 
			234.1,167.2 235.5,166.7 236.9,166.3 238.3,165.9 239.8,165.4 241.2,165 242.6,164.6 244.1,164.2 245.5,163.7 246.9,163.3 		"/>
		<linearGradient id="SVGID_13_" gradientUnits="userSpaceOnUse" x1="63.8133" y1="188.8217" x2="185.274" y2="188.8217">
			<stop  offset="0" style="stop-color:#0080C9"/>
			<stop  offset="1" style="stop-color:#115BA3"/>
		</linearGradient>
		<polygon class="st68" points="183.8,188.4 182.4,188 181,187.5 179.6,187.1 178.1,186.7 176.7,186.3 175.3,185.8 173.8,185.4 
			172.4,185 171,184.5 169.6,184.1 168.1,183.7 166.7,183.2 165.3,182.8 163.8,182.4 162.4,182 161,181.5 159.6,181.1 158.1,180.7 
			156.7,180.2 155.3,179.8 153.8,179.4 152.4,179 151,178.5 149.6,178.1 148.1,177.7 146.7,177.2 145.3,176.8 143.8,176.4 
			142.4,176 141,175.5 139.5,175.1 138.1,174.7 136.7,174.2 135.3,173.8 133.8,173.4 132.4,173 131,172.5 129.5,172.1 128.1,171.7 
			126.7,171.2 125.3,170.8 124.5,170.6 123.8,170.8 122.4,171.2 121,171.7 119.5,172.1 118.1,172.5 116.7,173 115.3,173.4 
			113.8,173.8 112.4,174.2 111,174.7 109.5,175.1 108.1,175.5 106.7,176 105.3,176.4 103.8,176.8 102.4,177.2 101,177.7 99.5,178.1 
			98.1,178.5 96.7,179 95.3,179.4 93.8,179.8 92.4,180.2 91,180.7 89.5,181.1 88.1,181.5 86.7,182 85.2,182.4 83.8,182.8 
			82.4,183.2 81,183.7 79.5,184.1 78.1,184.5 76.7,185 75.2,185.4 73.8,185.8 72.4,186.3 71,186.7 69.5,187.1 68.1,187.5 66.7,188 
			65.2,188.4 63.8,188.8 65.2,189.3 66.7,189.7 68.1,190.1 69.5,190.5 71,191 72.4,191.4 73.8,191.8 75.2,192.3 76.7,192.7 
			78.1,193.1 79.5,193.5 81,194 82.4,194.4 83.8,194.8 85.2,195.3 86.7,195.7 88.1,196.1 89.5,196.5 91,197 92.4,197.4 93.8,197.8 
			95.3,198.3 96.7,198.7 98.1,199.1 99.5,199.5 101,200 102.4,200.4 103.8,200.8 105.3,201.3 106.7,201.7 108.1,202.1 109.5,202.5 
			111,203 112.4,203.4 113.8,203.8 115.3,204.3 116.7,204.7 118.1,205.1 119.5,205.5 121,206 122.4,206.4 123.8,206.8 124.5,207 
			125.3,206.8 126.7,206.4 128.1,206 129.5,205.5 131,205.1 132.4,204.7 133.8,204.3 135.3,203.8 136.7,203.4 138.1,203 
			139.5,202.5 141,202.1 142.4,201.7 143.8,201.3 145.3,200.8 146.7,200.4 148.1,200 149.6,199.5 151,199.1 152.4,198.7 
			153.8,198.3 155.3,197.8 156.7,197.4 158.1,197 159.6,196.5 161,196.1 162.4,195.7 163.8,195.3 165.3,194.8 166.7,194.4 
			168.1,194 169.6,193.5 171,193.1 172.4,192.7 173.8,192.3 175.3,191.8 176.7,191.4 178.1,191 179.6,190.5 181,190.1 182.4,189.7 
			183.8,189.3 185.3,188.8 		"/>
		<linearGradient id="SVGID_14_" gradientUnits="userSpaceOnUse" x1="125.4564" y1="61.1783" x2="246.9171" y2="61.1783">
			<stop  offset="0" style="stop-color:#0080C9"/>
			<stop  offset="1" style="stop-color:#115BA3"/>
		</linearGradient>
		<polygon class="st69" points="245.5,60.7 244.1,60.3 242.6,59.9 241.2,59.5 239.8,59 238.3,58.6 236.9,58.2 235.5,57.7 
			234.1,57.3 232.6,56.9 231.2,56.5 229.8,56 228.3,55.6 226.9,55.2 225.5,54.7 224.1,54.3 222.6,53.9 221.2,53.5 219.8,53 
			218.3,52.6 216.9,52.2 215.5,51.7 214.1,51.3 212.6,50.9 211.2,50.5 209.8,50 208.3,49.6 206.9,49.2 205.5,48.7 204,48.3 
			202.6,47.9 201.2,47.5 199.8,47 198.3,46.6 196.9,46.2 195.5,45.7 194,45.3 192.6,44.9 191.2,44.5 189.8,44 188.3,43.6 
			186.9,43.2 186.2,43 185.5,43.2 184,43.6 182.6,44 181.2,44.5 179.8,44.9 178.3,45.3 176.9,45.7 175.5,46.2 174,46.6 172.6,47 
			171.2,47.5 169.8,47.9 168.3,48.3 166.9,48.7 165.5,49.2 164,49.6 162.6,50 161.2,50.5 159.8,50.9 158.3,51.3 156.9,51.7 
			155.5,52.2 154,52.6 152.6,53 151.2,53.5 149.7,53.9 148.3,54.3 146.9,54.7 145.5,55.2 144,55.6 142.6,56 141.2,56.5 139.7,56.9 
			138.3,57.3 136.9,57.7 135.5,58.2 134,58.6 132.6,59 131.2,59.5 129.7,59.9 128.3,60.3 126.9,60.7 125.5,61.2 126.9,61.6 
			128.3,62 129.7,62.5 131.2,62.9 132.6,63.3 134,63.8 135.5,64.2 136.9,64.6 138.3,65 139.7,65.5 141.2,65.9 142.6,66.3 144,66.8 
			145.5,67.2 146.9,67.6 148.3,68 149.7,68.5 151.2,68.9 152.6,69.3 154,69.8 155.5,70.2 156.9,70.6 158.3,71 159.8,71.5 
			161.2,71.9 162.6,72.3 164,72.8 165.5,73.2 166.9,73.6 168.3,74 169.8,74.5 171.2,74.9 172.6,75.3 174,75.8 175.5,76.2 
			176.9,76.6 178.3,77 179.8,77.5 181.2,77.9 182.6,78.3 184,78.8 185.5,79.2 186.2,79.4 186.9,79.2 188.3,78.8 189.8,78.3 
			191.2,77.9 192.6,77.5 194,77 195.5,76.6 196.9,76.2 198.3,75.8 199.8,75.3 201.2,74.9 202.6,74.5 204,74 205.5,73.6 206.9,73.2 
			208.3,72.8 209.8,72.3 211.2,71.9 212.6,71.5 214.1,71 215.5,70.6 216.9,70.2 218.3,69.8 219.8,69.3 221.2,68.9 222.6,68.5 
			224.1,68 225.5,67.6 226.9,67.2 228.3,66.8 229.8,66.3 231.2,65.9 232.6,65.5 234.1,65 235.5,64.6 236.9,64.2 238.3,63.8 
			239.8,63.3 241.2,62.9 242.6,62.5 244.1,62 245.5,61.6 246.9,61.2 		"/>
		<linearGradient id="SVGID_15_" gradientUnits="userSpaceOnUse" x1="63.8133" y1="86.707" x2="185.274" y2="86.707">
			<stop  offset="0" style="stop-color:#0080C9"/>
			<stop  offset="1" style="stop-color:#115BA3"/>
		</linearGradient>
		<polygon class="st70" points="183.8,86.3 182.4,85.8 181,85.4 179.6,85 178.1,84.6 176.7,84.1 175.3,83.7 173.8,83.3 172.4,82.8 
			171,82.4 169.6,82 168.1,81.6 166.7,81.1 165.3,80.7 163.8,80.3 162.4,79.8 161,79.4 159.6,79 158.1,78.6 156.7,78.1 155.3,77.7 
			153.8,77.3 152.4,76.8 151,76.4 149.6,76 148.1,75.6 146.7,75.1 145.3,74.7 143.8,74.3 142.4,73.8 141,73.4 139.5,73 138.1,72.6 
			136.7,72.1 135.3,71.7 133.8,71.3 132.4,70.8 131,70.4 129.5,70 128.1,69.6 126.7,69.1 125.3,68.7 124.5,68.5 123.8,68.7 
			122.4,69.1 121,69.6 119.5,70 118.1,70.4 116.7,70.8 115.3,71.3 113.8,71.7 112.4,72.1 111,72.6 109.5,73 108.1,73.4 106.7,73.8 
			105.3,74.3 103.8,74.7 102.4,75.1 101,75.6 99.5,76 98.1,76.4 96.7,76.8 95.3,77.3 93.8,77.7 92.4,78.1 91,78.6 89.5,79 
			88.1,79.4 86.7,79.8 85.2,80.3 83.8,80.7 82.4,81.1 81,81.6 79.5,82 78.1,82.4 76.7,82.8 75.2,83.3 73.8,83.7 72.4,84.1 71,84.6 
			69.5,85 68.1,85.4 66.7,85.8 65.2,86.3 63.8,86.7 65.2,87.1 66.7,87.6 68.1,88 69.5,88.4 71,88.9 72.4,89.3 73.8,89.7 75.2,90.1 
			76.7,90.6 78.1,91 79.5,91.4 81,91.9 82.4,92.3 83.8,92.7 85.2,93.1 86.7,93.6 88.1,94 89.5,94.4 91,94.9 92.4,95.3 93.8,95.7 
			95.3,96.1 96.7,96.6 98.1,97 99.5,97.4 101,97.9 102.4,98.3 103.8,98.7 105.3,99.1 106.7,99.6 108.1,100 109.5,100.4 111,100.9 
			112.4,101.3 113.8,101.7 115.3,102.1 116.7,102.6 118.1,103 119.5,103.4 121,103.9 122.4,104.3 123.8,104.7 124.5,104.9 
			125.3,104.7 126.7,104.3 128.1,103.9 129.5,103.4 131,103 132.4,102.6 133.8,102.1 135.3,101.7 136.7,101.3 138.1,100.9 
			139.5,100.4 141,100 142.4,99.6 143.8,99.1 145.3,98.7 146.7,98.3 148.1,97.9 149.6,97.4 151,97 152.4,96.6 153.8,96.1 
			155.3,95.7 156.7,95.3 158.1,94.9 159.6,94.4 161,94 162.4,93.6 163.8,93.1 165.3,92.7 166.7,92.3 168.1,91.9 169.6,91.4 171,91 
			172.4,90.6 173.8,90.1 175.3,89.7 176.7,89.3 178.1,88.9 179.6,88.4 181,88 182.4,87.6 183.8,87.1 185.3,86.7 		"/>
		<linearGradient id="SVGID_16_" gradientUnits="userSpaceOnUse" x1="3.0829" y1="112.2357" x2="124.5436" y2="112.2357">
			<stop  offset="0" style="stop-color:#0080C9"/>
			<stop  offset="1" style="stop-color:#115BA3"/>
		</linearGradient>
		<polygon class="st71" points="123.1,111.8 121.7,111.4 120.3,110.9 118.8,110.5 117.4,110.1 116,109.7 114.5,109.2 113.1,108.8 
			111.7,108.4 110.3,107.9 108.8,107.5 107.4,107.1 106,106.7 104.5,106.2 103.1,105.8 101.7,105.4 100.3,104.9 98.8,104.5 
			97.4,104.1 96,103.7 94.5,103.2 93.1,102.8 91.7,102.4 90.2,101.9 88.8,101.5 87.4,101.1 86,100.7 84.5,100.2 83.1,99.8 
			81.7,99.4 80.2,98.9 78.8,98.5 77.4,98.1 76,97.7 74.5,97.2 73.1,96.8 71.7,96.4 70.2,95.9 68.8,95.5 67.4,95.1 66,94.7 
			64.5,94.2 63.8,94 63.1,94.2 61.7,94.7 60.2,95.1 58.8,95.5 57.4,95.9 56,96.4 54.5,96.8 53.1,97.2 51.7,97.7 50.2,98.1 
			48.8,98.5 47.4,98.9 46,99.4 44.5,99.8 43.1,100.2 41.7,100.7 40.2,101.1 38.8,101.5 37.4,101.9 35.9,102.4 34.5,102.8 
			33.1,103.2 31.7,103.7 30.2,104.1 28.8,104.5 27.4,104.9 25.9,105.4 24.5,105.8 23.1,106.2 21.7,106.7 20.2,107.1 18.8,107.5 
			17.4,107.9 15.9,108.4 14.5,108.8 13.1,109.2 11.7,109.7 10.2,110.1 8.8,110.5 7.4,110.9 5.9,111.4 4.5,111.8 3.1,112.2 
			4.5,112.7 5.9,113.1 7.4,113.5 8.8,114 10.2,114.4 11.7,114.8 13.1,115.2 14.5,115.7 15.9,116.1 17.4,116.5 18.8,117 20.2,117.4 
			21.7,117.8 23.1,118.2 24.5,118.7 25.9,119.1 27.4,119.5 28.8,120 30.2,120.4 31.7,120.8 33.1,121.2 34.5,121.7 35.9,122.1 
			37.4,122.5 38.8,123 40.2,123.4 41.7,123.8 43.1,124.2 44.5,124.7 46,125.1 47.4,125.5 48.8,126 50.2,126.4 51.7,126.8 
			53.1,127.2 54.5,127.7 56,128.1 57.4,128.5 58.8,129 60.2,129.4 61.7,129.8 63.1,130.2 63.8,130.5 64.5,130.2 66,129.8 
			67.4,129.4 68.8,129 70.2,128.5 71.7,128.1 73.1,127.7 74.5,127.2 76,126.8 77.4,126.4 78.8,126 80.2,125.5 81.7,125.1 
			83.1,124.7 84.5,124.2 86,123.8 87.4,123.4 88.8,123 90.2,122.5 91.7,122.1 93.1,121.7 94.5,121.2 96,120.8 97.4,120.4 98.8,120 
			100.3,119.5 101.7,119.1 103.1,118.7 104.5,118.2 106,117.8 107.4,117.4 108.8,117 110.3,116.5 111.7,116.1 113.1,115.7 
			114.5,115.2 116,114.8 117.4,114.4 118.8,114 120.3,113.5 121.7,113.1 123.1,112.7 124.5,112.2 		"/>
	</g>
	<g>
		
			<linearGradient id="SVGID_17_" gradientUnits="userSpaceOnUse" x1="3469.7488" y1="-50.391" x2="3588.313" y2="-50.391" gradientTransform="matrix(-1 0 0 -1 3713.4954 74.2259)">
			<stop  offset="0" style="stop-color:#FFFFFF"/>
			<stop  offset="1" style="stop-color:#0080C9"/>
		</linearGradient>
		<path class="st72" d="M242.2,114.7c0,0-57,0-62.2,0c-5.1,0-7.2,2.7-7.2,9.9s-3.2,9.9-7.8,9.9c-7.5,0-38.4,0-38.4,0"/>
		<g>
			<circle class="st65" cx="124.9" cy="134.5" r="8.3"/>
			
				<linearGradient id="SVGID_18_" gradientUnits="userSpaceOnUse" x1="3584.2104" y1="-60.2755" x2="3593.063" y2="-60.2755" gradientTransform="matrix(-1 0 0 -1 3713.4954 74.2259)">
				<stop  offset="0" style="stop-color:#0080C9"/>
				<stop  offset="1" style="stop-color:#115BA3"/>
			</linearGradient>
			<circle class="st73" cx="124.9" cy="134.5" r="4.4"/>
		</g>
	</g>
	<g>
		
			<linearGradient id="SVGID_19_" gradientUnits="userSpaceOnUse" x1="-792.136" y1="473.8576" x2="-673.5718" y2="473.8576" gradientTransform="matrix(1 0 0 1 798.0416 -378.2551)">
			<stop  offset="0" style="stop-color:#FFFFFF"/>
			<stop  offset="1" style="stop-color:#0080C9"/>
		</linearGradient>
		<path class="st74" d="M7.4,105.5c0,0,57,0,62.2,0s7.2-2.7,7.2-9.9c0-7.3,3.2-9.9,7.8-9.9c7.5,0,38.4,0,38.4,0"/>
		<g>
			<circle class="st65" cx="124.8" cy="85.7" r="8.3"/>
			
				<linearGradient id="SVGID_20_" gradientUnits="userSpaceOnUse" x1="-677.6743" y1="463.973" x2="-668.8218" y2="463.973" gradientTransform="matrix(1 0 0 1 798.0416 -378.2551)">
				<stop  offset="0" style="stop-color:#0080C9"/>
				<stop  offset="1" style="stop-color:#115BA3"/>
			</linearGradient>
			<circle class="st75" cx="124.8" cy="85.7" r="4.4"/>
		</g>
	</g>
	<g>
		
			<linearGradient id="SVGID_21_" gradientUnits="userSpaceOnUse" x1="-1036.2889" y1="625.2082" x2="-933.9898" y2="625.2082" gradientTransform="matrix(1 0 0 1 1118.726 -451.2168)">
			<stop  offset="0" style="stop-color:#FFFFFF"/>
			<stop  offset="1" style="stop-color:#0080C9"/>
		</linearGradient>
		<path class="st76" d="M83.9,182.5c0,0,49,0,53.4,0s6.2-2.3,6.2-8.5c0-6.2,2.7-8.5,6.7-8.5c6.4,0,33,0,33,0"/>
		<g>
			<circle class="st65" cx="184.8" cy="165.5" r="7.1"/>
			
				<linearGradient id="SVGID_22_" gradientUnits="userSpaceOnUse" x1="-937.7261" y1="616.7148" x2="-930.1196" y2="616.7148" gradientTransform="matrix(1 0 0 1 1118.726 -451.2168)">
				<stop  offset="0" style="stop-color:#0080C9"/>
				<stop  offset="1" style="stop-color:#115BA3"/>
			</linearGradient>
			<circle class="st77" cx="184.8" cy="165.5" r="3.8"/>
		</g>
	</g>
</g>
</svg>
