<?xml version="1.0" encoding="utf-8"?>
<!-- Generator: Adobe Illustrator 22.0.1, SVG Export Plug-In . SVG Version: 6.00 Build 0)  -->
<svg version="1.1" id="Capa_1" xmlns="http://www.w3.org/2000/svg" xmlns:xlink="http://www.w3.org/1999/xlink" x="0px" y="0px"
	 viewBox="0 0 250 250" style="enable-background:new 0 0 250 250;" xml:space="preserve">
<style type="text/css">
	.st0{fill:url(#SVGID_1_);}
	.st1{opacity:0.3;fill:url(#SVGID_2_);}
	.st2{opacity:0.2;fill:url(#SVGID_3_);}
	.st3{opacity:0.1;fill:url(#SVGID_4_);}
	.st4{opacity:0.4;fill:url(#SVGID_5_);}
	.st5{opacity:0.3;fill:url(#SVGID_6_);}
	.st6{opacity:0.2;fill:url(#SVGID_7_);}
	.st7{opacity:0.1;fill:url(#SVGID_8_);}
	.st8{fill:url(#SVGID_9_);}
	.st9{fill:url(#SVGID_10_);}
	.st10{fill:url(#SVGID_11_);}
	.st11{clip-path:url(#SVGID_13_);fill:#0080C9;}
	.st12{clip-path:url(#SVGID_13_);fill:#0080C8;}
	.st13{clip-path:url(#SVGID_13_);fill:#007FC7;}
	.st14{clip-path:url(#SVGID_13_);fill:#007EC6;}
	.st15{clip-path:url(#SVGID_13_);fill:#007DC5;}
	.st16{clip-path:url(#SVGID_13_);fill:#007DC4;}
	.st17{clip-path:url(#SVGID_13_);fill:#007CC4;}
	.st18{clip-path:url(#SVGID_13_);fill:#007BC3;}
	.st19{clip-path:url(#SVGID_13_);fill:#007BC2;}
	.st20{clip-path:url(#SVGID_13_);fill:#007AC2;}
	.st21{clip-path:url(#SVGID_13_);fill:#007AC1;}
	.st22{clip-path:url(#SVGID_13_);fill:#0079C1;}
	.st23{clip-path:url(#SVGID_13_);fill:#0079C0;}
	.st24{clip-path:url(#SVGID_13_);fill:#0078C0;}
	.st25{clip-path:url(#SVGID_13_);fill:#0078BF;}
	.st26{clip-path:url(#SVGID_13_);fill:#0077BF;}
	.st27{clip-path:url(#SVGID_13_);fill:#0077BE;}
	.st28{clip-path:url(#SVGID_13_);fill:#0076BD;}
	.st29{clip-path:url(#SVGID_13_);fill:#0075BD;}
	.st30{clip-path:url(#SVGID_13_);fill:#0075BC;}
	.st31{clip-path:url(#SVGID_13_);fill:#0074BC;}
	.st32{clip-path:url(#SVGID_13_);fill:#0074BB;}
	.st33{clip-path:url(#SVGID_13_);fill:#0073BA;}
	.st34{clip-path:url(#SVGID_13_);fill:#0072B9;}
	.st35{clip-path:url(#SVGID_13_);fill:#0071B8;}
	.st36{clip-path:url(#SVGID_13_);fill:#0070B7;}
	.st37{clip-path:url(#SVGID_13_);fill:#006FB6;}
	.st38{clip-path:url(#SVGID_13_);fill:#006EB5;}
	.st39{clip-path:url(#SVGID_13_);fill:#006DB4;}
	.st40{clip-path:url(#SVGID_13_);fill:#006CB3;}
	.st41{clip-path:url(#SVGID_13_);fill:#006CB2;}
	.st42{clip-path:url(#SVGID_13_);fill:#006BB2;}
	.st43{clip-path:url(#SVGID_13_);fill:#006AB1;}
	.st44{clip-path:url(#SVGID_13_);fill:#0069B0;}
	.st45{clip-path:url(#SVGID_13_);fill:#0068AF;}
	.st46{clip-path:url(#SVGID_13_);fill:#0067AE;}
	.st47{clip-path:url(#SVGID_13_);fill:#0066AD;}
	.st48{clip-path:url(#SVGID_13_);fill:#0065AC;}
	.st49{clip-path:url(#SVGID_13_);fill:#0064AB;}
	.st50{clip-path:url(#SVGID_13_);fill:#0063AB;}
	.st51{clip-path:url(#SVGID_13_);fill:#0063AA;}
	.st52{clip-path:url(#SVGID_13_);fill:#0062AA;}
	.st53{clip-path:url(#SVGID_13_);fill:#0062A9;}
	.st54{clip-path:url(#SVGID_13_);fill:#0061A9;}
	.st55{clip-path:url(#SVGID_13_);fill:#0061A8;}
	.st56{clip-path:url(#SVGID_13_);fill:#0060A8;}
	.st57{clip-path:url(#SVGID_13_);fill:#0060A7;}
	.st58{clip-path:url(#SVGID_13_);fill:#005FA7;}
	.st59{clip-path:url(#SVGID_13_);fill:#005FA6;}
	.st60{clip-path:url(#SVGID_13_);fill:#005EA6;}
	.st61{clip-path:url(#SVGID_13_);fill:#005EA5;}
	.st62{clip-path:url(#SVGID_13_);fill:#005DA5;}
	.st63{clip-path:url(#SVGID_13_);fill:#035DA5;}
	.st64{clip-path:url(#SVGID_13_);fill:#075CA4;}
	.st65{clip-path:url(#SVGID_13_);fill:#0B5CA4;}
	.st66{clip-path:url(#SVGID_13_);fill:#0E5BA3;}
	.st67{clip-path:url(#SVGID_13_);fill:#115BA3;}
	.st68{fill:#FFFFFF;}
	.st69{fill:url(#SVGID_14_);}
	.st70{fill:url(#SVGID_15_);}
	.st71{fill:url(#SVGID_16_);}
	.st72{clip-path:url(#SVGID_18_);fill:#0080C9;}
	.st73{clip-path:url(#SVGID_18_);fill:#0080C8;}
	.st74{clip-path:url(#SVGID_18_);fill:#007FC7;}
	.st75{clip-path:url(#SVGID_18_);fill:#007EC6;}
	.st76{clip-path:url(#SVGID_18_);fill:#007DC5;}
	.st77{clip-path:url(#SVGID_18_);fill:#007DC4;}
	.st78{clip-path:url(#SVGID_18_);fill:#007CC4;}
	.st79{clip-path:url(#SVGID_18_);fill:#007BC3;}
	.st80{clip-path:url(#SVGID_18_);fill:#007BC2;}
	.st81{clip-path:url(#SVGID_18_);fill:#007AC2;}
	.st82{clip-path:url(#SVGID_18_);fill:#007AC1;}
	.st83{clip-path:url(#SVGID_18_);fill:#0079C1;}
	.st84{clip-path:url(#SVGID_18_);fill:#0079C0;}
	.st85{clip-path:url(#SVGID_18_);fill:#0078C0;}
	.st86{clip-path:url(#SVGID_18_);fill:#0078BF;}
	.st87{clip-path:url(#SVGID_18_);fill:#0077BF;}
	.st88{clip-path:url(#SVGID_18_);fill:#0077BE;}
	.st89{clip-path:url(#SVGID_18_);fill:#0076BD;}
	.st90{clip-path:url(#SVGID_18_);fill:#0075BD;}
	.st91{clip-path:url(#SVGID_18_);fill:#0075BC;}
	.st92{clip-path:url(#SVGID_18_);fill:#0074BC;}
	.st93{clip-path:url(#SVGID_18_);fill:#0074BB;}
	.st94{clip-path:url(#SVGID_18_);fill:#0073BA;}
	.st95{clip-path:url(#SVGID_18_);fill:#0072B9;}
	.st96{clip-path:url(#SVGID_18_);fill:#0071B8;}
	.st97{clip-path:url(#SVGID_18_);fill:#0070B7;}
	.st98{clip-path:url(#SVGID_18_);fill:#006FB6;}
	.st99{clip-path:url(#SVGID_18_);fill:#006EB5;}
	.st100{clip-path:url(#SVGID_18_);fill:#006DB4;}
	.st101{clip-path:url(#SVGID_18_);fill:#006CB3;}
	.st102{clip-path:url(#SVGID_18_);fill:#006CB2;}
	.st103{clip-path:url(#SVGID_18_);fill:#006BB2;}
	.st104{clip-path:url(#SVGID_18_);fill:#006AB1;}
	.st105{clip-path:url(#SVGID_18_);fill:#0069B0;}
	.st106{clip-path:url(#SVGID_18_);fill:#0068AF;}
	.st107{clip-path:url(#SVGID_18_);fill:#0067AE;}
	.st108{clip-path:url(#SVGID_18_);fill:#0066AD;}
	.st109{clip-path:url(#SVGID_18_);fill:#0065AC;}
	.st110{clip-path:url(#SVGID_18_);fill:#0064AB;}
	.st111{clip-path:url(#SVGID_18_);fill:#0063AB;}
	.st112{clip-path:url(#SVGID_18_);fill:#0063AA;}
	.st113{clip-path:url(#SVGID_18_);fill:#0062AA;}
	.st114{clip-path:url(#SVGID_18_);fill:#0062A9;}
	.st115{clip-path:url(#SVGID_18_);fill:#0061A9;}
	.st116{clip-path:url(#SVGID_18_);fill:#0061A8;}
	.st117{clip-path:url(#SVGID_18_);fill:#0060A8;}
	.st118{clip-path:url(#SVGID_18_);fill:#0060A7;}
	.st119{clip-path:url(#SVGID_18_);fill:#005FA7;}
	.st120{clip-path:url(#SVGID_18_);fill:#005FA6;}
	.st121{clip-path:url(#SVGID_18_);fill:#005EA6;}
	.st122{clip-path:url(#SVGID_18_);fill:#005EA5;}
	.st123{clip-path:url(#SVGID_18_);fill:#005DA5;}
	.st124{clip-path:url(#SVGID_18_);fill:#035DA5;}
	.st125{clip-path:url(#SVGID_18_);fill:#075CA4;}
	.st126{clip-path:url(#SVGID_18_);fill:#0B5CA4;}
	.st127{clip-path:url(#SVGID_18_);fill:#0E5BA3;}
	.st128{clip-path:url(#SVGID_18_);fill:#115BA3;}
	.st129{opacity:0.7;}
	.st130{fill:url(#SVGID_19_);}
	.st131{fill:url(#SVGID_20_);}
	.st132{fill:none;stroke:url(#SVGID_21_);stroke-width:2;stroke-linecap:round;stroke-linejoin:round;stroke-miterlimit:10;}
	.st133{fill:none;stroke:url(#SVGID_22_);stroke-width:2;stroke-linecap:round;stroke-linejoin:round;stroke-miterlimit:10;}
	.st134{fill:none;stroke:url(#SVGID_23_);stroke-width:2;stroke-linecap:round;stroke-linejoin:round;stroke-miterlimit:10;}
	.st135{fill:none;stroke:url(#SVGID_24_);stroke-width:2;stroke-linecap:round;stroke-linejoin:round;stroke-miterlimit:10;}
	.st136{fill:none;stroke:url(#SVGID_25_);stroke-width:3;stroke-miterlimit:10;}
	.st137{fill:none;stroke:url(#SVGID_26_);stroke-width:3;stroke-miterlimit:10;}
	.st138{fill:none;stroke:url(#SVGID_27_);stroke-width:3;stroke-miterlimit:10;}
	.st139{fill:none;stroke:url(#SVGID_28_);stroke-width:3;stroke-miterlimit:10;}
</style>
<g>
	<linearGradient id="SVGID_1_" gradientUnits="userSpaceOnUse" x1="98.4521" y1="125" x2="234.4248" y2="125">
		<stop  offset="0" style="stop-color:#FFFFFF;stop-opacity:0.1"/>
		<stop  offset="1" style="stop-color:#0080C9;stop-opacity:0.1"/>
	</linearGradient>
	<path class="st0" d="M234.4,125c0,62.4-50.6,113-113,113s22-50.6,22-113S59,12,121.4,12S234.4,62.6,234.4,125z"/>
	<g>
		
			<linearGradient id="SVGID_2_" gradientUnits="userSpaceOnUse" x1="4244.6392" y1="-387.8792" x2="4313.0303" y2="-387.8792" gradientTransform="matrix(-1 0 0 -1 4400.2695 -287.8327)">
			<stop  offset="0" style="stop-color:#0080C9"/>
			<stop  offset="1" style="stop-color:#115BA3"/>
		</linearGradient>
		<polygon class="st1" points="88,100.5 88.8,100.9 89.7,101.3 90.5,101.7 91.3,102.1 92.1,102.5 92.9,102.9 93.7,103.3 94.5,103.7 
			95.3,104.1 96.1,104.5 96.9,104.9 97.7,105.4 98.5,105.8 99.3,106.2 100.1,106.6 100.9,107 101.7,107.4 102.5,107.8 103.3,108.2 
			104.1,108.6 104.9,109 105.7,109.4 106.5,109.9 107.4,110.3 108.2,110.7 109,111.1 109.8,111.5 110.6,111.9 111.4,112.3 
			112.2,112.7 113,113.1 113.8,113.5 114.6,113.9 115.4,114.3 116.2,114.8 117,115.2 117.8,115.6 118.6,116 119.4,116.4 
			120.2,116.8 121,117.2 121.4,117.4 121.8,117.2 122.6,116.8 123.4,116.4 124.3,116 125.1,115.6 125.9,115.2 126.7,114.8 
			127.5,114.3 128.3,113.9 129.1,113.5 129.9,113.1 130.7,112.7 131.5,112.3 132.3,111.9 133.1,111.5 133.9,111.1 134.7,110.7 
			135.5,110.3 136.3,109.9 137.1,109.4 137.9,109 138.7,108.6 139.5,108.2 140.3,107.8 141.1,107.4 142,107 142.8,106.6 
			143.6,106.2 144.4,105.8 145.2,105.4 146,104.9 146.8,104.5 147.6,104.1 148.4,103.7 149.2,103.3 150,102.9 150.8,102.5 
			151.6,102.1 152.4,101.7 153.2,101.3 154,100.9 154.8,100.5 155.6,100 154.8,99.6 154,99.2 153.2,98.8 152.4,98.4 151.6,98 
			150.8,97.6 150,97.2 149.2,96.8 148.4,96.4 147.6,96 146.8,95.6 146,95.1 145.2,94.7 144.4,94.3 143.6,93.9 142.8,93.5 142,93.1 
			141.1,92.7 140.3,92.3 139.5,91.9 138.7,91.5 137.9,91.1 137.1,90.7 136.3,90.2 135.5,89.8 134.7,89.4 133.9,89 133.1,88.6 
			132.3,88.2 131.5,87.8 130.7,87.4 129.9,87 129.1,86.6 128.3,86.2 127.5,85.7 126.7,85.3 125.9,84.9 125.1,84.5 124.3,84.1 
			123.4,83.7 122.6,83.3 121.8,82.9 121.4,82.7 121,82.9 120.2,83.3 119.4,83.7 118.6,84.1 117.8,84.5 117,84.9 116.2,85.3 
			115.4,85.7 114.6,86.2 113.8,86.6 113,87 112.2,87.4 111.4,87.8 110.6,88.2 109.8,88.6 109,89 108.2,89.4 107.4,89.8 106.5,90.2 
			105.7,90.7 104.9,91.1 104.1,91.5 103.3,91.9 102.5,92.3 101.7,92.7 100.9,93.1 100.1,93.5 99.3,93.9 98.5,94.3 97.7,94.7 
			96.9,95.1 96.1,95.6 95.3,96 94.5,96.4 93.7,96.8 92.9,97.2 92.1,97.6 91.3,98 90.5,98.4 89.7,98.8 88.8,99.2 88,99.6 87.2,100 		
			"/>
		
			<linearGradient id="SVGID_3_" gradientUnits="userSpaceOnUse" x1="4244.6392" y1="-362.3078" x2="4313.0303" y2="-362.3078" gradientTransform="matrix(-1 0 0 -1 4400.2695 -287.8327)">
			<stop  offset="0" style="stop-color:#0080C9"/>
			<stop  offset="1" style="stop-color:#115BA3"/>
		</linearGradient>
		<polygon class="st2" points="88,74.9 88.8,75.3 89.7,75.7 90.5,76.1 91.3,76.5 92.1,76.9 92.9,77.3 93.7,77.7 94.5,78.2 
			95.3,78.6 96.1,79 96.9,79.4 97.7,79.8 98.5,80.2 99.3,80.6 100.1,81 100.9,81.4 101.7,81.8 102.5,82.2 103.3,82.6 104.1,83.1 
			104.9,83.5 105.7,83.9 106.5,84.3 107.4,84.7 108.2,85.1 109,85.5 109.8,85.9 110.6,86.3 111.4,86.7 112.2,87.1 113,87.5 
			113.8,88 114.6,88.4 115.4,88.8 116.2,89.2 117,89.6 117.8,90 118.6,90.4 119.4,90.8 120.2,91.2 121,91.6 121.4,91.8 121.8,91.6 
			122.6,91.2 123.4,90.8 124.3,90.4 125.1,90 125.9,89.6 126.7,89.2 127.5,88.8 128.3,88.4 129.1,88 129.9,87.5 130.7,87.1 
			131.5,86.7 132.3,86.3 133.1,85.9 133.9,85.5 134.7,85.1 135.5,84.7 136.3,84.3 137.1,83.9 137.9,83.5 138.7,83.1 139.5,82.6 
			140.3,82.2 141.1,81.8 142,81.4 142.8,81 143.6,80.6 144.4,80.2 145.2,79.8 146,79.4 146.8,79 147.6,78.6 148.4,78.2 149.2,77.7 
			150,77.3 150.8,76.9 151.6,76.5 152.4,76.1 153.2,75.7 154,75.3 154.8,74.9 155.6,74.5 154.8,74.1 154,73.7 153.2,73.2 
			152.4,72.8 151.6,72.4 150.8,72 150,71.6 149.2,71.2 148.4,70.8 147.6,70.4 146.8,70 146,69.6 145.2,69.2 144.4,68.8 143.6,68.3 
			142.8,67.9 142,67.5 141.1,67.1 140.3,66.7 139.5,66.3 138.7,65.9 137.9,65.5 137.1,65.1 136.3,64.7 135.5,64.3 134.7,63.9 
			133.9,63.4 133.1,63 132.3,62.6 131.5,62.2 130.7,61.8 129.9,61.4 129.1,61 128.3,60.6 127.5,60.2 126.7,59.8 125.9,59.4 
			125.1,59 124.3,58.5 123.4,58.1 122.6,57.7 121.8,57.3 121.4,57.1 121,57.3 120.2,57.7 119.4,58.1 118.6,58.5 117.8,59 117,59.4 
			116.2,59.8 115.4,60.2 114.6,60.6 113.8,61 113,61.4 112.2,61.8 111.4,62.2 110.6,62.6 109.8,63 109,63.4 108.2,63.9 107.4,64.3 
			106.5,64.7 105.7,65.1 104.9,65.5 104.1,65.9 103.3,66.3 102.5,66.7 101.7,67.1 100.9,67.5 100.1,67.9 99.3,68.3 98.5,68.8 
			97.7,69.2 96.9,69.6 96.1,70 95.3,70.4 94.5,70.8 93.7,71.2 92.9,71.6 92.1,72 91.3,72.4 90.5,72.8 89.7,73.2 88.8,73.7 88,74.1 
			87.2,74.5 		"/>
		
			<linearGradient id="SVGID_4_" gradientUnits="userSpaceOnUse" x1="4244.6392" y1="-336.7364" x2="4313.0303" y2="-336.7364" gradientTransform="matrix(-1 0 0 -1 4400.2695 -287.8327)">
			<stop  offset="0" style="stop-color:#0080C9"/>
			<stop  offset="1" style="stop-color:#115BA3"/>
		</linearGradient>
		<polygon class="st3" points="88,49.3 88.8,49.7 89.7,50.1 90.5,50.5 91.3,50.9 92.1,51.4 92.9,51.8 93.7,52.2 94.5,52.6 95.3,53 
			96.1,53.4 96.9,53.8 97.7,54.2 98.5,54.6 99.3,55 100.1,55.4 100.9,55.8 101.7,56.3 102.5,56.7 103.3,57.1 104.1,57.5 104.9,57.9 
			105.7,58.3 106.5,58.7 107.4,59.1 108.2,59.5 109,59.9 109.8,60.3 110.6,60.8 111.4,61.2 112.2,61.6 113,62 113.8,62.4 
			114.6,62.8 115.4,63.2 116.2,63.6 117,64 117.8,64.4 118.6,64.8 119.4,65.2 120.2,65.7 121,66.1 121.4,66.3 121.8,66.1 
			122.6,65.7 123.4,65.2 124.3,64.8 125.1,64.4 125.9,64 126.7,63.6 127.5,63.2 128.3,62.8 129.1,62.4 129.9,62 130.7,61.6 
			131.5,61.2 132.3,60.8 133.1,60.3 133.9,59.9 134.7,59.5 135.5,59.1 136.3,58.7 137.1,58.3 137.9,57.9 138.7,57.5 139.5,57.1 
			140.3,56.7 141.1,56.3 142,55.8 142.8,55.4 143.6,55 144.4,54.6 145.2,54.2 146,53.8 146.8,53.4 147.6,53 148.4,52.6 149.2,52.2 
			150,51.8 150.8,51.4 151.6,50.9 152.4,50.5 153.2,50.1 154,49.7 154.8,49.3 155.6,48.9 154.8,48.5 154,48.1 153.2,47.7 
			152.4,47.3 151.6,46.9 150.8,46.5 150,46 149.2,45.6 148.4,45.2 147.6,44.8 146.8,44.4 146,44 145.2,43.6 144.4,43.2 143.6,42.8 
			142.8,42.4 142,42 141.1,41.5 140.3,41.1 139.5,40.7 138.7,40.3 137.9,39.9 137.1,39.5 136.3,39.1 135.5,38.7 134.7,38.3 
			133.9,37.9 133.1,37.5 132.3,37.1 131.5,36.6 130.7,36.2 129.9,35.8 129.1,35.4 128.3,35 127.5,34.6 126.7,34.2 125.9,33.8 
			125.1,33.4 124.3,33 123.4,32.6 122.6,32.2 121.8,31.7 121.4,31.5 121,31.7 120.2,32.2 119.4,32.6 118.6,33 117.8,33.4 117,33.8 
			116.2,34.2 115.4,34.6 114.6,35 113.8,35.4 113,35.8 112.2,36.2 111.4,36.6 110.6,37.1 109.8,37.5 109,37.9 108.2,38.3 
			107.4,38.7 106.5,39.1 105.7,39.5 104.9,39.9 104.1,40.3 103.3,40.7 102.5,41.1 101.7,41.5 100.9,42 100.1,42.4 99.3,42.8 
			98.5,43.2 97.7,43.6 96.9,44 96.1,44.4 95.3,44.8 94.5,45.2 93.7,45.6 92.9,46 92.1,46.5 91.3,46.9 90.5,47.3 89.7,47.7 
			88.8,48.1 88,48.5 87.2,48.9 		"/>
		<linearGradient id="SVGID_5_" gradientUnits="userSpaceOnUse" x1="87.2393" y1="127.3241" x2="155.6302" y2="127.3241">
			<stop  offset="0" style="stop-color:#0080C9"/>
			<stop  offset="1" style="stop-color:#115BA3"/>
		</linearGradient>
		<polygon class="st4" points="154.8,126.9 154,126.5 153.2,126.1 152.4,125.7 151.6,125.3 150.8,124.9 150,124.5 149.2,124.1 
			148.4,123.6 147.6,123.2 146.8,122.8 146,122.4 145.2,122 144.4,121.6 143.6,121.2 142.8,120.8 142,120.4 141.1,120 140.3,119.6 
			139.5,119.2 138.7,118.7 137.9,118.3 137.1,117.9 136.3,117.5 135.5,117.1 134.7,116.7 133.9,116.3 133.1,115.9 132.3,115.5 
			131.5,115.1 130.7,114.7 129.9,114.3 129.1,113.8 128.3,113.4 127.5,113 126.7,112.6 125.9,112.2 125.1,111.8 124.3,111.4 
			123.4,111 122.6,110.6 121.8,110.2 121.4,110 121,110.2 120.2,110.6 119.4,111 118.6,111.4 117.8,111.8 117,112.2 116.2,112.6 
			115.4,113 114.6,113.4 113.8,113.8 113,114.3 112.2,114.7 111.4,115.1 110.6,115.5 109.8,115.9 109,116.3 108.2,116.7 
			107.4,117.1 106.5,117.5 105.7,117.9 104.9,118.3 104.1,118.7 103.3,119.2 102.5,119.6 101.7,120 100.9,120.4 100.1,120.8 
			99.3,121.2 98.5,121.6 97.7,122 96.9,122.4 96.1,122.8 95.3,123.2 94.5,123.6 93.7,124.1 92.9,124.5 92.1,124.9 91.3,125.3 
			90.5,125.7 89.7,126.1 88.8,126.5 88,126.9 87.2,127.3 88,127.7 88.8,128.1 89.7,128.5 90.5,129 91.3,129.4 92.1,129.8 
			92.9,130.2 93.7,130.6 94.5,131 95.3,131.4 96.1,131.8 96.9,132.2 97.7,132.6 98.5,133 99.3,133.5 100.1,133.9 100.9,134.3 
			101.7,134.7 102.5,135.1 103.3,135.5 104.1,135.9 104.9,136.3 105.7,136.7 106.5,137.1 107.4,137.5 108.2,137.9 109,138.4 
			109.8,138.8 110.6,139.2 111.4,139.6 112.2,140 113,140.4 113.8,140.8 114.6,141.2 115.4,141.6 116.2,142 117,142.4 117.8,142.8 
			118.6,143.3 119.4,143.7 120.2,144.1 121,144.5 121.4,144.7 121.8,144.5 122.6,144.1 123.4,143.7 124.3,143.3 125.1,142.8 
			125.9,142.4 126.7,142 127.5,141.6 128.3,141.2 129.1,140.8 129.9,140.4 130.7,140 131.5,139.6 132.3,139.2 133.1,138.8 
			133.9,138.4 134.7,137.9 135.5,137.5 136.3,137.1 137.1,136.7 137.9,136.3 138.7,135.9 139.5,135.5 140.3,135.1 141.1,134.7 
			142,134.3 142.8,133.9 143.6,133.5 144.4,133 145.2,132.6 146,132.2 146.8,131.8 147.6,131.4 148.4,131 149.2,130.6 150,130.2 
			150.8,129.8 151.6,129.4 152.4,129 153.2,128.5 154,128.1 154.8,127.7 155.6,127.3 		"/>
		<linearGradient id="SVGID_6_" gradientUnits="userSpaceOnUse" x1="87.2393" y1="152.8955" x2="155.6302" y2="152.8955">
			<stop  offset="0" style="stop-color:#0080C9"/>
			<stop  offset="1" style="stop-color:#115BA3"/>
		</linearGradient>
		<polygon class="st5" points="154.8,152.5 154,152.1 153.2,151.7 152.4,151.3 151.6,150.9 150.8,150.4 150,150 149.2,149.6 
			148.4,149.2 147.6,148.8 146.8,148.4 146,148 145.2,147.6 144.4,147.2 143.6,146.8 142.8,146.4 142,146 141.1,145.5 140.3,145.1 
			139.5,144.7 138.7,144.3 137.9,143.9 137.1,143.5 136.3,143.1 135.5,142.7 134.7,142.3 133.9,141.9 133.1,141.5 132.3,141 
			131.5,140.6 130.7,140.2 129.9,139.8 129.1,139.4 128.3,139 127.5,138.6 126.7,138.2 125.9,137.8 125.1,137.4 124.3,137 
			123.4,136.6 122.6,136.1 121.8,135.7 121.4,135.5 121,135.7 120.2,136.1 119.4,136.6 118.6,137 117.8,137.4 117,137.8 
			116.2,138.2 115.4,138.6 114.6,139 113.8,139.4 113,139.8 112.2,140.2 111.4,140.6 110.6,141 109.8,141.5 109,141.9 108.2,142.3 
			107.4,142.7 106.5,143.1 105.7,143.5 104.9,143.9 104.1,144.3 103.3,144.7 102.5,145.1 101.7,145.5 100.9,146 100.1,146.4 
			99.3,146.8 98.5,147.2 97.7,147.6 96.9,148 96.1,148.4 95.3,148.8 94.5,149.2 93.7,149.6 92.9,150 92.1,150.4 91.3,150.9 
			90.5,151.3 89.7,151.7 88.8,152.1 88,152.5 87.2,152.9 88,153.3 88.8,153.7 89.7,154.1 90.5,154.5 91.3,154.9 92.1,155.3 
			92.9,155.8 93.7,156.2 94.5,156.6 95.3,157 96.1,157.4 96.9,157.8 97.7,158.2 98.5,158.6 99.3,159 100.1,159.4 100.9,159.8 
			101.7,160.2 102.5,160.7 103.3,161.1 104.1,161.5 104.9,161.9 105.7,162.3 106.5,162.7 107.4,163.1 108.2,163.5 109,163.9 
			109.8,164.3 110.6,164.7 111.4,165.2 112.2,165.6 113,166 113.8,166.4 114.6,166.8 115.4,167.2 116.2,167.6 117,168 117.8,168.4 
			118.6,168.8 119.4,169.2 120.2,169.6 121,170.1 121.4,170.3 121.8,170.1 122.6,169.6 123.4,169.2 124.3,168.8 125.1,168.4 
			125.9,168 126.7,167.6 127.5,167.2 128.3,166.8 129.1,166.4 129.9,166 130.7,165.6 131.5,165.2 132.3,164.7 133.1,164.3 
			133.9,163.9 134.7,163.5 135.5,163.1 136.3,162.7 137.1,162.3 137.9,161.9 138.7,161.5 139.5,161.1 140.3,160.7 141.1,160.2 
			142,159.8 142.8,159.4 143.6,159 144.4,158.6 145.2,158.2 146,157.8 146.8,157.4 147.6,157 148.4,156.6 149.2,156.2 150,155.8 
			150.8,155.3 151.6,154.9 152.4,154.5 153.2,154.1 154,153.7 154.8,153.3 155.6,152.9 		"/>
		<linearGradient id="SVGID_7_" gradientUnits="userSpaceOnUse" x1="87.2393" y1="178.4669" x2="155.6302" y2="178.4669">
			<stop  offset="0" style="stop-color:#0080C9"/>
			<stop  offset="1" style="stop-color:#115BA3"/>
		</linearGradient>
		<polygon class="st6" points="154.8,178.1 154,177.6 153.2,177.2 152.4,176.8 151.6,176.4 150.8,176 150,175.6 149.2,175.2 
			148.4,174.8 147.6,174.4 146.8,174 146,173.6 145.2,173.2 144.4,172.7 143.6,172.3 142.8,171.9 142,171.5 141.1,171.1 
			140.3,170.7 139.5,170.3 138.7,169.9 137.9,169.5 137.1,169.1 136.3,168.7 135.5,168.3 134.7,167.8 133.9,167.4 133.1,167 
			132.3,166.6 131.5,166.2 130.7,165.8 129.9,165.4 129.1,165 128.3,164.6 127.5,164.2 126.7,163.8 125.9,163.4 125.1,162.9 
			124.3,162.5 123.4,162.1 122.6,161.7 121.8,161.3 121.4,161.1 121,161.3 120.2,161.7 119.4,162.1 118.6,162.5 117.8,162.9 
			117,163.4 116.2,163.8 115.4,164.2 114.6,164.6 113.8,165 113,165.4 112.2,165.8 111.4,166.2 110.6,166.6 109.8,167 109,167.4 
			108.2,167.8 107.4,168.3 106.5,168.7 105.7,169.1 104.9,169.5 104.1,169.9 103.3,170.3 102.5,170.7 101.7,171.1 100.9,171.5 
			100.1,171.9 99.3,172.3 98.5,172.7 97.7,173.2 96.9,173.6 96.1,174 95.3,174.4 94.5,174.8 93.7,175.2 92.9,175.6 92.1,176 
			91.3,176.4 90.5,176.8 89.7,177.2 88.8,177.6 88,178.1 87.2,178.5 88,178.9 88.8,179.3 89.7,179.7 90.5,180.1 91.3,180.5 
			92.1,180.9 92.9,181.3 93.7,181.7 94.5,182.1 95.3,182.6 96.1,183 96.9,183.4 97.7,183.8 98.5,184.2 99.3,184.6 100.1,185 
			100.9,185.4 101.7,185.8 102.5,186.2 103.3,186.6 104.1,187 104.9,187.5 105.7,187.9 106.5,188.3 107.4,188.7 108.2,189.1 
			109,189.5 109.8,189.9 110.6,190.3 111.4,190.7 112.2,191.1 113,191.5 113.8,191.9 114.6,192.4 115.4,192.8 116.2,193.2 
			117,193.6 117.8,194 118.6,194.4 119.4,194.8 120.2,195.2 121,195.6 121.4,195.8 121.8,195.6 122.6,195.2 123.4,194.8 
			124.3,194.4 125.1,194 125.9,193.6 126.7,193.2 127.5,192.8 128.3,192.4 129.1,191.9 129.9,191.5 130.7,191.1 131.5,190.7 
			132.3,190.3 133.1,189.9 133.9,189.5 134.7,189.1 135.5,188.7 136.3,188.3 137.1,187.9 137.9,187.5 138.7,187 139.5,186.6 
			140.3,186.2 141.1,185.8 142,185.4 142.8,185 143.6,184.6 144.4,184.2 145.2,183.8 146,183.4 146.8,183 147.6,182.6 148.4,182.1 
			149.2,181.7 150,181.3 150.8,180.9 151.6,180.5 152.4,180.1 153.2,179.7 154,179.3 154.8,178.9 155.6,178.5 		"/>
		<linearGradient id="SVGID_8_" gradientUnits="userSpaceOnUse" x1="87.2393" y1="204.0384" x2="155.6302" y2="204.0384">
			<stop  offset="0" style="stop-color:#0080C9"/>
			<stop  offset="1" style="stop-color:#115BA3"/>
		</linearGradient>
		<polygon class="st7" points="154.8,203.6 154,203.2 153.2,202.8 152.4,202.4 151.6,202 150.8,201.6 150,201.2 149.2,200.8 
			148.4,200.4 147.6,200 146.8,199.5 146,199.1 145.2,198.7 144.4,198.3 143.6,197.9 142.8,197.5 142,197.1 141.1,196.7 
			140.3,196.3 139.5,195.9 138.7,195.5 137.9,195.1 137.1,194.6 136.3,194.2 135.5,193.8 134.7,193.4 133.9,193 133.1,192.6 
			132.3,192.2 131.5,191.8 130.7,191.4 129.9,191 129.1,190.6 128.3,190.1 127.5,189.7 126.7,189.3 125.9,188.9 125.1,188.5 
			124.3,188.1 123.4,187.7 122.6,187.3 121.8,186.9 121.4,186.7 121,186.9 120.2,187.3 119.4,187.7 118.6,188.1 117.8,188.5 
			117,188.9 116.2,189.3 115.4,189.7 114.6,190.1 113.8,190.6 113,191 112.2,191.4 111.4,191.8 110.6,192.2 109.8,192.6 109,193 
			108.2,193.4 107.4,193.8 106.5,194.2 105.7,194.6 104.9,195.1 104.1,195.5 103.3,195.9 102.5,196.3 101.7,196.7 100.9,197.1 
			100.1,197.5 99.3,197.9 98.5,198.3 97.7,198.7 96.9,199.1 96.1,199.5 95.3,200 94.5,200.4 93.7,200.8 92.9,201.2 92.1,201.6 
			91.3,202 90.5,202.4 89.7,202.8 88.8,203.2 88,203.6 87.2,204 88,204.4 88.8,204.9 89.7,205.3 90.5,205.7 91.3,206.1 92.1,206.5 
			92.9,206.9 93.7,207.3 94.5,207.7 95.3,208.1 96.1,208.5 96.9,208.9 97.7,209.3 98.5,209.8 99.3,210.2 100.1,210.6 100.9,211 
			101.7,211.4 102.5,211.8 103.3,212.2 104.1,212.6 104.9,213 105.7,213.4 106.5,213.8 107.4,214.3 108.2,214.7 109,215.1 
			109.8,215.5 110.6,215.9 111.4,216.3 112.2,216.7 113,217.1 113.8,217.5 114.6,217.9 115.4,218.3 116.2,218.7 117,219.2 
			117.8,219.6 118.6,220 119.4,220.4 120.2,220.8 121,221.2 121.4,221.4 121.8,221.2 122.6,220.8 123.4,220.4 124.3,220 
			125.1,219.6 125.9,219.2 126.7,218.7 127.5,218.3 128.3,217.9 129.1,217.5 129.9,217.1 130.7,216.7 131.5,216.3 132.3,215.9 
			133.1,215.5 133.9,215.1 134.7,214.7 135.5,214.3 136.3,213.8 137.1,213.4 137.9,213 138.7,212.6 139.5,212.2 140.3,211.8 
			141.1,211.4 142,211 142.8,210.6 143.6,210.2 144.4,209.8 145.2,209.3 146,208.9 146.8,208.5 147.6,208.1 148.4,207.7 
			149.2,207.3 150,206.9 150.8,206.5 151.6,206.1 152.4,205.7 153.2,205.3 154,204.9 154.8,204.4 155.6,204 		"/>
	</g>
	<g>
		<g>
			<g>
				<g>
					<linearGradient id="SVGID_9_" gradientUnits="userSpaceOnUse" x1="218.8109" y1="194.0392" x2="168.0966" y2="161.3899">
						<stop  offset="0" style="stop-color:#0080C9"/>
						<stop  offset="1" style="stop-color:#FFFFFF"/>
					</linearGradient>
					<path class="st8" d="M169.4,163.7c-0.4,0-0.8-0.2-1.1-0.4c-0.3-0.3-0.4-0.7-0.4-1.1c0-0.1,0-0.2,0-0.3c0-0.1,0-0.2,0.1-0.3
						c0-0.1,0.1-0.2,0.1-0.3c0.1-0.1,0.1-0.2,0.2-0.2s0.1-0.1,0.2-0.2c0.1-0.1,0.2-0.1,0.3-0.1c0.1,0,0.2-0.1,0.3-0.1
						c0.5-0.1,1,0.1,1.4,0.4c0.1,0.1,0.1,0.2,0.2,0.2c0.1,0.1,0.1,0.2,0.1,0.3c0,0.1,0.1,0.2,0.1,0.3c0,0.1,0,0.2,0,0.3
						c0,0.4-0.2,0.8-0.4,1.1C170.1,163.5,169.8,163.7,169.4,163.7z"/>
				</g>
				<g>
					<linearGradient id="SVGID_10_" gradientUnits="userSpaceOnUse" x1="215.5833" y1="191.9611" x2="168.5321" y2="161.67">
						<stop  offset="0" style="stop-color:#0080C9"/>
						<stop  offset="1" style="stop-color:#FFFFFF"/>
					</linearGradient>
					<path class="st9" d="M210.7,190.6c-0.7-0.4-0.9-1.4-0.5-2.1l0,0c0.5-0.7,1.4-0.9,2.1-0.5l0,0c0.7,0.5,0.9,1.4,0.5,2.1l0,0
						c-0.3,0.4-0.8,0.7-1.3,0.7l0,0C211.3,190.8,211,190.8,210.7,190.6z M204.7,186.7c-0.7-0.4-0.9-1.4-0.4-2.1l0,0
						c0.4-0.7,1.4-0.9,2.1-0.5l0,0c0.7,0.5,0.9,1.4,0.5,2.1l0,0c-0.3,0.4-0.8,0.7-1.3,0.7l0,0C205.2,187,204.9,186.9,204.7,186.7z
						 M198.7,182.8c-0.7-0.4-0.9-1.4-0.5-2.1l0,0c0.5-0.7,1.4-0.9,2.1-0.5l0,0c0.7,0.5,0.9,1.4,0.5,2.1l0,0
						c-0.3,0.4-0.8,0.7-1.3,0.7l0,0C199.2,183.1,198.9,183,198.7,182.8z M192.6,179c-0.7-0.4-0.9-1.4-0.5-2.1l0,0
						c0.5-0.7,1.4-0.9,2.1-0.4l0,0c0.7,0.4,0.9,1.4,0.5,2.1l0,0c-0.3,0.4-0.8,0.7-1.3,0.7l0,0C193.2,179.2,192.9,179.1,192.6,179z
						 M186.6,175.1c-0.7-0.5-0.9-1.4-0.5-2.1l0,0c0.5-0.7,1.4-0.9,2.1-0.4l0,0c0.7,0.4,0.9,1.4,0.4,2.1l0,0
						c-0.3,0.5-0.8,0.7-1.3,0.7l0,0C187.1,175.3,186.9,175.3,186.6,175.1z M180.6,171.2c-0.7-0.5-0.9-1.4-0.4-2.1l0,0
						c0.4-0.7,1.4-0.9,2.1-0.4l0,0c0.7,0.4,0.9,1.4,0.5,2.1l0,0c-0.3,0.5-0.8,0.7-1.3,0.7l0,0C181.1,171.5,180.8,171.4,180.6,171.2z
						 M174.6,167.3c-0.7-0.5-0.9-1.4-0.4-2.1l0,0c0.4-0.7,1.4-0.9,2.1-0.5l0,0c0.7,0.5,0.9,1.4,0.4,2.1l0,0
						c-0.3,0.5-0.8,0.7-1.3,0.7l0,0C175.1,167.6,174.8,167.5,174.6,167.3z"/>
				</g>
				<g>
					<linearGradient id="SVGID_11_" gradientUnits="userSpaceOnUse" x1="218.8133" y1="194.0432" x2="168.1522" y2="161.4281">
						<stop  offset="0" style="stop-color:#0080C9"/>
						<stop  offset="1" style="stop-color:#FFFFFF"/>
					</linearGradient>
					<path class="st10" d="M217.5,194.7c-0.2,0-0.4,0-0.6-0.1c-0.2-0.1-0.3-0.2-0.5-0.3c-0.3-0.3-0.4-0.7-0.4-1.1c0-0.1,0-0.2,0-0.3
						c0-0.1,0-0.2,0.1-0.3c0-0.1,0.1-0.2,0.1-0.3c0-0.1,0.1-0.2,0.2-0.2c0.5-0.6,1.6-0.6,2.1,0c0.1,0.1,0.1,0.1,0.2,0.2
						c0,0.1,0.1,0.2,0.1,0.3c0,0.1,0.1,0.2,0.1,0.3c0,0.1,0,0.2,0,0.3c0,0.4-0.2,0.8-0.4,1.1c-0.1,0.1-0.3,0.3-0.5,0.3
						C218,194.7,217.8,194.7,217.5,194.7z"/>
				</g>
			</g>
			<g>
				<g>
					<g>
						<defs>
							<circle id="SVGID_12_" cx="220.3" cy="195" r="7"/>
						</defs>
						<clipPath id="SVGID_13_">
							<use xlink:href="#SVGID_12_"  style="overflow:visible;"/>
						</clipPath>
						<polygon class="st11" points="223.5,203 228.3,195.5 228.3,203 						"/>
						<polygon class="st11" points="223.3,203 228.3,195.2 228.3,195.5 223.5,203 						"/>
						<polygon class="st12" points="223.1,203 228.3,194.9 228.3,195.2 223.3,203 						"/>
						<polygon class="st12" points="222.9,203 228.3,194.6 228.3,194.9 223.1,203 						"/>
						<polygon class="st13" points="222.7,203 228.3,194.3 228.3,194.6 222.9,203 						"/>
						<polygon class="st13" points="222.5,203 228.3,194 228.3,194.3 222.7,203 						"/>
						<polygon class="st13" points="222.3,203 228.3,193.7 228.3,194 222.5,203 						"/>
						<polygon class="st14" points="222.1,203 228.3,193.4 228.3,193.7 222.3,203 						"/>
						<polygon class="st14" points="221.9,203 228.3,193.1 228.3,193.4 222.1,203 						"/>
						<polygon class="st15" points="221.7,203 228.3,192.8 228.3,193.1 221.9,203 						"/>
						<polygon class="st15" points="221.5,203 228.3,192.5 228.3,192.8 221.7,203 						"/>
						<polygon class="st16" points="221.3,203 228.3,192.2 228.3,192.5 221.5,203 						"/>
						<polygon class="st17" points="221.1,203 228.3,191.9 228.3,192.2 221.3,203 						"/>
						<polygon class="st17" points="220.9,203 228.3,191.6 228.3,191.9 221.1,203 						"/>
						<polygon class="st18" points="220.8,203 228.3,191.3 228.3,191.6 220.9,203 						"/>
						<polygon class="st18" points="220.6,203 228.3,191 228.3,191.3 220.8,203 						"/>
						<polygon class="st19" points="220.4,203 228.3,190.7 228.3,191 220.6,203 						"/>
						<polygon class="st20" points="220.2,203 228.3,190.4 228.3,190.7 220.4,203 						"/>
						<polygon class="st21" points="220,203 228.3,190.1 228.3,190.4 220.2,203 						"/>
						<polygon class="st22" points="219.8,203 228.3,189.8 228.3,190.1 220,203 						"/>
						<polygon class="st22" points="219.6,203 228.3,189.5 228.3,189.8 219.8,203 						"/>
						<polygon class="st23" points="219.4,203 228.1,189.4 228.3,189.4 228.3,189.5 219.6,203 						"/>
						<polygon class="st24" points="219.2,203 228,189.3 228.1,189.4 219.4,203 						"/>
						<polygon class="st25" points="219,203 227.9,189.2 228,189.3 219.2,203 						"/>
						<polygon class="st26" points="218.8,203 227.7,189.1 227.9,189.2 219,203 						"/>
						<polygon class="st27" points="218.6,203 227.6,189 227.7,189.1 218.8,203 						"/>
						<polygon class="st27" points="218.4,203 227.5,188.9 227.6,189 218.6,203 						"/>
						<polygon class="st28" points="218.2,203 227.3,188.8 227.5,188.9 218.4,203 						"/>
						<polygon class="st28" points="218,203 227.2,188.7 227.3,188.8 218.2,203 						"/>
						<polygon class="st29" points="217.8,203 227,188.7 227.2,188.7 218,203 						"/>
						<polygon class="st30" points="217.6,203 226.9,188.6 227,188.7 217.8,203 						"/>
						<polygon class="st31" points="217.4,203 226.8,188.5 226.9,188.6 217.6,203 						"/>
						<polygon class="st32" points="217.2,203 226.6,188.4 226.8,188.5 217.4,203 						"/>
						<polygon class="st32" points="217,203 226.5,188.3 226.6,188.4 217.2,203 						"/>
						<polygon class="st33" points="216.8,203 226.3,188.2 226.5,188.3 217,203 						"/>
						<polygon class="st33" points="216.6,203 226.2,188.1 226.3,188.2 216.8,203 						"/>
						<polygon class="st34" points="216.5,203 226.1,188 226.2,188.1 216.6,203 						"/>
						<polygon class="st34" points="216.3,203 225.9,187.9 226.1,188 216.5,203 						"/>
						<polygon class="st35" points="216.1,203 216.1,203 225.8,187.9 225.9,187.9 216.3,203 						"/>
						
							<rect x="211.9" y="195.3" transform="matrix(0.5413 -0.8408 0.8408 0.5413 -62.9562 275.3143)" class="st35" width="18" height="0.2"/>
						
							<rect x="211.7" y="195.2" transform="matrix(0.5413 -0.8408 0.8408 0.5413 -62.9446 275.158)" class="st35" width="18" height="0.2"/>
						
							<rect x="211.6" y="195.1" transform="matrix(0.5413 -0.8408 0.8408 0.5413 -62.9333 275.0008)" class="st36" width="18" height="0.2"/>
						
							<rect x="211.5" y="195" transform="matrix(0.5413 -0.8408 0.8408 0.5413 -62.9218 274.844)" class="st36" width="18" height="0.2"/>
						
							<rect x="211.3" y="194.9" transform="matrix(0.5413 -0.8408 0.8408 0.5413 -62.9106 274.6864)" class="st37" width="18" height="0.2"/>
						
							<rect x="211.2" y="194.8" transform="matrix(0.5413 -0.8408 0.8408 0.5413 -62.8991 274.5294)" class="st37" width="18" height="0.2"/>
						
							<rect x="211" y="194.7" transform="matrix(0.5413 -0.8408 0.8408 0.5413 -62.8874 274.3735)" class="st38" width="18" height="0.2"/>
						
							<rect x="210.9" y="194.7" transform="matrix(0.5413 -0.8408 0.8408 0.5413 -62.8763 274.2154)" class="st38" width="18" height="0.2"/>
						
							<rect x="210.8" y="194.6" transform="matrix(0.5413 -0.8408 0.8408 0.5413 -62.8647 274.0591)" class="st39" width="18" height="0.2"/>
						<polygon class="st39" points="214.8,202.2 214.7,202.1 224.4,187 224.5,187 224.6,187 						"/>
						<polygon class="st40" points="214.7,202.1 214.5,202 224.2,187 224.4,187 						"/>
						<polygon class="st40" points="214.5,202 214.4,201.9 224,187 224.2,187 						"/>
						<polygon class="st41" points="214.4,201.9 214.3,201.8 223.8,187 224,187 						"/>
						<polygon class="st42" points="214.3,201.8 214.1,201.7 223.6,187 223.8,187 						"/>
						<polygon class="st42" points="214.1,201.7 214,201.6 223.4,187 223.6,187 						"/>
						<polygon class="st43" points="214,201.6 213.9,201.5 223.2,187 223.4,187 						"/>
						<polygon class="st43" points="213.9,201.5 213.7,201.4 223,187 223.2,187 						"/>
						<polygon class="st44" points="213.7,201.4 213.6,201.4 222.8,187 223,187 						"/>
						<polygon class="st44" points="213.6,201.4 213.4,201.3 222.6,187 222.8,187 						"/>
						<polygon class="st45" points="213.4,201.3 213.3,201.2 222.4,187 222.6,187 						"/>
						<polygon class="st45" points="213.3,201.2 213.2,201.1 222.2,187 222.4,187 						"/>
						<polygon class="st46" points="213.2,201.1 213,201 222,187 222.2,187 						"/>
						<polygon class="st46" points="213,201 212.9,200.9 221.8,187 222,187 						"/>
						<polygon class="st47" points="212.9,200.9 212.8,200.8 221.6,187 221.8,187 						"/>
						<polygon class="st47" points="212.8,200.8 212.6,200.7 221.4,187 221.6,187 						"/>
						<polygon class="st48" points="212.6,200.7 212.5,200.6 221.2,187 221.4,187 						"/>
						<polygon class="st48" points="212.5,200.6 212.3,200.6 212.3,200.5 221,187 221.2,187 						"/>
						<polygon class="st49" points="212.3,200.2 220.8,187 221,187 212.3,200.5 						"/>
						<polygon class="st49" points="212.3,199.9 220.6,187 220.8,187 212.3,200.2 						"/>
						<polygon class="st50" points="212.3,199.6 220.5,187 220.6,187 212.3,199.9 						"/>
						<polygon class="st51" points="212.3,199.3 220.3,187 220.5,187 212.3,199.6 						"/>
						<polygon class="st52" points="212.3,199 220.1,187 220.3,187 212.3,199.3 						"/>
						<polygon class="st53" points="212.3,198.7 219.9,187 220.1,187 212.3,199 						"/>
						<polygon class="st54" points="212.3,198.4 219.7,187 219.9,187 212.3,198.7 						"/>
						<polygon class="st55" points="212.3,198.1 219.5,187 219.7,187 212.3,198.4 						"/>
						<polygon class="st56" points="212.3,197.8 219.3,187 219.5,187 212.3,198.1 						"/>
						<polygon class="st57" points="212.3,197.5 219.1,187 219.3,187 212.3,197.8 						"/>
						<polygon class="st58" points="212.3,197.2 218.9,187 219.1,187 212.3,197.5 						"/>
						<polygon class="st59" points="212.3,196.9 218.7,187 218.9,187 212.3,197.2 						"/>
						<polygon class="st60" points="212.3,196.6 218.5,187 218.7,187 212.3,196.9 						"/>
						<polygon class="st61" points="212.3,196.3 218.3,187 218.5,187 212.3,196.6 						"/>
						<polygon class="st62" points="212.3,196 218.1,187 218.3,187 212.3,196.3 						"/>
						<polygon class="st63" points="212.3,195.7 217.9,187 218.1,187 212.3,196 						"/>
						<polygon class="st64" points="212.3,195.4 217.7,187 217.9,187 212.3,195.7 						"/>
						<polygon class="st65" points="212.3,195.1 217.5,187 217.7,187 212.3,195.4 						"/>
						<polygon class="st66" points="212.3,194.8 217.3,187 217.5,187 212.3,195.1 						"/>
						<polygon class="st67" points="212.3,194.5 217.1,187 217.3,187 212.3,194.8 						"/>
						<polygon class="st67" points="217.1,187 212.3,194.5 212.3,187 						"/>
					</g>
				</g>
				<g>
					<circle class="st68" cx="220.3" cy="195" r="3.7"/>
				</g>
			</g>
		</g>
		<g>
			<g>
				<g>
					<linearGradient id="SVGID_14_" gradientUnits="userSpaceOnUse" x1="24.0615" y1="55.9652" x2="74.7715" y2="88.6117">
						<stop  offset="0" style="stop-color:#0080C9"/>
						<stop  offset="1" style="stop-color:#FFFFFF"/>
					</linearGradient>
					<path class="st69" d="M73.5,89.3c-0.4,0-0.8-0.2-1.1-0.4c-0.1-0.1-0.1-0.1-0.2-0.2c0-0.1-0.1-0.2-0.1-0.3
						c0-0.1-0.1-0.2-0.1-0.3s0-0.2,0-0.3c0-0.4,0.2-0.8,0.4-1.1c0.1-0.1,0.1-0.1,0.2-0.2s0.2-0.1,0.3-0.1c0.1,0,0.2-0.1,0.3-0.1
						c0.5-0.1,1,0.1,1.4,0.4c0.3,0.3,0.4,0.7,0.4,1.1c0,0.1,0,0.2,0,0.3s-0.1,0.2-0.1,0.3c0,0.1-0.1,0.2-0.1,0.3
						c-0.1,0.1-0.1,0.2-0.2,0.2S74.4,89,74.3,89c-0.1,0.1-0.2,0.1-0.3,0.1c-0.1,0-0.2,0.1-0.3,0.1C73.7,89.3,73.6,89.3,73.5,89.3z"
						/>
				</g>
				<g>
					<linearGradient id="SVGID_15_" gradientUnits="userSpaceOnUse" x1="27.2864" y1="58.0389" x2="74.3377" y2="88.33">
						<stop  offset="0" style="stop-color:#0080C9"/>
						<stop  offset="1" style="stop-color:#FFFFFF"/>
					</linearGradient>
					<path class="st70" d="M66.7,85.2c-0.7-0.4-0.9-1.4-0.4-2.1l0,0c0.4-0.7,1.4-0.9,2.1-0.5l0,0c0.7,0.4,0.9,1.4,0.5,2.1l0,0
						c-0.3,0.4-0.8,0.7-1.3,0.7l0,0C67.2,85.4,66.9,85.3,66.7,85.2z M60.6,81.3c-0.7-0.5-0.9-1.4-0.5-2.1l0,0
						c0.5-0.7,1.4-0.9,2.1-0.5l0,0c0.7,0.5,0.9,1.4,0.4,2.1l0,0c-0.3,0.5-0.8,0.7-1.3,0.7l0,0C61.2,81.5,60.9,81.5,60.6,81.3z
						 M54.6,77.4c-0.7-0.5-0.9-1.4-0.5-2.1l0,0c0.4-0.7,1.4-0.9,2.1-0.4l0,0c0.7,0.4,0.9,1.4,0.4,2.1l0,0c-0.3,0.5-0.8,0.7-1.3,0.7
						l0,0C55.2,77.7,54.9,77.6,54.6,77.4z M48.6,73.5c-0.7-0.5-0.9-1.4-0.4-2.1l0,0c0.4-0.7,1.4-0.9,2.1-0.4l0,0
						c0.7,0.4,0.9,1.4,0.4,2.1l0,0c-0.3,0.4-0.8,0.7-1.3,0.7l0,0C49.1,73.8,48.8,73.7,48.6,73.5z M42.6,69.7
						c-0.7-0.5-0.9-1.4-0.4-2.1l0,0c0.4-0.7,1.4-0.9,2.1-0.5l0,0c0.7,0.5,0.9,1.4,0.5,2.1l0,0c-0.3,0.4-0.8,0.7-1.3,0.7l0,0
						C43.1,69.9,42.8,69.8,42.6,69.7z M36.5,65.8c-0.7-0.5-0.9-1.4-0.5-2.1l0,0c0.5-0.7,1.4-0.9,2.1-0.4l0,0
						c0.7,0.4,0.9,1.4,0.5,2.1l0,0c-0.3,0.4-0.8,0.7-1.3,0.7l0,0C37.1,66,36.8,65.9,36.5,65.8z M30.5,61.9c-0.7-0.4-0.9-1.4-0.5-2.1
						l0,0c0.5-0.7,1.4-0.9,2.1-0.5l0,0c0.7,0.4,0.9,1.4,0.4,2.1l0,0c-0.3,0.4-0.8,0.7-1.3,0.7l0,0C31.1,62.1,30.8,62.1,30.5,61.9z"
						/>
				</g>
				<g>
					<linearGradient id="SVGID_16_" gradientUnits="userSpaceOnUse" x1="24.0553" y1="55.9591" x2="74.7025" y2="88.5652">
						<stop  offset="0" style="stop-color:#0080C9"/>
						<stop  offset="1" style="stop-color:#FFFFFF"/>
					</linearGradient>
					<path class="st71" d="M25.3,58.3c-0.1,0-0.2,0-0.3,0c-0.1,0-0.2,0-0.3-0.1c-0.1,0-0.2-0.1-0.3-0.1c-0.1-0.1-0.2-0.1-0.2-0.2
						c-0.1-0.1-0.1-0.1-0.2-0.2c-0.1-0.1-0.1-0.2-0.1-0.3s-0.1-0.2-0.1-0.3c0-0.1,0-0.2,0-0.3c0-0.1,0-0.2,0-0.3
						c0-0.1,0-0.2,0.1-0.3c0-0.1,0.1-0.2,0.1-0.3c0-0.1,0.1-0.2,0.2-0.2c0.1-0.1,0.1-0.1,0.2-0.2c0.1-0.1,0.2-0.1,0.3-0.1
						c0.1,0,0.2-0.1,0.3-0.1c0.2,0,0.4,0,0.6,0c0.1,0,0.2,0,0.3,0.1c0.1,0,0.2,0.1,0.3,0.1c0.1,0.1,0.2,0.1,0.2,0.2
						c0.1,0.1,0.1,0.1,0.2,0.2c0.1,0.1,0.1,0.2,0.1,0.3c0,0.1,0.1,0.2,0.1,0.3c0,0.1,0,0.2,0,0.3c0,0.1,0,0.2,0,0.3
						c0,0.1-0.1,0.2-0.1,0.3s-0.1,0.2-0.1,0.3c-0.1,0.1-0.1,0.2-0.2,0.2c-0.1,0.1-0.1,0.1-0.2,0.2c-0.1,0-0.2,0.1-0.3,0.1
						c-0.1,0-0.2,0.1-0.3,0.1C25.5,58.3,25.4,58.3,25.3,58.3z"/>
				</g>
			</g>
			<g>
				<g>
					<g>
						<defs>
							<circle id="SVGID_17_" cx="22.6" cy="55" r="7"/>
						</defs>
						<clipPath id="SVGID_18_">
							<use xlink:href="#SVGID_17_"  style="overflow:visible;"/>
						</clipPath>
						<polygon class="st72" points="19.4,47 14.6,54.5 14.6,47 						"/>
						<polygon class="st72" points="19.6,47 14.6,54.8 14.6,54.5 19.4,47 						"/>
						<polygon class="st73" points="19.8,47 14.6,55.1 14.6,54.8 19.6,47 						"/>
						<polygon class="st73" points="20,47 14.6,55.4 14.6,55.1 19.8,47 						"/>
						<polygon class="st74" points="20.2,47 14.6,55.7 14.6,55.4 20,47 						"/>
						<polygon class="st74" points="20.4,47 14.6,56 14.6,55.7 20.2,47 						"/>
						<polygon class="st74" points="20.6,47 14.6,56.3 14.6,56 20.4,47 						"/>
						<polygon class="st75" points="20.7,47 14.6,56.6 14.6,56.3 20.6,47 						"/>
						<polygon class="st75" points="20.9,47 14.6,56.9 14.6,56.6 20.7,47 						"/>
						<polygon class="st76" points="21.1,47 14.6,57.2 14.6,56.9 20.9,47 						"/>
						<polygon class="st76" points="21.3,47 14.6,57.5 14.6,57.2 21.1,47 						"/>
						<polygon class="st77" points="21.5,47 14.6,57.8 14.6,57.5 21.3,47 						"/>
						<polygon class="st78" points="21.7,47 14.6,58.1 14.6,57.8 21.5,47 						"/>
						<polygon class="st78" points="21.9,47 14.6,58.4 14.6,58.1 21.7,47 						"/>
						<polygon class="st79" points="22.1,47 14.6,58.7 14.6,58.4 21.9,47 						"/>
						<polygon class="st79" points="22.3,47 14.6,59 14.6,58.7 22.1,47 						"/>
						<polygon class="st80" points="22.5,47 14.6,59.3 14.6,59 22.3,47 						"/>
						<polygon class="st81" points="22.7,47 14.6,59.6 14.6,59.3 22.5,47 						"/>
						<polygon class="st82" points="22.9,47 14.6,59.9 14.6,59.6 22.7,47 						"/>
						<polygon class="st83" points="23.1,47 14.6,60.2 14.6,59.9 22.9,47 						"/>
						<polygon class="st83" points="23.3,47 14.6,60.5 14.6,60.2 23.1,47 						"/>
						<polygon class="st84" points="23.5,47 14.7,60.6 14.6,60.6 14.6,60.5 23.3,47 						"/>
						<polygon class="st85" points="23.7,47 14.9,60.7 14.7,60.6 23.5,47 						"/>
						<polygon class="st86" points="23.9,47 15,60.8 14.9,60.7 23.7,47 						"/>
						<polygon class="st87" points="24.1,47 15.1,60.9 15,60.8 23.9,47 						"/>
						<polygon class="st88" points="24.3,47 15.3,61 15.1,60.9 24.1,47 						"/>
						<polygon class="st88" points="24.5,47 15.4,61.1 15.3,61 24.3,47 						"/>
						<polygon class="st89" points="24.7,47 15.6,61.2 15.4,61.1 24.5,47 						"/>
						<polygon class="st89" points="24.9,47 15.7,61.3 15.6,61.2 24.7,47 						"/>
						<polygon class="st90" points="25,47 15.8,61.3 15.7,61.3 24.9,47 						"/>
						<polygon class="st91" points="25.2,47 16,61.4 15.8,61.3 25,47 						"/>
						<polygon class="st92" points="25.4,47 16.1,61.5 16,61.4 25.2,47 						"/>
						<polygon class="st93" points="25.6,47 16.2,61.6 16.1,61.5 25.4,47 						"/>
						<polygon class="st93" points="25.8,47 16.4,61.7 16.2,61.6 25.6,47 						"/>
						<polygon class="st94" points="26,47 16.5,61.8 16.4,61.7 25.8,47 						"/>
						<polygon class="st94" points="26.2,47 16.7,61.9 16.5,61.8 26,47 						"/>
						<polygon class="st95" points="26.4,47 16.8,62 16.7,61.9 26.2,47 						"/>
						<polygon class="st95" points="26.6,47 16.9,62.1 16.8,62 26.4,47 						"/>
						<polygon class="st96" points="26.8,47 26.8,47 17.1,62.1 16.9,62.1 26.6,47 						"/>
						
							<rect x="13" y="54.6" transform="matrix(0.5413 -0.8408 0.8408 0.5413 -35.848 43.5673)" class="st96" width="18" height="0.2"/>
						
							<rect x="13.2" y="54.6" transform="matrix(0.5413 -0.8408 0.8408 0.5413 -35.8594 43.7244)" class="st96" width="18" height="0.2"/>
						
							<rect x="13.3" y="54.7" transform="matrix(0.5413 -0.8408 0.8408 0.5413 -35.8708 43.8813)" class="st97" width="18" height="0.2"/>
						
							<rect x="13.4" y="54.8" transform="matrix(0.5413 -0.8408 0.8408 0.5413 -35.8823 44.0384)" class="st97" width="18" height="0.2"/>
						
							<rect x="13.6" y="54.9" transform="matrix(0.5413 -0.8408 0.8408 0.5413 -35.8936 44.1952)" class="st98" width="18" height="0.2"/>
						
							<rect x="13.7" y="55" transform="matrix(0.5413 -0.8408 0.8408 0.5413 -35.9051 44.3523)" class="st98" width="18" height="0.2"/>
						
							<rect x="13.9" y="55.1" transform="matrix(0.5413 -0.8408 0.8408 0.5413 -35.9165 44.5093)" class="st99" width="18" height="0.2"/>
						
							<rect x="14" y="55.2" transform="matrix(0.5413 -0.8408 0.8408 0.5413 -35.9279 44.6662)" class="st99" width="18" height="0.2"/>
						
							<rect x="14.1" y="55.3" transform="matrix(0.5413 -0.8408 0.8408 0.5413 -35.9393 44.8233)" class="st100" width="18" height="0.2"/>
						<polygon class="st100" points="28,47.8 28.2,47.9 18.5,63 18.3,63 18.3,63 						"/>
						<polygon class="st101" points="28.2,47.9 28.3,48 18.7,63 18.5,63 						"/>
						<polygon class="st101" points="28.3,48 28.5,48.1 18.9,63 18.7,63 						"/>
						<polygon class="st102" points="28.5,48.1 28.6,48.2 19.1,63 18.9,63 						"/>
						<polygon class="st103" points="28.6,48.2 28.7,48.3 19.3,63 19.1,63 						"/>
						<polygon class="st103" points="28.7,48.3 28.9,48.4 19.5,63 19.3,63 						"/>
						<polygon class="st104" points="28.9,48.4 29,48.5 19.7,63 19.5,63 						"/>
						<polygon class="st104" points="29,48.5 29.2,48.6 19.9,63 19.7,63 						"/>
						<polygon class="st105" points="29.2,48.6 29.3,48.6 20.1,63 19.9,63 						"/>
						<polygon class="st105" points="29.3,48.6 29.4,48.7 20.3,63 20.1,63 						"/>
						<polygon class="st106" points="29.4,48.7 29.6,48.8 20.5,63 20.3,63 						"/>
						<polygon class="st106" points="29.6,48.8 29.7,48.9 20.7,63 20.5,63 						"/>
						<polygon class="st107" points="29.7,48.9 29.8,49 20.9,63 20.7,63 						"/>
						<polygon class="st107" points="29.8,49 30,49.1 21.1,63 20.9,63 						"/>
						<polygon class="st108" points="30,49.1 30.1,49.2 21.2,63 21.1,63 						"/>
						<polygon class="st108" points="30.1,49.2 30.3,49.3 21.4,63 21.2,63 						"/>
						<polygon class="st109" points="30.3,49.3 30.4,49.4 21.6,63 21.4,63 						"/>
						<polygon class="st109" points="30.4,49.4 30.5,49.4 30.5,49.5 21.8,63 21.6,63 						"/>
						<polygon class="st110" points="30.5,49.8 22,63 21.8,63 30.5,49.5 						"/>
						<polygon class="st110" points="30.5,50.1 22.2,63 22,63 30.5,49.8 						"/>
						<polygon class="st111" points="30.5,50.4 22.4,63 22.2,63 30.5,50.1 						"/>
						<polygon class="st112" points="30.5,50.7 22.6,63 22.4,63 30.5,50.4 						"/>
						<polygon class="st113" points="30.5,51 22.8,63 22.6,63 30.5,50.7 						"/>
						<polygon class="st114" points="30.5,51.3 23,63 22.8,63 30.5,51 						"/>
						<polygon class="st115" points="30.5,51.6 23.2,63 23,63 30.5,51.3 						"/>
						<polygon class="st116" points="30.5,51.9 23.4,63 23.2,63 30.5,51.6 						"/>
						<polygon class="st117" points="30.5,52.2 23.6,63 23.4,63 30.5,51.9 						"/>
						<polygon class="st118" points="30.5,52.5 23.8,63 23.6,63 30.5,52.2 						"/>
						<polygon class="st119" points="30.5,52.8 24,63 23.8,63 30.5,52.5 						"/>
						<polygon class="st120" points="30.5,53.1 24.2,63 24,63 30.5,52.8 						"/>
						<polygon class="st121" points="30.5,53.4 24.4,63 24.2,63 30.5,53.1 						"/>
						<polygon class="st122" points="30.5,53.7 24.6,63 24.4,63 30.5,53.4 						"/>
						<polygon class="st123" points="30.5,54 24.8,63 24.6,63 30.5,53.7 						"/>
						<polygon class="st124" points="30.5,54.3 25,63 24.8,63 30.5,54 						"/>
						<polygon class="st125" points="30.5,54.6 25.2,63 25,63 30.5,54.3 						"/>
						<polygon class="st126" points="30.5,54.9 25.4,63 25.2,63 30.5,54.6 						"/>
						<polygon class="st127" points="30.5,55.2 25.5,63 25.4,63 30.5,54.9 						"/>
						<polygon class="st128" points="30.5,55.5 25.7,63 25.5,63 30.5,55.2 						"/>
						<polygon class="st128" points="25.7,63 30.5,55.5 30.5,63 						"/>
					</g>
				</g>
				<g>
					<circle class="st68" cx="22.6" cy="55" r="3.7"/>
				</g>
			</g>
		</g>
	</g>
	<g>
		<g>
			<g>
				<path class="st68" d="M211.7,99.3v8.8c0,5.8-4.7,10.5-10.5,10.5l0,0H201c-5.8,0-10.5-4.7-10.5-10.5l0,0v-8.8
					c0-5.9,4.8-10.6,10.6-10.6C206.9,88.6,211.7,93.4,211.7,99.3z"/>
				<polygon class="st68" points="213.9,119.3 201.1,130.1 188.3,119.3 179.1,125.6 179.1,131.2 179.1,134.7 179.1,153.4 223,153.4 
					223,125.6 				"/>
			</g>
			<g>
				<path class="st68" d="M52.4,99.3v8.8c0,5.8-4.7,10.5-10.5,10.5l0,0h-0.2c-5.8,0-10.5-4.7-10.5-10.5l0,0v-8.8
					c0-5.9,4.8-10.6,10.6-10.6C47.7,88.6,52.4,93.4,52.4,99.3z"/>
				<polygon class="st68" points="54.6,119.3 41.8,130.1 29,119.3 19.9,125.6 19.9,131.2 19.9,134.7 19.9,153.4 63.7,153.4 
					63.7,125.6 				"/>
			</g>
		</g>
		<g class="st129">
			<g>
				<linearGradient id="SVGID_19_" gradientUnits="userSpaceOnUse" x1="179.127" y1="136.3366" x2="223.0052" y2="136.3366">
					<stop  offset="0" style="stop-color:#0080C9"/>
					<stop  offset="1" style="stop-color:#115BA3"/>
				</linearGradient>
				<polygon class="st130" points="213.9,119.3 201.1,130.1 188.3,119.3 179.1,125.6 179.1,131.2 179.1,134.7 179.1,153.4 
					223,153.4 223,125.6 				"/>
			</g>
			<g>
				<linearGradient id="SVGID_20_" gradientUnits="userSpaceOnUse" x1="19.8643" y1="136.3366" x2="63.7425" y2="136.3366">
					<stop  offset="0" style="stop-color:#0080C9"/>
					<stop  offset="1" style="stop-color:#115BA3"/>
				</linearGradient>
				<polygon class="st131" points="54.6,119.3 41.8,130.1 29,119.3 19.9,125.6 19.9,131.2 19.9,134.7 19.9,153.4 63.7,153.4 
					63.7,125.6 				"/>
			</g>
		</g>
		<g>
			<g>
				<linearGradient id="SVGID_21_" gradientUnits="userSpaceOnUse" x1="157.7893" y1="137.9949" x2="175.051" y2="137.9949">
					<stop  offset="0" style="stop-color:#0080C9"/>
					<stop  offset="1" style="stop-color:#115BA3"/>
				</linearGradient>
				<line class="st132" x1="158.8" y1="138" x2="174.1" y2="138"/>
				
					<linearGradient id="SVGID_22_" gradientUnits="userSpaceOnUse" x1="4314.1055" y1="-91.2633" x2="4341.4971" y2="-63.8716" gradientTransform="matrix(-0.9947 0.103 0.103 0.9947 4462.1973 -230.4242)">
					<stop  offset="0" style="stop-color:#0080C9"/>
					<stop  offset="1" style="stop-color:#115BA3"/>
				</linearGradient>
				<path class="st133" d="M149.7,161.9c0.4-0.4,0.8-0.9,1.1-1.3c11.3-13.9,10.3-33.8-1.7-46.4"/>
			</g>
			<g>
				
					<linearGradient id="SVGID_23_" gradientUnits="userSpaceOnUse" x1="4249.5464" y1="137.9949" x2="4266.8081" y2="137.9949" gradientTransform="matrix(-1 0 0 1 4335.2466 0)">
					<stop  offset="0" style="stop-color:#0080C9"/>
					<stop  offset="1" style="stop-color:#115BA3"/>
				</linearGradient>
				<line class="st134" x1="84.7" y1="138" x2="69.4" y2="138"/>
				
					<linearGradient id="SVGID_24_" gradientUnits="userSpaceOnUse" x1="244.094" y1="330.023" x2="271.4856" y2="357.4146" gradientTransform="matrix(0.9947 0.103 -0.103 0.9947 -126.9504 -230.4242)">
					<stop  offset="0" style="stop-color:#0080C9"/>
					<stop  offset="1" style="stop-color:#115BA3"/>
				</linearGradient>
				<path class="st135" d="M94.4,114.1c-11.9,12.7-12.9,32.5-1.7,46.4c0.4,0.5,0.7,0.9,1.1,1.3"/>
			</g>
		</g>
		<g>
			<g>
				<linearGradient id="SVGID_25_" gradientUnits="userSpaceOnUse" x1="188.9245" y1="103.6071" x2="213.2079" y2="103.6071">
					<stop  offset="0" style="stop-color:#0080C9"/>
					<stop  offset="1" style="stop-color:#115BA3"/>
				</linearGradient>
				<path class="st136" d="M211.7,99.3v8.8c0,5.8-4.7,10.5-10.5,10.5l0,0H201c-5.8,0-10.5-4.7-10.5-10.5l0,0v-8.8
					c0-5.9,4.8-10.6,10.6-10.6C206.9,88.6,211.7,93.4,211.7,99.3z"/>
				<linearGradient id="SVGID_26_" gradientUnits="userSpaceOnUse" x1="177.627" y1="136.1457" x2="224.5052" y2="136.1457">
					<stop  offset="0" style="stop-color:#0080C9"/>
					<stop  offset="1" style="stop-color:#115BA3"/>
				</linearGradient>
				<polygon class="st137" points="213.9,119.3 201.1,130.1 188.3,119.3 179.1,125.6 179.1,131.2 179.1,134.7 179.1,153.4 
					223,153.4 223,125.6 				"/>
			</g>
			<g>
				<linearGradient id="SVGID_27_" gradientUnits="userSpaceOnUse" x1="29.6618" y1="103.6071" x2="53.9451" y2="103.6071">
					<stop  offset="0" style="stop-color:#0080C9"/>
					<stop  offset="1" style="stop-color:#115BA3"/>
				</linearGradient>
				<path class="st138" d="M52.4,99.3v8.8c0,5.8-4.7,10.5-10.5,10.5l0,0h-0.2c-5.8,0-10.5-4.7-10.5-10.5l0,0v-8.8
					c0-5.9,4.8-10.6,10.6-10.6C47.7,88.6,52.4,93.4,52.4,99.3z"/>
				<linearGradient id="SVGID_28_" gradientUnits="userSpaceOnUse" x1="18.3643" y1="136.1457" x2="65.2425" y2="136.1457">
					<stop  offset="0" style="stop-color:#0080C9"/>
					<stop  offset="1" style="stop-color:#115BA3"/>
				</linearGradient>
				<polygon class="st139" points="54.6,119.3 41.8,130.1 29,119.3 19.9,125.6 19.9,131.2 19.9,134.7 19.9,153.4 63.7,153.4 
					63.7,125.6 				"/>
			</g>
		</g>
	</g>
</g>
</svg>
