<?xml version="1.0" encoding="utf-8"?>
<!-- Generator: Adobe Illustrator 22.0.1, SVG Export Plug-In . SVG Version: 6.00 Build 0)  -->
<svg version="1.1" id="Capa_1" xmlns="http://www.w3.org/2000/svg" xmlns:xlink="http://www.w3.org/1999/xlink" x="0px" y="0px"
	 viewBox="0 0 250 250" style="enable-background:new 0 0 250 250;" xml:space="preserve">
<style type="text/css">
	
		.st0{opacity:0.1;fill:none;stroke:url(#SVGID_1_);stroke-width:2;stroke-linecap:round;stroke-linejoin:round;stroke-miterlimit:10;}
	.st1{opacity:0.1;fill:none;stroke:url(#SVGID_2_);stroke-linecap:round;stroke-linejoin:round;stroke-miterlimit:10;}
	
		.st2{opacity:0.5;fill:none;stroke:url(#SVGID_3_);stroke-linecap:round;stroke-linejoin:round;stroke-miterlimit:10;stroke-dasharray:0,12;}
	.st3{fill:url(#SVGID_4_);}
	.st4{fill:none;stroke:url(#SVGID_5_);stroke-width:2;stroke-linecap:round;stroke-linejoin:round;}
	.st5{fill:none;stroke:url(#SVGID_6_);stroke-width:2;stroke-linecap:round;stroke-linejoin:round;stroke-dasharray:0,5.8514;}
	.st6{fill:none;stroke:url(#SVGID_7_);stroke-width:2;stroke-linecap:round;stroke-linejoin:round;}
	.st7{fill:url(#SVGID_8_);}
	.st8{fill:#FFFFFF;}
	.st9{fill:none;stroke:url(#SVGID_9_);stroke-width:3;stroke-linecap:round;stroke-linejoin:round;stroke-miterlimit:10;}
	.st10{fill:url(#SVGID_10_);}
	.st11{fill:none;stroke:url(#SVGID_11_);stroke-width:2;stroke-linecap:round;stroke-linejoin:round;}
	.st12{fill:none;stroke:url(#SVGID_12_);stroke-width:2;stroke-linecap:round;stroke-linejoin:round;stroke-dasharray:0,5.8514;}
	.st13{fill:none;stroke:url(#SVGID_13_);stroke-width:2;stroke-linecap:round;stroke-linejoin:round;}
	.st14{fill:url(#SVGID_14_);}
	.st15{fill:none;stroke:url(#SVGID_15_);stroke-width:3;stroke-linecap:round;stroke-linejoin:round;stroke-miterlimit:10;}
	.st16{fill:url(#SVGID_16_);}
	.st17{fill:url(#SVGID_17_);}
	.st18{opacity:0.2;fill:url(#SVGID_18_);}
	.st19{opacity:0.2;fill:url(#SVGID_19_);}
	.st20{fill:url(#SVGID_20_);}
	.st21{opacity:0.5;fill:url(#SVGID_21_);}
	.st22{opacity:0.5;fill:url(#SVGID_22_);}
	.st23{opacity:0.5;fill:url(#SVGID_23_);}
	.st24{fill:url(#SVGID_24_);}
	.st25{fill:url(#SVGID_25_);}
	.st26{fill:url(#SVGID_26_);}
	.st27{fill:url(#SVGID_27_);}
	.st28{fill:url(#SVGID_28_);}
	.st29{fill:url(#SVGID_29_);}
	.st30{fill:url(#SVGID_30_);}
	.st31{fill:url(#SVGID_31_);}
	.st32{opacity:0.7;fill:url(#SVGID_32_);}
	.st33{opacity:0.7;fill:url(#SVGID_33_);}
	.st34{opacity:0.7;fill:url(#SVGID_34_);}
	.st35{opacity:0.7;fill:url(#SVGID_35_);}
</style>
<g>
	
		<linearGradient id="SVGID_1_" gradientUnits="userSpaceOnUse" x1="4229.2393" y1="-322.1024" x2="4338.6313" y2="-322.1024" gradientTransform="matrix(-1 0 0 -1 4399.2549 -197.1023)">
		<stop  offset="0" style="stop-color:#FFFFFF"/>
		<stop  offset="1" style="stop-color:#0080C9"/>
	</linearGradient>
	<circle class="st0" cx="115.3" cy="125" r="53.7"/>
	
		<linearGradient id="SVGID_2_" gradientUnits="userSpaceOnUse" x1="26.4466" y1="123.2992" x2="207.5948" y2="123.2992" gradientTransform="matrix(1 0 0 1 -1.7008 1.7008)">
		<stop  offset="0" style="stop-color:#FFFFFF"/>
		<stop  offset="1" style="stop-color:#0080C9"/>
	</linearGradient>
	<circle class="st1" cx="115.3" cy="125" r="90.1"/>
	
		<linearGradient id="SVGID_3_" gradientUnits="userSpaceOnUse" x1="42.5182" y1="123.2992" x2="191.5231" y2="123.2992" gradientTransform="matrix(1 0 0 1 -1.7008 1.7008)">
		<stop  offset="0" style="stop-color:#FFFFFF"/>
		<stop  offset="1" style="stop-color:#0080C9"/>
	</linearGradient>
	<circle class="st2" cx="115.3" cy="125" r="74"/>
	<linearGradient id="SVGID_4_" gradientUnits="userSpaceOnUse" x1="94.032" y1="125" x2="228.31" y2="125">
		<stop  offset="0" style="stop-color:#FFFFFF;stop-opacity:0.1"/>
		<stop  offset="1" style="stop-color:#0080C9;stop-opacity:0.1"/>
	</linearGradient>
	<path class="st3" d="M228.3,125c0,62.4-50.6,113-113,113s32.3-50.6,32.3-113S52.9,12,115.3,12S228.3,62.6,228.3,125z"/>
	<g>
		<g>
			<g>
				<linearGradient id="SVGID_5_" gradientUnits="userSpaceOnUse" x1="153.6711" y1="218.1924" x2="214.1847" y2="218.1924">
					<stop  offset="0" style="stop-color:#0080C9"/>
					<stop  offset="1" style="stop-color:#FFFFFF"/>
				</linearGradient>
				<line class="st4" x1="213.2" y1="218.2" x2="213.2" y2="218.2"/>
				<linearGradient id="SVGID_6_" gradientUnits="userSpaceOnUse" x1="153.6711" y1="218.1924" x2="214.1847" y2="218.1924">
					<stop  offset="0" style="stop-color:#0080C9"/>
					<stop  offset="1" style="stop-color:#FFFFFF"/>
				</linearGradient>
				<line class="st5" x1="207.3" y1="218.2" x2="157.6" y2="218.2"/>
				<linearGradient id="SVGID_7_" gradientUnits="userSpaceOnUse" x1="153.6711" y1="218.1924" x2="214.1847" y2="218.1924">
					<stop  offset="0" style="stop-color:#0080C9"/>
					<stop  offset="1" style="stop-color:#FFFFFF"/>
				</linearGradient>
				<line class="st6" x1="154.7" y1="218.2" x2="154.7" y2="218.2"/>
			</g>
		</g>
		<g>
			
				<linearGradient id="SVGID_8_" gradientUnits="userSpaceOnUse" x1="309.8145" y1="-705.8119" x2="320.8651" y2="-705.8119" gradientTransform="matrix(1 0 0 -1 -163.2607 -487.6195)">
				<stop  offset="0" style="stop-color:#0080C9"/>
				<stop  offset="1" style="stop-color:#115BA3"/>
			</linearGradient>
			<circle class="st7" cx="152.1" cy="218.2" r="5.5"/>
			<circle class="st8" cx="152.1" cy="218.2" r="3"/>
		</g>
	</g>
	<g>
		
			<linearGradient id="SVGID_9_" gradientUnits="userSpaceOnUse" x1="3323.7942" y1="662.172" x2="3391.3347" y2="662.172" gradientTransform="matrix(-1 0 0 1 3498.7634 -441.2342)">
			<stop  offset="0" style="stop-color:#FFFFFF"/>
			<stop  offset="1" style="stop-color:#0080C9"/>
		</linearGradient>
		<path class="st9" d="M173.5,230.8c0,0-31.5,0-36.7,0c-5.1,0-7.2-2.7-7.2-9.9s-3.2-9.9-7.8-9.9c-7.5,0-12.9,0-12.9,0"/>
		<g>
			<circle class="st8" cx="107.1" cy="211.1" r="8.3"/>
			
				<linearGradient id="SVGID_10_" gradientUnits="userSpaceOnUse" x1="3387.2322" y1="652.2875" x2="3396.0847" y2="652.2875" gradientTransform="matrix(-1 0 0 1 3498.7634 -441.2342)">
				<stop  offset="0" style="stop-color:#0080C9"/>
				<stop  offset="1" style="stop-color:#115BA3"/>
			</linearGradient>
			<circle class="st10" cx="107.1" cy="211.1" r="4.4"/>
		</g>
	</g>
	<g>
		<g>
			<g>
				<linearGradient id="SVGID_11_" gradientUnits="userSpaceOnUse" x1="82.2036" y1="31.2422" x2="21.69" y2="31.2422">
					<stop  offset="0" style="stop-color:#0080C9"/>
					<stop  offset="1" style="stop-color:#FFFFFF"/>
				</linearGradient>
				<line class="st11" x1="22.7" y1="31.2" x2="22.7" y2="31.2"/>
				<linearGradient id="SVGID_12_" gradientUnits="userSpaceOnUse" x1="82.2036" y1="31.2422" x2="21.69" y2="31.2422">
					<stop  offset="0" style="stop-color:#0080C9"/>
					<stop  offset="1" style="stop-color:#FFFFFF"/>
				</linearGradient>
				<line class="st12" x1="28.5" y1="31.2" x2="78.3" y2="31.2"/>
				<linearGradient id="SVGID_13_" gradientUnits="userSpaceOnUse" x1="82.2036" y1="31.2422" x2="21.69" y2="31.2422">
					<stop  offset="0" style="stop-color:#0080C9"/>
					<stop  offset="1" style="stop-color:#FFFFFF"/>
				</linearGradient>
				<line class="st13" x1="81.2" y1="31.2" x2="81.2" y2="31.2"/>
			</g>
		</g>
		<g>
			
				<linearGradient id="SVGID_14_" gradientUnits="userSpaceOnUse" x1="4489.73" y1="-62.8917" x2="4500.7803" y2="-62.8917" gradientTransform="matrix(-1 0 0 1 4579.0508 94.1339)">
				<stop  offset="0" style="stop-color:#0080C9"/>
				<stop  offset="1" style="stop-color:#115BA3"/>
			</linearGradient>
			<circle class="st14" cx="83.8" cy="31.2" r="5.5"/>
			<circle class="st8" cx="83.8" cy="31.2" r="3"/>
		</g>
	</g>
	<g>
		
			<linearGradient id="SVGID_15_" gradientUnits="userSpaceOnUse" x1="-856.1212" y1="19.2518" x2="-788.5806" y2="19.2518" gradientTransform="matrix(1 0 0 -1 917.0266 47.7486)">
			<stop  offset="0" style="stop-color:#FFFFFF"/>
			<stop  offset="1" style="stop-color:#0080C9"/>
		</linearGradient>
		<path class="st15" d="M62.4,18.6c0,0,31.5,0,36.7,0s7.2,2.7,7.2,9.9s3.2,9.9,7.8,9.9c7.5,0,12.9,0,12.9,0"/>
		<g>
			<circle class="st8" cx="128.8" cy="38.4" r="8.3"/>
			
				<linearGradient id="SVGID_16_" gradientUnits="userSpaceOnUse" x1="-792.6831" y1="9.3672" x2="-783.8307" y2="9.3672" gradientTransform="matrix(1 0 0 -1 917.0266 47.7486)">
				<stop  offset="0" style="stop-color:#0080C9"/>
				<stop  offset="1" style="stop-color:#115BA3"/>
			</linearGradient>
			<circle class="st16" cx="128.8" cy="38.4" r="4.4"/>
		</g>
	</g>
	<g>
		<g>
			<linearGradient id="SVGID_17_" gradientUnits="userSpaceOnUse" x1="44.9622" y1="161.672" x2="101.5382" y2="161.672">
				<stop  offset="0" style="stop-color:#0080C9"/>
				<stop  offset="1" style="stop-color:#115BA3"/>
			</linearGradient>
			<path class="st17" d="M68.4,194.5c11.9,0,21.2-4,23.1-9.6l10-1.3L101,179l-9.6,1.2c-1.5-3.8-6.4-6.7-13.5-8.2v-4.2l3.4-1.7
				c0.8-0.4,1.3-1.2,1.3-2.1v-16.4c0-3.2-2.1-5.9-5.1-6.8c0.4-1.5,0.5-3,0.2-4.6c-0.8-3.7-3.8-6.6-7.5-7.2c-2.8-0.5-5.6,0.3-7.7,2.1
				c-2.1,1.8-3.3,4.4-3.3,7.2c0,0.9,0.1,1.8,0.4,2.6c-2.9,0.9-5.1,3.6-5.1,6.8V164c0,0.9,0.5,1.7,1.3,2.1l3.4,1.7v4.2
				c-8.7,1.8-14.1,5.8-14.1,10.8C45,189.5,55,194.5,68.4,194.5z M59,147.6c0-1.3,1.1-2.3,2.3-2.3h1.8c0.9,0,1.8-0.5,2.1-1.4
				c0.4-0.8,0.2-1.8-0.4-2.5c-0.8-0.9-1.2-2-1.2-3.1c0-1.4,0.6-2.7,1.7-3.6c1.1-0.9,2.5-1.3,3.9-1c1.8,0.3,3.4,1.8,3.7,3.6
				c0.4,2-0.5,3.5-1.1,4.1c-0.6,0.7-0.8,1.7-0.4,2.5c0.4,0.8,1.2,1.4,2.1,1.4h1.8c1.3,0,2.3,1.1,2.3,2.3v15l-3.4,1.7
				c-0.8,0.4-1.3,1.2-1.3,2.1v14.1h-9.4v-14.1c0-0.9-0.5-1.7-1.3-2.1l-3.4-1.7V147.6z M59,176.8v6c0,1.3,1.1,2.3,2.3,2.3h14.1
				c1.3,0,2.3-1,2.3-2.3v-6c6.1,1.4,9.4,4,9.4,6c0,2.9-7.3,7-18.8,7s-18.8-4.2-18.8-7C49.7,180.8,52.9,178.2,59,176.8z"/>
			<linearGradient id="SVGID_18_" gradientUnits="userSpaceOnUse" x1="115.0279" y1="154.6367" x2="171.6039" y2="154.6367">
				<stop  offset="0" style="stop-color:#0080C9"/>
				<stop  offset="1" style="stop-color:#115BA3"/>
			</linearGradient>
			<path class="st18" d="M134.7,166l-13-13.7l-3.4,3.2l11.9,12.4c-3.5,2-5.5,4.7-5.5,7.7c0,0.1,0,0.2,0,0.3l-9.7,1.2l0.6,4.7l11-1.4
				c3.5,4.2,11.6,7,21.6,7c13.4,0,23.5-5,23.5-11.7c0-5-5.3-9-14.1-10.8v-4.2l3.4-1.7c0.8-0.4,1.3-1.2,1.3-2.1v-16.4
				c0-3.2-2.1-5.9-5.1-6.8c0.4-1.5,0.5-3,0.2-4.6c-0.8-3.7-3.8-6.6-7.5-7.2c-2.8-0.5-5.6,0.3-7.7,2.1c-2.1,1.8-3.3,4.4-3.3,7.2
				c0,0.9,0.1,1.8,0.4,2.6c-2.9,0.9-5.1,3.6-5.1,6.8V157c0,0.9,0.5,1.7,1.3,2.1l3.4,1.7v4.2C137.3,165.2,136,165.6,134.7,166z
				 M166.9,175.7c0,2.9-7.3,7-18.8,7c-11.5,0-18.8-4.2-18.8-7c0-2,3.3-4.6,9.4-6v6c0,1.3,1.1,2.3,2.3,2.3h14.1c1.3,0,2.3-1,2.3-2.3
				v-6C163.6,171.2,166.9,173.8,166.9,175.7z M138.8,140.6c0-1.3,1.1-2.3,2.3-2.3h1.8c0.9,0,1.8-0.5,2.1-1.4
				c0.4-0.8,0.2-1.8-0.4-2.5c-0.8-0.9-1.2-2-1.2-3.1c0-1.4,0.6-2.7,1.7-3.6c1.1-0.9,2.5-1.3,3.9-1c1.8,0.3,3.4,1.8,3.7,3.6
				c0.4,2-0.5,3.5-1.1,4.1c-0.6,0.7-0.8,1.7-0.4,2.5c0.4,0.8,1.2,1.4,2.1,1.4h1.8c1.3,0,2.3,1.1,2.3,2.3v15l-3.4,1.7
				c-0.8,0.4-1.3,1.2-1.3,2.1v14.1h-9.4v-14.1c0-0.9-0.5-1.7-1.3-2.1l-3.4-1.7V140.6z"/>
			<linearGradient id="SVGID_19_" gradientUnits="userSpaceOnUse" x1="63.7239" y1="103.2671" x2="120.3562" y2="103.2671">
				<stop  offset="0" style="stop-color:#0080C9"/>
				<stop  offset="1" style="stop-color:#115BA3"/>
			</linearGradient>
			<path class="st19" d="M70.8,81.9v11.7c0,0.9,0.5,1.7,1.3,2.1l3.4,1.7v4c-7.3,1.4-11.7,4.6-11.7,8.6c0,6.2,10,9.4,19.9,9.4
				c0.1,0,0.1,0,0.2,0l21.7,22.7l3.4-3.2l-19-19.9c7.5-1.1,13.7-4.1,13.7-8.9c0-0.1,0-0.2,0-0.3l16.8-2.5l-0.7-4.6l-18.5,2.8
				c-2-1.7-5.2-3.1-9.3-3.9v-4l3.4-1.7c0.8-0.4,1.3-1.2,1.3-2.1V81.9c0-3.2-2.2-5.9-5.1-6.8c0.5-1.4,0.6-2.9,0.2-4.4
				c-0.6-2.7-2.6-5-5.2-5.9c-2.5-0.9-5.1-0.6-7.3,0.8c-2.2,1.4-3.5,3.7-3.7,6.2c-0.1,1.1,0,2.2,0.4,3.3C72.9,76,70.8,78.7,70.8,81.9
				z M98.9,110.1c0,1.4-5.2,4.7-15.2,4.7s-15.2-3.3-15.2-4.7c0-0.9,2.2-2.7,7-3.8v3.8c0,1.3,1.1,2.3,2.3,2.3h11.7
				c1.3,0,2.3-1,2.3-2.3v-3.8C96.7,107.4,98.9,109.2,98.9,110.1z M75.5,81.9c0-1.3,1.1-2.3,2.3-2.3h2.4c1,0,1.9-0.6,2.2-1.6
				s0-2-0.8-2.6c-1-0.7-1.5-1.9-1.4-3.1c0.1-1.1,0.7-2.1,1.6-2.7c0.9-0.6,2.1-0.7,3.2-0.3c1.1,0.4,1.9,1.3,2.2,2.4
				c0.3,1.4-0.2,2.8-1.3,3.7C84.9,76,84.6,77,84.9,78c0.3,1,1.2,1.6,2.2,1.6h2.4c1.3,0,2.3,1.1,2.3,2.3v10.3l-3.4,1.7
				c-0.8,0.4-1.3,1.2-1.3,2.1v11.7h-7V96c0-0.9-0.5-1.7-1.3-2.1l-3.4-1.7V81.9z"/>
			<linearGradient id="SVGID_20_" gradientUnits="userSpaceOnUse" x1="133.7334" y1="81.3494" x2="185.6776" y2="81.3494">
				<stop  offset="0" style="stop-color:#0080C9"/>
				<stop  offset="1" style="stop-color:#115BA3"/>
			</linearGradient>
			<path class="st20" d="M173.9,91v-4l3.4-1.7c0.8-0.4,1.3-1.2,1.3-2.1V71.4c0-3.2-2.2-5.9-5.1-6.8c0.5-1.4,0.6-2.9,0.2-4.4
				c-0.6-2.7-2.6-5-5.2-5.9c-2.5-0.9-5.1-0.6-7.3,0.8c-2.2,1.4-3.5,3.7-3.7,6.2c-0.1,1.1,0,2.2,0.4,3.3c-2.9,0.8-5.1,3.6-5.1,6.8
				v11.7c0,0.9,0.5,1.7,1.3,2.1l3.4,1.7v4c-6.7,1.3-11,4.1-11.6,7.7l-12.2,1.8l0.7,4.6l12.8-1.9c3.1,3.7,10.8,5.7,18.5,5.7
				c9.9,0,19.9-3.2,19.9-9.4C185.7,95.5,181.2,92.4,173.9,91z M157.5,71.4c0-1.3,1.1-2.3,2.3-2.3h2.4c1,0,1.9-0.6,2.2-1.6
				s0-2-0.8-2.6c-1-0.7-1.5-1.9-1.4-3.1c0.1-1.1,0.7-2.1,1.6-2.7c0.9-0.6,2.1-0.7,3.2-0.3c1.1,0.4,1.9,1.3,2.2,2.4
				c0.3,1.4-0.2,2.8-1.3,3.7c-0.8,0.6-1.1,1.7-0.8,2.6c0.3,1,1.2,1.6,2.2,1.6h2.4c1.3,0,2.3,1.1,2.3,2.3v10.3l-3.4,1.7
				c-0.8,0.4-1.3,1.2-1.3,2.1v11.7h-7V85.5c0-0.9-0.5-1.7-1.3-2.1l-3.4-1.7V71.4z M165.7,104.2c-10.1,0-15.2-3.3-15.2-4.7
				c0-0.9,2.2-2.7,7-3.8v3.8c0,1.3,1.1,2.3,2.3,2.3h11.7c1.3,0,2.3-1,2.3-2.3v-3.8c4.9,1.1,7,2.9,7,3.8
				C181,100.9,175.8,104.2,165.7,104.2z"/>
			<linearGradient id="SVGID_21_" gradientUnits="userSpaceOnUse" x1="105.6434" y1="180.4406" x2="110.9166" y2="180.4406">
				<stop  offset="0" style="stop-color:#0080C9"/>
				<stop  offset="1" style="stop-color:#115BA3"/>
			</linearGradient>
			<polygon class="st21" points="105.6,178.4 110.3,177.8 110.9,182.5 106.2,183.1 			"/>
			<linearGradient id="SVGID_22_" gradientUnits="userSpaceOnUse" x1="109.9964" y1="147.5989" x2="117.8665" y2="147.5989">
				<stop  offset="0" style="stop-color:#0080C9"/>
				<stop  offset="1" style="stop-color:#115BA3"/>
			</linearGradient>
			<polygon class="st22" points="110,146.9 113.4,143.6 117.9,148.3 114.5,151.6 			"/>
			<linearGradient id="SVGID_23_" gradientUnits="userSpaceOnUse" x1="124.3501" y1="103.8626" x2="129.7359" y2="103.8626">
				<stop  offset="0" style="stop-color:#0080C9"/>
				<stop  offset="1" style="stop-color:#115BA3"/>
			</linearGradient>
			<polygon class="st23" points="124.4,101.9 129,101.2 129.7,105.8 125,106.5 			"/>
		</g>
		<g>
			<linearGradient id="SVGID_24_" gradientUnits="userSpaceOnUse" x1="59.0335" y1="156.9836" x2="77.7952" y2="156.9836">
				<stop  offset="0" style="stop-color:#0080C9"/>
				<stop  offset="1" style="stop-color:#115BA3"/>
			</linearGradient>
			<path class="st24" d="M59,147.6c0-1.3,1.1-2.3,2.3-2.3h1.8c0.9,0,1.8-0.5,2.1-1.4c0.4-0.8,0.2-1.8-0.4-2.5
				c-0.8-0.9-1.2-2-1.2-3.1c0-1.4,0.6-2.7,1.7-3.6c1.1-0.9,2.5-1.3,3.9-1c1.8,0.3,3.4,1.8,3.7,3.6c0.4,2-0.5,3.5-1.1,4.1
				c-0.6,0.7-0.8,1.7-0.4,2.5c0.4,0.8,1.2,1.4,2.1,1.4h1.8c1.3,0,2.3,1.1,2.3,2.3v15l-3.4,1.7c-0.8,0.4-1.3,1.2-1.3,2.1v14.1h-9.4
				v-14.1c0-0.9-0.5-1.7-1.3-2.1l-3.4-1.7V147.6z"/>
			<linearGradient id="SVGID_25_" gradientUnits="userSpaceOnUse" x1="49.6526" y1="183.3013" x2="87.1761" y2="183.3013">
				<stop  offset="0" style="stop-color:#0080C9"/>
				<stop  offset="1" style="stop-color:#115BA3"/>
			</linearGradient>
			<path class="st25" d="M59,176.8v6c0,1.3,1.1,2.3,2.3,2.3h14.1c1.3,0,2.3-1,2.3-2.3v-6c6.1,1.4,9.4,4,9.4,6c0,2.9-7.3,7-18.8,7
				s-18.8-4.2-18.8-7C49.7,180.8,52.9,178.2,59,176.8z"/>
			<linearGradient id="SVGID_26_" gradientUnits="userSpaceOnUse" x1="129.39" y1="176.2656" x2="166.9135" y2="176.2656">
				<stop  offset="0" style="stop-color:#0080C9"/>
				<stop  offset="1" style="stop-color:#115BA3"/>
			</linearGradient>
			<path class="st26" d="M166.9,175.7c0,2.9-7.3,7-18.8,7c-11.5,0-18.8-4.2-18.8-7c0-2,3.3-4.6,9.4-6v6c0,1.3,1.1,2.3,2.3,2.3h14.1
				c1.3,0,2.3-1,2.3-2.3v-6C163.6,171.2,166.9,173.8,166.9,175.7z"/>
			<linearGradient id="SVGID_27_" gradientUnits="userSpaceOnUse" x1="138.7709" y1="149.9475" x2="157.5326" y2="149.9475">
				<stop  offset="0" style="stop-color:#0080C9"/>
				<stop  offset="1" style="stop-color:#115BA3"/>
			</linearGradient>
			<path class="st27" d="M138.8,140.6c0-1.3,1.1-2.3,2.3-2.3h1.8c0.9,0,1.8-0.5,2.1-1.4c0.4-0.8,0.2-1.8-0.4-2.5
				c-0.8-0.9-1.2-2-1.2-3.1c0-1.4,0.6-2.7,1.7-3.6c1.1-0.9,2.5-1.3,3.9-1c1.8,0.3,3.4,1.8,3.7,3.6c0.4,2-0.5,3.5-1.1,4.1
				c-0.6,0.7-0.8,1.7-0.4,2.5c0.4,0.8,1.2,1.4,2.1,1.4h1.8c1.3,0,2.3,1.1,2.3,2.3v15l-3.4,1.7c-0.8,0.4-1.3,1.2-1.3,2.1v14.1h-9.4
				v-14.1c0-0.9-0.5-1.7-1.3-2.1l-3.4-1.7V140.6z"/>
			<linearGradient id="SVGID_28_" gradientUnits="userSpaceOnUse" x1="68.4144" y1="110.5221" x2="98.9022" y2="110.5221">
				<stop  offset="0" style="stop-color:#0080C9"/>
				<stop  offset="1" style="stop-color:#115BA3"/>
			</linearGradient>
			<path class="st28" d="M98.9,110.1c0,1.4-5.2,4.7-15.2,4.7s-15.2-3.3-15.2-4.7c0-0.9,2.2-2.7,7-3.8v3.8c0,1.3,1.1,2.3,2.3,2.3
				h11.7c1.3,0,2.3-1,2.3-2.3v-3.8C96.7,107.4,98.9,109.2,98.9,110.1z"/>
			<linearGradient id="SVGID_29_" gradientUnits="userSpaceOnUse" x1="75.45" y1="88.3856" x2="91.8665" y2="88.3856">
				<stop  offset="0" style="stop-color:#0080C9"/>
				<stop  offset="1" style="stop-color:#115BA3"/>
			</linearGradient>
			<path class="st29" d="M75.5,81.9c0-1.3,1.1-2.3,2.3-2.3h2.4c1,0,1.9-0.6,2.2-1.6s0-2-0.8-2.6c-1-0.7-1.5-1.9-1.4-3.1
				c0.1-1.1,0.7-2.1,1.6-2.7c0.9-0.6,2.1-0.7,3.2-0.3c1.1,0.4,1.9,1.3,2.2,2.4c0.3,1.4-0.2,2.8-1.3,3.7C84.9,76,84.6,77,84.9,78
				c0.3,1,1.2,1.6,2.2,1.6h2.4c1.3,0,2.3,1.1,2.3,2.3v10.3l-3.4,1.7c-0.8,0.4-1.3,1.2-1.3,2.1v11.7h-7V96c0-0.9-0.5-1.7-1.3-2.1
				l-3.4-1.7V81.9z"/>
			<linearGradient id="SVGID_30_" gradientUnits="userSpaceOnUse" x1="157.5326" y1="77.8321" x2="173.9492" y2="77.8321">
				<stop  offset="0" style="stop-color:#0080C9"/>
				<stop  offset="1" style="stop-color:#115BA3"/>
			</linearGradient>
			<path class="st30" d="M157.5,71.4c0-1.3,1.1-2.3,2.3-2.3h2.4c1,0,1.9-0.6,2.2-1.6s0-2-0.8-2.6c-1-0.7-1.5-1.9-1.4-3.1
				c0.1-1.1,0.7-2.1,1.6-2.7c0.9-0.6,2.1-0.7,3.2-0.3c1.1,0.4,1.9,1.3,2.2,2.4c0.3,1.4-0.2,2.8-1.3,3.7c-0.8,0.6-1.1,1.7-0.8,2.6
				c0.3,1,1.2,1.6,2.2,1.6h2.4c1.3,0,2.3,1.1,2.3,2.3v10.3l-3.4,1.7c-0.8,0.4-1.3,1.2-1.3,2.1v11.7h-7V85.5c0-0.9-0.5-1.7-1.3-2.1
				l-3.4-1.7V71.4z"/>
			<linearGradient id="SVGID_31_" gradientUnits="userSpaceOnUse" x1="150.497" y1="99.9686" x2="180.9848" y2="99.9686">
				<stop  offset="0" style="stop-color:#0080C9"/>
				<stop  offset="1" style="stop-color:#115BA3"/>
			</linearGradient>
			<path class="st31" d="M165.7,104.2c-10.1,0-15.2-3.3-15.2-4.7c0-0.9,2.2-2.7,7-3.8v3.8c0,1.3,1.1,2.3,2.3,2.3h11.7
				c1.3,0,2.3-1,2.3-2.3v-3.8c4.9,1.1,7,2.9,7,3.8C181,100.9,175.8,104.2,165.7,104.2z"/>
		</g>
		<g>
			<path class="st8" d="M59,147.6c0-1.3,1.1-2.3,2.3-2.3h1.8c0.9,0,1.8-0.5,2.1-1.4c0.4-0.8,0.2-1.8-0.4-2.5c-0.8-0.9-1.2-2-1.2-3.1
				c0-1.4,0.6-2.7,1.7-3.6c1.1-0.9,2.5-1.3,3.9-1c1.8,0.3,3.4,1.8,3.7,3.6c0.4,2-0.5,3.5-1.1,4.1c-0.6,0.7-0.8,1.7-0.4,2.5
				c0.4,0.8,1.2,1.4,2.1,1.4h1.8c1.3,0,2.3,1.1,2.3,2.3v15l-3.4,1.7c-0.8,0.4-1.3,1.2-1.3,2.1v14.1h-9.4v-14.1
				c0-0.9-0.5-1.7-1.3-2.1l-3.4-1.7V147.6z"/>
			<path class="st8" d="M59,176.8v6c0,1.3,1.1,2.3,2.3,2.3h14.1c1.3,0,2.3-1,2.3-2.3v-6c6.1,1.4,9.4,4,9.4,6c0,2.9-7.3,7-18.8,7
				s-18.8-4.2-18.8-7C49.7,180.8,52.9,178.2,59,176.8z"/>
			<path class="st8" d="M166.9,175.7c0,2.9-7.3,7-18.8,7c-11.5,0-18.8-4.2-18.8-7c0-2,3.3-4.6,9.4-6v6c0,1.3,1.1,2.3,2.3,2.3h14.1
				c1.3,0,2.3-1,2.3-2.3v-6C163.6,171.2,166.9,173.8,166.9,175.7z"/>
			<path class="st8" d="M138.8,140.6c0-1.3,1.1-2.3,2.3-2.3h1.8c0.9,0,1.8-0.5,2.1-1.4c0.4-0.8,0.2-1.8-0.4-2.5
				c-0.8-0.9-1.2-2-1.2-3.1c0-1.4,0.6-2.7,1.7-3.6c1.1-0.9,2.5-1.3,3.9-1c1.8,0.3,3.4,1.8,3.7,3.6c0.4,2-0.5,3.5-1.1,4.1
				c-0.6,0.7-0.8,1.7-0.4,2.5c0.4,0.8,1.2,1.4,2.1,1.4h1.8c1.3,0,2.3,1.1,2.3,2.3v15l-3.4,1.7c-0.8,0.4-1.3,1.2-1.3,2.1v14.1h-9.4
				v-14.1c0-0.9-0.5-1.7-1.3-2.1l-3.4-1.7V140.6z"/>
			<path class="st8" d="M98.9,110.1c0,1.4-5.2,4.7-15.2,4.7s-15.2-3.3-15.2-4.7c0-0.9,2.2-2.7,7-3.8v3.8c0,1.3,1.1,2.3,2.3,2.3h11.7
				c1.3,0,2.3-1,2.3-2.3v-3.8C96.7,107.4,98.9,109.2,98.9,110.1z"/>
			<path class="st8" d="M75.5,81.9c0-1.3,1.1-2.3,2.3-2.3h2.4c1,0,1.9-0.6,2.2-1.6s0-2-0.8-2.6c-1-0.7-1.5-1.9-1.4-3.1
				c0.1-1.1,0.7-2.1,1.6-2.7c0.9-0.6,2.1-0.7,3.2-0.3c1.1,0.4,1.9,1.3,2.2,2.4c0.3,1.4-0.2,2.8-1.3,3.7C84.9,76,84.6,77,84.9,78
				c0.3,1,1.2,1.6,2.2,1.6h2.4c1.3,0,2.3,1.1,2.3,2.3v10.3l-3.4,1.7c-0.8,0.4-1.3,1.2-1.3,2.1v11.7h-7V96c0-0.9-0.5-1.7-1.3-2.1
				l-3.4-1.7V81.9z"/>
			<linearGradient id="SVGID_32_" gradientUnits="userSpaceOnUse" x1="138.7709" y1="149.9475" x2="157.5326" y2="149.9475">
				<stop  offset="0" style="stop-color:#0080C9"/>
				<stop  offset="1" style="stop-color:#115BA3"/>
			</linearGradient>
			<path class="st32" d="M138.8,140.6c0-1.3,1.1-2.3,2.3-2.3h1.8c0.9,0,1.8-0.5,2.1-1.4c0.4-0.8,0.2-1.8-0.4-2.5
				c-0.8-0.9-1.2-2-1.2-3.1c0-1.4,0.6-2.7,1.7-3.6c1.1-0.9,2.5-1.3,3.9-1c1.8,0.3,3.4,1.8,3.7,3.6c0.4,2-0.5,3.5-1.1,4.1
				c-0.6,0.7-0.8,1.7-0.4,2.5c0.4,0.8,1.2,1.4,2.1,1.4h1.8c1.3,0,2.3,1.1,2.3,2.3v15l-3.4,1.7c-0.8,0.4-1.3,1.2-1.3,2.1v14.1h-9.4
				v-14.1c0-0.9-0.5-1.7-1.3-2.1l-3.4-1.7V140.6z"/>
			<linearGradient id="SVGID_33_" gradientUnits="userSpaceOnUse" x1="75.45" y1="88.3856" x2="91.8665" y2="88.3856">
				<stop  offset="0" style="stop-color:#0080C9"/>
				<stop  offset="1" style="stop-color:#115BA3"/>
			</linearGradient>
			<path class="st33" d="M75.5,81.9c0-1.3,1.1-2.3,2.3-2.3h2.4c1,0,1.9-0.6,2.2-1.6s0-2-0.8-2.6c-1-0.7-1.5-1.9-1.4-3.1
				c0.1-1.1,0.7-2.1,1.6-2.7c0.9-0.6,2.1-0.7,3.2-0.3c1.1,0.4,1.9,1.3,2.2,2.4c0.3,1.4-0.2,2.8-1.3,3.7C84.9,76,84.6,77,84.9,78
				c0.3,1,1.2,1.6,2.2,1.6h2.4c1.3,0,2.3,1.1,2.3,2.3v10.3l-3.4,1.7c-0.8,0.4-1.3,1.2-1.3,2.1v11.7h-7V96c0-0.9-0.5-1.7-1.3-2.1
				l-3.4-1.7V81.9z"/>
			<path class="st8" d="M157.5,71.4c0-1.3,1.1-2.3,2.3-2.3h2.4c1,0,1.9-0.6,2.2-1.6s0-2-0.8-2.6c-1-0.7-1.5-1.9-1.4-3.1
				c0.1-1.1,0.7-2.1,1.6-2.7c0.9-0.6,2.1-0.7,3.2-0.3c1.1,0.4,1.9,1.3,2.2,2.4c0.3,1.4-0.2,2.8-1.3,3.7c-0.8,0.6-1.1,1.7-0.8,2.6
				c0.3,1,1.2,1.6,2.2,1.6h2.4c1.3,0,2.3,1.1,2.3,2.3v10.3l-3.4,1.7c-0.8,0.4-1.3,1.2-1.3,2.1v11.7h-7V85.5c0-0.9-0.5-1.7-1.3-2.1
				l-3.4-1.7V71.4z"/>
			<path class="st8" d="M165.7,104.2c-10.1,0-15.2-3.3-15.2-4.7c0-0.9,2.2-2.7,7-3.8v3.8c0,1.3,1.1,2.3,2.3,2.3h11.7
				c1.3,0,2.3-1,2.3-2.3v-3.8c4.9,1.1,7,2.9,7,3.8C181,100.9,175.8,104.2,165.7,104.2z"/>
		</g>
		<linearGradient id="SVGID_34_" gradientUnits="userSpaceOnUse" x1="129.39" y1="176.2656" x2="166.9135" y2="176.2656">
			<stop  offset="0" style="stop-color:#0080C9"/>
			<stop  offset="1" style="stop-color:#115BA3"/>
		</linearGradient>
		<path class="st34" d="M166.9,175.7c0,2.9-7.3,7-18.8,7c-11.5,0-18.8-4.2-18.8-7c0-2,3.3-4.6,9.4-6v6c0,1.3,1.1,2.3,2.3,2.3h14.1
			c1.3,0,2.3-1,2.3-2.3v-6C163.6,171.2,166.9,173.8,166.9,175.7z"/>
		<linearGradient id="SVGID_35_" gradientUnits="userSpaceOnUse" x1="68.4144" y1="110.5221" x2="98.9022" y2="110.5221">
			<stop  offset="0" style="stop-color:#0080C9"/>
			<stop  offset="1" style="stop-color:#115BA3"/>
		</linearGradient>
		<path class="st35" d="M98.9,110.1c0,1.4-5.2,4.7-15.2,4.7s-15.2-3.3-15.2-4.7c0-0.9,2.2-2.7,7-3.8v3.8c0,1.3,1.1,2.3,2.3,2.3h11.7
			c1.3,0,2.3-1,2.3-2.3v-3.8C96.7,107.4,98.9,109.2,98.9,110.1z"/>
	</g>
</g>
</svg>
