<svg xmlns="http://www.w3.org/2000/svg" width="204.32" height="282.953" viewBox="0 0 204.32 282.953"><g transform="translate(-269.86 -598.864)"><path d="M3388.923,257.774l90.47,52.486,89.85-52.486-89.85-51.39Z" transform="translate(-3107.063 559.557)" fill="#05335a" opacity="0.1"/><path d="M3388.923,252.822l81.752,47.428,81.192-47.428-81.192-46.438Z" transform="translate(-3098.375 502.033)" fill="#00e5ff" opacity="0.3"/><path d="M3388.923,252.822l81.752,47.428,81.192-47.428-81.192-46.438Z" transform="translate(-3098.375 474.199)" fill="#00e5ff" opacity="0.3"/><path d="M3388.923,252.822l81.752,47.428,81.192-47.428-81.192-46.438Z" transform="translate(-3098.375 447.292)" fill="#00e5ff" opacity="0.3"/><path d="M3388.923,252.822l81.752,47.428,81.192-47.428-81.192-46.438Z" transform="translate(-3098.375 419.458)" fill="#00e5ff" opacity="0.3"/><g transform="translate(274.903 599.864)"><path d="M337.13,122.66l-97.55,56.312V291.6l97.547-56.31,0-112.634-97.55-56.312L142.046,122.66,142.033,235.3l97.547,56.3" transform="translate(-142.033 -66.349)" fill="none" stroke="#0059a3" stroke-linecap="round" stroke-linejoin="round" stroke-width="2"/><line x2="97.535" y2="56.312" transform="translate(0.013 56.312)" stroke-width="2" stroke="#0059a3" stroke-linecap="round" stroke-linejoin="round" fill="none"/></g></g></svg>