<?xml version="1.0" encoding="utf-8"?>
<!-- Generator: Adobe Illustrator 22.0.1, SVG Export Plug-In . SVG Version: 6.00 Build 0)  -->
<svg version="1.1" id="Capa_1" xmlns="http://www.w3.org/2000/svg" xmlns:xlink="http://www.w3.org/1999/xlink" x="0px" y="0px"
	 viewBox="0 0 129 129" style="enable-background:new 0 0 129 129;" xml:space="preserve">
<style type="text/css">
	.st0{fill:url(#SVGID_1_);}
	.st1{fill:url(#SVGID_2_);}
	.st2{fill:#FFFFFF;}
	.st3{fill:url(#SVGID_3_);}
	.st4{fill:url(#SVGID_4_);}
	.st5{clip-path:url(#SVGID_6_);fill:#0080C8;}
	.st6{clip-path:url(#SVGID_6_);fill:#007FC7;}
	.st7{clip-path:url(#SVGID_6_);fill:#017EC6;}
	.st8{clip-path:url(#SVGID_6_);fill:#017DC5;}
	.st9{clip-path:url(#SVGID_6_);fill:#017CC4;}
	.st10{clip-path:url(#SVGID_6_);fill:#027BC3;}
	.st11{clip-path:url(#SVGID_6_);fill:#027AC2;}
	.st12{clip-path:url(#SVGID_6_);fill:#0379C1;}
	.st13{clip-path:url(#SVGID_6_);fill:#0378C0;}
	.st14{clip-path:url(#SVGID_6_);fill:#0377BF;}
	.st15{clip-path:url(#SVGID_6_);fill:#0476BE;}
	.st16{clip-path:url(#SVGID_6_);fill:#0475BD;}
	.st17{clip-path:url(#SVGID_6_);fill:#0474BC;}
	.st18{clip-path:url(#SVGID_6_);fill:#0573BB;}
	.st19{clip-path:url(#SVGID_6_);fill:#0572BA;}
	.st20{clip-path:url(#SVGID_6_);fill:#0671B9;}
	.st21{clip-path:url(#SVGID_6_);fill:#0670B8;}
	.st22{clip-path:url(#SVGID_6_);fill:#066FB7;}
	.st23{clip-path:url(#SVGID_6_);fill:#076EB6;}
	.st24{clip-path:url(#SVGID_6_);fill:#076DB5;}
	.st25{clip-path:url(#SVGID_6_);fill:#076CB3;}
	.st26{clip-path:url(#SVGID_6_);fill:#086BB2;}
	.st27{clip-path:url(#SVGID_6_);fill:#086AB1;}
	.st28{clip-path:url(#SVGID_6_);fill:#0869B0;}
	.st29{clip-path:url(#SVGID_6_);fill:#0968AF;}
	.st30{clip-path:url(#SVGID_6_);fill:#0967AE;}
	.st31{clip-path:url(#SVGID_6_);fill:#0A66AD;}
	.st32{clip-path:url(#SVGID_6_);fill:#0A65AC;}
	.st33{clip-path:url(#SVGID_6_);fill:#0A64AB;}
	.st34{clip-path:url(#SVGID_6_);fill:#0B63AA;}
	.st35{clip-path:url(#SVGID_6_);fill:#0B62A9;}
	.st36{clip-path:url(#SVGID_6_);fill:#0B61A8;}
	.st37{clip-path:url(#SVGID_6_);fill:#0C60A7;}
	.st38{clip-path:url(#SVGID_6_);fill:#0C5FA6;}
	.st39{clip-path:url(#SVGID_6_);fill:#0D5EA5;}
	.st40{clip-path:url(#SVGID_6_);fill:#0D5DA4;}
	.st41{clip-path:url(#SVGID_6_);fill:#0D5CA3;}
	.st42{clip-path:url(#SVGID_6_);fill:#0E5BA2;}
	.st43{clip-path:url(#SVGID_6_);fill:#0E5AA1;}
	.st44{fill:url(#SVGID_7_);}
	.st45{clip-path:url(#SVGID_9_);fill:#0080C8;}
	.st46{clip-path:url(#SVGID_9_);fill:#007FC7;}
	.st47{clip-path:url(#SVGID_9_);fill:#017EC6;}
	.st48{clip-path:url(#SVGID_9_);fill:#017DC5;}
	.st49{clip-path:url(#SVGID_9_);fill:#017CC4;}
	.st50{clip-path:url(#SVGID_9_);fill:#027BC3;}
	.st51{clip-path:url(#SVGID_9_);fill:#027AC2;}
	.st52{clip-path:url(#SVGID_9_);fill:#0379C1;}
	.st53{clip-path:url(#SVGID_9_);fill:#0378C0;}
	.st54{clip-path:url(#SVGID_9_);fill:#0377BF;}
	.st55{clip-path:url(#SVGID_9_);fill:#0476BE;}
	.st56{clip-path:url(#SVGID_9_);fill:#0475BD;}
	.st57{clip-path:url(#SVGID_9_);fill:#0474BC;}
	.st58{clip-path:url(#SVGID_9_);fill:#0573BB;}
	.st59{clip-path:url(#SVGID_9_);fill:#0572BA;}
	.st60{clip-path:url(#SVGID_9_);fill:#0671B9;}
	.st61{clip-path:url(#SVGID_9_);fill:#0670B8;}
	.st62{clip-path:url(#SVGID_9_);fill:#066FB7;}
	.st63{clip-path:url(#SVGID_9_);fill:#076EB6;}
	.st64{clip-path:url(#SVGID_9_);fill:#076DB5;}
	.st65{clip-path:url(#SVGID_9_);fill:#076CB3;}
	.st66{clip-path:url(#SVGID_9_);fill:#086BB2;}
	.st67{clip-path:url(#SVGID_9_);fill:#086AB1;}
	.st68{clip-path:url(#SVGID_9_);fill:#0869B0;}
	.st69{clip-path:url(#SVGID_9_);fill:#0968AF;}
	.st70{clip-path:url(#SVGID_9_);fill:#0967AE;}
	.st71{clip-path:url(#SVGID_9_);fill:#0A66AD;}
	.st72{clip-path:url(#SVGID_9_);fill:#0A65AC;}
	.st73{clip-path:url(#SVGID_9_);fill:#0A64AB;}
	.st74{clip-path:url(#SVGID_9_);fill:#0B63AA;}
	.st75{clip-path:url(#SVGID_9_);fill:#0B62A9;}
	.st76{clip-path:url(#SVGID_9_);fill:#0B61A8;}
	.st77{clip-path:url(#SVGID_9_);fill:#0C60A7;}
	.st78{clip-path:url(#SVGID_9_);fill:#0C5FA6;}
	.st79{clip-path:url(#SVGID_9_);fill:#0D5EA5;}
	.st80{clip-path:url(#SVGID_9_);fill:#0D5DA4;}
	.st81{clip-path:url(#SVGID_9_);fill:#0D5CA3;}
	.st82{clip-path:url(#SVGID_9_);fill:#0E5BA2;}
	.st83{clip-path:url(#SVGID_9_);fill:#0E5AA1;}
	.st84{fill:url(#SVGID_10_);}
	.st85{clip-path:url(#SVGID_12_);fill:#0080C8;}
	.st86{clip-path:url(#SVGID_12_);fill:#007FC7;}
	.st87{clip-path:url(#SVGID_12_);fill:#017EC6;}
	.st88{clip-path:url(#SVGID_12_);fill:#017DC5;}
	.st89{clip-path:url(#SVGID_12_);fill:#017CC4;}
	.st90{clip-path:url(#SVGID_12_);fill:#027BC3;}
	.st91{clip-path:url(#SVGID_12_);fill:#027AC2;}
	.st92{clip-path:url(#SVGID_12_);fill:#0379C1;}
	.st93{clip-path:url(#SVGID_12_);fill:#0378C0;}
	.st94{clip-path:url(#SVGID_12_);fill:#0377BF;}
	.st95{clip-path:url(#SVGID_12_);fill:#0476BE;}
	.st96{clip-path:url(#SVGID_12_);fill:#0475BD;}
	.st97{clip-path:url(#SVGID_12_);fill:#0474BC;}
	.st98{clip-path:url(#SVGID_12_);fill:#0573BB;}
	.st99{clip-path:url(#SVGID_12_);fill:#0572BA;}
	.st100{clip-path:url(#SVGID_12_);fill:#0671B9;}
	.st101{clip-path:url(#SVGID_12_);fill:#0670B8;}
	.st102{clip-path:url(#SVGID_12_);fill:#066FB7;}
	.st103{clip-path:url(#SVGID_12_);fill:#076EB6;}
	.st104{clip-path:url(#SVGID_12_);fill:#076DB5;}
	.st105{clip-path:url(#SVGID_12_);fill:#076CB3;}
	.st106{clip-path:url(#SVGID_12_);fill:#086BB2;}
	.st107{clip-path:url(#SVGID_12_);fill:#086AB1;}
	.st108{clip-path:url(#SVGID_12_);fill:#0869B0;}
	.st109{clip-path:url(#SVGID_12_);fill:#0968AF;}
	.st110{clip-path:url(#SVGID_12_);fill:#0967AE;}
	.st111{clip-path:url(#SVGID_12_);fill:#0A66AD;}
	.st112{clip-path:url(#SVGID_12_);fill:#0A65AC;}
	.st113{clip-path:url(#SVGID_12_);fill:#0A64AB;}
	.st114{clip-path:url(#SVGID_12_);fill:#0B63AA;}
	.st115{clip-path:url(#SVGID_12_);fill:#0B62A9;}
	.st116{clip-path:url(#SVGID_12_);fill:#0B61A8;}
	.st117{clip-path:url(#SVGID_12_);fill:#0C60A7;}
	.st118{clip-path:url(#SVGID_12_);fill:#0C5FA6;}
	.st119{clip-path:url(#SVGID_12_);fill:#0D5EA5;}
	.st120{clip-path:url(#SVGID_12_);fill:#0D5DA4;}
	.st121{clip-path:url(#SVGID_12_);fill:#0D5CA3;}
	.st122{clip-path:url(#SVGID_12_);fill:#0E5BA2;}
	.st123{clip-path:url(#SVGID_12_);fill:#0E5AA1;}
	.st124{fill:url(#SVGID_13_);}
	.st125{fill:url(#SVGID_14_);}
	.st126{fill:url(#SVGID_15_);}
	.st127{clip-path:url(#SVGID_17_);fill:#0080C8;}
	.st128{clip-path:url(#SVGID_17_);fill:#007FC7;}
	.st129{clip-path:url(#SVGID_17_);fill:#017EC6;}
	.st130{clip-path:url(#SVGID_17_);fill:#017DC5;}
	.st131{clip-path:url(#SVGID_17_);fill:#017CC4;}
	.st132{clip-path:url(#SVGID_17_);fill:#027BC3;}
	.st133{clip-path:url(#SVGID_17_);fill:#027AC2;}
	.st134{clip-path:url(#SVGID_17_);fill:#0379C1;}
	.st135{clip-path:url(#SVGID_17_);fill:#0378C0;}
	.st136{clip-path:url(#SVGID_17_);fill:#0377BF;}
	.st137{clip-path:url(#SVGID_17_);fill:#0476BE;}
	.st138{clip-path:url(#SVGID_17_);fill:#0475BD;}
	.st139{clip-path:url(#SVGID_17_);fill:#0474BC;}
	.st140{clip-path:url(#SVGID_17_);fill:#0573BB;}
	.st141{clip-path:url(#SVGID_17_);fill:#0572BA;}
	.st142{clip-path:url(#SVGID_17_);fill:#0671B9;}
	.st143{clip-path:url(#SVGID_17_);fill:#0670B8;}
	.st144{clip-path:url(#SVGID_17_);fill:#066FB7;}
	.st145{clip-path:url(#SVGID_17_);fill:#076EB6;}
	.st146{clip-path:url(#SVGID_17_);fill:#076DB5;}
	.st147{clip-path:url(#SVGID_17_);fill:#076CB3;}
	.st148{clip-path:url(#SVGID_17_);fill:#086BB2;}
	.st149{clip-path:url(#SVGID_17_);fill:#086AB1;}
	.st150{clip-path:url(#SVGID_17_);fill:#0869B0;}
	.st151{clip-path:url(#SVGID_17_);fill:#0968AF;}
	.st152{clip-path:url(#SVGID_17_);fill:#0967AE;}
	.st153{clip-path:url(#SVGID_17_);fill:#0A66AD;}
	.st154{clip-path:url(#SVGID_17_);fill:#0A65AC;}
	.st155{clip-path:url(#SVGID_17_);fill:#0A64AB;}
	.st156{clip-path:url(#SVGID_17_);fill:#0B63AA;}
	.st157{clip-path:url(#SVGID_17_);fill:#0B62A9;}
	.st158{clip-path:url(#SVGID_17_);fill:#0B61A8;}
	.st159{clip-path:url(#SVGID_17_);fill:#0C60A7;}
	.st160{clip-path:url(#SVGID_17_);fill:#0C5FA6;}
	.st161{clip-path:url(#SVGID_17_);fill:#0D5EA5;}
	.st162{clip-path:url(#SVGID_17_);fill:#0D5DA4;}
	.st163{clip-path:url(#SVGID_17_);fill:#0D5CA3;}
	.st164{clip-path:url(#SVGID_17_);fill:#0E5BA2;}
	.st165{clip-path:url(#SVGID_17_);fill:#0E5AA1;}
	.st166{fill:url(#SVGID_18_);}
	.st167{fill:url(#SVGID_19_);}
	.st168{fill:url(#SVGID_20_);}
	.st169{clip-path:url(#SVGID_22_);fill:#0080C8;}
	.st170{clip-path:url(#SVGID_22_);fill:#007FC7;}
	.st171{clip-path:url(#SVGID_22_);fill:#017EC6;}
	.st172{clip-path:url(#SVGID_22_);fill:#017DC5;}
	.st173{clip-path:url(#SVGID_22_);fill:#017CC4;}
	.st174{clip-path:url(#SVGID_22_);fill:#027BC3;}
	.st175{clip-path:url(#SVGID_22_);fill:#027AC2;}
	.st176{clip-path:url(#SVGID_22_);fill:#0379C1;}
	.st177{clip-path:url(#SVGID_22_);fill:#0378C0;}
	.st178{clip-path:url(#SVGID_22_);fill:#0377BF;}
	.st179{clip-path:url(#SVGID_22_);fill:#0476BE;}
	.st180{clip-path:url(#SVGID_22_);fill:#0475BD;}
	.st181{clip-path:url(#SVGID_22_);fill:#0474BC;}
	.st182{clip-path:url(#SVGID_22_);fill:#0573BB;}
	.st183{clip-path:url(#SVGID_22_);fill:#0572BA;}
	.st184{clip-path:url(#SVGID_22_);fill:#0671B9;}
	.st185{clip-path:url(#SVGID_22_);fill:#0670B8;}
	.st186{clip-path:url(#SVGID_22_);fill:#066FB7;}
	.st187{clip-path:url(#SVGID_22_);fill:#076EB6;}
	.st188{clip-path:url(#SVGID_22_);fill:#076DB5;}
	.st189{clip-path:url(#SVGID_22_);fill:#076CB3;}
	.st190{clip-path:url(#SVGID_22_);fill:#086BB2;}
	.st191{clip-path:url(#SVGID_22_);fill:#086AB1;}
	.st192{clip-path:url(#SVGID_22_);fill:#0869B0;}
	.st193{clip-path:url(#SVGID_22_);fill:#0968AF;}
	.st194{clip-path:url(#SVGID_22_);fill:#0967AE;}
	.st195{clip-path:url(#SVGID_22_);fill:#0A66AD;}
	.st196{clip-path:url(#SVGID_22_);fill:#0A65AC;}
	.st197{clip-path:url(#SVGID_22_);fill:#0A64AB;}
	.st198{clip-path:url(#SVGID_22_);fill:#0B63AA;}
	.st199{clip-path:url(#SVGID_22_);fill:#0B62A9;}
	.st200{clip-path:url(#SVGID_22_);fill:#0B61A8;}
	.st201{clip-path:url(#SVGID_22_);fill:#0C60A7;}
	.st202{clip-path:url(#SVGID_22_);fill:#0C5FA6;}
	.st203{clip-path:url(#SVGID_22_);fill:#0D5EA5;}
	.st204{clip-path:url(#SVGID_22_);fill:#0D5DA4;}
	.st205{clip-path:url(#SVGID_22_);fill:#0D5CA3;}
	.st206{clip-path:url(#SVGID_22_);fill:#0E5BA2;}
	.st207{clip-path:url(#SVGID_22_);fill:#0E5AA1;}
	.st208{opacity:0.2;}
	.st209{fill:url(#SVGID_23_);}
	.st210{fill:url(#SVGID_24_);}
	.st211{fill:url(#SVGID_25_);}
	.st212{fill:url(#SVGID_26_);}
	.st213{fill:url(#SVGID_27_);}
	.st214{fill:url(#SVGID_28_);}
	.st215{fill:url(#SVGID_29_);}
	.st216{fill:url(#SVGID_30_);}
	.st217{fill:url(#SVGID_31_);}
	.st218{fill:url(#SVGID_32_);}
	.st219{fill:url(#SVGID_33_);}
	.st220{fill:url(#SVGID_34_);}
	.st221{fill:url(#SVGID_35_);}
	.st222{fill:url(#SVGID_36_);}
</style>
<g>
	<linearGradient id="SVGID_1_" gradientUnits="userSpaceOnUse" x1="0" y1="64.5" x2="129" y2="64.5">
		<stop  offset="0" style="stop-color:#FFFFFF;stop-opacity:0.1"/>
		<stop  offset="1" style="stop-color:#0080C8;stop-opacity:0.1"/>
	</linearGradient>
	<circle class="st0" cx="64.5" cy="64.5" r="64.5"/>
	<g>
		<linearGradient id="SVGID_2_" gradientUnits="userSpaceOnUse" x1="80.2197" y1="31.6992" x2="113.6396" y2="31.6992">
			<stop  offset="0" style="stop-color:#FFFFFF"/>
			<stop  offset="1" style="stop-color:#0080C8"/>
		</linearGradient>
		<path class="st1" d="M99.7,37.1H81c-0.4,0-0.8-0.3-0.8-0.8s0.3-0.8,0.8-0.8h18.7c1.8,0,2.6-0.6,2.6-3.9c0-4.5,2.4-5.4,4.4-5.4h6.1
			c0.4,0,0.8,0.3,0.8,0.8s-0.3,0.8-0.8,0.8h-6.1c-1.3,0-2.9,0.4-2.9,3.9C103.9,34.4,103.4,37.1,99.7,37.1z"/>
	</g>
	<g>
		<circle class="st2" cx="113.8" cy="27" r="3.9"/>
		<linearGradient id="SVGID_3_" gradientUnits="userSpaceOnUse" x1="111.6585" y1="27.0235" x2="115.8461" y2="27.0235">
			<stop  offset="0" style="stop-color:#0080C8"/>
			<stop  offset="1" style="stop-color:#0E5AA1"/>
		</linearGradient>
		<circle class="st3" cx="113.8" cy="27" r="2.1"/>
	</g>
	<g>
		<g>
			
				<linearGradient id="SVGID_4_" gradientUnits="userSpaceOnUse" x1="1343.3226" y1="-28.073" x2="1364.3802" y2="-28.073" gradientTransform="matrix(-1 0 0 1 1368.6547 62.009)">
				<stop  offset="0" style="stop-color:#FFFFFF"/>
				<stop  offset="1" style="stop-color:#0080C8"/>
			</linearGradient>
			<path class="st4" d="M24.8,39.1H18c-2.8,0-3.9-1.5-3.9-5.2c0-3.7-1.8-4.2-3.2-4.2H4.8c-0.3,0-0.5-0.2-0.5-0.5s0.2-0.5,0.5-0.5
				h6.1c1.9,0,4.2,0.9,4.2,5.2c0,3.5,1,4.2,2.9,4.2h6.9c0.3,0,0.5,0.2,0.5,0.5S25.1,39.1,24.8,39.1z"/>
		</g>
		<g>
			<g>
				<circle class="st2" cx="3.9" cy="29.3" r="3.9"/>
			</g>
			<g>
				<g>
					<defs>
						<circle id="SVGID_5_" cx="3.9" cy="29.3" r="2.1"/>
					</defs>
					<clipPath id="SVGID_6_">
						<use xlink:href="#SVGID_5_"  style="overflow:visible;"/>
					</clipPath>
					<rect x="5.9" y="27.2" class="st5" width="0.1" height="4.2"/>
					<rect x="5.8" y="27.2" class="st6" width="0.1" height="4.2"/>
					<rect x="5.7" y="27.2" class="st7" width="0.1" height="4.2"/>
					<rect x="5.6" y="27.2" class="st8" width="0.1" height="4.2"/>
					<rect x="5.5" y="27.2" class="st9" width="0.1" height="4.2"/>
					<rect x="5.4" y="27.2" class="st10" width="0.1" height="4.2"/>
					<rect x="5.3" y="27.2" class="st11" width="0.1" height="4.2"/>
					<rect x="5.1" y="27.2" class="st12" width="0.1" height="4.2"/>
					<rect x="5" y="27.2" class="st13" width="0.1" height="4.2"/>
					<rect x="4.9" y="27.2" class="st14" width="0.1" height="4.2"/>
					<rect x="4.8" y="27.2" class="st15" width="0.1" height="4.2"/>
					<rect x="4.7" y="27.2" class="st16" width="0.1" height="4.2"/>
					<rect x="4.6" y="27.2" class="st17" width="0.1" height="4.2"/>
					<rect x="4.5" y="27.2" class="st18" width="0.1" height="4.2"/>
					<rect x="4.4" y="27.2" class="st19" width="0.1" height="4.2"/>
					<rect x="4.3" y="27.2" class="st20" width="0.1" height="4.2"/>
					<rect x="4.2" y="27.2" class="st21" width="0.1" height="4.2"/>
					<rect x="4.1" y="27.2" class="st22" width="0.1" height="4.2"/>
					<rect x="4" y="27.2" class="st23" width="0.1" height="4.2"/>
					<rect x="3.9" y="27.2" class="st24" width="0.1" height="4.2"/>
					<rect x="3.8" y="27.2" class="st25" width="0.1" height="4.2"/>
					<rect x="3.6" y="27.2" class="st26" width="0.1" height="4.2"/>
					<rect x="3.5" y="27.2" class="st27" width="0.1" height="4.2"/>
					<rect x="3.4" y="27.2" class="st28" width="0.1" height="4.2"/>
					<rect x="3.3" y="27.2" class="st29" width="0.1" height="4.2"/>
					<rect x="3.2" y="27.2" class="st30" width="0.1" height="4.2"/>
					<rect x="3.1" y="27.2" class="st31" width="0.1" height="4.2"/>
					<rect x="3" y="27.2" class="st32" width="0.1" height="4.2"/>
					<rect x="2.9" y="27.2" class="st33" width="0.1" height="4.2"/>
					<rect x="2.8" y="27.2" class="st34" width="0.1" height="4.2"/>
					<rect x="2.7" y="27.2" class="st35" width="0.1" height="4.2"/>
					<rect x="2.6" y="27.2" class="st36" width="0.1" height="4.2"/>
					<rect x="2.5" y="27.2" class="st37" width="0.1" height="4.2"/>
					<rect x="2.4" y="27.2" class="st38" width="0.1" height="4.2"/>
					<rect x="2.2" y="27.2" class="st39" width="0.1" height="4.2"/>
					<rect x="2.1" y="27.2" class="st40" width="0.1" height="4.2"/>
					<rect x="2" y="27.2" class="st41" width="0.1" height="4.2"/>
					<rect x="1.9" y="27.2" class="st42" width="0.1" height="4.2"/>
					<rect x="1.8" y="27.2" class="st43" width="0.1" height="4.2"/>
					<path class="st43" d="M1.8,27.2v4.2V27.2z"/>
				</g>
			</g>
		</g>
	</g>
	<g>
		<g>
			
				<linearGradient id="SVGID_7_" gradientUnits="userSpaceOnUse" x1="-105.6799" y1="69.8981" x2="-78.6828" y2="69.8981" gradientTransform="matrix(1 0 0 -1 184.5607 164.4532)">
				<stop  offset="0" style="stop-color:#FFFFFF"/>
				<stop  offset="1" style="stop-color:#0080C8"/>
			</linearGradient>
			<path class="st44" d="M105.4,99.7h-6.1c-1.9,0-4.2-0.9-4.2-5.2c0-3.5-1-4.2-2.9-4.2H79.4c-0.3,0-0.5-0.2-0.5-0.5s0.2-0.5,0.5-0.5
				h12.8c2.8,0,3.9,1.5,3.9,5.2c0,3.7,1.8,4.2,3.2,4.2h6.1c0.3,0,0.5,0.2,0.5,0.5S105.7,99.7,105.4,99.7z"/>
		</g>
		<g>
			<g>
				<circle class="st2" cx="106.2" cy="99.2" r="3.9"/>
			</g>
			<g>
				<g>
					<defs>
						<circle id="SVGID_8_" cx="106.2" cy="99.2" r="2.1"/>
					</defs>
					<clipPath id="SVGID_9_">
						<use xlink:href="#SVGID_8_"  style="overflow:visible;"/>
					</clipPath>
					<path class="st45" d="M104.1,97.1v4.2V97.1z"/>
					<rect x="104.1" y="97.1" class="st45" width="0.1" height="4.2"/>
					<rect x="104.3" y="97.1" class="st46" width="0.1" height="4.2"/>
					<rect x="104.4" y="97.1" class="st47" width="0.1" height="4.2"/>
					<rect x="104.5" y="97.1" class="st48" width="0.1" height="4.2"/>
					<rect x="104.6" y="97.1" class="st49" width="0.1" height="4.2"/>
					<rect x="104.7" y="97.1" class="st50" width="0.1" height="4.2"/>
					<rect x="104.8" y="97.1" class="st51" width="0.1" height="4.2"/>
					<rect x="104.9" y="97.1" class="st52" width="0.1" height="4.2"/>
					<rect x="105" y="97.1" class="st53" width="0.1" height="4.2"/>
					<rect x="105.1" y="97.1" class="st54" width="0.1" height="4.2"/>
					<rect x="105.2" y="97.1" class="st55" width="0.1" height="4.2"/>
					<rect x="105.3" y="97.1" class="st56" width="0.1" height="4.2"/>
					<rect x="105.4" y="97.1" class="st57" width="0.1" height="4.2"/>
					<rect x="105.5" y="97.1" class="st58" width="0.1" height="4.2"/>
					<rect x="105.7" y="97.1" class="st59" width="0.1" height="4.2"/>
					<rect x="105.8" y="97.1" class="st60" width="0.1" height="4.2"/>
					<rect x="105.9" y="97.1" class="st61" width="0.1" height="4.2"/>
					<rect x="106" y="97.1" class="st62" width="0.1" height="4.2"/>
					<rect x="106.1" y="97.1" class="st63" width="0.1" height="4.2"/>
					<rect x="106.2" y="97.1" class="st64" width="0.1" height="4.2"/>
					<rect x="106.3" y="97.1" class="st65" width="0.1" height="4.2"/>
					<rect x="106.4" y="97.1" class="st66" width="0.1" height="4.2"/>
					<rect x="106.5" y="97.1" class="st67" width="0.1" height="4.2"/>
					<rect x="106.6" y="97.1" class="st68" width="0.1" height="4.2"/>
					<rect x="106.7" y="97.1" class="st69" width="0.1" height="4.2"/>
					<rect x="106.8" y="97.1" class="st70" width="0.1" height="4.2"/>
					<rect x="106.9" y="97.1" class="st71" width="0.1" height="4.2"/>
					<rect x="107" y="97.1" class="st72" width="0.1" height="4.2"/>
					<rect x="107.2" y="97.1" class="st73" width="0.1" height="4.2"/>
					<rect x="107.3" y="97.1" class="st74" width="0.1" height="4.2"/>
					<rect x="107.4" y="97.1" class="st75" width="0.1" height="4.2"/>
					<rect x="107.5" y="97.1" class="st76" width="0.1" height="4.2"/>
					<rect x="107.6" y="97.1" class="st77" width="0.1" height="4.2"/>
					<rect x="107.7" y="97.1" class="st78" width="0.1" height="4.2"/>
					<rect x="107.8" y="97.1" class="st79" width="0.1" height="4.2"/>
					<rect x="107.9" y="97.1" class="st80" width="0.1" height="4.2"/>
					<rect x="108" y="97.1" class="st81" width="0.1" height="4.2"/>
					<rect x="108.1" y="97.1" class="st82" width="0.1" height="4.2"/>
					<rect x="108.2" y="97.1" class="st83" width="0.1" height="4.2"/>
					<path class="st83" d="M108.3,101.3v-4.2V101.3z"/>
				</g>
			</g>
		</g>
	</g>
	<g>
		<g>
			
				<linearGradient id="SVGID_10_" gradientUnits="userSpaceOnUse" x1="1461.3462" y1="191.5721" x2="1486.3052" y2="191.5721" gradientTransform="matrix(-1 0 0 -1 1529.2134 304.285)">
				<stop  offset="0" style="stop-color:#FFFFFF"/>
				<stop  offset="1" style="stop-color:#0080C8"/>
			</linearGradient>
			<path class="st84" d="M49.8,118.1h-6.1c-0.4,0-0.8-0.3-0.8-0.8s0.3-0.8,0.8-0.8h6.1c1.3,0,2.9-0.4,2.9-3.9c0-3.5,1.8-5.4,5-5.4
				h9.4c0.4,0,0.8,0.3,0.8,0.8s-0.3,0.8-0.8,0.8h-9.4c-2.4,0-3.5,1.3-3.5,3.9C54.2,117.2,51.8,118.1,49.8,118.1z"/>
		</g>
		<g>
			<g>
				<circle class="st2" cx="42.7" cy="117.2" r="3.9"/>
			</g>
			<g>
				<g>
					<defs>
						<circle id="SVGID_11_" cx="42.7" cy="117.2" r="2.1"/>
					</defs>
					<clipPath id="SVGID_12_">
						<use xlink:href="#SVGID_11_"  style="overflow:visible;"/>
					</clipPath>
					<path class="st85" d="M40.7,115.1v4.2V115.1z"/>
					<rect x="40.7" y="115.1" class="st85" width="0.1" height="4.2"/>
					<rect x="40.8" y="115.1" class="st86" width="0.1" height="4.2"/>
					<rect x="40.9" y="115.1" class="st87" width="0.1" height="4.2"/>
					<rect x="41" y="115.1" class="st88" width="0.1" height="4.2"/>
					<rect x="41.1" y="115.1" class="st89" width="0.1" height="4.2"/>
					<rect x="41.2" y="115.1" class="st90" width="0.1" height="4.2"/>
					<rect x="41.3" y="115.1" class="st91" width="0.1" height="4.2"/>
					<rect x="41.4" y="115.1" class="st92" width="0.1" height="4.2"/>
					<rect x="41.5" y="115.1" class="st93" width="0.1" height="4.2"/>
					<rect x="41.6" y="115.1" class="st94" width="0.1" height="4.2"/>
					<rect x="41.7" y="115.1" class="st95" width="0.1" height="4.2"/>
					<rect x="41.8" y="115.1" class="st96" width="0.1" height="4.2"/>
					<rect x="41.9" y="115.1" class="st97" width="0.1" height="4.2"/>
					<rect x="42" y="115.1" class="st98" width="0.1" height="4.2"/>
					<rect x="42.2" y="115.1" class="st99" width="0.1" height="4.2"/>
					<rect x="42.3" y="115.1" class="st100" width="0.1" height="4.2"/>
					<rect x="42.4" y="115.1" class="st101" width="0.1" height="4.2"/>
					<rect x="42.5" y="115.1" class="st102" width="0.1" height="4.2"/>
					<rect x="42.6" y="115.1" class="st103" width="0.1" height="4.2"/>
					<rect x="42.7" y="115.1" class="st104" width="0.1" height="4.2"/>
					<rect x="42.8" y="115.1" class="st105" width="0.1" height="4.2"/>
					<rect x="42.9" y="115.1" class="st106" width="0.1" height="4.2"/>
					<rect x="43" y="115.1" class="st107" width="0.1" height="4.2"/>
					<rect x="43.1" y="115.1" class="st108" width="0.1" height="4.2"/>
					<rect x="43.2" y="115.1" class="st109" width="0.1" height="4.2"/>
					<rect x="43.3" y="115.1" class="st110" width="0.1" height="4.2"/>
					<rect x="43.4" y="115.1" class="st111" width="0.1" height="4.2"/>
					<rect x="43.6" y="115.1" class="st112" width="0.1" height="4.2"/>
					<rect x="43.7" y="115.1" class="st113" width="0.1" height="4.2"/>
					<rect x="43.8" y="115.1" class="st114" width="0.1" height="4.2"/>
					<rect x="43.9" y="115.1" class="st115" width="0.1" height="4.2"/>
					<rect x="44" y="115.1" class="st116" width="0.1" height="4.2"/>
					<rect x="44.1" y="115.1" class="st117" width="0.1" height="4.2"/>
					<rect x="44.2" y="115.1" class="st118" width="0.1" height="4.2"/>
					<rect x="44.3" y="115.1" class="st119" width="0.1" height="4.2"/>
					<rect x="44.4" y="115.1" class="st120" width="0.1" height="4.2"/>
					<rect x="44.5" y="115.1" class="st121" width="0.1" height="4.2"/>
					<rect x="44.6" y="115.1" class="st122" width="0.1" height="4.2"/>
					<rect x="44.7" y="115.1" class="st123" width="0.1" height="4.2"/>
					<path class="st123" d="M44.8,119.3v-4.2V119.3z"/>
				</g>
			</g>
		</g>
	</g>
	<g>
		<g>
			<g>
				<linearGradient id="SVGID_13_" gradientUnits="userSpaceOnUse" x1="11.1288" y1="76.576" x2="25.98" y2="76.576">
					<stop  offset="0" style="stop-color:#0080C8"/>
					<stop  offset="1" style="stop-color:#FFFFFF"/>
				</linearGradient>
				<path class="st124" d="M25.5,77.1c-0.1,0-0.3-0.1-0.4-0.2S25,76.7,25,76.6c0-0.1,0-0.1,0-0.2c0-0.1,0.1-0.1,0.1-0.2
					c0,0,0.1-0.1,0.2-0.1c0.1,0,0.3,0,0.4,0c0.1,0,0.1,0.1,0.2,0.1c0.1,0.1,0.1,0.2,0.1,0.4c0,0.1-0.1,0.3-0.1,0.3
					C25.7,77,25.6,77.1,25.5,77.1z"/>
			</g>
			<g>
				<linearGradient id="SVGID_14_" gradientUnits="userSpaceOnUse" x1="12.6942" y1="76.5801" x2="25.6213" y2="76.5801">
					<stop  offset="0" style="stop-color:#0080C8"/>
					<stop  offset="1" style="stop-color:#FFFFFF"/>
				</linearGradient>
				<path class="st125" d="M22.2,76.6c0-0.3,0.2-0.5,0.5-0.5l0,0c0.3,0,0.5,0.2,0.5,0.5l0,0c0,0.3-0.2,0.5-0.5,0.5l0,0
					C22.4,77.1,22.2,76.8,22.2,76.6z M19.4,76.6c0-0.3,0.2-0.5,0.5-0.5l0,0c0.3,0,0.5,0.2,0.5,0.5l0,0c0,0.3-0.2,0.5-0.5,0.5l0,0
					C19.7,77.1,19.4,76.8,19.4,76.6z M16.7,76.6c0-0.3,0.2-0.5,0.5-0.5l0,0c0.3,0,0.5,0.2,0.5,0.5l0,0c0,0.3-0.2,0.5-0.5,0.5l0,0
					C16.9,77.1,16.7,76.8,16.7,76.6z M13.9,76.6c0-0.3,0.2-0.5,0.5-0.5l0,0c0.3,0,0.5,0.2,0.5,0.5l0,0c0,0.3-0.2,0.5-0.5,0.5l0,0
					C14.1,77.1,13.9,76.8,13.9,76.6z"/>
			</g>
			<g>
				<linearGradient id="SVGID_15_" gradientUnits="userSpaceOnUse" x1="11.1299" y1="76.5781" x2="25.981" y2="76.5781">
					<stop  offset="0" style="stop-color:#0080C8"/>
					<stop  offset="1" style="stop-color:#FFFFFF"/>
				</linearGradient>
				<path class="st126" d="M11.6,77.1c-0.1,0-0.3-0.1-0.4-0.2c-0.1-0.1-0.1-0.2-0.1-0.3s0.1-0.3,0.1-0.4c0,0,0.1-0.1,0.2-0.1
					c0.2-0.1,0.4,0,0.5,0.1c0.1,0.1,0.1,0.2,0.1,0.4c0,0.1-0.1,0.3-0.1,0.3c0,0-0.1,0.1-0.2,0.1C11.8,77.1,11.7,77.1,11.6,77.1z"/>
			</g>
		</g>
		<g>
			<g>
				<g>
					<defs>
						<circle id="SVGID_16_" cx="10.3" cy="76.6" r="2.9"/>
					</defs>
					<clipPath id="SVGID_17_">
						<use xlink:href="#SVGID_16_"  style="overflow:visible;"/>
					</clipPath>
					<path class="st127" d="M7.4,73.7v5.8V73.7z"/>
					<rect x="7.4" y="73.7" class="st127" width="0.1" height="5.8"/>
					<rect x="7.5" y="73.7" class="st128" width="0.1" height="5.8"/>
					<rect x="7.7" y="73.7" class="st129" width="0.1" height="5.8"/>
					<rect x="7.8" y="73.7" class="st130" width="0.1" height="5.8"/>
					<rect x="8" y="73.7" class="st131" width="0.1" height="5.8"/>
					<rect x="8.1" y="73.7" class="st132" width="0.1" height="5.8"/>
					<rect x="8.3" y="73.7" class="st133" width="0.1" height="5.8"/>
					<rect x="8.4" y="73.7" class="st134" width="0.1" height="5.8"/>
					<rect x="8.6" y="73.7" class="st135" width="0.1" height="5.8"/>
					<rect x="8.7" y="73.7" class="st136" width="0.1" height="5.8"/>
					<rect x="8.9" y="73.7" class="st137" width="0.1" height="5.8"/>
					<rect x="9" y="73.7" class="st138" width="0.1" height="5.8"/>
					<rect x="9.2" y="73.7" class="st139" width="0.1" height="5.8"/>
					<rect x="9.3" y="73.7" class="st140" width="0.1" height="5.8"/>
					<rect x="9.4" y="73.7" class="st141" width="0.1" height="5.8"/>
					<rect x="9.6" y="73.7" class="st142" width="0.1" height="5.8"/>
					<rect x="9.7" y="73.7" class="st143" width="0.1" height="5.8"/>
					<rect x="9.9" y="73.7" class="st144" width="0.1" height="5.8"/>
					<rect x="10" y="73.7" class="st145" width="0.1" height="5.8"/>
					<rect x="10.2" y="73.7" class="st146" width="0.1" height="5.8"/>
					<rect x="10.3" y="73.7" class="st147" width="0.1" height="5.8"/>
					<rect x="10.5" y="73.7" class="st148" width="0.1" height="5.8"/>
					<rect x="10.6" y="73.7" class="st149" width="0.1" height="5.8"/>
					<rect x="10.8" y="73.7" class="st150" width="0.1" height="5.8"/>
					<rect x="10.9" y="73.7" class="st151" width="0.1" height="5.8"/>
					<rect x="11.1" y="73.7" class="st152" width="0.1" height="5.8"/>
					<rect x="11.2" y="73.7" class="st153" width="0.1" height="5.8"/>
					<rect x="11.4" y="73.7" class="st154" width="0.1" height="5.8"/>
					<rect x="11.5" y="73.7" class="st155" width="0.1" height="5.8"/>
					<rect x="11.7" y="73.7" class="st156" width="0.1" height="5.8"/>
					<rect x="11.8" y="73.7" class="st157" width="0.1" height="5.8"/>
					<rect x="12" y="73.7" class="st158" width="0.1" height="5.8"/>
					<rect x="12.1" y="73.7" class="st159" width="0.1" height="5.8"/>
					<rect x="12.3" y="73.7" class="st160" width="0.1" height="5.8"/>
					<rect x="12.4" y="73.7" class="st161" width="0.1" height="5.8"/>
					<rect x="12.6" y="73.7" class="st162" width="0.1" height="5.8"/>
					<rect x="12.7" y="73.7" class="st163" width="0.1" height="5.8"/>
					<rect x="12.9" y="73.7" class="st164" width="0.1" height="5.8"/>
					<rect x="13" y="73.7" class="st165" width="0.1" height="5.8"/>
					<path class="st165" d="M13.2,79.5v-5.8V79.5z"/>
				</g>
			</g>
			<g>
				<circle class="st2" cx="10.3" cy="76.6" r="1.6"/>
			</g>
		</g>
	</g>
	<g>
		<g>
			<g>
				<linearGradient id="SVGID_18_" gradientUnits="userSpaceOnUse" x1="121.1155" y1="61.1204" x2="104.7295" y2="61.1204">
					<stop  offset="0" style="stop-color:#0080C8"/>
					<stop  offset="1" style="stop-color:#FFFFFF"/>
				</linearGradient>
				<path class="st166" d="M105.2,61.6c-0.1,0-0.1,0-0.2,0c-0.1,0-0.1-0.1-0.2-0.1c-0.1-0.1-0.2-0.2-0.2-0.4c0-0.1,0.1-0.3,0.2-0.4
					c0.1-0.1,0.4-0.2,0.5-0.1c0.1,0,0.1,0.1,0.2,0.1c0,0.1,0.1,0.1,0.1,0.2c0,0.1,0,0.1,0,0.2c0,0.1,0,0.1,0,0.2
					c0,0.1-0.1,0.1-0.1,0.2c0,0.1-0.1,0.1-0.2,0.1C105.4,61.6,105.3,61.6,105.2,61.6z"/>
			</g>
			<g>
				<linearGradient id="SVGID_19_" gradientUnits="userSpaceOnUse" x1="119.3774" y1="61.1196" x2="105.1349" y2="61.1196">
					<stop  offset="0" style="stop-color:#0080C8"/>
					<stop  offset="1" style="stop-color:#FFFFFF"/>
				</linearGradient>
				<path class="st167" d="M117,61.1c0-0.3,0.2-0.5,0.5-0.5l0,0c0.3,0,0.5,0.2,0.5,0.5l0,0c0,0.3-0.2,0.5-0.5,0.5l0,0
					C117.3,61.6,117,61.4,117,61.1z M114,61.1c0-0.3,0.2-0.5,0.5-0.5l0,0c0.3,0,0.5,0.2,0.5,0.5l0,0c0,0.3-0.2,0.5-0.5,0.5l0,0
					C114.2,61.6,114,61.4,114,61.1z M110.9,61.1c0-0.3,0.2-0.5,0.5-0.5l0,0c0.3,0,0.5,0.2,0.5,0.5l0,0c0,0.3-0.2,0.5-0.5,0.5l0,0
					C111.1,61.6,110.9,61.4,110.9,61.1z M107.8,61.1c0-0.3,0.2-0.5,0.5-0.5l0,0c0.3,0,0.5,0.2,0.5,0.5l0,0c0,0.3-0.2,0.5-0.5,0.5
					l0,0C108,61.6,107.8,61.4,107.8,61.1z"/>
			</g>
			<g>
				<linearGradient id="SVGID_20_" gradientUnits="userSpaceOnUse" x1="121.1201" y1="61.1204" x2="104.7341" y2="61.1204">
					<stop  offset="0" style="stop-color:#0080C8"/>
					<stop  offset="1" style="stop-color:#FFFFFF"/>
				</linearGradient>
				<path class="st168" d="M120.6,61.6c-0.1,0-0.1,0-0.2,0c-0.1,0-0.1-0.1-0.2-0.1c-0.1-0.1-0.1-0.2-0.1-0.4c0-0.1,0-0.3,0.1-0.4
					c0,0,0.1-0.1,0.2-0.1c0.2-0.1,0.4,0,0.5,0.1c0.1,0.1,0.2,0.2,0.2,0.4c0,0.1-0.1,0.3-0.2,0.4C120.9,61.6,120.8,61.6,120.6,61.6z"
					/>
			</g>
		</g>
		<g>
			<g>
				<g>
					<defs>
						<circle id="SVGID_21_" cx="122" cy="61.1" r="2.9"/>
					</defs>
					<clipPath id="SVGID_22_">
						<use xlink:href="#SVGID_21_"  style="overflow:visible;"/>
					</clipPath>
					<path class="st169" d="M124.9,64v-5.8V64z"/>
					<rect x="124.7" y="58.2" class="st169" width="0.1" height="5.8"/>
					<rect x="124.6" y="58.2" class="st170" width="0.1" height="5.8"/>
					<rect x="124.4" y="58.2" class="st171" width="0.1" height="5.8"/>
					<rect x="124.3" y="58.2" class="st172" width="0.1" height="5.8"/>
					<rect x="124.1" y="58.2" class="st173" width="0.1" height="5.8"/>
					<rect x="124" y="58.2" class="st174" width="0.1" height="5.8"/>
					<rect x="123.8" y="58.2" class="st175" width="0.1" height="5.8"/>
					<rect x="123.7" y="58.2" class="st176" width="0.1" height="5.8"/>
					<rect x="123.5" y="58.2" class="st177" width="0.1" height="5.8"/>
					<rect x="123.4" y="58.2" class="st178" width="0.1" height="5.8"/>
					<rect x="123.2" y="58.2" class="st179" width="0.1" height="5.8"/>
					<rect x="123.1" y="58.2" class="st180" width="0.1" height="5.8"/>
					<rect x="123" y="58.2" class="st181" width="0.1" height="5.8"/>
					<rect x="122.8" y="58.2" class="st182" width="0.1" height="5.8"/>
					<rect x="122.7" y="58.2" class="st183" width="0.1" height="5.8"/>
					<rect x="122.5" y="58.2" class="st184" width="0.1" height="5.8"/>
					<rect x="122.4" y="58.2" class="st185" width="0.1" height="5.8"/>
					<rect x="122.2" y="58.2" class="st186" width="0.1" height="5.8"/>
					<rect x="122.1" y="58.2" class="st187" width="0.1" height="5.8"/>
					<rect x="121.9" y="58.2" class="st188" width="0.1" height="5.8"/>
					<rect x="121.8" y="58.2" class="st189" width="0.1" height="5.8"/>
					<rect x="121.6" y="58.2" class="st190" width="0.1" height="5.8"/>
					<rect x="121.5" y="58.2" class="st191" width="0.1" height="5.8"/>
					<rect x="121.3" y="58.2" class="st192" width="0.1" height="5.8"/>
					<rect x="121.2" y="58.2" class="st193" width="0.1" height="5.8"/>
					<rect x="121" y="58.2" class="st194" width="0.1" height="5.8"/>
					<rect x="120.9" y="58.2" class="st195" width="0.1" height="5.8"/>
					<rect x="120.7" y="58.2" class="st196" width="0.1" height="5.8"/>
					<rect x="120.6" y="58.2" class="st197" width="0.1" height="5.8"/>
					<rect x="120.4" y="58.2" class="st198" width="0.1" height="5.8"/>
					<rect x="120.3" y="58.2" class="st199" width="0.1" height="5.8"/>
					<rect x="120.1" y="58.2" class="st200" width="0.1" height="5.8"/>
					<rect x="120" y="58.2" class="st201" width="0.1" height="5.8"/>
					<rect x="119.8" y="58.2" class="st202" width="0.1" height="5.8"/>
					<rect x="119.7" y="58.2" class="st203" width="0.1" height="5.8"/>
					<rect x="119.5" y="58.2" class="st204" width="0.1" height="5.8"/>
					<rect x="119.4" y="58.2" class="st205" width="0.1" height="5.8"/>
					<rect x="119.2" y="58.2" class="st206" width="0.1" height="5.8"/>
					<rect x="119.1" y="58.2" class="st207" width="0.1" height="5.8"/>
					<path class="st207" d="M119.1,58.2V64V58.2z"/>
				</g>
			</g>
			<g>
				<circle class="st2" cx="122" cy="61.1" r="1.6"/>
			</g>
		</g>
	</g>
	<g>
		<g class="st208">
			<linearGradient id="SVGID_23_" gradientUnits="userSpaceOnUse" x1="27.3155" y1="64.5" x2="102.3291" y2="64.5">
				<stop  offset="0" style="stop-color:#0080C8"/>
				<stop  offset="1" style="stop-color:#0E5AA1"/>
			</linearGradient>
			<path class="st209" d="M98.4,45.5H76.5V31.6c0-2.6-2-4.6-4.4-4.6H31.9c-2.6,0-4.6,2-4.6,4.6v65.8c0,2.6,2,4.6,4.6,4.6H72
				c2.5,0,4.6-2,4.6-4.6V83.5h21.9c2.1,0,3.9-1.8,3.9-3.9V49.4C102.2,47.3,100.5,45.5,98.4,45.5z M100,49.4v4.1H67.5
				c-0.4-2.1-1.2-4-2.3-5.6h33.2C99.3,47.8,100,48.5,100,49.4z M45.2,55.3c0-5.5,4.6-10.1,10.1-10.1s10.1,4.6,10.1,10.1
				s-4.6,10.1-10.1,10.1C49.8,65.3,45.2,60.8,45.2,55.3z M67.6,55.7h32.3v3.9h-33C67.3,58.3,67.6,57,67.6,55.7z M31.9,29.3H72
				c1.3,0,2.2,1.1,2.2,2.2v5.4H29.5v-5.3C29.5,30.3,30.6,29.3,31.9,29.3z M72,99.7H31.9c-1.3,0-2.2-1.1-2.2-2.2v-5.4h44.7v5.4
				C74.2,98.7,73.2,99.7,72,99.7z M74.2,89.8H29.5V39.2h44.7v6.2H62.9c-2.1-1.6-4.7-2.6-7.6-2.6c-6.8,0-12.3,5.5-12.3,12.4
				c0,4.1,2.1,7.8,5.1,10.1v14.3c0,2.1,1.8,3.9,3.9,3.9h22.2V89.8z M98.4,81.2H52c-0.8,0-1.5-0.7-1.5-1.5V66.6
				c1.5,0.7,3.2,1.1,4.9,1.1c4.4,0,8.2-2.3,10.4-5.7h34.3v17.8C100,80.5,99.3,81.2,98.4,81.2z"/>
			<linearGradient id="SVGID_24_" gradientUnits="userSpaceOnUse" x1="81.7326" y1="73.0429" x2="95.5416" y2="73.0429">
				<stop  offset="0" style="stop-color:#0080C8"/>
				<stop  offset="1" style="stop-color:#0E5AA1"/>
			</linearGradient>
			<path class="st210" d="M91.2,68.7c-0.9,0-1.8,0.4-2.6,0.8c-0.7-0.5-1.6-0.8-2.6-0.8c-2.5,0-4.3,2-4.3,4.3s2,4.3,4.3,4.3
				c0.9,0,1.9-0.4,2.6-0.8c0.7,0.6,1.6,0.8,2.6,0.8c2.5,0,4.3-2,4.3-4.3S93.6,68.7,91.2,68.7z M84,73c0-1.2,0.9-2.1,2.1-2.1
				s2.1,0.9,2.1,2.1s-0.9,2.1-2.1,2.1S84,74.2,84,73z M91.2,75.3c-0.4,0-0.8-0.1-1.1-0.4c0.2-0.6,0.4-1.2,0.4-1.8s-0.1-1.3-0.4-1.8
				c0.4-0.2,0.7-0.4,1.1-0.4c1.2,0,2.1,0.9,2.1,2.1S92.4,75.3,91.2,75.3z"/>
			<linearGradient id="SVGID_25_" gradientUnits="userSpaceOnUse" x1="56.455" y1="70.3513" x2="73.3067" y2="70.3513">
				<stop  offset="0" style="stop-color:#0080C8"/>
				<stop  offset="1" style="stop-color:#0E5AA1"/>
			</linearGradient>
			<path class="st211" d="M57.6,71.5h14.5c0.6,0,1.2-0.5,1.2-1.2c0-0.6-0.5-1.2-1.2-1.2H57.6c-0.6,0-1.2,0.5-1.2,1.2
				C56.5,71.1,56.9,71.5,57.6,71.5z"/>
			<linearGradient id="SVGID_26_" gradientUnits="userSpaceOnUse" x1="56.455" y1="75.8515" x2="80.2112" y2="75.8515">
				<stop  offset="0" style="stop-color:#0080C8"/>
				<stop  offset="1" style="stop-color:#0E5AA1"/>
			</linearGradient>
			<path class="st212" d="M79,74.7H57.6c-0.6,0-1.2,0.5-1.2,1.2c0,0.7,0.5,1.2,1.2,1.2H79c0.6,0,1.2-0.5,1.2-1.2
				C80.2,75.1,79.6,74.7,79,74.7z"/>
			<linearGradient id="SVGID_27_" gradientUnits="userSpaceOnUse" x1="48.7313" y1="55.3135" x2="61.7504" y2="55.3135">
				<stop  offset="0" style="stop-color:#0080C8"/>
				<stop  offset="1" style="stop-color:#0E5AA1"/>
			</linearGradient>
			<path class="st213" d="M61.5,50.9c-0.5-0.5-1.2-0.5-1.6,0l-6.3,6.3l-2.8-2.8c-0.5-0.5-1.2-0.5-1.6,0c-0.5,0.5-0.5,1.2,0,1.6
				l3.6,3.6c0.2,0.2,0.5,0.4,0.8,0.4c0.4,0,0.6-0.1,0.8-0.4l7.1-7.1C61.8,52.1,61.8,51.3,61.5,50.9z"/>
			<linearGradient id="SVGID_28_" gradientUnits="userSpaceOnUse" x1="47.678" y1="95.8629" x2="56.2209" y2="95.8629">
				<stop  offset="0" style="stop-color:#0080C8"/>
				<stop  offset="1" style="stop-color:#0E5AA1"/>
			</linearGradient>
			<path class="st214" d="M55.1,94.7h-6.2c-0.6,0-1.2,0.5-1.2,1.2s0.5,1.2,1.2,1.2h6.2c0.6,0,1.2-0.5,1.2-1.2S55.6,94.7,55.1,94.7z"
				/>
			<linearGradient id="SVGID_29_" gradientUnits="userSpaceOnUse" x1="46.6248" y1="33.1371" x2="48.9653" y2="33.1371">
				<stop  offset="0" style="stop-color:#0080C8"/>
				<stop  offset="1" style="stop-color:#0E5AA1"/>
			</linearGradient>
			<path class="st215" d="M48.6,34c0.5-0.5,0.5-1.2,0-1.6c-0.5-0.5-1.2-0.5-1.6,0c-0.5,0.5-0.5,1.2,0,1.6
				C47.4,34.4,48.1,34.4,48.6,34z"/>
			<linearGradient id="SVGID_30_" gradientUnits="userSpaceOnUse" x1="50.7207" y1="33.181" x2="53.0612" y2="33.181">
				<stop  offset="0" style="stop-color:#0080C8"/>
				<stop  offset="1" style="stop-color:#0E5AA1"/>
			</linearGradient>
			<path class="st216" d="M52.7,34c0.5-0.5,0.5-1.2,0-1.6c-0.5-0.4-1.2-0.4-1.6,0c-0.5,0.5-0.5,1.2,0,1.6
				C51.5,34.4,52.2,34.4,52.7,34z"/>
			<linearGradient id="SVGID_31_" gradientUnits="userSpaceOnUse" x1="54.8166" y1="33.1371" x2="57.1571" y2="33.1371">
				<stop  offset="0" style="stop-color:#0080C8"/>
				<stop  offset="1" style="stop-color:#0E5AA1"/>
			</linearGradient>
			<path class="st217" d="M56.8,34c0.5-0.5,0.5-1.2,0-1.6c-0.5-0.5-1.2-0.5-1.6,0c-0.5,0.5-0.5,1.2,0,1.6
				C55.6,34.4,56.3,34.4,56.8,34z"/>
		</g>
		<g>
			<linearGradient id="SVGID_32_" gradientUnits="userSpaceOnUse" x1="40.6975" y1="63.1233" x2="110.1293" y2="63.1233">
				<stop  offset="0" style="stop-color:#0080C8"/>
				<stop  offset="1" style="stop-color:#0E5AA1"/>
			</linearGradient>
			<path class="st218" d="M98.4,45.4H62.9c-2.1-1.6-4.7-2.6-7.6-2.6c-6.8,0-12.3,5.5-12.3,12.4c0,4.1,2.1,7.8,5.1,10.1v14.3
				c0,2.1,1.8,3.9,3.9,3.9h46.5c2.1,0,3.9-1.8,3.9-3.9V49.4C102.2,47.3,100.5,45.4,98.4,45.4z M98.4,47.9c0.9-0.1,1.6,0.6,1.6,1.5
				v4.1H67.5c-0.4-2.1-1.2-4-2.3-5.6H98.4z M99.9,55.7v3.9h-33c0.5-1.3,0.7-2.6,0.7-3.9H99.9z M45.2,55.2c0-5.5,4.6-10.1,10.1-10.1
				s10.1,4.6,10.1,10.1s-4.6,10.1-10.1,10.1S45.2,60.7,45.2,55.2z M100.1,79.7c-0.1,0.8-0.8,1.5-1.8,1.5H52c-0.8,0-1.5-0.7-1.5-1.5
				V66.6c1.5,0.7,3.2,1.1,4.9,1.1c4.4,0,8.2-2.3,10.4-5.7h34.3V79.7z"/>
			<linearGradient id="SVGID_33_" gradientUnits="userSpaceOnUse" x1="40.6975" y1="73.0122" x2="110.1293" y2="73.0122">
				<stop  offset="0" style="stop-color:#0080C8"/>
				<stop  offset="1" style="stop-color:#0E5AA1"/>
			</linearGradient>
			<path class="st219" d="M91.2,68.7c-0.9,0-1.8,0.4-2.6,0.8c-0.7-0.5-1.6-0.8-2.6-0.8c-2.5,0-4.3,2-4.3,4.3c0,2.3,2,4.3,4.3,4.3
				c0.9,0,1.9-0.4,2.6-0.8c0.7,0.6,1.6,0.8,2.6,0.8c2.5,0,4.3-2,4.3-4.3C95.5,70.7,93.6,68.7,91.2,68.7z M84,73
				c0-1.2,0.9-2.1,2.1-2.1c1.2,0,2.1,0.9,2.1,2.1c0,1.2-0.9,2.1-2.1,2.1C84.9,75.1,84,74.2,84,73z M91.2,75.2
				c-0.4,0-0.8-0.1-1.1-0.4c0.2-0.6,0.4-1.2,0.4-1.8s-0.1-1.3-0.4-1.8c0.4-0.2,0.7-0.4,1.1-0.4c1.2,0,2.1,0.9,2.1,2.1
				S92.4,75.2,91.2,75.2z"/>
			<linearGradient id="SVGID_34_" gradientUnits="userSpaceOnUse" x1="40.6975" y1="70.3205" x2="110.1293" y2="70.3205">
				<stop  offset="0" style="stop-color:#0080C8"/>
				<stop  offset="1" style="stop-color:#0E5AA1"/>
			</linearGradient>
			<path class="st220" d="M57.6,71.5h14.5c0.6,0,1.2-0.5,1.2-1.2c0-0.6-0.5-1.2-1.2-1.2H57.6c-0.6,0-1.2,0.5-1.2,1.2
				S56.9,71.5,57.6,71.5z"/>
			<linearGradient id="SVGID_35_" gradientUnits="userSpaceOnUse" x1="40.6975" y1="75.8209" x2="110.1293" y2="75.8209">
				<stop  offset="0" style="stop-color:#0080C8"/>
				<stop  offset="1" style="stop-color:#0E5AA1"/>
			</linearGradient>
			<path class="st221" d="M79,74.7H57.6c-0.6,0-1.2,0.5-1.2,1.2c0,0.7,0.5,1.2,1.2,1.2H79c0.6,0,1.2-0.5,1.2-1.2
				C80.2,75.1,79.6,74.7,79,74.7z"/>
			<linearGradient id="SVGID_36_" gradientUnits="userSpaceOnUse" x1="40.6975" y1="55.2824" x2="110.1293" y2="55.2824">
				<stop  offset="0" style="stop-color:#0080C8"/>
				<stop  offset="1" style="stop-color:#0E5AA1"/>
			</linearGradient>
			<path class="st222" d="M61.5,50.9c-0.5-0.5-1.2-0.5-1.6,0l-6.3,6.3l-2.8-2.8c-0.5-0.5-1.2-0.5-1.6,0c-0.5,0.5-0.5,1.2,0,1.6
				l3.6,3.6c0.2,0.2,0.5,0.4,0.8,0.4s0.6-0.1,0.8-0.4l7.1-7.1C61.8,52.1,61.8,51.2,61.5,50.9z"/>
		</g>
	</g>
</g>
</svg>
