<?xml version="1.0" encoding="utf-8"?>
<!-- Generator: Adobe Illustrator 22.0.1, SVG Export Plug-In . SVG Version: 6.00 Build 0)  -->
<svg version="1.1" id="Capa_1" xmlns="http://www.w3.org/2000/svg" xmlns:xlink="http://www.w3.org/1999/xlink" x="0px" y="0px"
	 viewBox="0 0 129 129" style="enable-background:new 0 0 129 129;" xml:space="preserve">
<style type="text/css">
	.st0{fill:url(#SVGID_1_);}
	.st1{opacity:0.5;}
	.st2{fill:url(#SVGID_2_);}
	.st3{fill:url(#SVGID_3_);}
	.st4{fill:#FFFFFF;}
	.st5{fill:url(#SVGID_4_);}
	.st6{fill:url(#SVGID_5_);}
	.st7{fill:url(#SVGID_6_);}
	.st8{fill:url(#SVGID_7_);}
	.st9{fill:url(#SVGID_8_);}
	.st10{fill:url(#SVGID_9_);}
	.st11{fill:url(#SVGID_10_);}
	.st12{fill:url(#SVGID_11_);}
	.st13{fill:url(#SVGID_12_);}
	.st14{fill:url(#SVGID_13_);}
	.st15{fill:url(#SVGID_14_);}
	.st16{fill:url(#SVGID_15_);}
	.st17{fill:url(#SVGID_16_);}
	.st18{fill:url(#SVGID_17_);}
	.st19{fill:url(#SVGID_18_);}
	.st20{opacity:0.1;fill:url(#SVGID_19_);enable-background:new    ;}
	.st21{opacity:0.2;fill:url(#SVGID_20_);enable-background:new    ;}
	.st22{opacity:0.1;fill:url(#SVGID_21_);}
	.st23{fill:url(#SVGID_22_);}
	.st24{opacity:0.7;fill:url(#SVGID_23_);enable-background:new    ;}
	.st25{opacity:0.7;fill:url(#SVGID_24_);enable-background:new    ;}
	.st26{opacity:0.7;fill:url(#SVGID_25_);enable-background:new    ;}
	.st27{fill:url(#SVGID_26_);}
</style>
<g>
	
		<linearGradient id="SVGID_1_" gradientUnits="userSpaceOnUse" x1="0" y1="64.5" x2="129" y2="64.5" gradientTransform="matrix(1 0 0 -1 0 129)">
		<stop  offset="0" style="stop-color:#FFFFFF;stop-opacity:0.1"/>
		<stop  offset="1" style="stop-color:#0080C8;stop-opacity:0.1"/>
	</linearGradient>
	<circle class="st0" cx="64.5" cy="64.5" r="64.5"/>
	<g class="st1">
		<linearGradient id="SVGID_2_" gradientUnits="userSpaceOnUse" x1="19.5847" y1="102.5066" x2="103.0511" y2="102.5066">
			<stop  offset="0" style="stop-color:#0080C8"/>
			<stop  offset="1" style="stop-color:#0E5AA1"/>
		</linearGradient>
		<path class="st2" d="M83.7,110.6H19.6l19.3-16.3h64.1L83.7,110.6z M21.1,110.1h62.5l18-15.2H39.1L21.1,110.1z"/>
	</g>
	<g>
		
			<linearGradient id="SVGID_3_" gradientUnits="userSpaceOnUse" x1="77.6379" y1="80.2972" x2="107.619" y2="80.2972" gradientTransform="matrix(1 0 0 -1 0 129)">
			<stop  offset="0" style="stop-color:#FFFFFF"/>
			<stop  offset="1" style="stop-color:#0080C8"/>
		</linearGradient>
		<path class="st3" d="M93.7,54.1H78.4c-0.4,0-0.7-0.3-0.7-0.7s0.3-0.7,0.7-0.7h15.3c1.8,0,2.6-0.6,2.6-3.9c0-4.5,2.4-5.4,4.4-5.4
			h6.1c0.4,0,0.7,0.3,0.7,0.7s-0.3,0.7-0.7,0.7h-6.1c-1.3,0-2.9,0.4-2.9,3.9C97.8,51.3,97.4,54.1,93.7,54.1z"/>
	</g>
	<circle class="st4" cx="107.7" cy="44" r="3.9"/>
	
		<linearGradient id="SVGID_4_" gradientUnits="userSpaceOnUse" x1="105.63" y1="85.0472" x2="109.8001" y2="85.0472" gradientTransform="matrix(1 0 0 -1 0 129)">
		<stop  offset="0" style="stop-color:#0080C8"/>
		<stop  offset="1" style="stop-color:#0E5AA1"/>
	</linearGradient>
	<circle class="st5" cx="107.7" cy="44" r="2.1"/>
	<g>
		
			<linearGradient id="SVGID_5_" gradientUnits="userSpaceOnUse" x1="1304.8167" y1="172.909" x2="1335.0676" y2="172.909" gradientTransform="matrix(-1 0 0 -1 1368.6547 191.009)">
			<stop  offset="0" style="stop-color:#FFFFFF"/>
			<stop  offset="1" style="stop-color:#0080C8"/>
		</linearGradient>
		<path class="st6" d="M63.3,23.3H47.2c-2.8,0-3.9-1.5-3.9-5.2s-1.8-4.2-3.2-4.2H34c-0.3,0-0.5-0.2-0.5-0.5s0.2-0.5,0.5-0.5h6.1
			c1.9,0,4.2,0.9,4.2,5.1c0,3.5,1,4.2,2.9,4.2h16.1c0.3,0,0.5,0.2,0.5,0.5C63.8,23.1,63.6,23.3,63.3,23.3z"/>
	</g>
	<circle class="st4" cx="33.2" cy="13.5" r="3.9"/>
	
		<linearGradient id="SVGID_6_" gradientUnits="userSpaceOnUse" x1="1333.3461" y1="177.509" x2="1337.5162" y2="177.509" gradientTransform="matrix(-1 0 0 -1 1368.6547 191.009)">
		<stop  offset="0" style="stop-color:#0080C8"/>
		<stop  offset="1" style="stop-color:#0E5AA1"/>
	</linearGradient>
	<circle class="st7" cx="33.2" cy="13.5" r="2.1"/>
	<g>
		
			<linearGradient id="SVGID_7_" gradientUnits="userSpaceOnUse" x1="-95.1252" y1="40.7968" x2="-59.8199" y2="40.7968" gradientTransform="matrix(1 0 0 1 184.5607 35.4532)">
			<stop  offset="0" style="stop-color:#FFFFFF"/>
			<stop  offset="1" style="stop-color:#0080C8"/>
		</linearGradient>
		<path class="st8" d="M124.2,81.4h-6.1c-1.9,0-4.2-0.9-4.2-5.1c0-3.5-1-4.2-2.9-4.2H89.9c-0.3,0-0.5-0.2-0.5-0.5s0.2-0.5,0.5-0.5
			h21.2c2.8,0,3.9,1.5,3.9,5.2s1.8,4.2,3.2,4.2h6.1c0.3,0,0.5,0.2,0.5,0.5S124.5,81.4,124.2,81.4z"/>
	</g>
	<circle class="st4" cx="125.1" cy="80.9" r="3.9"/>
	
		<linearGradient id="SVGID_8_" gradientUnits="userSpaceOnUse" x1="-61.5412" y1="45.4468" x2="-57.371" y2="45.4468" gradientTransform="matrix(1 0 0 1 184.5607 35.4532)">
		<stop  offset="0" style="stop-color:#0080C8"/>
		<stop  offset="1" style="stop-color:#0E5AA1"/>
	</linearGradient>
	<circle class="st9" cx="125.1" cy="80.9" r="2.1"/>
	<g>
		
			<linearGradient id="SVGID_9_" gradientUnits="userSpaceOnUse" x1="1484.1659" y1="-89.835" x2="1517.4393" y2="-89.835" gradientTransform="matrix(-1 0 0 1 1529.2134 175.285)">
			<stop  offset="0" style="stop-color:#FFFFFF"/>
			<stop  offset="1" style="stop-color:#0080C8"/>
		</linearGradient>
		<path class="st10" d="M18.6,90.8h-6.1c-0.4,0-0.7-0.3-0.7-0.7c0-0.4,0.3-0.7,0.7-0.7h6.1c1.3,0,2.9-0.4,2.9-3.9
			c0-3.4,1.8-5.4,5-5.4h17.8c0.4,0,0.7,0.3,0.7,0.7c0,0.4-0.3,0.7-0.7,0.7H26.5c-2.3,0-3.5,1.3-3.5,3.9C23,89.8,20.6,90.8,18.6,90.8
			z"/>
	</g>
	<circle class="st4" cx="11.6" cy="89.8" r="3.9"/>
	
		<linearGradient id="SVGID_10_" gradientUnits="userSpaceOnUse" x1="9.5243" y1="39.2" x2="13.6945" y2="39.2" gradientTransform="matrix(1 0 0 -1 0 129)">
		<stop  offset="0" style="stop-color:#0080C8"/>
		<stop  offset="1" style="stop-color:#0E5AA1"/>
	</linearGradient>
	<circle class="st11" cx="11.6" cy="89.8" r="2.1"/>
	<g>
		<g>
			
				<linearGradient id="SVGID_11_" gradientUnits="userSpaceOnUse" x1="17.7243" y1="78.4707" x2="49.3593" y2="78.4707" gradientTransform="matrix(1 0 0 -1 0 129)">
				<stop  offset="0" style="stop-color:#0080C8"/>
				<stop  offset="1" style="stop-color:#FFFFFF"/>
			</linearGradient>
			<path class="st12" d="M48.9,51c-0.1,0-0.1,0-0.2,0c-0.1,0-0.1-0.1-0.2-0.1c0,0-0.1-0.1-0.1-0.2c0-0.1,0-0.1,0-0.2
				c0-0.1,0-0.3,0.1-0.3c0,0,0.1-0.1,0.2-0.1c0.2-0.1,0.4,0,0.5,0.1s0.1,0.2,0.1,0.3s0,0.3-0.1,0.3C49.1,51,49,51,48.9,51z"/>
		</g>
		<g>
			
				<linearGradient id="SVGID_12_" gradientUnits="userSpaceOnUse" x1="19.3404" y1="78.4" x2="49.1895" y2="78.4" gradientTransform="matrix(1 0 0 -1 0 129)">
				<stop  offset="0" style="stop-color:#0080C8"/>
				<stop  offset="1" style="stop-color:#FFFFFF"/>
			</linearGradient>
			<path class="st13" d="M45.3,50.6c0-0.3,0.2-0.5,0.5-0.5l0,0c0.3,0,0.5,0.2,0.5,0.5l0,0c0,0.3-0.2,0.5-0.5,0.5l0,0
				C45.5,51,45.3,50.8,45.3,50.6z M42.2,50.6c0-0.3,0.2-0.5,0.5-0.5l0,0c0.3,0,0.5,0.2,0.5,0.5l0,0c0,0.3-0.2,0.5-0.5,0.5l0,0
				C42.5,51,42.2,50.8,42.2,50.6z M39.2,50.6c0-0.3,0.2-0.5,0.5-0.5l0,0c0.3,0,0.5,0.2,0.5,0.5l0,0c0,0.3-0.2,0.5-0.5,0.5l0,0
				C39.4,51,39.2,50.8,39.2,50.6z M36.1,50.6c0-0.3,0.2-0.5,0.5-0.5l0,0c0.3,0,0.5,0.2,0.5,0.5l0,0c0,0.3-0.2,0.5-0.5,0.5l0,0
				C36.3,51,36.1,50.8,36.1,50.6z M33,50.6c0-0.3,0.2-0.5,0.5-0.5l0,0c0.3,0,0.5,0.2,0.5,0.5l0,0c0,0.3-0.2,0.5-0.5,0.5l0,0
				C33.3,51,33,50.8,33,50.6z M30,50.6c0-0.3,0.2-0.5,0.5-0.5l0,0c0.3,0,0.5,0.2,0.5,0.5l0,0c0,0.3-0.2,0.5-0.5,0.5l0,0
				C30.2,51,30,50.8,30,50.6z M26.9,50.6c0-0.3,0.2-0.5,0.5-0.5l0,0c0.3,0,0.5,0.2,0.5,0.5l0,0c0,0.3-0.2,0.5-0.5,0.5l0,0
				C27.1,51,26.9,50.8,26.9,50.6z M23.8,50.6c0-0.3,0.2-0.5,0.5-0.5l0,0c0.3,0,0.5,0.2,0.5,0.5l0,0c0,0.3-0.2,0.5-0.5,0.5l0,0
				C24.1,51,23.8,50.8,23.8,50.6z M20.8,50.6c0-0.3,0.2-0.5,0.5-0.5l0,0c0.3,0,0.5,0.2,0.5,0.5l0,0c0,0.3-0.2,0.5-0.5,0.5l0,0
				C21,51,20.8,50.8,20.8,50.6z"/>
		</g>
		<g>
			
				<linearGradient id="SVGID_13_" gradientUnits="userSpaceOnUse" x1="17.7244" y1="78.4" x2="49.3594" y2="78.4" gradientTransform="matrix(1 0 0 -1 0 129)">
				<stop  offset="0" style="stop-color:#0080C8"/>
				<stop  offset="1" style="stop-color:#FFFFFF"/>
			</linearGradient>
			<path class="st14" d="M18.2,51c-0.1,0-0.1,0-0.2,0s-0.1-0.1-0.2-0.1c-0.1-0.1-0.1-0.2-0.1-0.3s0-0.3,0.1-0.3c0,0,0.1-0.1,0.2-0.1
				s0.3,0,0.4,0s0.1,0.1,0.2,0.1c0.1,0.1,0.1,0.2,0.1,0.3s0,0.3-0.1,0.3c0,0-0.1,0.1-0.2,0.1S18.3,51,18.2,51z"/>
		</g>
	</g>
	
		<linearGradient id="SVGID_14_" gradientUnits="userSpaceOnUse" x1="13.9675" y1="78.4" x2="19.7548" y2="78.4" gradientTransform="matrix(1 0 0 -1 0 129)">
		<stop  offset="0" style="stop-color:#0080C8"/>
		<stop  offset="1" style="stop-color:#0E5AA1"/>
	</linearGradient>
	<circle class="st15" cx="16.9" cy="50.6" r="2.9"/>
	<circle class="st4" cx="16.9" cy="50.6" r="1.5"/>
	<g>
		<g>
			
				<linearGradient id="SVGID_15_" gradientUnits="userSpaceOnUse" x1="110.806" y1="37.1707" x2="79.171" y2="37.1707" gradientTransform="matrix(1 0 0 -1 0 129)">
				<stop  offset="0" style="stop-color:#0080C8"/>
				<stop  offset="1" style="stop-color:#FFFFFF"/>
			</linearGradient>
			<path class="st16" d="M79.7,92.3c-0.1,0-0.3-0.1-0.4-0.1c-0.1-0.1-0.1-0.2-0.1-0.3c0-0.1,0-0.3,0.1-0.4s0.4-0.2,0.5-0.1
				c0.1,0,0.1,0.1,0.2,0.1c0.1,0.1,0.1,0.2,0.1,0.4c0,0.1-0.1,0.3-0.1,0.3C79.9,92.2,79.8,92.3,79.7,92.3z"/>
		</g>
		<g>
			
				<linearGradient id="SVGID_16_" gradientUnits="userSpaceOnUse" x1="109.1899" y1="37.2" x2="79.3408" y2="37.2" gradientTransform="matrix(1 0 0 -1 0 129)">
				<stop  offset="0" style="stop-color:#0080C8"/>
				<stop  offset="1" style="stop-color:#FFFFFF"/>
			</linearGradient>
			<path class="st17" d="M106.7,91.8c0-0.3,0.2-0.5,0.5-0.5l0,0c0.3,0,0.5,0.2,0.5,0.5l0,0c0,0.3-0.2,0.5-0.5,0.5l0,0
				C107,92.3,106.7,92.1,106.7,91.8z M103.7,91.8c0-0.3,0.2-0.5,0.5-0.5l0,0c0.3,0,0.5,0.2,0.5,0.5l0,0c0,0.3-0.2,0.5-0.5,0.5l0,0
				C103.9,92.3,103.7,92.1,103.7,91.8z M100.6,91.8c0-0.3,0.2-0.5,0.5-0.5l0,0c0.3,0,0.5,0.2,0.5,0.5l0,0c0,0.3-0.2,0.5-0.5,0.5l0,0
				C100.8,92.3,100.6,92.1,100.6,91.8z M97.5,91.8c0-0.3,0.2-0.5,0.5-0.5l0,0c0.3,0,0.5,0.2,0.5,0.5l0,0c0,0.3-0.2,0.5-0.5,0.5l0,0
				C97.8,92.3,97.5,92.1,97.5,91.8z M94.5,91.8c0-0.3,0.2-0.5,0.5-0.5l0,0c0.3,0,0.5,0.2,0.5,0.5l0,0c0,0.3-0.2,0.5-0.5,0.5l0,0
				C94.7,92.3,94.5,92.1,94.5,91.8z M91.4,91.8c0-0.3,0.2-0.5,0.5-0.5l0,0c0.3,0,0.5,0.2,0.5,0.5l0,0c0,0.3-0.2,0.5-0.5,0.5l0,0
				C91.6,92.3,91.4,92.1,91.4,91.8z M88.4,91.8c0-0.3,0.2-0.5,0.5-0.5l0,0c0.3,0,0.5,0.2,0.5,0.5l0,0c0,0.3-0.2,0.5-0.5,0.5l0,0
				C88.6,92.3,88.4,92.1,88.4,91.8z M85.3,91.8c0-0.3,0.2-0.5,0.5-0.5l0,0c0.3,0,0.5,0.2,0.5,0.5l0,0c0,0.3-0.2,0.5-0.5,0.5l0,0
				C85.5,92.3,85.3,92.1,85.3,91.8z M82.2,91.8c0-0.3,0.2-0.5,0.5-0.5l0,0c0.3,0,0.5,0.2,0.5,0.5l0,0c0,0.3-0.2,0.5-0.5,0.5l0,0
				C82.5,92.3,82.2,92.1,82.2,91.8z"/>
		</g>
		<g>
			
				<linearGradient id="SVGID_17_" gradientUnits="userSpaceOnUse" x1="110.8064" y1="37.2207" x2="79.1714" y2="37.2207" gradientTransform="matrix(1 0 0 -1 0 129)">
				<stop  offset="0" style="stop-color:#0080C8"/>
				<stop  offset="1" style="stop-color:#FFFFFF"/>
			</linearGradient>
			<path class="st18" d="M110.3,92.3c-0.1,0-0.3-0.1-0.4-0.1c0,0-0.1-0.1-0.1-0.2s0-0.1,0-0.2s0-0.1,0-0.2s0.1-0.1,0.1-0.2
				c0,0,0.1-0.1,0.2-0.1c0.2-0.1,0.4,0,0.5,0.1c0,0,0.1,0.1,0.1,0.2s0,0.1,0,0.2s0,0.1,0,0.2s-0.1,0.1-0.1,0.2
				C110.6,92.2,110.5,92.3,110.3,92.3C110.4,92.3,110.4,92.3,110.3,92.3z"/>
		</g>
	</g>
	
		<linearGradient id="SVGID_18_" gradientUnits="userSpaceOnUse" x1="1473.9554" y1="-37.3429" x2="1479.7428" y2="-37.3429" gradientTransform="matrix(-1 0 0 1 1588.5144 129.1429)">
		<stop  offset="0" style="stop-color:#0080C8"/>
		<stop  offset="1" style="stop-color:#0E5AA1"/>
	</linearGradient>
	<circle class="st19" cx="111.7" cy="91.8" r="2.9"/>
	<circle class="st4" cx="111.7" cy="91.8" r="1.5"/>
	
		<linearGradient id="SVGID_19_" gradientUnits="userSpaceOnUse" x1="27.6119" y1="29.2329" x2="102.4481" y2="29.2329" gradientTransform="matrix(1 0 0 -1 0 129)">
		<stop  offset="0" style="stop-color:#0080C8"/>
		<stop  offset="1" style="stop-color:#0E5AA1"/>
	</linearGradient>
	<polygon class="st20" points="82.3,108.1 27.6,108.1 47.7,91.4 102.4,91.4 	"/>
	
		<linearGradient id="SVGID_20_" gradientUnits="userSpaceOnUse" x1="27.6119" y1="41.1829" x2="102.4481" y2="41.1829" gradientTransform="matrix(1 0 0 -1 0 129)">
		<stop  offset="0" style="stop-color:#0080C8"/>
		<stop  offset="1" style="stop-color:#0E5AA1"/>
	</linearGradient>
	<polygon class="st21" points="82.3,96.2 27.6,96.2 47.7,79.4 102.4,79.4 	"/>
	<linearGradient id="SVGID_21_" gradientUnits="userSpaceOnUse" x1="47.8163" y1="53.4138" x2="101.3666" y2="53.4138">
		<stop  offset="0" style="stop-color:#0080C8"/>
		<stop  offset="1" style="stop-color:#0E5AA1"/>
	</linearGradient>
	<path class="st22" d="M101.3,37.2l-1.5-5.4c-0.5-2.2-3.2-3.3-7.1-3.6c-3.3-0.1-7.9,0.4-12.7,1.6c-4.9,1.3-9.1,3-12,5.1
		c-1.7,1.1-3.1,2.5-3.8,3.7c-2.9-1.1-5.5-1.9-7.7-2c-2.7-0.2-4.7,0.3-5.5,1.8l-2.8,4.9c-1.1,1.9,0,4.7,2.6,7.5
		c2.4,2.6,5.9,5.5,10.2,7.9c1.3,0.9,2.6,1.5,3.9,2c-1.2,0.4-2.3,1-3.2,1.5C60,63.2,59,64.5,59,66v5.6c0,2.2,2.2,4.1,5.9,5.3
		c3.2,1.1,7.8,1.7,12.7,1.7c5,0,9.5-0.6,12.7-1.7c3.8-1.3,5.9-3.1,5.9-5.3V66c0-1.9-1.7-3.7-4.9-4.9c-2.5-0.9-5.5-1.6-9.2-1.8l1.1-2
		c0.9-1.2,0.8-2.7-0.2-4.4c-0.4-1-1.2-2-2.2-3.1c1.3-0.3,2.7-0.5,4-1c4.7-1.2,9.1-3.1,11.9-5C100.1,41.6,101.8,39.2,101.3,37.2z"/>
	<g>
		
			<linearGradient id="SVGID_22_" gradientUnits="userSpaceOnUse" x1="33.674" y1="75.8956" x2="97.0638" y2="75.8956" gradientTransform="matrix(1 0 0 -1 0 129)">
			<stop  offset="0" style="stop-color:#0080C8"/>
			<stop  offset="1" style="stop-color:#0E5AA1"/>
		</linearGradient>
		<path class="st23" d="M95.2,27.5l1.8,6.4c0.6,2.4-1.4,5.2-5.2,7.8c-3.3,2.2-8.4,4.5-14,5.9c-1.5,0.5-3.2,0.8-4.7,1.1
			c1.1,1.3,2,2.6,2.6,3.7c1.1,2,1.3,3.8,0.3,5.2l0,0l-1.3,2.4c4.3,0.3,7.9,1.1,10.8,2.2c3.7,1.4,5.7,3.4,5.7,5.7v6.6
			c0,2.6-2.6,4.7-7,6.3c-3.8,1.3-9.2,2-15.1,2s-11.2-0.8-15.1-2c-4.5-1.4-7-3.7-7-6.3V68c0-1.8,1.1-3.3,3.2-4.5
			c1.1-0.6,2.4-1.3,3.8-1.8c-1.5-0.6-3.1-1.4-4.6-2.4l0,0C44.2,56.5,40,53,37.2,50c-3.1-3.3-4.3-6.6-3.1-8.9l3.3-5.7l0,0
			c0.9-1.8,3.3-2.4,6.5-2.2c2.6,0.1,5.6,1.1,9.1,2.4c0.8-1.4,2.4-3.1,4.5-4.3c3.4-2.4,8.4-4.5,14.2-6c5.7-1.4,11.1-2,15.1-1.9
			C91.3,23.6,94.5,25,95.2,27.5L95.2,27.5z"/>
		<path class="st4" d="M57.9,63.4c-2.7,0.6-5,1.4-6.5,2.4c-1.3,0.6-1.9,1.4-1.9,2c0,1.3,1.9,2.6,5.1,3.7c3.7,1.3,8.7,1.9,14.3,1.9
			s10.6-0.6,14.3-1.9c3.2-1.1,5.1-2.4,5.1-3.7c0-0.9-1.5-2-4-3.2c-2.8-1.1-6.9-1.9-11.5-2.2l-0.3,0.8c-1.3,2.2-4.7,2.7-9.2,1.8
			C61.6,64.7,59.8,64.3,57.9,63.4z"/>
		<path class="st4" d="M87.4,41.1l-0.9-3.7c-1.5,0.8-3.3,1.4-5.2,2.2l0.9,3.7C84.1,42.5,85.7,41.8,87.4,41.1z"/>
		<path class="st4" d="M88.8,35.9l0.9,3.7l0.5-0.3c2.7-1.8,4.3-3.4,4-4.7l-0.6-2.4c-0.8,0.9-2,2-3.4,3.1
			C89.5,35.4,89.3,35.8,88.8,35.9L88.8,35.9z"/>
		<path class="st4" d="M79.6,44.2l-0.9-3.8c-0.9,0.3-1.8,0.6-2.7,0.8l0,0c-0.9,0.3-1.8,0.5-2.7,0.6l0.9,3.8c0.9-0.3,1.8-0.5,2.7-0.8
			C77.8,44.8,78.8,44.4,79.6,44.2L79.6,44.2z"/>
		<path class="st4" d="M56,42.3l0.6,2.2c0.3,1.3,2.6,1.9,5.9,2.2H63L62.1,43c-0.5,0-0.9,0-1.3,0C58.9,43,57.5,42.8,56,42.3z"/>
		<path class="st4" d="M65.9,46.8c1.8-0.1,3.7-0.3,5.6-0.6l-1-3.7c-1.9,0.3-3.8,0.5-5.6,0.6L65.9,46.8z"/>
		<path class="st4" d="M69.5,49.1c-2.6,0.3-5.1,0.5-7.1,0.3c-4.5-0.3-7.7-1.8-8.4-4.1l-1.5-6.4c-0.1-0.3-0.1-0.6-0.1-0.8
			c-3.2-1.3-6.3-2-8.4-2.2c-2-0.1-3.4,0-4,0.8c-0.6,1.1,0.5,3.2,2.7,5.7c2.4,2.8,6.4,5.9,11.1,8.7h0.1c5,2.8,9.7,4.7,13.4,5.6
			c3.3,0.6,5.6,0.5,6.3-0.6c0.3-0.5,0.1-1.4-0.3-2.6C72.4,52.3,71.2,50.8,69.5,49.1L69.5,49.1z"/>
		<path class="st4" d="M88.5,32.9c2.8-1.8,4.3-3.4,4-4.7c-0.3-1.1-2.6-1.9-5.9-2c-3.8-0.3-8.9,0.3-14.3,1.8
			c-5.4,1.4-10,3.4-13.1,5.6c-2.8,1.9-4.3,3.7-4,4.7c0.3,1.3,2.6,1.9,5.9,2.2c3.8,0.1,8.9-0.3,14.3-1.9l0,0
			C80.7,37.1,85.3,35.2,88.5,32.9z"/>
		<path class="st4" d="M39.5,48.5l1.8-3.2c-0.3-0.5-0.6-0.8-0.8-1.1c-1.3-1.3-2.2-2.6-2.7-3.8l-1.3,2c-0.6,1.1,0.5,3.2,2.7,5.7
			L39.5,48.5z"/>
		<path class="st4" d="M43.4,47.2l-1.8,3.2c1.3,1.3,2.7,2.4,4.3,3.4l1.9-3.2C46.2,49.5,44.8,48.3,43.4,47.2z"/>
		<path class="st4" d="M50.1,52.2l-1.9,3.3c0.6,0.5,1.4,0.9,2.2,1.4h0.1c0.8,0.5,1.5,0.9,2.4,1.4l1.9-3.3c-0.8-0.3-1.4-0.8-2-1.1
			l-0.3-0.3C51.6,53.2,50.8,52.7,50.1,52.2z"/>
		<path class="st4" d="M57.3,56.1l-1.9,3.3c1.9,0.9,3.7,1.5,5.2,2l1.9-3.2C61,57.8,59.2,57.1,57.3,56.1L57.3,56.1z"/>
		<path class="st4" d="M65.3,59.2l-1.8,3.2h0.3c3.3,0.8,5.7,0.6,6.4-0.5l1.1-2c-1.3,0.1-2.8,0-4.6-0.3
			C66.2,59.3,65.7,59.2,65.3,59.2L65.3,59.2z"/>
		<path class="st4" d="M55.1,78.2v-3.7c-0.5-0.1-0.9-0.3-1.3-0.5c-1.8-0.5-3.2-1.1-4.3-1.9v2.4c0,1.3,1.9,2.6,5.1,3.4L55.1,78.2
			L55.1,78.2z"/>
		<path class="st4" d="M57.8,75.3v3.8c1.8,0.3,3.7,0.6,5.6,0.8V76C61.5,75.9,59.6,75.5,57.8,75.3z"/>
		<path class="st4" d="M66.2,76.1V80c0.8,0.1,1.8,0.1,2.7,0.1c0.9,0,1.9,0,2.7-0.1v-3.8c-0.8,0.1-1.8,0.1-2.7,0.1
			C68,76.3,67,76.3,66.2,76.1z"/>
		<path class="st4" d="M74.5,76v3.8c1.9-0.1,3.8-0.5,5.6-0.8v-3.8C78.3,75.5,76.4,75.9,74.5,76z"/>
		<path class="st4" d="M82.8,74.6v3.7l0.5-0.1c3.2-0.9,5.1-2.2,5.1-3.4v-2.4c-1.1,0.8-2.6,1.4-4.3,1.9
			C83.7,74.2,83.2,74.4,82.8,74.6z"/>
		
			<linearGradient id="SVGID_23_" gradientUnits="userSpaceOnUse" x1="49.5334" y1="61.0213" x2="88.3262" y2="61.0213" gradientTransform="matrix(1 0 0 -1 0 129)">
			<stop  offset="0" style="stop-color:#0080C8"/>
			<stop  offset="1" style="stop-color:#0E5AA1"/>
		</linearGradient>
		<path class="st24" d="M57.9,63.4c-2.7,0.6-5,1.4-6.5,2.4c-1.3,0.6-1.9,1.4-1.9,2c0,1.3,1.9,2.6,5.1,3.7c3.7,1.3,8.7,1.9,14.3,1.9
			s10.6-0.6,14.3-1.9c3.2-1.1,5.1-2.4,5.1-3.7c0-0.9-1.5-2-4-3.2c-2.8-1.1-6.9-1.9-11.5-2.2l-0.3,0.8c-1.3,2.2-4.7,2.7-9.2,1.8
			C61.6,64.7,59.8,64.3,57.9,63.4z"/>
		<path class="st4" d="M87.4,41.1l-0.9-3.7c-1.5,0.8-3.3,1.4-5.2,2.2l0.9,3.7C84.1,42.5,85.7,41.8,87.4,41.1z"/>
		<path class="st4" d="M88.8,35.9l0.9,3.7l0.5-0.3c2.7-1.8,4.3-3.4,4-4.7l-0.6-2.4c-0.8,0.9-2,2-3.4,3.1
			C89.5,35.4,89.3,35.8,88.8,35.9L88.8,35.9z"/>
		<path class="st4" d="M79.6,44.2l-0.9-3.8c-0.9,0.3-1.8,0.6-2.7,0.8l0,0c-0.9,0.3-1.8,0.5-2.7,0.6l0.9,3.8c0.9-0.3,1.8-0.5,2.7-0.8
			C77.8,44.8,78.8,44.4,79.6,44.2L79.6,44.2z"/>
		<path class="st4" d="M56,42.3l0.6,2.2c0.3,1.3,2.6,1.9,5.9,2.2H63L62.1,43c-0.5,0-0.9,0-1.3,0C58.9,43,57.5,42.8,56,42.3z"/>
		<path class="st4" d="M65.9,46.8c1.8-0.1,3.7-0.3,5.6-0.6l-1-3.7c-1.9,0.3-3.8,0.5-5.6,0.6L65.9,46.8z"/>
		
			<linearGradient id="SVGID_24_" gradientUnits="userSpaceOnUse" x1="39.6623" y1="82.4814" x2="73.5315" y2="82.4814" gradientTransform="matrix(1 0 0 -1 0 129)">
			<stop  offset="0" style="stop-color:#0080C8"/>
			<stop  offset="1" style="stop-color:#0E5AA1"/>
		</linearGradient>
		<path class="st25" d="M69.5,49.1c-2.6,0.3-5.1,0.5-7.1,0.3c-4.5-0.3-7.7-1.8-8.4-4.1l-1.5-6.4c-0.1-0.3-0.1-0.6-0.1-0.8
			c-3.2-1.3-6.3-2-8.4-2.2c-2-0.1-3.4,0-4,0.8c-0.6,1.1,0.5,3.2,2.7,5.7c2.4,2.8,6.4,5.9,11.1,8.7h0.1c5,2.8,9.7,4.7,13.4,5.6
			c3.3,0.6,5.6,0.5,6.3-0.6c0.3-0.5,0.1-1.4-0.3-2.6C72.4,52.3,71.2,50.8,69.5,49.1L69.5,49.1z"/>
		
			<linearGradient id="SVGID_25_" gradientUnits="userSpaceOnUse" x1="55.0517" y1="95.7507" x2="92.4833" y2="95.7507" gradientTransform="matrix(1 0 0 -1 0 129)">
			<stop  offset="0" style="stop-color:#0080C8"/>
			<stop  offset="1" style="stop-color:#0E5AA1"/>
		</linearGradient>
		<path class="st26" d="M88.5,32.9c2.8-1.8,4.3-3.4,4-4.7c-0.3-1.1-2.6-1.9-5.9-2c-3.8-0.3-8.9,0.3-14.3,1.8
			c-5.4,1.4-10,3.4-13.1,5.6c-2.8,1.9-4.3,3.7-4,4.7c0.3,1.3,2.6,1.9,5.9,2.2c3.8,0.1,8.9-0.3,14.3-1.9l0,0
			C80.7,37.1,85.3,35.2,88.5,32.9z"/>
		<path class="st4" d="M39.5,48.5l1.8-3.2c-0.3-0.5-0.6-0.8-0.8-1.1c-1.3-1.3-2.2-2.6-2.7-3.8l-1.3,2c-0.6,1.1,0.5,3.2,2.7,5.7
			L39.5,48.5z"/>
		<path class="st4" d="M43.4,47.2l-1.8,3.2c1.3,1.3,2.7,2.4,4.3,3.4l1.9-3.2C46.2,49.5,44.8,48.3,43.4,47.2z"/>
		<path class="st4" d="M50.1,52.2l-1.9,3.3c0.6,0.5,1.4,0.9,2.2,1.4h0.1c0.8,0.5,1.5,0.9,2.4,1.4l1.9-3.3c-0.8-0.3-1.4-0.8-2-1.1
			l-0.3-0.3C51.6,53.2,50.8,52.7,50.1,52.2z"/>
		<path class="st4" d="M57.3,56.1l-1.9,3.3c1.9,0.9,3.7,1.5,5.2,2l1.9-3.2C61,57.8,59.2,57.1,57.3,56.1L57.3,56.1z"/>
		<path class="st4" d="M65.3,59.2l-1.8,3.2h0.3c3.3,0.8,5.7,0.6,6.4-0.5l1.1-2c-1.3,0.1-2.8,0-4.6-0.3
			C66.2,59.3,65.7,59.2,65.3,59.2L65.3,59.2z"/>
		<path class="st4" d="M55.1,78.2v-3.7c-0.5-0.1-0.9-0.3-1.3-0.5c-1.8-0.5-3.2-1.1-4.3-1.9v2.4c0,1.3,1.9,2.6,5.1,3.4L55.1,78.2
			L55.1,78.2z"/>
		<path class="st4" d="M57.8,75.3v3.8c1.8,0.3,3.7,0.6,5.6,0.8V76C61.5,75.9,59.6,75.5,57.8,75.3z"/>
		<path class="st4" d="M66.2,76.1V80c0.8,0.1,1.8,0.1,2.7,0.1c0.9,0,1.9,0,2.7-0.1v-3.8c-0.8,0.1-1.8,0.1-2.7,0.1
			C68,76.3,67,76.3,66.2,76.1z"/>
		<path class="st4" d="M74.5,76v3.8c1.9-0.1,3.8-0.5,5.6-0.8v-3.8C78.3,75.5,76.4,75.9,74.5,76z"/>
		<path class="st4" d="M82.8,74.6v3.7l0.5-0.1c3.2-0.9,5.1-2.2,5.1-3.4v-2.4c-1.1,0.8-2.6,1.4-4.3,1.9
			C83.7,74.2,83.2,74.4,82.8,74.6z"/>
	</g>
	<g class="st1">
		<linearGradient id="SVGID_26_" gradientUnits="userSpaceOnUse" x1="19.5847" y1="91.0528" x2="103.0511" y2="91.0528">
			<stop  offset="0" style="stop-color:#0080C8"/>
			<stop  offset="1" style="stop-color:#0E5AA1"/>
		</linearGradient>
		<path class="st27" d="M83.7,99.2H19.6l19.3-16.3h64.1L83.7,99.2z M21.1,98.6h62.5l18-15.2H39.1L21.1,98.6z"/>
	</g>
</g>
</svg>
